<svg width="620" height="204" viewBox="0 0 620 204" fill="none" xmlns="http://www.w3.org/2000/svg">
<mask id="mask0_1746_2986" style="mask-type:alpha" maskUnits="userSpaceOnUse" x="0" y="20" width="600" height="183">
<rect y="20" width="600" height="183" rx="10" fill="white"/>
</mask>
<g mask="url(#mask0_1746_2986)">
<path d="M523.089 53.5946C521.306 53.5946 519.865 52.136 519.865 50.3646V-38.9399C519.865 -40.7349 521.3 -42.1698 523.089 -42.1698C524.878 -42.1698 526.301 -40.7349 526.301 -38.9399V50.3646C526.301 52.142 524.866 53.5946 523.089 53.5946Z" fill="#498BCA" fill-opacity="0.2"/>
<path d="M523.089 40.3088C522.711 40.3088 522.362 40.108 522.15 39.7714C521.849 39.2518 522.032 38.5964 522.551 38.2952L651.979 -36.4243C652.487 -36.7255 653.154 -36.5424 653.443 -36.0228C653.733 -35.5032 653.562 -34.8477 653.054 -34.5643L523.626 40.173C523.449 40.2733 523.266 40.3147 523.089 40.3147V40.3088Z" fill="#498BCA" fill-opacity="0.2"/>
<path d="M523.089 31.9891C522.711 31.9891 522.362 31.7883 522.15 31.4517C521.849 30.9321 522.032 30.2767 522.551 29.9755L651.979 -44.7441C652.487 -45.0452 653.154 -44.8622 653.443 -44.3425C653.733 -43.8465 653.562 -43.1852 653.054 -42.884L523.626 31.8533C523.449 31.9537 523.266 31.995 523.089 31.995V31.9891Z" fill="#498BCA" fill-opacity="0.2"/>
<path d="M523.089 23.6693C522.711 23.6693 522.362 23.4685 522.15 23.132C521.849 22.6123 522.032 21.9569 522.551 21.6558L651.979 -53.0638C652.487 -53.365 653.154 -53.1819 653.443 -52.6623C653.733 -52.1663 653.562 -51.505 653.054 -51.2038L523.626 23.5335C523.449 23.6339 523.266 23.6752 523.089 23.6752V23.6693Z" fill="#498BCA" fill-opacity="0.2"/>
<path d="M523.088 40.3088C522.899 40.3088 522.716 40.2674 522.551 40.167L393.123 -34.5702C392.603 -34.8478 392.432 -35.5091 392.721 -36.0287C393.023 -36.5484 393.678 -36.7255 394.198 -36.4303L523.625 38.2893C524.133 38.5905 524.316 39.2459 524.003 39.7655C523.814 40.1021 523.454 40.3029 523.088 40.3029V40.3088Z" fill="#498BCA" fill-opacity="0.2"/>
<path d="M523.088 31.989C522.899 31.989 522.716 31.9477 522.551 31.8473L393.123 -42.89C392.603 -43.1911 392.432 -43.8466 392.721 -44.3485C393.023 -44.8681 393.678 -45.0453 394.198 -44.75L523.625 29.9696C524.133 30.2707 524.316 30.9262 524.003 31.4458C523.814 31.7823 523.454 31.9831 523.088 31.9831V31.989Z" fill="#498BCA" fill-opacity="0.2"/>
<path d="M523.088 23.6692C522.899 23.6692 522.716 23.6279 522.551 23.5275L393.123 -51.2098C392.603 -51.5109 392.432 -52.1663 392.721 -52.6683C393.023 -53.1879 393.678 -53.365 394.198 -53.0698L523.625 21.6498C524.133 21.9509 524.316 22.6064 524.003 23.126C523.814 23.4685 523.454 23.6634 523.088 23.6634V23.6692Z" fill="#498BCA" fill-opacity="0.2"/>
<path d="M523.089 203.034C521.305 203.034 519.865 201.599 519.865 199.821V50.3645C519.865 48.5872 521.299 47.1523 523.089 47.1523C524.878 47.1523 526.301 48.5872 526.301 50.3645V199.821C526.301 201.599 524.866 203.034 523.089 203.034Z" fill="#498BCA" fill-opacity="0.2"/>
<path d="M523.088 53.5946C521.972 53.5946 520.892 53.0158 520.295 51.9766C519.41 50.4413 519.935 48.4632 521.47 47.5657L650.898 -27.1539C652.445 -28.0514 654.412 -27.5141 655.297 -25.9788C656.195 -24.4436 655.663 -22.4654 654.122 -21.5679L524.694 53.1517C524.187 53.4528 523.637 53.5886 523.088 53.5886V53.5946Z" fill="#498BCA" fill-opacity="0.2"/>
<path d="M523.088 53.5946C522.527 53.5946 521.99 53.4528 521.47 53.1576L392.042 -21.562C390.507 -22.4595 389.976 -24.4376 390.867 -25.9729C391.753 -27.5081 393.719 -28.0455 395.278 -27.1479L524.694 47.5716C526.241 48.4692 526.761 50.4473 525.869 51.9825C525.279 53.0218 524.192 53.6004 523.088 53.6004V53.5946Z" fill="#498BCA" fill-opacity="0.2"/>
<path d="M369.321 139.628C369.044 139.628 368.76 139.468 368.625 139.209C368.406 138.831 368.536 138.329 368.914 138.11L429.556 103.095C429.946 102.876 430.436 103.018 430.655 103.396C430.885 103.797 430.755 104.276 430.365 104.494L369.723 139.51C369.605 139.592 369.463 139.628 369.321 139.628Z" fill="#498BCA" fill-opacity="0.2"/>
<path d="M430.194 176.356C429.816 176.356 429.456 176.255 429.119 176.078L368.146 140.886C367.479 140.484 367.072 139.787 367.072 139.008V68.5987C367.072 67.8429 367.479 67.1225 368.146 66.7446C368.808 66.3431 369.622 66.3431 370.29 66.7446L431.263 101.937C431.93 102.315 432.349 103.036 432.349 103.791V174.201C432.349 174.98 431.93 175.694 431.263 176.078C430.932 176.255 430.566 176.356 430.194 176.356ZM371.358 137.768L428.039 170.486V105.026L371.358 72.307V137.768Z" fill="#498BCA" fill-opacity="0.2"/>
<path d="M373.738 137.053C373.289 137.053 372.929 136.693 372.929 136.256V71.5333C372.929 71.0727 373.289 70.7126 373.738 70.7126C374.186 70.7126 374.547 71.0727 374.547 71.5333V136.256C374.547 136.693 374.186 137.053 373.738 137.053Z" fill="#498BCA" fill-opacity="0.2"/>
<path d="M378.262 134.461C377.825 134.461 377.464 134.101 377.464 133.646V74.1079C377.464 73.6709 377.825 73.3107 378.262 73.3107C378.698 73.3107 379.082 73.6709 379.082 74.1079V133.646C379.082 134.107 378.722 134.461 378.262 134.461Z" fill="#498BCA" fill-opacity="0.2"/>
<path d="M382.79 131.845C382.341 131.845 381.969 131.485 381.969 131.048V76.4226C381.969 75.9856 382.329 75.6255 382.778 75.6255C383.227 75.6255 383.587 75.9856 383.587 76.4226V131.048C383.587 131.485 383.227 131.845 382.79 131.845Z" fill="#498BCA" fill-opacity="0.2"/>
<path d="M387.295 129.235C386.775 129.235 386.498 128.875 386.498 128.438L386.616 79.1152C386.616 78.6782 386.953 78.318 387.425 78.318C387.897 78.318 388.234 78.6782 388.234 79.1152L388.092 128.438C388.092 128.875 387.732 129.235 387.295 129.235Z" fill="#498BCA" fill-opacity="0.2"/>
<path d="M391.824 126.637C391.375 126.637 391.009 126.277 391.009 125.822V82.0854C391.009 81.6485 391.375 81.2882 391.824 81.2882C392.273 81.2882 392.621 81.6485 392.621 82.0854V125.822C392.621 126.283 392.261 126.637 391.824 126.637Z" fill="#498BCA" fill-opacity="0.2"/>
<path d="M396.335 124.004C395.898 124.004 395.538 123.643 395.538 123.206V84.2583C395.538 83.8214 395.898 83.4612 396.335 83.4612C396.772 83.4612 397.144 83.8214 397.144 84.2583L397.156 123.206C397.156 123.643 396.79 124.004 396.335 124.004Z" fill="#498BCA" fill-opacity="0.2"/>
<path d="M400.865 121.411C400.416 121.411 400.044 121.051 400.044 120.591V87.4882C400.044 87.0276 400.41 86.6674 400.865 86.6674C401.319 86.6674 401.662 87.0276 401.662 87.4882V120.591C401.662 121.051 401.302 121.411 400.865 121.411Z" fill="#498BCA" fill-opacity="0.2"/>
<path d="M405.376 118.795C404.939 118.795 404.579 118.435 404.579 117.998V89.8441C404.579 89.4072 404.939 89.0234 405.376 89.0234C405.813 89.0234 406.185 89.4013 406.185 89.8441V117.998C406.185 118.435 405.825 118.795 405.376 118.795Z" fill="#498BCA" fill-opacity="0.2"/>
<path d="M409.905 116.203C409.457 116.203 409.085 115.825 409.085 115.388V92.2062C409.085 91.7692 409.457 91.409 409.905 91.409C410.354 91.409 410.703 91.7692 410.703 92.2062V115.388C410.703 115.825 410.342 116.203 409.905 116.203Z" fill="#498BCA" fill-opacity="0.2"/>
<path d="M414.411 113.587C413.974 113.587 413.614 113.227 413.614 112.767V94.6919C413.614 94.2549 413.974 93.8947 414.411 93.8947C414.848 93.8947 415.231 94.2549 415.231 94.6919V112.767C415.231 113.227 414.865 113.587 414.411 113.587Z" fill="#498BCA" fill-opacity="0.2"/>
<path d="M418.94 110.978C418.491 110.978 418.119 110.617 418.119 110.163V97.3138C418.119 96.8768 418.485 96.5166 418.94 96.5166C419.395 96.5166 419.737 96.8768 419.737 97.3138V110.163C419.737 110.623 419.377 110.978 418.94 110.978Z" fill="#498BCA" fill-opacity="0.2"/>
<path d="M423.451 108.362C423.014 108.362 422.654 108.001 422.654 107.564V100.302C422.654 99.8646 423.002 99.5044 423.451 99.5044C423.888 99.5044 424.248 99.8646 424.248 100.302L424.26 107.564C424.26 108.001 423.912 108.362 423.451 108.362Z" fill="#498BCA" fill-opacity="0.2"/>
<path d="M429.793 169.435C429.663 169.435 429.521 169.394 429.391 169.317L373.325 136.953C372.947 136.734 372.817 136.232 373.047 135.855C373.254 135.453 373.756 135.335 374.146 135.553L430.2 167.918C430.59 168.16 430.72 168.638 430.489 169.016C430.348 169.276 430.07 169.435 429.793 169.435Z" fill="#498BCA" fill-opacity="0.2"/>
<path d="M429.822 164.227C429.692 164.227 429.55 164.186 429.42 164.127L377.853 134.337C377.475 134.119 377.334 133.64 377.552 133.239C377.783 132.861 378.273 132.719 378.662 132.938L430.229 162.727C430.607 162.946 430.749 163.448 430.518 163.826C430.371 164.086 430.099 164.227 429.822 164.227Z" fill="#498BCA" fill-opacity="0.2"/>
<path d="M430.076 159.143C429.934 159.143 429.799 159.126 429.675 159.043L382.377 131.727C381.987 131.509 381.869 131.03 382.088 130.629C382.306 130.251 382.796 130.109 383.186 130.351L430.472 157.643C430.85 157.862 430.991 158.364 430.773 158.742C430.614 159.002 430.354 159.143 430.076 159.143Z" fill="#498BCA" fill-opacity="0.2"/>
<path d="M430.076 153.776C429.934 153.776 429.798 153.758 429.674 153.675L386.9 129.135C386.522 128.916 386.38 128.414 386.599 128.037C386.817 127.659 387.319 127.517 387.697 127.735L430.472 152.276C430.849 152.494 430.991 152.996 430.773 153.374C430.625 153.634 430.353 153.776 430.076 153.776Z" fill="#498BCA" fill-opacity="0.2"/>
<path d="M429.692 148.485C429.551 148.485 429.415 148.467 429.285 148.385L391.417 126.519C391.028 126.301 390.91 125.799 391.128 125.421C391.346 125.043 391.837 124.901 392.226 125.12L430.094 146.985C430.472 147.204 430.614 147.706 430.395 148.084C430.247 148.343 429.976 148.485 429.698 148.485H429.692Z" fill="#498BCA" fill-opacity="0.2"/>
<path d="M430.076 143.495C429.934 143.495 429.799 143.454 429.675 143.377L395.934 123.903C395.557 123.685 395.415 123.183 395.633 122.805C395.864 122.427 396.354 122.285 396.743 122.504L430.472 141.978C430.85 142.196 430.991 142.698 430.773 143.094C430.613 143.336 430.354 143.495 430.076 143.495Z" fill="#498BCA" fill-opacity="0.2"/>
<path d="M429.533 137.968C429.391 137.968 429.255 137.927 429.131 137.85L400.451 121.293C400.062 121.075 399.944 120.573 400.162 120.195C400.381 119.817 400.871 119.675 401.26 119.894L429.928 136.451C430.318 136.669 430.448 137.171 430.229 137.567C430.082 137.809 429.81 137.968 429.533 137.968Z" fill="#498BCA" fill-opacity="0.2"/>
<path d="M429.745 132.861C429.616 132.861 429.474 132.843 429.344 132.76L404.975 118.695C404.597 118.453 404.455 117.975 404.674 117.579C404.892 117.201 405.394 117.059 405.772 117.301L430.153 131.367C430.531 131.585 430.673 132.087 430.454 132.465C430.295 132.725 430.035 132.867 429.745 132.867V132.861Z" fill="#498BCA" fill-opacity="0.2"/>
<path d="M429.975 127.777C429.833 127.777 429.698 127.735 429.574 127.676L409.503 116.085C409.102 115.867 408.972 115.365 409.202 114.987C409.42 114.609 409.922 114.467 410.3 114.686L430.371 126.277C430.749 126.495 430.89 126.997 430.672 127.375C430.512 127.635 430.253 127.777 429.975 127.777Z" fill="#498BCA" fill-opacity="0.2"/>
<path d="M430.076 122.628C429.934 122.628 429.798 122.586 429.674 122.51L414.015 113.469C413.637 113.251 413.495 112.749 413.725 112.371C413.932 111.993 414.434 111.851 414.824 112.07L430.477 121.11C430.855 121.352 430.997 121.831 430.778 122.208C430.619 122.468 430.359 122.628 430.082 122.628H430.076Z" fill="#498BCA" fill-opacity="0.2"/>
<path d="M430.076 117.402C429.934 117.402 429.798 117.361 429.674 117.302L418.532 110.86C418.142 110.641 418.024 110.163 418.243 109.761C418.461 109.383 418.963 109.242 419.341 109.46L430.471 115.902C430.849 116.121 430.991 116.623 430.773 117.001C430.613 117.26 430.353 117.402 430.076 117.402Z" fill="#498BCA" fill-opacity="0.2"/>
<path d="M429.733 111.993C429.592 111.993 429.456 111.952 429.332 111.875L423.049 108.261C422.671 108.019 422.53 107.541 422.76 107.145C422.978 106.767 423.468 106.626 423.858 106.868L430.135 110.482C430.525 110.724 430.655 111.202 430.436 111.58C430.289 111.857 430.017 111.999 429.739 111.999L429.733 111.993Z" fill="#498BCA" fill-opacity="0.2"/>
<path d="M443.22 198.847H443.178C442.8 198.847 442.44 198.764 442.098 198.57L355.155 148.367C354.488 147.989 354.081 147.269 354.081 146.513V46.113C354.081 45.3336 354.5 44.6368 355.155 44.2353C355.811 43.8574 356.643 43.8574 357.311 44.2353L444.259 94.4322C444.92 94.8337 445.328 95.5305 445.328 96.3099V196.267C445.357 196.408 445.375 196.544 445.375 196.704C445.375 197.879 444.407 198.841 443.22 198.841V198.847ZM358.367 145.273L441.029 192.978V97.5499L358.379 49.8213L358.367 145.273Z" fill="#498BCA" fill-opacity="0.2"/>
<path d="M443.185 198.847C442.446 198.847 441.726 198.469 441.33 197.79C440.734 196.751 441.088 195.434 442.11 194.856L500.709 161.015C501.725 160.419 503.042 160.773 503.644 161.812C504.234 162.828 503.886 164.145 502.859 164.747L444.271 198.564C443.934 198.764 443.551 198.841 443.196 198.841L443.185 198.847Z" fill="#498BCA" fill-opacity="0.2"/>
<path d="M443.184 98.4475C442.434 98.4475 441.72 98.0696 441.318 97.3728C440.728 96.3572 441.07 95.0404 442.103 94.4381L500.691 60.6212C501.718 60.0248 503.035 60.3791 503.626 61.4007C504.216 62.4399 503.874 63.7567 502.84 64.3531L444.259 98.17C443.91 98.3708 443.538 98.4475 443.184 98.4475Z" fill="#498BCA" fill-opacity="0.2"/>
<path d="M356.229 48.2506C355.491 48.2506 354.771 47.8727 354.375 47.1701C353.779 46.1544 354.127 44.8376 355.155 44.2353L413.754 10.4184C414.77 9.82206 416.086 10.1764 416.689 11.2156C417.279 12.2312 416.931 13.548 415.897 14.1503L357.31 47.9672C356.973 48.168 356.589 48.2447 356.235 48.2447L356.229 48.2506Z" fill="#498BCA" fill-opacity="0.2"/>
<path d="M523.012 202.892C522.474 202.892 521.913 202.75 521.394 202.455L480.532 178.871L444.796 199.503C443.798 200.064 442.564 200.064 441.566 199.503L354.618 149.306C353.62 148.727 353 147.67 353 146.513L353.012 46.1131C353.012 44.9558 353.62 43.8988 354.618 43.3201L390.36 22.671V-24.5144C390.36 -26.2918 391.806 -27.7267 393.584 -27.7267C395.361 -27.7267 396.796 -26.2918 396.796 -24.5144V24.5251C396.796 25.6824 396.2 26.7394 395.202 27.3181L359.46 47.9672L359.448 144.653L443.184 192.978L478.926 172.346C479.912 171.768 481.152 171.768 482.15 172.346L524.629 196.869C526.165 197.767 526.696 199.745 525.805 201.28C525.208 202.319 524.122 202.898 523.012 202.898V202.892Z" fill="#498BCA" fill-opacity="0.2"/>
<path d="M501.772 165.024C500.585 165.024 499.629 164.068 499.629 162.887L499.617 63.7094L413.755 14.1503C412.715 13.5539 412.367 12.2371 412.963 11.2156C413.554 10.1764 414.871 9.81616 415.898 10.4184L502.841 60.6153C503.508 60.9932 503.915 61.7136 503.915 62.4694V162.887C503.915 164.062 502.959 165.024 501.772 165.024Z" fill="#498BCA" fill-opacity="0.2"/>
<path d="M602.815 98.7485C602.455 98.7485 602.089 98.6482 601.746 98.471L543.159 64.6305C542.143 64.0518 541.783 62.735 542.379 61.6958C542.958 60.6802 544.275 60.32 545.314 60.9164L603.896 94.7333C604.935 95.3297 605.272 96.6464 604.681 97.6679C604.28 98.3647 603.565 98.7426 602.815 98.7426V98.7485Z" fill="#498BCA" fill-opacity="0.2"/>
<path d="M602.815 199.142C602.455 199.142 602.089 199.042 601.747 198.865L543.159 165.024C542.132 164.446 541.783 163.129 542.374 162.113C542.964 161.074 544.281 160.714 545.308 161.316L603.896 195.133C604.935 195.729 605.272 197.046 604.681 198.068C604.28 198.764 603.565 199.148 602.815 199.148V199.142Z" fill="#498BCA" fill-opacity="0.2"/>
<path d="M522.989 203.175C521.89 203.175 520.804 202.597 520.196 201.581C519.316 200.022 519.835 198.068 521.383 197.17L563.862 172.648C564.848 172.069 566.088 172.069 567.086 172.648L602.822 193.279L686.558 144.936V48.2684L650.822 27.6192C649.812 27.0406 649.204 25.9836 649.204 24.8263V-24.2133C649.204 -25.9906 650.639 -27.4255 652.416 -27.4255C654.194 -27.4255 655.646 -25.9906 655.646 -24.2133V22.9721L691.382 43.6213C692.38 44.1823 693 45.257 693 46.3966V146.796C693 147.954 692.38 149.028 691.394 149.589L604.434 199.786C603.436 200.365 602.208 200.365 601.21 199.804L565.468 179.155L524.607 202.756C524.099 203.034 523.55 203.175 522.989 203.175Z" fill="#498BCA" fill-opacity="0.2"/>
<path d="M544.228 165.326C543.041 165.326 542.084 164.369 542.084 163.17L542.096 62.7707C542.096 62.0149 542.503 61.2945 543.165 60.9166L630.113 10.7197C631.129 10.1233 632.446 10.4776 633.048 11.4991C633.644 12.5384 633.29 13.8552 632.268 14.4338L546.383 64.0166V163.176C546.383 164.375 545.414 165.332 544.228 165.332V165.326Z" fill="#498BCA" fill-opacity="0.2"/>
</g>
</svg>
