<svg width="620" height="203" viewBox="0 0 620 203" fill="none" xmlns="http://www.w3.org/2000/svg">
<mask id="mask0_1746_2692" style="mask-type:alpha" maskUnits="userSpaceOnUse" x="0" y="20" width="600" height="183">
<rect y="20" width="600" height="183" rx="10" fill="white"/>
</mask>
<g mask="url(#mask0_1746_2692)">
<path d="M399.671 98.8169C399.314 98.8169 398.964 98.7204 398.649 98.5383L316.52 51.1192C315.542 50.5514 315.206 49.3087 315.774 48.3196C316.342 47.3554 317.588 47.0162 318.567 47.5732L399.674 94.4031L480.782 47.5732C481.761 47.0197 483.007 47.3554 483.575 48.3196C484.135 49.3087 483.803 50.5514 482.828 51.1192L400.696 98.5383C400.381 98.7204 400.024 98.8169 399.674 98.8169H399.671Z" fill="#00A499" fill-opacity="0.2"/>
<path d="M399.67 80.2335C399.434 80.2335 399.198 80.1728 398.988 80.0514L316.855 32.6359C316.205 32.2609 315.987 31.4289 316.359 30.779C316.734 30.1291 317.566 29.8969 318.216 30.2826L399.666 77.3053L481.113 30.2826C481.76 29.8969 482.599 30.1255 482.977 30.779C483.352 31.4289 483.127 32.2645 482.477 32.6359L400.348 80.055C400.138 80.1764 399.902 80.2371 399.666 80.2371L399.67 80.2335Z" fill="#00A499" fill-opacity="0.2"/>
<path d="M399.667 84.1434C399.56 84.1434 399.439 84.1183 399.328 84.0469L317.202 36.6385C316.877 36.4457 316.763 36.0351 316.956 35.7101C317.142 35.3851 317.559 35.2637 317.884 35.4566L400.017 82.8756C400.342 83.0578 400.453 83.4791 400.26 83.8041C400.138 84.0219 399.91 84.1434 399.667 84.1434Z" fill="#00A499" fill-opacity="0.2"/>
<path d="M399.667 88.1146C399.56 88.1146 399.438 88.0896 399.328 88.0289L317.202 40.6098C316.877 40.4169 316.763 40.0063 316.956 39.6813C317.141 39.3421 317.559 39.2349 317.884 39.4278L400.017 86.8469C400.342 87.029 400.453 87.4503 400.26 87.7753C400.138 87.9931 399.91 88.1146 399.667 88.1146Z" fill="#00A499" fill-opacity="0.2"/>
<path d="M399.667 92.0819C399.56 92.0819 399.438 92.0569 399.328 91.9962L317.202 44.5807C316.877 44.3879 316.763 43.9772 316.956 43.6522C317.141 43.3273 317.559 43.2059 317.884 43.3987L400.017 90.8178C400.342 91.0106 400.453 91.4213 400.26 91.7462C400.138 91.9641 399.91 92.0855 399.667 92.0855V92.0819Z" fill="#00A499" fill-opacity="0.2"/>
<path d="M481.8 33.5034C481.45 33.5034 481.1 33.4177 480.779 33.2249L399.671 -13.6014L318.563 33.2249C317.585 33.7927 316.338 33.4534 315.77 32.475C315.203 31.4965 315.542 30.2538 316.517 29.686L398.653 -17.7295C399.282 -18.0902 400.064 -18.0902 400.692 -17.7295L482.825 29.6896C483.803 30.2574 484.135 31.5001 483.571 32.4785C483.185 33.1285 482.496 33.5034 481.796 33.5034H481.8Z" fill="#00A499" fill-opacity="0.2"/>
<path d="M317.545 51.3976C316.41 51.3976 315.496 50.4799 315.496 49.3479V31.4537C315.496 30.3324 316.413 29.4147 317.545 29.4147C318.677 29.4147 319.584 30.3324 319.584 31.4537V49.3479C319.584 50.4835 318.667 51.3976 317.545 51.3976Z" fill="#00A499" fill-opacity="0.2"/>
<path d="M399.671 98.1277C398.917 98.1277 398.307 97.5135 398.307 96.7636V78.8694C398.307 78.1195 398.917 77.5053 399.671 77.5053C400.424 77.5053 401.028 78.1195 401.028 78.8694V96.7636C401.028 97.5135 400.424 98.1277 399.671 98.1277Z" fill="#00A499" fill-opacity="0.2"/>
<path d="M481.799 51.3976C480.67 51.3976 479.76 50.4799 479.76 49.3479V31.4537C479.76 30.3324 480.67 29.4147 481.799 29.4147C482.927 29.4147 483.845 30.3324 483.845 31.4537V49.3479C483.845 50.4835 482.934 51.3976 481.799 51.3976Z" fill="#00A499" fill-opacity="0.2"/>
<path d="M438.989 38.7274C438.868 38.7274 438.761 38.7024 438.65 38.6417L389.246 10.1166C388.921 9.9238 388.81 9.51314 388.999 9.18818C389.181 8.86322 389.603 8.74181 389.928 8.93464L439.325 37.4597C439.65 37.6525 439.764 38.0632 439.579 38.3881C439.45 38.606 439.218 38.7274 438.986 38.7274H438.989Z" fill="#00A499" fill-opacity="0.2"/>
<path d="M446.396 34.432C446.275 34.432 446.153 34.407 446.053 34.3463L396.656 5.82129C396.331 5.62846 396.217 5.21779 396.41 4.89283C396.592 4.56787 397.013 4.44646 397.338 4.63929L446.736 33.1643C447.06 33.3572 447.171 33.7678 446.989 34.0928C446.857 34.3106 446.628 34.432 446.396 34.432Z" fill="#00A499" fill-opacity="0.2"/>
<path d="M442.693 36.5781C442.572 36.5781 442.457 36.5531 442.354 36.4924L392.949 7.96735C392.624 7.77451 392.51 7.36385 392.703 7.03889C392.885 6.71393 393.306 6.59252 393.631 6.78535L443.029 35.3104C443.354 35.5032 443.468 35.9139 443.282 36.2388C443.154 36.4567 442.922 36.5781 442.689 36.5781H442.693Z" fill="#00A499" fill-opacity="0.2"/>
<path d="M435.284 40.8738C435.17 40.8738 435.055 40.8489 434.945 40.7881L385.54 12.2631C385.219 12.0703 385.104 11.6596 385.294 11.3347C385.487 11.0097 385.897 10.8883 386.222 11.0811L435.627 39.6062C435.952 39.7883 436.066 40.2096 435.873 40.5346C435.748 40.7524 435.516 40.8738 435.28 40.8738H435.284Z" fill="#00A499" fill-opacity="0.2"/>
<path d="M431.581 43.0236C431.466 43.0236 431.352 42.9986 431.241 42.9272L381.844 14.4164C381.519 14.2236 381.405 13.8129 381.59 13.488C381.783 13.163 382.194 13.0416 382.519 13.2344L431.923 41.7595C432.248 41.9416 432.359 42.363 432.17 42.6879C432.045 42.9058 431.82 43.0272 431.577 43.0272L431.581 43.0236Z" fill="#00A499" fill-opacity="0.2"/>
<path d="M427.878 45.1696C427.763 45.1696 427.649 45.1446 427.538 45.0839L378.141 16.5588C377.816 16.366 377.702 15.9553 377.887 15.6304C378.08 15.3054 378.491 15.184 378.816 15.3768L428.22 43.9019C428.545 44.0947 428.66 44.5054 428.467 44.8303C428.342 45.0482 428.11 45.1696 427.874 45.1696H427.878Z" fill="#00A499" fill-opacity="0.2"/>
<path d="M424.171 47.3195C424.064 47.3195 423.942 47.2945 423.832 47.2231L374.434 18.7123C374.109 18.5195 373.999 18.1088 374.188 17.7839C374.374 17.4589 374.791 17.3375 375.116 17.5303L424.514 46.0554C424.839 46.2375 424.953 46.6589 424.76 46.9838C424.639 47.2017 424.41 47.3231 424.167 47.3231L424.171 47.3195Z" fill="#00A499" fill-opacity="0.2"/>
<path d="M420.468 49.4658C420.361 49.4658 420.239 49.4408 420.129 49.3694L370.731 20.8586C370.406 20.6658 370.296 20.2551 370.478 19.9302C370.671 19.6052 371.088 19.4838 371.413 19.6766L420.818 48.2017C421.139 48.3838 421.254 48.8052 421.064 49.1301C420.939 49.348 420.707 49.4694 420.468 49.4694V49.4658Z" fill="#00A499" fill-opacity="0.2"/>
<path d="M416.764 51.6157C416.657 51.6157 416.536 51.5907 416.425 51.5193L367.028 23.0085C366.703 22.8157 366.592 22.405 366.781 22.0801C366.967 21.7551 367.385 21.6337 367.71 21.8265L417.114 50.3516C417.439 50.5337 417.55 50.9551 417.361 51.28C417.232 51.4979 417.003 51.6193 416.764 51.6193V51.6157Z" fill="#00A499" fill-opacity="0.2"/>
<path d="M413.064 53.7615C412.95 53.7615 412.829 53.7365 412.722 53.6758L363.324 25.1508C362.999 24.9579 362.888 24.5473 363.078 24.2223C363.263 23.8973 363.688 23.7759 364.013 23.9688L413.411 52.4938C413.736 52.6759 413.846 53.0973 413.657 53.4222C413.532 53.6401 413.3 53.7615 413.064 53.7615Z" fill="#00A499" fill-opacity="0.2"/>
<path d="M409.365 55.911C409.244 55.911 409.123 55.8861 409.023 55.8146L359.625 27.3039C359.293 27.1111 359.186 26.7004 359.379 26.3754C359.561 26.0505 359.982 25.9291 360.307 26.1219L409.705 54.6469C410.03 54.829 410.14 55.2504 409.951 55.5754C409.826 55.7932 409.594 55.9146 409.365 55.9146V55.911Z" fill="#00A499" fill-opacity="0.2"/>
<path d="M405.663 58.0572C405.541 58.0572 405.427 58.0322 405.324 57.9715L355.919 29.4465C355.594 29.2536 355.48 28.843 355.673 28.518C355.855 28.1931 356.276 28.0716 356.601 28.2645L405.998 56.7895C406.323 56.9716 406.434 57.393 406.252 57.718C406.12 57.9358 405.891 58.0572 405.659 58.0572H405.663Z" fill="#00A499" fill-opacity="0.2"/>
<path d="M401.96 60.2037C401.838 60.2037 401.731 60.1787 401.621 60.118L352.216 31.593C351.891 31.4001 351.777 30.9895 351.97 30.6645C352.155 30.3395 352.573 30.2181 352.898 30.411L402.296 58.936C402.62 59.1181 402.742 59.5395 402.549 59.8644C402.424 60.0823 402.192 60.2037 401.956 60.2037H401.96Z" fill="#00A499" fill-opacity="0.2"/>
<path d="M399.671 193.644C398.543 193.644 397.625 192.726 397.625 191.605V97.949L316.521 51.1191C315.542 50.5513 315.206 49.3086 315.774 48.3301C316.342 47.3517 317.588 47.016 318.567 47.5838L400.696 94.9922C401.328 95.3529 401.721 96.0421 401.721 96.767V191.605C401.721 192.726 400.803 193.644 399.675 193.644H399.671Z" fill="#00A499" fill-opacity="0.2"/>
<path d="M384.173 201.907C383.423 201.907 382.816 201.293 382.816 200.543V106.501L301.365 59.468C300.716 59.0931 300.498 58.261 300.869 57.6111C301.244 56.9612 302.076 56.7291 302.726 57.1183L384.859 104.537C385.28 104.78 385.534 105.227 385.534 105.719V200.547C385.534 201.293 384.93 201.911 384.169 201.911L384.173 201.907Z" fill="#00A499" fill-opacity="0.2"/>
<path d="M388.154 198.929C387.769 198.929 387.465 198.629 387.465 198.254V103.416C387.465 103.041 387.779 102.741 388.154 102.741C388.529 102.741 388.829 103.041 388.829 103.416V198.254C388.829 198.629 388.529 198.929 388.154 198.929Z" fill="#00A499" fill-opacity="0.2"/>
<path d="M391.589 196.951C391.211 196.951 390.907 196.651 390.907 196.276V101.438C390.907 101.063 391.221 100.749 391.596 100.749C391.971 100.749 392.271 101.063 392.271 101.438V196.276C392.271 196.651 391.971 196.951 391.589 196.951Z" fill="#00A499" fill-opacity="0.2"/>
<path d="M395.032 194.958C394.654 194.958 394.343 194.658 394.343 194.283V99.4451C394.343 99.0701 394.65 98.7702 395.032 98.7702C395.414 98.7702 395.707 99.0701 395.707 99.4451V194.283C395.707 194.658 395.407 194.958 395.032 194.958Z" fill="#00A499" fill-opacity="0.2"/>
<path d="M384.173 202.582C383.823 202.582 383.473 202.497 383.151 202.318L301.026 154.899C300.394 154.538 300.001 153.86 300.001 153.124V58.3004C300.001 57.1648 300.919 56.2506 302.051 56.2506C303.183 56.2506 304.09 57.1684 304.09 58.3004V151.957L385.197 198.772C386.176 199.34 386.512 200.583 385.944 201.572C385.565 202.222 384.883 202.586 384.169 202.586L384.173 202.582Z" fill="#00A499" fill-opacity="0.2"/>
<path d="M384.179 202.582C383.472 202.582 382.787 202.221 382.404 201.568C381.844 200.579 382.183 199.336 383.154 198.768L398.652 189.826C399.631 189.259 400.877 189.598 401.441 190.573C402.009 191.551 401.67 192.805 400.695 193.362L385.201 202.314C384.876 202.496 384.526 202.578 384.183 202.578L384.179 202.582Z" fill="#00A499" fill-opacity="0.2"/>
<path d="M384.173 107.069C383.701 107.069 383.248 106.826 382.998 106.394C382.619 105.744 382.848 104.909 383.498 104.537L398.989 95.5849C399.639 95.21 400.474 95.4278 400.846 96.0813C401.224 96.7455 401.003 97.5775 400.349 97.9525L384.855 106.905C384.637 107.026 384.401 107.073 384.166 107.073L384.173 107.069Z" fill="#00A499" fill-opacity="0.2"/>
<path d="M302.05 60.3393C301.34 60.3393 300.65 59.9786 300.275 59.3144C299.708 58.336 300.047 57.0933 301.025 56.5255L316.516 47.5838C317.495 47.016 318.748 47.3552 319.305 48.3301C319.873 49.3085 319.541 50.5513 318.562 51.119L303.064 60.0608C302.75 60.2536 302.393 60.3393 302.05 60.3393Z" fill="#00A499" fill-opacity="0.2"/>
<path d="M329.164 149.796C328.786 149.796 328.475 149.496 328.475 149.121V92.0748C328.475 91.6999 328.782 91.3999 329.164 91.3999C329.546 91.3999 329.839 91.6999 329.839 92.0748V149.121C329.839 149.496 329.539 149.796 329.164 149.796Z" fill="#00A499" fill-opacity="0.2"/>
<path d="M321.737 145.525C321.358 145.525 321.055 145.225 321.055 144.85V87.8143C321.055 87.4287 321.355 87.1251 321.737 87.1251C322.119 87.1251 322.419 87.4251 322.419 87.8143V144.85C322.419 145.225 322.119 145.525 321.737 145.525Z" fill="#00A499" fill-opacity="0.2"/>
<path d="M325.447 147.661C325.073 147.661 324.773 147.361 324.773 146.986V89.9393C324.773 89.5643 325.073 89.2643 325.447 89.2643C325.822 89.2643 326.137 89.5643 326.137 89.9393V146.986C326.137 147.361 325.83 147.661 325.447 147.661Z" fill="#00A499" fill-opacity="0.2"/>
<path d="M332.868 151.932C332.493 151.932 332.193 151.632 332.193 151.257V94.2102C332.193 93.8353 332.493 93.521 332.868 93.521C333.243 93.521 333.55 93.8353 333.55 94.2102V151.257C333.55 151.632 333.243 151.932 332.868 151.932Z" fill="#00A499" fill-opacity="0.2"/>
<path d="M336.586 154.067C336.211 154.067 335.904 153.752 335.904 153.377V96.3417C335.904 95.9668 336.211 95.6525 336.586 95.6525C336.961 95.6525 337.261 95.9668 337.261 96.3417L337.268 153.377C337.268 153.752 336.961 154.067 336.586 154.067Z" fill="#00A499" fill-opacity="0.2"/>
<path d="M340.295 156.202C339.917 156.202 339.613 155.888 339.613 155.513V98.4775C339.613 98.0919 339.913 97.7883 340.295 97.7883C340.678 97.7883 340.978 98.0883 340.978 98.4775V155.513C340.978 155.888 340.678 156.202 340.295 156.202Z" fill="#00A499" fill-opacity="0.2"/>
<path d="M344.006 158.327C343.631 158.327 343.324 158.027 343.324 157.652V100.616C343.324 100.231 343.631 99.9271 344.006 99.9271C344.381 99.9271 344.688 100.227 344.688 100.616V157.652C344.688 158.027 344.381 158.327 344.006 158.327Z" fill="#00A499" fill-opacity="0.2"/>
<path d="M347.716 160.462C347.337 160.462 347.034 160.162 347.034 159.787V102.741C347.034 102.366 347.341 102.066 347.723 102.066C348.098 102.066 348.398 102.366 348.398 102.741V159.787C348.398 160.162 348.098 160.462 347.716 160.462Z" fill="#00A499" fill-opacity="0.2"/>
<path d="M351.433 162.598C351.055 162.598 350.751 162.298 350.751 161.923V104.877C350.751 104.502 351.051 104.188 351.433 104.188C351.815 104.188 352.115 104.502 352.115 104.877V161.923C352.115 162.298 351.815 162.598 351.433 162.598Z" fill="#00A499" fill-opacity="0.2"/>
<path d="M355.143 164.733C354.768 164.733 354.468 164.434 354.468 164.044L354.458 107.009C354.458 106.634 354.765 106.319 355.147 106.319C355.529 106.319 355.829 106.634 355.829 107.009V164.044C355.829 164.43 355.522 164.733 355.147 164.733H355.143Z" fill="#00A499" fill-opacity="0.2"/>
<path d="M358.853 166.869C358.478 166.869 358.171 166.555 358.171 166.18V109.144C358.171 108.759 358.471 108.455 358.846 108.455C359.221 108.455 359.535 108.755 359.535 109.144V166.18C359.535 166.555 359.235 166.869 358.853 166.869Z" fill="#00A499" fill-opacity="0.2"/>
<path d="M362.564 168.994C362.189 168.994 361.889 168.694 361.889 168.319V111.283C361.889 110.897 362.189 110.594 362.564 110.594C362.939 110.594 363.253 110.894 363.253 111.283L363.246 168.319C363.246 168.694 362.939 168.994 362.564 168.994Z" fill="#00A499" fill-opacity="0.2"/>
<path d="M366.278 171.129C365.892 171.129 365.589 170.829 365.589 170.454V113.407C365.589 113.033 365.889 112.733 366.278 112.733C366.667 112.733 366.953 113.033 366.953 113.407V170.454C366.953 170.829 366.653 171.129 366.278 171.129Z" fill="#00A499" fill-opacity="0.2"/>
<path d="M399.671 193.644C398.542 193.644 397.625 192.726 397.625 191.605V96.767C397.625 96.0421 398.01 95.3565 398.65 94.9922L480.782 47.5731C481.761 47.0196 483.003 47.3553 483.571 48.3195C484.139 49.3086 483.8 50.5513 482.825 51.1191L401.717 97.949V191.605C401.717 192.726 400.799 193.644 399.671 193.644Z" fill="#00A499" fill-opacity="0.2"/>
<path d="M415.164 201.907C414.411 201.907 413.8 201.304 413.8 200.543L413.807 105.716C413.807 105.219 414.061 104.773 414.482 104.534L496.608 57.1145C497.258 56.7289 498.104 56.9574 498.479 57.6073C498.854 58.2608 498.625 59.0929 497.972 59.4785L416.529 106.501L416.521 200.543C416.521 201.304 415.918 201.907 415.164 201.907Z" fill="#00A499" fill-opacity="0.2"/>
<path d="M411.19 104.102C410.955 104.102 410.726 103.98 410.598 103.752C410.412 103.427 410.526 103.016 410.851 102.823L492.987 55.415C493.312 55.2222 493.723 55.3293 493.916 55.6579C494.098 55.9828 493.987 56.4042 493.662 56.5863L411.526 104.005C411.419 104.066 411.308 104.102 411.187 104.102H411.19Z" fill="#00A499" fill-opacity="0.2"/>
<path d="M407.752 102.109C407.516 102.109 407.288 101.988 407.159 101.77C406.974 101.445 407.081 101.024 407.413 100.842L489.546 53.4224C489.87 53.2296 490.281 53.351 490.474 53.676C490.66 54.0009 490.545 54.4116 490.22 54.6044L408.088 102.024C407.981 102.084 407.866 102.109 407.749 102.109H407.752Z" fill="#00A499" fill-opacity="0.2"/>
<path d="M404.312 100.131C404.084 100.131 403.855 100.01 403.719 99.781C403.537 99.456 403.648 99.0454 403.973 98.8525L486.105 51.4334C486.427 51.2513 486.841 51.362 487.034 51.687C487.22 52.0119 487.105 52.4333 486.78 52.6154L404.651 100.035C404.544 100.095 404.43 100.131 404.309 100.131H404.312Z" fill="#00A499" fill-opacity="0.2"/>
<path d="M415.165 202.597C414.458 202.597 413.772 202.222 413.397 201.572C412.829 200.593 413.169 199.34 414.147 198.783L495.258 151.953V58.3005C495.258 57.1649 496.162 56.2507 497.298 56.2507C498.433 56.2507 499.337 57.1685 499.337 58.3005V153.128C499.337 153.864 498.951 154.539 498.322 154.903L416.186 202.322C415.865 202.504 415.515 202.6 415.165 202.6V202.597Z" fill="#00A499" fill-opacity="0.2"/>
<path d="M497.293 60.3396C496.943 60.3396 496.593 60.2539 496.268 60.0611L480.777 51.1193C479.799 50.5515 479.467 49.2981 480.031 48.3197C480.592 47.3555 481.849 47.0162 482.824 47.5733L498.318 56.5258C499.297 57.0936 499.622 58.3363 499.064 59.3147C498.679 59.9789 497.99 60.3396 497.29 60.3396H497.293Z" fill="#00A499" fill-opacity="0.2"/>
<path d="M415.165 107.069C414.929 107.069 414.7 107.019 414.483 106.902L398.988 97.9492C398.338 97.5742 398.113 96.7422 398.488 96.078C398.867 95.4281 399.702 95.2103 400.352 95.5816L415.847 104.534C416.497 104.909 416.722 105.741 416.343 106.391C416.09 106.827 415.636 107.066 415.168 107.066L415.165 107.069Z" fill="#00A499" fill-opacity="0.2"/>
<path d="M415.158 202.597C414.815 202.597 414.465 202.5 414.143 202.318L398.649 193.366C397.67 192.812 397.335 191.555 397.899 190.577C398.467 189.598 399.709 189.263 400.688 189.83L416.179 198.783C417.157 199.336 417.493 200.593 416.929 201.572C416.554 202.222 415.868 202.597 415.154 202.597H415.158Z" fill="#00A499" fill-opacity="0.2"/>
<path d="M430.869 160.859C430.627 160.859 430.398 160.738 430.277 160.52C430.084 160.195 430.191 159.774 430.519 159.592L479.924 131.067C480.242 130.874 480.667 130.981 480.853 131.31C481.038 131.649 480.931 132.056 480.606 132.252L431.209 160.763C431.102 160.824 430.98 160.859 430.869 160.859Z" fill="#00A499" fill-opacity="0.2"/>
<path d="M430.881 169.415C430.645 169.415 430.416 169.294 430.288 169.076C430.102 168.751 430.209 168.341 430.541 168.148L479.939 139.623C480.264 139.43 480.674 139.551 480.867 139.876C481.06 140.201 480.939 140.623 480.614 140.805L431.216 169.33C431.109 169.39 430.995 169.415 430.877 169.415H430.881Z" fill="#00A499" fill-opacity="0.2"/>
<path d="M430.87 165.13C430.641 165.13 430.413 165.009 430.277 164.791C430.091 164.466 430.205 164.055 430.53 163.863L479.928 135.352C480.253 135.159 480.674 135.266 480.856 135.595C481.049 135.92 480.942 136.341 480.61 136.523L431.205 165.048C431.102 165.109 430.987 165.134 430.866 165.134L430.87 165.13Z" fill="#00A499" fill-opacity="0.2"/>
<path d="M430.856 156.577C430.613 156.577 430.385 156.456 430.263 156.238C430.077 155.913 430.192 155.503 430.517 155.31L479.914 126.785C480.239 126.592 480.657 126.713 480.843 127.038C481.035 127.363 480.921 127.774 480.589 127.967L431.192 156.492C431.084 156.552 430.97 156.577 430.852 156.577H430.856Z" fill="#00A499" fill-opacity="0.2"/>
<path d="M430.845 152.292C430.617 152.292 430.388 152.171 430.253 151.953C430.07 151.628 430.181 151.207 430.506 151.024L479.904 122.499C480.229 122.307 480.646 122.428 480.832 122.753C481.025 123.078 480.911 123.489 480.586 123.681L431.188 152.192C431.081 152.264 430.967 152.289 430.845 152.289V152.292Z" fill="#00A499" fill-opacity="0.2"/>
<path d="M430.837 148.011C430.602 148.011 430.373 147.889 430.244 147.672C430.059 147.347 430.166 146.936 430.491 146.743L479.888 118.218C480.213 118.025 480.638 118.147 480.824 118.472C481.01 118.797 480.902 119.218 480.577 119.4L431.18 147.925C431.073 147.986 430.951 148.011 430.837 148.011Z" fill="#00A499" fill-opacity="0.2"/>
<path d="M430.83 143.739C430.595 143.739 430.366 143.607 430.238 143.389C430.045 143.065 430.166 142.654 430.484 142.461L479.881 113.95C480.203 113.757 480.624 113.879 480.817 114.204C480.999 114.529 480.888 114.939 480.563 115.132L431.166 143.643C431.059 143.704 430.941 143.739 430.827 143.739H430.83Z" fill="#00A499" fill-opacity="0.2"/>
<path d="M430.82 139.455C430.584 139.455 430.363 139.323 430.227 139.116C430.042 138.791 430.156 138.369 430.481 138.173L479.878 109.662C480.203 109.469 480.621 109.576 480.807 109.916C481 110.23 480.885 110.651 480.553 110.844L431.156 139.355C431.052 139.416 430.934 139.451 430.816 139.451L430.82 139.455Z" fill="#00A499" fill-opacity="0.2"/>
<path d="M430.813 135.173C430.578 135.173 430.349 135.052 430.217 134.834C430.035 134.509 430.146 134.088 430.471 133.906L479.868 105.381C480.193 105.188 480.611 105.309 480.797 105.623C480.989 105.963 480.875 106.37 480.554 106.566L431.156 135.077C431.049 135.148 430.928 135.173 430.813 135.173Z" fill="#00A499" fill-opacity="0.2"/>
<path d="M430.81 130.888C430.567 130.888 430.338 130.766 430.217 130.549C430.024 130.224 430.138 129.813 430.463 129.62L479.868 101.095C480.189 100.902 480.603 101.024 480.796 101.349C480.982 101.674 480.868 102.084 480.543 102.277L431.145 130.802C431.038 130.863 430.917 130.888 430.806 130.888H430.81Z" fill="#00A499" fill-opacity="0.2"/>
<path d="M430.796 126.617C430.567 126.617 430.339 126.485 430.203 126.267C430.017 125.942 430.131 125.531 430.456 125.339L479.854 96.8279C480.179 96.635 480.589 96.7422 480.782 97.0707C480.968 97.3957 480.854 97.8206 480.536 97.9992L431.131 126.524C431.028 126.585 430.914 126.621 430.792 126.621L430.796 126.617Z" fill="#00A499" fill-opacity="0.2"/>
<path d="M430.791 122.332C430.555 122.332 430.327 122.21 430.198 121.982C430.013 121.657 430.12 121.246 430.445 121.053L479.842 92.5426C480.167 92.3498 480.588 92.4712 480.778 92.7854C480.963 93.1104 480.856 93.5354 480.531 93.7139L431.134 122.239C431.027 122.3 430.905 122.335 430.791 122.335V122.332Z" fill="#00A499" fill-opacity="0.2"/>
<path d="M430.777 118.05C430.541 118.05 430.313 117.929 430.191 117.711C429.998 117.386 430.106 116.965 430.434 116.783L479.831 88.2576C480.156 88.0648 480.581 88.1862 480.774 88.5004C480.956 88.8254 480.846 89.2503 480.521 89.4432L431.123 117.954C431.016 118.025 430.895 118.05 430.78 118.05H430.777Z" fill="#00A499" fill-opacity="0.2"/>
<path d="M648.043 165.712C646.968 165.712 646.101 164.844 646.101 163.769V74.516L568.792 29.8823C567.864 29.3395 567.55 28.1575 568.082 27.229C568.625 26.2863 569.807 25.9756 570.749 26.5041L649.022 71.7021C649.625 72.0413 650 72.6912 650 73.3912V163.766C650 164.84 649.118 165.708 648.047 165.708L648.043 165.712Z" fill="#00A499" fill-opacity="0.2"/>
<path d="M633.273 173.589C632.563 173.589 631.981 173.011 631.981 172.297V82.6579L554.347 37.8456C553.733 37.485 553.515 36.6886 553.876 36.0708C554.237 35.4566 555.022 35.2388 555.651 35.5995L633.923 80.7867C634.323 81.0153 634.573 81.4509 634.573 81.908V172.293C634.573 173.004 633.995 173.586 633.27 173.586L633.273 173.589Z" fill="#00A499" fill-opacity="0.2"/>
<path d="M637.063 80.3686C636.956 80.3686 636.845 80.3436 636.738 80.2829L558.466 35.0957C558.151 34.9136 558.055 34.5279 558.223 34.2137C558.405 33.8994 558.801 33.7923 559.116 33.9708L637.388 79.1581C637.702 79.3402 637.809 79.7366 637.631 80.0508C637.509 80.2544 637.292 80.3651 637.063 80.3651V80.3686Z" fill="#00A499" fill-opacity="0.2"/>
<path d="M640.344 78.4871C640.223 78.4871 640.116 78.4621 640.019 78.4014L561.747 33.2034C561.433 33.0356 561.326 32.6356 561.504 32.3214C561.686 32.0071 562.083 31.9 562.386 32.0786L640.669 77.2765C640.969 77.4444 641.08 77.8443 640.912 78.1586C640.78 78.3621 640.562 78.4835 640.344 78.4835V78.4871Z" fill="#00A499" fill-opacity="0.2"/>
<path d="M643.616 76.5905C643.508 76.5905 643.398 76.5655 643.291 76.5048L565.018 31.3176C564.718 31.1355 564.608 30.7391 564.79 30.4248C564.972 30.1106 565.368 30.0142 565.672 30.1963L643.944 75.3835C644.258 75.5656 644.366 75.9513 644.187 76.2656C644.066 76.4834 643.848 76.5905 643.619 76.5905H643.616Z" fill="#00A499" fill-opacity="0.2"/>
<path d="M555.001 38.6704C554.326 38.6704 553.673 38.3205 553.312 37.7063C552.78 36.7778 553.094 35.5815 554.023 35.0388L568.792 26.5077C569.735 25.9756 570.917 26.2898 571.46 27.2326C571.992 28.161 571.678 29.343 570.749 29.8858L555.98 38.4169C555.665 38.5847 555.341 38.6704 555.001 38.6704Z" fill="#00A499" fill-opacity="0.2"/>
<path d="M555.002 71.5489C553.927 71.5489 553.059 70.6811 553.059 69.6063V36.7246C553.059 35.6498 553.927 34.7713 555.002 34.7713C556.077 34.7713 556.955 35.6533 556.955 36.7246V69.6063C556.955 70.6811 556.087 71.5489 555.002 71.5489Z" fill="#00A499" fill-opacity="0.2"/>
<path d="M604.799 190.688C603.724 190.688 602.857 189.806 602.857 188.734V99.4811L525.548 54.8473C524.62 54.3153 524.306 53.1226 524.838 52.1941C525.38 51.2514 526.577 50.9407 527.505 51.4835L605.778 96.6707C606.381 97.0207 606.756 97.6599 606.756 98.3598V188.734C606.756 189.809 605.874 190.688 604.803 190.688H604.799Z" fill="#00A499" fill-opacity="0.2"/>
<path d="M590.044 198.554C589.319 198.554 588.74 197.976 588.74 197.251V107.623L511.118 62.8106C510.489 62.45 510.286 61.6643 510.636 61.0358C510.996 60.4074 511.793 60.2038 512.41 60.5645L590.683 105.752C591.093 105.98 591.336 106.402 591.336 106.873V197.247C591.336 197.972 590.758 198.551 590.044 198.551V198.554Z" fill="#00A499" fill-opacity="0.2"/>
<path d="M593.818 105.345C593.711 105.345 593.601 105.32 593.494 105.248L515.221 60.0613C514.921 59.8791 514.81 59.4828 514.993 59.1792C515.175 58.865 515.56 58.7578 515.875 58.9364L594.147 104.124C594.461 104.306 594.568 104.702 594.39 105.016C594.268 105.22 594.051 105.341 593.822 105.341L593.818 105.345Z" fill="#00A499" fill-opacity="0.2"/>
<path d="M597.1 103.452C596.993 103.452 596.872 103.427 596.775 103.366L518.503 58.1684C518.189 58.0005 518.092 57.6006 518.26 57.2863C518.442 56.9721 518.839 56.865 519.153 57.0435L597.425 102.241C597.74 102.409 597.836 102.809 597.668 103.123C597.547 103.327 597.329 103.448 597.1 103.448V103.452Z" fill="#00A499" fill-opacity="0.2"/>
<path d="M600.381 101.556C600.26 101.556 600.153 101.531 600.057 101.47L521.773 56.2827C521.473 56.1006 521.363 55.7042 521.545 55.3899C521.727 55.0757 522.123 54.9793 522.438 55.1614L600.699 100.349C601.014 100.516 601.121 100.916 600.942 101.231C600.821 101.449 600.603 101.556 600.389 101.556H600.381Z" fill="#00A499" fill-opacity="0.2"/>
<path d="M593.818 195.719C593.468 195.719 593.168 195.43 593.168 195.069V104.695C593.168 104.334 593.468 104.045 593.818 104.045C594.168 104.045 594.471 104.334 594.471 104.695V195.069C594.471 195.43 594.182 195.719 593.818 195.719Z" fill="#00A499" fill-opacity="0.2"/>
<path d="M597.1 193.826C596.739 193.826 596.45 193.548 596.45 193.187V102.813C596.45 102.452 596.739 102.163 597.1 102.163C597.46 102.163 597.753 102.452 597.753 102.813V193.187C597.753 193.548 597.464 193.826 597.1 193.826Z" fill="#00A499" fill-opacity="0.2"/>
<path d="M600.382 191.944C600.021 191.944 599.728 191.655 599.728 191.294V100.909C599.728 100.559 600.017 100.27 600.382 100.27C600.746 100.27 601.021 100.559 601.021 100.909V191.294C601.021 191.655 600.731 191.944 600.382 191.944Z" fill="#00A499" fill-opacity="0.2"/>
<path d="M590.03 199.208C589.705 199.208 589.366 199.122 589.066 198.954L510.793 153.756C510.19 153.417 509.815 152.767 509.815 152.067V61.6928C509.815 60.6179 510.682 59.7394 511.757 59.7394C512.832 59.7394 513.711 60.6215 513.711 61.6928V150.946L591.005 195.58C591.933 196.122 592.258 197.304 591.715 198.233C591.355 198.861 590.701 199.211 590.026 199.211L590.03 199.208Z" fill="#00A499" fill-opacity="0.2"/>
<path d="M590.045 199.208C589.37 199.208 588.716 198.858 588.356 198.229C587.813 197.301 588.138 196.119 589.066 195.576L603.821 187.045C604.764 186.513 605.946 186.827 606.489 187.77C607.032 188.698 606.707 189.88 605.778 190.423L591.009 198.954C590.705 199.122 590.37 199.208 590.045 199.208Z" fill="#00A499" fill-opacity="0.2"/>
<path d="M590.044 108.179C589.586 108.179 589.151 107.937 588.908 107.53C588.558 106.901 588.762 106.119 589.39 105.755L604.145 97.2237C604.774 96.8738 605.57 97.0773 605.92 97.7058C606.281 98.32 606.067 99.1163 605.449 99.4806L590.679 107.997C590.476 108.119 590.258 108.179 590.04 108.179H590.044Z" fill="#00A499" fill-opacity="0.2"/>
<path d="M511.771 63.636C511.096 63.636 510.442 63.286 510.082 62.6718C509.539 61.7291 509.864 60.5471 510.792 60.0043L525.548 51.4839C526.49 50.9411 527.683 51.2554 528.215 52.1945C528.758 53.123 528.433 54.3193 527.504 54.8478L512.735 63.3789C512.431 63.5467 512.096 63.6324 511.771 63.6324V63.636Z" fill="#00A499" fill-opacity="0.2"/>
<path d="M621.243 103.812C621.136 103.812 621.025 103.787 620.918 103.741L556.015 66.2992C555.712 66.1171 555.605 65.7207 555.787 65.4064C555.969 65.0922 556.354 64.9958 556.669 65.1779L621.571 102.605C621.886 102.787 621.982 103.184 621.814 103.498C621.693 103.702 621.475 103.812 621.246 103.812H621.243Z" fill="#00A499" fill-opacity="0.2"/>
<path d="M621.257 98.2987C621.136 98.2987 621.029 98.2737 620.932 98.213L556.04 60.7713C555.726 60.5891 555.619 60.1928 555.797 59.8785C555.98 59.5786 556.376 59.4679 556.679 59.65L621.582 97.0775C621.882 97.2596 621.993 97.656 621.811 97.9702C621.689 98.1738 621.471 98.2952 621.257 98.2952V98.2987Z" fill="#00A499" fill-opacity="0.2"/>
<path d="M621.268 92.7746C621.161 92.7746 621.04 92.7496 620.943 92.6889L556.04 55.2472C555.741 55.065 555.63 54.6687 555.812 54.3544C555.994 54.0544 556.38 53.9437 556.694 54.1259L621.597 91.5676C621.9 91.7355 622.007 92.1354 621.825 92.4497C621.704 92.6532 621.486 92.7746 621.272 92.7746H621.268Z" fill="#00A499" fill-opacity="0.2"/>
<path d="M536.676 147.529C536.315 147.529 536.026 147.239 536.026 146.879V92.5211C536.026 92.1604 536.315 91.8712 536.676 91.8712C537.036 91.8712 537.325 92.1604 537.325 92.5211V146.879C537.325 147.239 537.025 147.529 536.676 147.529Z" fill="#00A499" fill-opacity="0.2"/>
<path d="M529.605 143.461C529.244 143.461 528.955 143.172 528.955 142.811V88.4536C528.955 88.0929 529.244 87.8036 529.605 87.8036C529.966 87.8036 530.244 88.0929 530.244 88.4536V142.811C530.244 143.172 529.955 143.461 529.605 143.461Z" fill="#00A499" fill-opacity="0.2"/>
<path d="M533.14 145.489C532.779 145.489 532.49 145.2 532.49 144.839V90.4816C532.49 90.121 532.779 89.8317 533.14 89.8317C533.5 89.8317 533.79 90.121 533.79 90.4816V144.839C533.79 145.2 533.49 145.489 533.14 145.489Z" fill="#00A499" fill-opacity="0.2"/>
<path d="M540.21 149.557C539.85 149.557 539.557 149.268 539.557 148.918V94.5495C539.557 94.1888 539.846 93.8995 540.21 93.8995C540.575 93.8995 540.85 94.1888 540.85 94.5495V148.918C540.85 149.268 540.571 149.557 540.21 149.557Z" fill="#00A499" fill-opacity="0.2"/>
<path d="M543.746 151.596C543.385 151.596 543.092 151.307 543.092 150.946V96.5885C543.092 96.2278 543.382 95.9243 543.746 95.9243C544.11 95.9243 544.396 96.2242 544.396 96.5885V150.946C544.396 151.307 544.106 151.596 543.746 151.596Z" fill="#00A499" fill-opacity="0.2"/>
<path d="M547.281 153.62C546.931 153.62 546.642 153.331 546.642 152.981V98.613C546.642 98.2523 546.931 97.9631 547.281 97.9631C547.631 97.9631 547.935 98.2523 547.935 98.613V152.981C547.935 153.331 547.645 153.62 547.281 153.62Z" fill="#00A499" fill-opacity="0.2"/>
<path d="M550.816 155.66C550.466 155.66 550.163 155.37 550.163 155.01V100.642C550.163 100.292 550.466 100.002 550.816 100.002C551.166 100.002 551.47 100.292 551.47 100.642V155.01C551.47 155.37 551.181 155.66 550.816 155.66Z" fill="#00A499" fill-opacity="0.2"/>
<path d="M554.362 157.687C554.001 157.687 553.712 157.398 553.712 157.037V102.68C553.712 102.319 554.001 102.03 554.362 102.03C554.712 102.03 555.001 102.319 555.001 102.68V157.037C555.001 157.398 554.712 157.687 554.362 157.687Z" fill="#00A499" fill-opacity="0.2"/>
<path d="M557.898 159.727C557.537 159.727 557.248 159.427 557.248 159.077V104.72C557.248 104.359 557.537 104.07 557.898 104.07C558.258 104.07 558.537 104.359 558.537 104.72V159.077C558.537 159.427 558.248 159.727 557.898 159.727Z" fill="#00A499" fill-opacity="0.2"/>
<path d="M561.432 161.766C561.072 161.766 560.779 161.466 560.779 161.102V106.744C560.779 106.394 561.068 106.105 561.432 106.105C561.797 106.105 562.082 106.394 562.082 106.744V161.102C562.082 161.462 561.793 161.766 561.432 161.766Z" fill="#00A499" fill-opacity="0.2"/>
<path d="M564.968 163.794C564.607 163.794 564.314 163.494 564.314 163.144V108.776C564.314 108.426 564.604 108.126 564.968 108.126C565.332 108.126 565.618 108.426 565.618 108.776V163.144C565.618 163.494 565.329 163.794 564.968 163.794Z" fill="#00A499" fill-opacity="0.2"/>
<path d="M568.504 165.823C568.143 165.823 567.854 165.533 567.854 165.173V110.815C567.854 110.465 568.143 110.176 568.504 110.176C568.865 110.176 569.158 110.465 569.158 110.815V165.173C569.158 165.533 568.868 165.823 568.504 165.823Z" fill="#00A499" fill-opacity="0.2"/>
<path d="M572.039 167.861C571.678 167.861 571.4 167.561 571.4 167.211V112.843C571.4 112.483 571.678 112.193 572.039 112.193C572.4 112.193 572.693 112.483 572.693 112.843V167.211C572.693 167.561 572.403 167.861 572.039 167.861Z" fill="#00A499" fill-opacity="0.2"/>
</g>
</svg>
