<svg width="140" height="140" viewBox="0 0 140 140" fill="none" xmlns="http://www.w3.org/2000/svg">
<path d="M64.2676 6.62446C64.2676 4.69358 62.7029 3.12891 60.7554 3.12891C58.8245 3.12891 57.2432 4.69358 57.2432 6.62446V6.99065H64.2509V6.62446H64.2676Z" fill="#ACDDDA" fill-opacity="0.2"/>
<path d="M57.2442 19.0767H64.252V26.0844H57.2442V19.0767Z" fill="#ACDDDA" fill-opacity="0.2"/>
<path d="M95.4298 133.579H102.438V140.587H95.4298V133.579Z" fill="#ACDDDA" fill-opacity="0.2"/>
<path d="M76.3204 133.579H83.3281V140.587H76.3204V133.579Z" fill="#ACDDDA" fill-opacity="0.2"/>
<path d="M102.438 121.514L102.421 114.506H95.4298V121.514H102.438Z" fill="#ACDDDA" fill-opacity="0.2"/>
<path d="M114.506 114.506H121.514V121.514H114.506V114.506Z" fill="#ACDDDA" fill-opacity="0.2"/>
<path d="M95.4122 95.4106H102.42V102.418H95.4122V95.4106Z" fill="#ACDDDA" fill-opacity="0.2"/>
<path d="M114.506 95.4106H121.514V102.418H114.506V95.4106Z" fill="#ACDDDA" fill-opacity="0.2"/>
<path d="M114.506 76.3208H121.514V83.3286H114.506V76.3208Z" fill="#ACDDDA" fill-opacity="0.2"/>
<path d="M133.582 76.3208H140.59V83.3286H133.582V76.3208Z" fill="#ACDDDA" fill-opacity="0.2"/>
<path d="M133.582 95.4106H140.59V102.418H133.582V95.4106Z" fill="#ACDDDA" fill-opacity="0.2"/>
<path d="M133.582 114.506H140.59V121.514H133.582V114.506Z" fill="#ACDDDA" fill-opacity="0.2"/>
<path d="M133.582 133.579H140.59V140.587H133.582V133.579Z" fill="#ACDDDA" fill-opacity="0.2"/>
<path d="M114.506 133.579H121.514V140.587H114.506V133.579Z" fill="#ACDDDA" fill-opacity="0.2"/>
<path d="M57.2442 133.579H64.252V140.587H57.2442V133.579Z" fill="#ACDDDA" fill-opacity="0.2"/>
<path d="M57.2442 114.506H64.252V121.514H57.2442V114.506Z" fill="#ACDDDA" fill-opacity="0.2"/>
<path d="M76.3204 114.506H83.3281V121.514H76.3204V114.506Z" fill="#ACDDDA" fill-opacity="0.2"/>
<path d="M76.3204 95.4106H83.3281V102.418H76.3204V95.4106Z" fill="#ACDDDA" fill-opacity="0.2"/>
<path d="M76.3204 76.3208H83.3281V83.3286H76.3204V76.3208Z" fill="#ACDDDA" fill-opacity="0.2"/>
<path d="M95.4122 76.3208H102.42V83.3286H95.4122V76.3208Z" fill="#ACDDDA" fill-opacity="0.2"/>
<path d="M102.42 64.2519V57.2441H95.4122L95.4288 64.2519H102.42Z" fill="#ACDDDA" fill-opacity="0.2"/>
<path d="M114.506 57.2441H121.514V64.2519H114.506V57.2441Z" fill="#ACDDDA" fill-opacity="0.2"/>
<path d="M133.582 64.2519H140.59V57.2441H133.582V64.2519Z" fill="#ACDDDA" fill-opacity="0.2"/>
<path d="M38.168 133.579H45.1758V140.587H38.168V133.579Z" fill="#ACDDDA" fill-opacity="0.2"/>
<path d="M45.1758 121.514V114.506H38.168V121.514H45.1758Z" fill="#ACDDDA" fill-opacity="0.2"/>
<path d="M38.168 95.4106H45.1758V102.418H38.168V95.4106Z" fill="#ACDDDA" fill-opacity="0.2"/>
<path d="M57.2442 95.4106H64.252V102.418H57.2442V95.4106Z" fill="#ACDDDA" fill-opacity="0.2"/>
<path d="M57.2442 76.3208H64.252V83.3286H57.2442V76.3208Z" fill="#ACDDDA" fill-opacity="0.2"/>
<path d="M57.2442 57.2441H64.252V64.2519H57.2442V57.2441Z" fill="#ACDDDA" fill-opacity="0.2"/>
<path d="M76.3204 57.2441H83.3281V64.2519H76.3204V57.2441Z" fill="#ACDDDA" fill-opacity="0.2"/>
<path d="M76.3204 38.168H83.3281V45.1757H76.3204V38.168Z" fill="#ACDDDA" fill-opacity="0.2"/>
<path d="M95.4122 38.168H102.42V45.1757H95.4122V38.168Z" fill="#ACDDDA" fill-opacity="0.2"/>
<path d="M114.506 38.168H121.514V45.1757H114.506V38.168Z" fill="#ACDDDA" fill-opacity="0.2"/>
<path d="M133.582 38.168H140.59V45.1757H133.582V38.168Z" fill="#ACDDDA" fill-opacity="0.2"/>
<path d="M19.0938 133.579H26.1016V140.587H19.0938V133.579Z" fill="#ACDDDA" fill-opacity="0.2"/>
<path d="M19.0938 114.506H26.1016V121.514H19.0938V114.506Z" fill="#ACDDDA" fill-opacity="0.2"/>
<path d="M19.0938 95.4106H26.1016V102.418H19.0938V95.4106Z" fill="#ACDDDA" fill-opacity="0.2"/>
<path d="M19.0938 76.3208H26.1016V83.3286H19.0938V76.3208Z" fill="#ACDDDA" fill-opacity="0.2"/>
<path d="M38.168 76.3208H45.1758V83.3286H38.168V76.3208Z" fill="#ACDDDA" fill-opacity="0.2"/>
<path d="M45.1748 64.2519L45.1914 57.2441H38.1837V64.2519H45.1748Z" fill="#ACDDDA" fill-opacity="0.2"/>
<path d="M38.1837 38.168H45.1914V45.1757H38.1837V38.168Z" fill="#ACDDDA" fill-opacity="0.2"/>
<path d="M57.2609 45.1757H64.252V38.168H57.2609V45.1757Z" fill="#ACDDDA" fill-opacity="0.2"/>
<path d="M76.3204 19.0767H83.3281V26.0844H76.3204V19.0767Z" fill="#ACDDDA" fill-opacity="0.2"/>
<path d="M95.4122 26.0844H102.42V19.0767H95.4122V26.0844Z" fill="#ACDDDA" fill-opacity="0.2"/>
<path d="M114.506 19.0767H121.514V26.0844H114.506V19.0767Z" fill="#ACDDDA" fill-opacity="0.2"/>
<path d="M133.582 19.0767H140.59V26.0844H133.582V19.0767Z" fill="#ACDDDA" fill-opacity="0.2"/>
<path d="M7.9155e-05 133.579H7.00781V140.587H7.9155e-05V133.579Z" fill="#ACDDDA" fill-opacity="0.2"/>
<path d="M7.9155e-05 114.506H7.00781V121.514H7.9155e-05V114.506Z" fill="#ACDDDA" fill-opacity="0.2"/>
<path d="M0.00026226 95.4106H7.008V102.418H0.00026226V95.4106Z" fill="#ACDDDA" fill-opacity="0.2"/>
<path d="M0.00026226 76.3208H7.008V83.3286H0.00026226V76.3208Z" fill="#ACDDDA" fill-opacity="0.2"/>
<path d="M6.62516 57.2441C4.69429 57.2441 3.12962 58.8088 3.12962 60.7563C3.12962 62.6872 4.69429 64.2519 6.62516 64.2519H7.008V57.2441H6.62516Z" fill="#ACDDDA" fill-opacity="0.2"/>
<path d="M19.0938 57.2441H26.1016V64.2519H19.0938V57.2441Z" fill="#ACDDDA" fill-opacity="0.2"/>
<path d="M19.0938 38.168H26.1016V45.1757H19.0938V38.168Z" fill="#ACDDDA" fill-opacity="0.2"/>
<path d="M38.1837 19.0767H45.1914V26.0844H38.1837V19.0767Z" fill="#ACDDDA" fill-opacity="0.2"/>
<path d="M76.3204 0H83.3281V7.00775H76.3204V0Z" fill="#ACDDDA" fill-opacity="0.2"/>
<path d="M95.4122 0H102.42V7.00775H95.4122V0Z" fill="#ACDDDA" fill-opacity="0.2"/>
<path d="M114.506 0H121.514V7.00775H114.506V0Z" fill="#ACDDDA" fill-opacity="0.2"/>
<path d="M133.582 0H140.59V7.00775H133.582V0Z" fill="#ACDDDA" fill-opacity="0.2"/>
</svg>
