<svg width="211" height="169" viewBox="0 0 211 169" fill="none" xmlns="http://www.w3.org/2000/svg">
<path fill-rule="evenodd" clip-rule="evenodd" d="M77.0266 10.4052L50.9482 25.196L9.328 0.97764L9.80256 0.162085L50.9542 24.1078L76.083 9.85563L60.841 0.977536L61.3159 0.162189L77.0329 9.31692L93.46 0L93.9255 0.820758L77.9764 9.86653L138.419 45.0729L210.2 0.169887L210.7 0.969838L138.437 46.175L77.0266 10.4052ZM139.547 0.978037L140.02 0.161688L157.8 10.4676L174.785 0.166465L175.274 0.97326L157.811 11.5645L139.547 0.978037Z" fill="#ACDDDA"/>
<path fill-rule="evenodd" clip-rule="evenodd" d="M97.4364 58.9509L42.7377 90.3446L21.8496 78.3279L22.3201 77.51L42.7382 89.2564L96.9667 58.1326L97.4364 58.9509Z" fill="#ACDDDA"/>
<path fill-rule="evenodd" clip-rule="evenodd" d="M157.331 34.7097L98.8008 1.05874L99.2711 0.240723L157.801 33.8917L157.331 34.7097Z" fill="#ACDDDA"/>
<path fill-rule="evenodd" clip-rule="evenodd" d="M137.877 107.743V45.6238H138.821V107.743H137.877Z" fill="#ACDDDA"/>
<path fill-rule="evenodd" clip-rule="evenodd" d="M50.0764 60.4551V24.7549H51.02V62.0888L0 32.6562L0.471502 31.8389L50.0764 60.4551Z" fill="#ACDDDA"/>
<path fill-rule="evenodd" clip-rule="evenodd" d="M42.2659 156.066V90.1195H43.2094V156.066H42.2659Z" fill="#ACDDDA"/>
<path fill-rule="evenodd" clip-rule="evenodd" d="M0.400391 142.659L42.504 118.418L42.9748 119.236L0.871202 143.477L0.400391 142.659Z" fill="#ACDDDA"/>
<path fill-rule="evenodd" clip-rule="evenodd" d="M138.584 82.5542L58.9292 128.539L42.5079 119.399L42.9669 118.574L58.9207 127.455L138.112 81.7371L138.584 82.5542Z" fill="#ACDDDA"/>
<path fill-rule="evenodd" clip-rule="evenodd" d="M126.54 137.36L157.881 119.315L157.411 118.498L126.07 136.542L107.008 125.436L106.533 126.252L125.596 137.359V168.373L158.184 148.297L157.689 147.494L126.54 166.684V137.36Z" fill="#ACDDDA"/>
<path fill-rule="evenodd" clip-rule="evenodd" d="M76.4777 46.6233L76.7155 0.966187L77.6591 0.971101L77.4213 46.6277L138.86 82.0448L138.388 82.862L97.6811 59.3632L97.9157 87.7599L42.739 119.531L0.240479 95.0741L0.711114 94.2562L21.5343 106.239V77.5639L76.4777 46.6233ZM76.9457 47.4427L22.4778 78.1154V106.782L42.7388 118.442L96.9677 87.2169L96.7329 58.8164L76.9457 47.4427ZM158.039 11.0161V33.6108H157.095V11.0161H158.039Z" fill="#ACDDDA"/>
<path fill-rule="evenodd" clip-rule="evenodd" d="M59.3983 128.001L59.1644 164.258L107.243 136.51V157.507L126.102 167.43L125.663 168.265L106.3 158.077V138.144L58.6863 165.623L42.4219 156.156L42.8966 155.34L58.2208 164.26L58.4547 127.995L59.3983 128.001Z" fill="#ACDDDA"/>
<path fill-rule="evenodd" clip-rule="evenodd" d="M138.352 107.118L158.12 118.635V148.491H157.176V119.178L138.349 108.208L107.244 126.117V137.407H106.301V125.571L138.352 107.118Z" fill="#ACDDDA"/>
</svg>
