<svg width="271" height="540" viewBox="0 0 271 540" fill="none" xmlns="http://www.w3.org/2000/svg">
<g opacity="0.1">
<path d="M29.3636 115.905L57.3474 99.7572L29.3636 83.5932L1.37988 99.7572L29.3636 115.905Z" fill="white"/>
<path d="M29.3636 70.3954L57.3474 54.2477L29.3636 38.1001L1.37988 54.2477L29.3636 70.3954Z" fill="white"/>
<path d="M186.988 38.1001L159.004 54.2477L186.988 70.3954L214.972 54.2477L186.988 38.1001Z" fill="white"/>
<path d="M175.562 122.495L147.578 106.348L119.595 122.495L147.578 138.659L175.562 122.495Z" fill="white"/>
<path d="M214.972 99.7572L186.988 83.5932L159.004 99.7572L186.988 115.905L214.972 99.7572Z" fill="white"/>
<path d="M136.152 145.249L108.185 129.101L80.2009 145.249L108.185 161.413L136.152 145.249Z" fill="white"/>
<path d="M96.7598 122.495L68.776 106.348L40.7759 122.495L68.776 138.659L96.7598 122.495Z" fill="white"/>
<path d="M17.9379 122.495L-10.0459 106.348L-33.7673 120.036V124.971L-10.0459 138.659L17.9379 122.495Z" fill="white"/>
<path d="M68.776 93.1668L96.7598 77.0028L68.776 60.8387L40.7759 77.0028L68.776 93.1668Z" fill="white"/>
<path d="M175.562 77.0028L147.578 60.8387L119.595 77.0028L147.578 93.1668L175.562 77.0028Z" fill="white"/>
<path d="M136.152 99.7572L108.185 83.5932L80.2009 99.7572L108.185 115.905L136.152 99.7572Z" fill="white"/>
<path d="M57.3474 145.249L29.3636 129.101L1.37988 145.249L29.3636 161.413L57.3474 145.249Z" fill="white"/>
<path d="M198.4 77.0028L226.4 93.1668L250.105 79.4618V74.5437L226.4 60.8387L198.4 77.0028Z" fill="white"/>
<path d="M237.808 99.7553L250.103 106.854V92.6569L237.808 99.7553Z" fill="white"/>
<path d="M250.105 124.971V120.036L226.4 106.348L198.4 122.495L226.4 138.659L250.105 124.971Z" fill="white"/>
<path d="M214.972 145.249L186.988 129.101L159.004 145.249L186.988 161.413L214.972 145.249Z" fill="white"/>
<path d="M175.562 168.003L147.578 151.856L119.595 168.003L147.578 184.151L175.562 168.003Z" fill="white"/>
<path d="M237.808 8.73988L250.103 15.8547V1.64148L237.808 8.73988Z" fill="white"/>
<path d="M237.808 54.249L250.103 61.3474V47.1506L237.808 54.249Z" fill="white"/>
<path d="M136.152 190.758L108.185 174.594L80.2009 190.758L108.185 206.906L136.152 190.758Z" fill="white"/>
<path d="M198.4 31.4947L226.4 47.6587L250.105 33.9537V29.0356L226.4 15.347L198.4 31.4947Z" fill="white"/>
<path d="M96.7598 168.003L68.776 151.856L40.7759 168.003L68.776 184.151L96.7598 168.003Z" fill="white"/>
<path d="M-10.0459 93.1668L17.9379 77.0028L-10.0459 60.8387L-33.7673 74.5437V79.4618L-10.0459 93.1668Z" fill="white"/>
<path d="M-10.0459 47.6587L17.9379 31.4947L-10.0459 15.347L-33.7673 29.0356V33.9537L-10.0459 47.6587Z" fill="white"/>
<path d="M86.5656 399.268L77.3853 404.563L201.697 476.334V465.727L86.5656 399.268Z" fill="white"/>
<path d="M61.5317 413.727L201.696 494.645V484.022L70.7285 408.415L61.5317 413.727Z" fill="white"/>
<path d="M45.6628 422.876L201.696 512.958V502.335L54.8596 417.564L45.6628 422.876Z" fill="white"/>
<path d="M29.8101 432.039L201.696 531.269V520.646L39.0068 426.728L29.8101 432.039Z" fill="white"/>
<path d="M-18.0083 287.186L169.73 395.563V384.957L-8.81153 281.874L-18.0083 287.186Z" fill="#ACDDDA"/>
<path d="M-33.8625 296.334L169.729 413.891V403.268L-24.6658 291.022L-33.8625 296.334Z" fill="#ACDDDA"/>
<path d="M-49.7307 305.496L169.729 432.201V421.578L-40.5339 300.184L-49.7307 305.496Z" fill="#ACDDDA"/>
<path d="M160.483 301.2C160.155 301.2 159.811 301.118 159.532 300.938L61.6466 244.413C61.0565 244.069 60.6958 243.446 60.6958 242.757V129.724C60.6958 129.036 61.0729 128.413 61.6466 128.068L159.532 71.5599C160.123 71.2156 160.844 71.2156 161.45 71.5599L259.336 128.068C259.926 128.413 260.287 129.036 260.287 129.724V242.757C260.287 243.446 259.926 244.069 259.336 244.413L161.434 300.938C161.139 301.118 160.811 301.2 160.483 301.2ZM64.4991 241.659L160.483 297.086L256.467 241.659V130.839L160.483 75.4287L64.4991 130.839V241.659Z" fill="#00000E"/>
<path d="M160.484 246.544C160.156 246.544 159.812 246.462 159.533 246.281L108.976 217.101C108.386 216.757 108.025 216.134 108.025 215.445V157.068C108.025 156.379 108.386 155.756 108.976 155.412L159.533 126.215C160.124 125.871 160.845 125.871 161.451 126.215L212.009 155.412C212.599 155.756 212.96 156.379 212.96 157.068V215.445C212.96 216.134 212.599 216.757 212.009 217.101L161.435 246.281C161.14 246.462 160.812 246.544 160.484 246.544ZM111.845 214.347L160.484 242.429L209.124 214.347V158.182L160.484 130.1L111.845 158.182V214.347Z" fill="#00000E"/>
<path d="M160.481 300.249C159.957 300.249 159.53 299.822 159.53 299.298V186.264C159.53 185.74 159.957 185.314 160.481 185.314C161.006 185.314 161.432 185.74 161.432 186.264V299.298C161.432 299.822 161.006 300.249 160.481 300.249Z" fill="#00000E"/>
<path d="M160.483 187.217C160.319 187.217 160.155 187.184 160.007 187.086L62.1215 130.577C61.6625 130.315 61.4986 129.725 61.7772 129.266C62.0395 128.807 62.6297 128.659 63.0723 128.922L160.958 185.43C161.417 185.692 161.565 186.283 161.302 186.742C161.138 187.037 160.811 187.217 160.483 187.217Z" fill="#00000E"/>
<path d="M109.925 164.641C109.761 164.641 109.597 164.592 109.45 164.51L62.1215 137.182C61.6625 136.92 61.4986 136.33 61.7772 135.871C62.0395 135.412 62.6297 135.264 63.0723 135.526L110.4 162.854C110.859 163.117 111.023 163.707 110.745 164.15C110.581 164.477 110.253 164.641 109.925 164.641Z" fill="#00000E"/>
<path d="M160.726 192.819C160.398 192.819 160.071 192.655 159.907 192.344C159.644 191.885 159.792 191.311 160.251 191.049L210.104 162.262C210.563 161.999 211.153 162.147 211.399 162.606C211.661 163.065 211.497 163.655 211.054 163.917L161.185 192.704C161.038 192.77 160.874 192.819 160.726 192.819Z" fill="#00000E"/>
<path d="M160.727 199.344C160.399 199.344 160.071 199.181 159.907 198.869C159.645 198.41 159.792 197.836 160.251 197.574L210.104 168.787C210.563 168.525 211.153 168.672 211.399 169.131C211.661 169.59 211.497 170.18 211.055 170.443L161.186 199.23C161.038 199.295 160.874 199.344 160.727 199.344Z" fill="#00000E"/>
<path d="M160.727 205.87C160.399 205.87 160.071 205.706 159.907 205.394C159.645 204.935 159.792 204.362 160.251 204.099L210.104 175.312C210.563 175.05 211.153 175.198 211.399 175.657C211.661 176.116 211.497 176.689 211.055 176.968L161.186 205.755C161.038 205.821 160.874 205.87 160.727 205.87Z" fill="#00000E"/>
<path d="M160.727 212.394C160.399 212.394 160.071 212.23 159.907 211.918C159.645 211.459 159.792 210.886 160.251 210.623L210.104 181.836C210.563 181.574 211.153 181.721 211.399 182.18C211.661 182.639 211.497 183.213 211.055 183.492L161.186 212.279C161.038 212.361 160.874 212.394 160.727 212.394Z" fill="#00000E"/>
<path d="M160.727 218.921C160.399 218.921 160.071 218.757 159.907 218.445C159.645 217.986 159.792 217.412 160.251 217.15L210.104 188.363C210.563 188.101 211.153 188.248 211.415 188.707C211.678 189.166 211.514 189.74 211.071 190.019L161.202 218.806C161.038 218.888 160.874 218.921 160.727 218.921Z" fill="#00000E"/>
<path d="M160.725 225.443C160.397 225.443 160.069 225.28 159.905 224.968C159.643 224.509 159.807 223.935 160.25 223.657L210.102 194.87C210.561 194.607 211.151 194.755 211.397 195.214C211.66 195.673 211.496 196.247 211.053 196.525L161.2 225.312C161.053 225.411 160.889 225.443 160.725 225.443Z" fill="#00000E"/>
<path d="M160.727 231.969C160.399 231.969 160.071 231.805 159.907 231.493C159.645 231.034 159.792 230.46 160.251 230.182L210.104 201.395C210.563 201.133 211.153 201.28 211.399 201.739C211.661 202.198 211.497 202.788 211.055 203.051L161.186 231.838C161.038 231.936 160.874 231.969 160.727 231.969Z" fill="#00000E"/>
<path d="M160.727 238.508C160.399 238.508 160.071 238.344 159.907 238.033C159.645 237.574 159.792 237 160.251 236.738L210.104 207.951C210.563 207.688 211.153 207.836 211.399 208.295C211.661 208.754 211.497 209.344 211.055 209.606L161.186 238.393C161.038 238.459 160.874 238.508 160.727 238.508Z" fill="#00000E"/>
<path d="M168.436 182.329C168.272 182.329 168.108 182.296 167.961 182.198L118.108 153.411C117.649 153.148 117.485 152.558 117.764 152.099C118.043 151.64 118.616 151.493 119.059 151.755L168.928 180.542C169.387 180.804 169.535 181.394 169.272 181.837C169.076 182.165 168.748 182.329 168.436 182.329Z" fill="#00000E"/>
<path d="M179.728 175.805C179.564 175.805 179.4 175.756 179.253 175.674L129.4 146.887C128.941 146.624 128.777 146.034 129.056 145.591C129.318 145.132 129.908 144.985 130.351 145.247L180.204 174.034C180.663 174.297 180.827 174.887 180.548 175.346C180.384 175.641 180.056 175.805 179.728 175.805Z" fill="#00000E"/>
<path d="M191.04 169.28C190.876 169.28 190.712 169.231 190.565 169.149L140.712 140.362C140.253 140.099 140.089 139.509 140.368 139.05C140.63 138.591 141.22 138.444 141.663 138.706L191.516 167.493C191.975 167.755 192.139 168.345 191.86 168.804C191.696 169.099 191.368 169.28 191.04 169.28Z" fill="#00000E"/>
<path d="M202.338 162.757C202.174 162.757 202.01 162.725 201.863 162.626L152.01 133.839C151.551 133.577 151.387 132.987 151.666 132.528C151.928 132.069 152.518 131.921 152.961 132.183L202.814 160.97C203.273 161.233 203.437 161.823 203.158 162.282C202.994 162.577 202.666 162.757 202.338 162.757Z" fill="#00000E"/>
<path d="M109.925 171.279C109.761 171.279 109.597 171.23 109.45 171.148L62.1215 143.82C61.6625 143.558 61.4986 142.968 61.7772 142.525C62.0395 142.066 62.6297 141.919 63.0723 142.181L110.4 169.509C110.859 169.771 111.023 170.361 110.745 170.804C110.581 171.099 110.253 171.279 109.925 171.279Z" fill="#00000E"/>
<path d="M109.925 177.903C109.761 177.903 109.597 177.854 109.45 177.772L62.1215 150.444C61.6625 150.182 61.4986 149.592 61.7772 149.149C62.0395 148.69 62.6297 148.526 63.0723 148.805L110.4 176.133C110.859 176.395 111.023 176.985 110.745 177.444C110.581 177.723 110.253 177.903 109.925 177.903Z" fill="#00000E"/>
<path d="M109.925 184.526C109.761 184.526 109.597 184.477 109.45 184.395L62.1215 157.067C61.6625 156.805 61.4986 156.214 61.7772 155.755C62.0395 155.296 62.6297 155.149 63.0723 155.411L110.4 182.739C110.859 183.001 111.023 183.592 110.745 184.051C110.581 184.346 110.253 184.526 109.925 184.526Z" fill="#00000E"/>
<path d="M109.925 191.147C109.761 191.147 109.597 191.114 109.45 191.016L62.1215 163.688C61.6625 163.425 61.4986 162.835 61.7772 162.376C62.0395 161.917 62.6297 161.77 63.0723 162.032L110.4 189.36C110.859 189.622 111.023 190.213 110.745 190.655C110.581 190.967 110.253 191.147 109.925 191.147Z" fill="#00000E"/>
<path d="M110.63 198.167C110.466 198.167 110.302 198.118 110.155 198.036L62.1215 170.314C61.6625 170.052 61.4986 169.462 61.7772 169.003C62.0395 168.544 62.6297 168.396 63.0723 168.659L111.105 196.38C111.564 196.642 111.728 197.233 111.45 197.675C111.269 198.003 110.958 198.167 110.63 198.167Z" fill="#00000E"/>
<path d="M109.925 204.396C109.761 204.396 109.597 204.363 109.45 204.264L62.1215 176.936C61.6625 176.674 61.4986 176.084 61.7772 175.641C62.0395 175.182 62.6297 175.035 63.0723 175.297L110.4 202.625C110.859 202.887 111.023 203.478 110.745 203.937C110.581 204.232 110.253 204.396 109.925 204.396Z" fill="#00000E"/>
<path d="M109.925 211.018C109.761 211.018 109.597 210.986 109.45 210.887L62.1215 183.559C61.6625 183.297 61.4986 182.707 61.7772 182.248C62.0395 181.789 62.6297 181.641 63.0723 181.904L110.4 209.232C110.859 209.494 111.023 210.084 110.745 210.527C110.581 210.854 110.253 211.018 109.925 211.018Z" fill="#00000E"/>
<path d="M160.483 246.837C160.319 246.837 160.155 246.788 160.007 246.706L62.1215 190.198C61.6625 189.935 61.4986 189.345 61.7772 188.886C62.0395 188.427 62.6297 188.28 63.0723 188.542L160.958 245.05C161.417 245.313 161.565 245.903 161.302 246.362C161.138 246.657 160.811 246.837 160.483 246.837Z" fill="#00000E"/>
<path d="M160.483 253.461C160.319 253.461 160.155 253.428 160.007 253.33L62.1215 196.822C61.6625 196.559 61.4986 195.969 61.7772 195.51C62.0395 195.051 62.6297 194.903 63.0723 195.166L160.958 251.691C161.417 251.953 161.565 252.543 161.302 252.986C161.138 253.281 160.811 253.461 160.483 253.461Z" fill="#00000E"/>
<path d="M160.483 260.083C160.319 260.083 160.155 260.034 160.007 259.952L62.1215 203.443C61.6625 203.181 61.4986 202.591 61.7772 202.148C62.0395 201.689 62.6297 201.542 63.0723 201.804L160.958 258.313C161.417 258.575 161.565 259.165 161.302 259.608C161.138 259.903 160.811 260.083 160.483 260.083Z" fill="#00000E"/>
<path d="M160.483 266.706C160.319 266.706 160.155 266.657 160.007 266.575L62.1215 210.066C61.6625 209.804 61.4986 209.214 61.7772 208.755C62.0395 208.296 62.6297 208.148 63.0723 208.411L160.958 264.919C161.417 265.181 161.565 265.771 161.302 266.23C161.138 266.542 160.811 266.706 160.483 266.706Z" fill="#00000E"/>
<path d="M160.483 273.331C160.319 273.331 160.155 273.298 160.007 273.2L62.1215 216.692C61.6625 216.429 61.4986 215.839 61.7772 215.38C62.0395 214.921 62.6297 214.774 63.0723 215.036L160.958 271.544C161.417 271.807 161.565 272.397 161.302 272.839C161.138 273.167 160.811 273.331 160.483 273.331Z" fill="#00000E"/>
<path d="M160.483 279.954C160.319 279.954 160.155 279.921 160.007 279.822L62.1215 223.314C61.6625 223.052 61.4986 222.461 61.7772 222.002C62.0395 221.543 62.6297 221.396 63.0723 221.658L160.958 278.167C161.417 278.429 161.565 279.019 161.302 279.462C161.138 279.79 160.811 279.954 160.483 279.954Z" fill="#00000E"/>
<path d="M160.483 286.594C160.319 286.594 160.155 286.545 160.007 286.463L62.1215 229.938C61.6625 229.675 61.4986 229.085 61.7772 228.626C62.0395 228.167 62.6297 228.02 63.0723 228.282L160.958 284.791C161.417 285.053 161.565 285.643 161.302 286.086C161.138 286.413 160.811 286.594 160.483 286.594Z" fill="#00000E"/>
<path d="M160.483 293.198C160.319 293.198 160.155 293.165 160.007 293.067L62.1215 236.558C61.6625 236.296 61.4986 235.706 61.7772 235.263C62.0395 234.804 62.6297 234.657 63.0723 234.919L160.958 291.427C161.417 291.69 161.565 292.28 161.302 292.723C161.138 293.034 160.811 293.198 160.483 293.198Z" fill="#00000E"/>
<path d="M160.482 187.217C160.154 187.217 159.827 187.053 159.646 186.742C159.384 186.283 159.548 185.693 160.007 185.431L257.893 128.906C258.352 128.643 258.942 128.791 259.188 129.25C259.45 129.709 259.302 130.283 258.843 130.545L160.958 187.07C160.81 187.168 160.646 187.217 160.482 187.217Z" fill="#00000E"/>
<path d="M168.729 295.493C168.204 295.493 167.778 295.067 167.778 294.542V239.853C167.778 239.329 168.204 238.903 168.729 238.903C169.253 238.903 169.679 239.329 169.679 239.853V294.542C169.696 295.067 169.27 295.493 168.729 295.493Z" fill="#00000E"/>
<path d="M177.53 290.413C177.005 290.413 176.579 289.987 176.579 289.462V234.79C176.579 234.265 177.005 233.839 177.53 233.839C178.055 233.839 178.481 234.265 178.481 234.79V289.462C178.481 289.987 178.055 290.413 177.53 290.413Z" fill="#00000E"/>
<path d="M186.315 285.347C185.791 285.347 185.365 284.921 185.365 284.396V230.035C185.365 229.511 185.791 229.084 186.315 229.084C186.84 229.084 187.266 229.511 187.266 230.035V284.396C187.266 284.921 186.84 285.347 186.315 285.347Z" fill="#00000E"/>
<path d="M195.103 280.265C194.578 280.265 194.152 279.839 194.152 279.314V224.625C194.152 224.101 194.578 223.675 195.103 223.675C195.627 223.675 196.053 224.101 196.053 224.625V279.314C196.053 279.839 195.627 280.265 195.103 280.265Z" fill="#00000E"/>
<path d="M203.892 275.2C203.368 275.2 202.941 274.773 202.941 274.249V219.576C202.941 219.052 203.368 218.626 203.892 218.626C204.417 218.626 204.843 219.052 204.843 219.576V274.249C204.843 274.773 204.417 275.2 203.892 275.2Z" fill="#00000E"/>
<path d="M212.68 270.118C212.156 270.118 211.729 269.692 211.729 269.167V156.134C211.729 155.609 212.156 155.183 212.68 155.183C213.205 155.183 213.631 155.609 213.631 156.134V269.167C213.648 269.692 213.205 270.118 212.68 270.118Z" fill="#00000E"/>
<path d="M221.465 265.052C220.94 265.052 220.514 264.626 220.514 264.101V151.068C220.514 150.543 220.94 150.117 221.465 150.117C221.989 150.117 222.416 150.543 222.416 151.068V264.101C222.432 264.626 222.006 265.052 221.465 265.052Z" fill="#00000E"/>
<path d="M230.254 259.97C229.729 259.97 229.303 259.543 229.303 259.019V145.985C229.303 145.461 229.729 145.034 230.254 145.034C230.779 145.034 231.205 145.461 231.205 145.985V259.019C231.221 259.543 230.779 259.97 230.254 259.97Z" fill="#00000E"/>
<path d="M239.055 254.906C238.531 254.906 238.104 254.48 238.104 253.955V140.922C238.104 140.397 238.531 139.971 239.055 139.971C239.58 139.971 240.006 140.397 240.006 140.922V253.955C240.006 254.48 239.58 254.906 239.055 254.906Z" fill="#00000E"/>
<path d="M247.844 249.825C247.319 249.825 246.893 249.399 246.893 248.874V135.841C246.893 135.316 247.319 134.89 247.844 134.89C248.368 134.89 248.794 135.316 248.794 135.841V248.874C248.794 249.399 248.368 249.825 247.844 249.825Z" fill="#00000E"/>
<path d="M15.0941 495.494C-110.087 495.494 -211.956 393.641 -211.956 268.46C-211.956 143.279 -110.103 41.426 15.0941 41.426C140.291 41.426 242.128 143.279 242.128 268.46C242.144 393.641 140.291 495.494 15.0941 495.494ZM15.0941 42.3768C-109.579 42.3768 -210.989 143.804 -210.989 268.46C-210.989 393.133 -109.562 494.543 15.0941 494.543C139.75 494.543 241.177 393.116 241.177 268.46C241.194 143.787 139.767 42.3768 15.0941 42.3768Z" fill="#00000E"/>
<path d="M-173.723 151.394C-173.887 151.394 -174.051 151.312 -174.133 151.148C-174.264 150.918 -174.182 150.623 -173.953 150.492L-169.051 147.656C-168.822 147.525 -168.527 147.607 -168.395 147.836C-168.264 148.066 -168.346 148.361 -168.576 148.492L-173.477 151.328C-173.559 151.377 -173.641 151.394 -173.723 151.394ZM-163.904 145.722C-164.068 145.722 -164.232 145.64 -164.313 145.476C-164.445 145.246 -164.363 144.951 -164.133 144.82L-159.231 142C-159.002 141.869 -158.707 141.935 -158.576 142.164C-158.445 142.394 -158.527 142.689 -158.756 142.82L-163.658 145.656C-163.756 145.705 -163.838 145.722 -163.904 145.722ZM-154.1 140.066C-154.264 140.066 -154.428 139.984 -154.51 139.82C-154.641 139.59 -154.559 139.295 -154.33 139.164L-149.428 136.345C-149.199 136.213 -148.904 136.295 -148.772 136.525C-148.641 136.754 -148.723 137.049 -148.953 137.181L-153.854 140.017C-153.936 140.049 -154.018 140.066 -154.1 140.066ZM-144.297 134.41C-144.461 134.41 -144.625 134.328 -144.707 134.164C-144.838 133.935 -144.756 133.64 -144.527 133.508L-139.625 130.672C-139.395 130.541 -139.1 130.623 -138.969 130.853C-138.838 131.082 -138.92 131.377 -139.149 131.508L-144.051 134.345C-144.133 134.377 -144.215 134.41 -144.297 134.41ZM-134.494 128.738C-134.658 128.738 -134.822 128.656 -134.903 128.492C-135.035 128.263 -134.953 127.967 -134.723 127.836L-129.821 125C-129.592 124.869 -129.313 124.951 -129.166 125.164C-129.035 125.394 -129.117 125.689 -129.346 125.82L-134.248 128.656C-134.33 128.722 -134.412 128.738 -134.494 128.738ZM-124.69 123.082C-124.854 123.082 -125.018 123 -125.1 122.836C-125.231 122.607 -125.149 122.312 -124.92 122.181L-120.018 119.344C-119.789 119.213 -119.51 119.295 -119.362 119.525C-119.231 119.754 -119.313 120.049 -119.543 120.181L-124.444 123.017C-124.51 123.049 -124.592 123.082 -124.69 123.082ZM-114.871 117.41C-115.035 117.41 -115.198 117.328 -115.297 117.164C-115.428 116.935 -115.346 116.64 -115.117 116.508L-110.215 113.672C-110.002 113.541 -109.707 113.623 -109.559 113.853C-109.428 114.082 -109.51 114.377 -109.739 114.508L-114.641 117.344C-114.707 117.394 -114.789 117.41 -114.871 117.41ZM-105.067 111.754C-105.231 111.754 -105.395 111.672 -105.493 111.508C-105.625 111.279 -105.543 110.984 -105.313 110.853L-100.412 108.016C-100.182 107.885 -99.8869 107.967 -99.7558 108.197C-99.6246 108.426 -99.7066 108.721 -99.9361 108.853L-104.838 111.689C-104.903 111.738 -104.985 111.754 -105.067 111.754ZM-95.264 106.082C-95.4279 106.082 -95.5918 106 -95.6738 105.853C-95.8049 105.623 -95.723 105.328 -95.4934 105.197L-90.5918 102.361C-90.3623 102.23 -90.0672 102.312 -89.9361 102.541C-89.8049 102.771 -89.8869 103.066 -90.1164 103.197L-95.0181 106.016C-95.1 106.066 -95.182 106.082 -95.264 106.082ZM-85.4442 100.426C-85.6082 100.426 -85.7721 100.344 -85.8541 100.18C-85.9852 99.9509 -85.9033 99.6558 -85.6737 99.5247L-80.7721 96.6886C-80.5426 96.5574 -80.2475 96.6394 -80.1163 96.8689C-79.9852 97.0984 -80.0672 97.3935 -80.2967 97.5246L-85.1983 100.361C-85.2803 100.41 -85.3787 100.426 -85.4442 100.426ZM-75.6409 94.7705C-75.8048 94.7705 -75.9688 94.6886 -76.0507 94.5246C-76.1819 94.2951 -76.0999 94 -75.8704 93.8689L-70.9687 91.0328C-70.7392 90.9017 -70.4441 90.9836 -70.313 91.2131C-70.1818 91.4426 -70.2638 91.7377 -70.4933 91.8689L-75.395 94.705C-75.477 94.7377 -75.5589 94.7705 -75.6409 94.7705ZM-65.8376 89.0984C-66.0015 89.0984 -66.1654 89.0164 -66.2474 88.8525C-66.3786 88.623 -66.2966 88.3279 -66.0671 88.1967L-61.1654 85.3606C-60.9359 85.2295 -60.6408 85.3115 -60.5097 85.541C-60.3785 85.7705 -60.4605 86.0656 -60.69 86.1967L-65.5917 89.0328C-65.6736 89.082 -65.7556 89.0984 -65.8376 89.0984ZM-56.0342 83.4426C-56.1982 83.4426 -56.3621 83.3606 -56.4605 83.1967C-56.5916 82.9672 -56.5097 82.6721 -56.2801 82.541L-51.3785 79.7049C-51.149 79.5737 -50.8539 79.6557 -50.7227 79.8852C-50.5916 80.1147 -50.6735 80.4098 -50.9031 80.541L-55.8047 83.377C-55.8539 83.4098 -55.9523 83.4426 -56.0342 83.4426ZM-46.2145 77.7704C-46.3784 77.7704 -46.5424 77.6885 -46.6407 77.5245C-46.7719 77.295 -46.6899 76.9999 -46.4604 76.8688L-41.5587 74.0327C-41.3456 73.9016 -41.0506 73.9835 -40.903 74.2131C-40.7719 74.4426 -40.8538 74.7376 -41.0833 74.8688L-45.985 77.7049C-46.0506 77.7541 -46.1325 77.7704 -46.2145 77.7704ZM-36.4112 72.1147C-36.5751 72.1147 -36.7391 72.0327 -36.821 71.8688C-36.9522 71.6393 -36.8702 71.3442 -36.6407 71.213L-31.739 68.377C-31.5095 68.2458 -31.2308 68.3278 -31.0833 68.5573C-30.9521 68.7868 -31.0341 69.0819 -31.2636 69.213L-36.1653 72.0491C-36.2473 72.0983 -36.3292 72.1147 -36.4112 72.1147ZM-26.6079 66.4425C-26.7718 66.4425 -26.9357 66.3605 -27.0177 66.1966C-27.1488 65.9671 -27.0669 65.672 -26.8374 65.5409L-21.9357 62.7212C-21.7062 62.59 -21.4111 62.672 -21.28 62.9015C-21.1488 63.131 -21.2308 63.4261 -21.4603 63.5573L-26.362 66.3933C-26.4439 66.4261 -26.5259 66.4425 -26.6079 66.4425ZM-16.7881 60.7867C-16.9521 60.7867 -17.116 60.7048 -17.198 60.5408C-17.3291 60.3113 -17.2471 60.0163 -17.0176 59.8851L-12.116 57.049C-11.8865 56.9179 -11.5914 56.9998 -11.4603 57.213C-11.3291 57.4425 -11.4111 57.7376 -11.6406 57.8687L-16.5422 60.7048C-16.6406 60.7704 -16.7225 60.7867 -16.7881 60.7867ZM-6.98482 55.131C-7.14874 55.131 -7.31268 55.049 -7.39465 54.8851C-7.5258 54.6556 -7.44382 54.3605 -7.21431 54.2293L-2.31265 51.3933C-2.08315 51.2621 -1.78806 51.3441 -1.65691 51.5572C-1.52576 51.7867 -1.6077 52.0818 -1.8372 52.2129L-6.73891 55.049C-6.82088 55.0982 -6.90285 55.131 -6.98482 55.131ZM2.81853 49.4588C2.6546 49.4588 2.49066 49.3769 2.40869 49.2129C2.27754 48.9834 2.35953 48.6883 2.58904 48.5572L7.49069 45.7211C7.7202 45.59 8.01529 45.6719 8.14642 45.9014C8.27757 46.1309 8.1956 46.426 7.96608 46.5572L3.06444 49.3932C2.98247 49.4424 2.9005 49.4588 2.81853 49.4588Z" fill="#00000E"/>
<path d="M17.5869 43.8028C17.505 43.8028 17.423 43.7864 17.341 43.7372L15.0951 42.4422L12.8492 43.7372C12.6197 43.8684 12.3246 43.7864 12.1934 43.5569C12.0623 43.3274 12.1443 43.0323 12.3738 42.9012L14.8492 41.4749C14.9967 41.393 15.1771 41.393 15.3246 41.4749L17.8 42.9012C18.0295 43.0323 18.1115 43.3274 17.9804 43.5569C17.9148 43.7208 17.7509 43.8028 17.5869 43.8028Z" fill="#00000E"/>
<path d="M203.937 151.394C203.855 151.394 203.773 151.377 203.691 151.328L198.789 148.492C198.56 148.361 198.478 148.066 198.625 147.836C198.756 147.607 199.051 147.525 199.281 147.656L204.183 150.492C204.412 150.623 204.494 150.918 204.363 151.148C204.248 151.312 204.101 151.394 203.937 151.394ZM194.133 145.722C194.051 145.722 193.969 145.705 193.887 145.656L188.986 142.82C188.756 142.689 188.674 142.394 188.805 142.164C188.937 141.935 189.232 141.853 189.461 142L194.363 144.82C194.592 144.951 194.674 145.246 194.543 145.476C194.445 145.64 194.281 145.722 194.133 145.722ZM184.314 140.066C184.232 140.066 184.15 140.049 184.068 140L179.166 137.164C178.936 137.033 178.855 136.738 178.986 136.508C179.117 136.279 179.412 136.197 179.641 136.328L184.543 139.164C184.773 139.295 184.855 139.59 184.723 139.82C184.641 139.984 184.477 140.066 184.314 140.066ZM174.51 134.41C174.428 134.41 174.346 134.394 174.264 134.345L169.363 131.508C169.133 131.377 169.051 131.082 169.199 130.853C169.33 130.623 169.625 130.541 169.854 130.672L174.756 133.508C174.986 133.64 175.068 133.935 174.936 134.164C174.838 134.312 174.674 134.41 174.51 134.41ZM164.707 128.738C164.625 128.738 164.543 128.722 164.461 128.672L159.559 125.836C159.33 125.705 159.248 125.41 159.379 125.181C159.51 124.951 159.805 124.869 160.035 125.017L164.936 127.836C165.166 127.967 165.248 128.263 165.117 128.492C165.035 128.656 164.871 128.738 164.707 128.738ZM154.887 123.082C154.805 123.082 154.723 123.066 154.641 123.017L149.74 120.181C149.51 120.049 149.428 119.754 149.559 119.525C149.69 119.295 149.986 119.213 150.215 119.344L155.117 122.181C155.346 122.312 155.428 122.607 155.297 122.836C155.215 122.984 155.068 123.082 154.887 123.082ZM145.084 117.41C145.002 117.41 144.92 117.394 144.838 117.344L139.936 114.508C139.707 114.377 139.641 114.082 139.772 113.853C139.903 113.623 140.199 113.541 140.428 113.672L145.33 116.508C145.559 116.64 145.641 116.935 145.51 117.164C145.412 117.328 145.248 117.41 145.084 117.41ZM135.281 111.754C135.199 111.754 135.117 111.738 135.035 111.689L130.133 108.853C129.903 108.721 129.821 108.426 129.953 108.197C130.084 107.967 130.379 107.885 130.608 108.016L135.51 110.853C135.74 110.984 135.821 111.279 135.674 111.508C135.608 111.672 135.444 111.754 135.281 111.754ZM125.477 106.082C125.395 106.082 125.313 106.066 125.231 106.016L120.33 103.197C120.1 103.066 120.018 102.771 120.149 102.541C120.28 102.312 120.576 102.23 120.805 102.361L125.707 105.197C125.936 105.328 126.018 105.623 125.871 105.853C125.789 106 125.641 106.082 125.477 106.082ZM115.657 100.426C115.575 100.426 115.494 100.41 115.412 100.361L110.51 97.5246C110.28 97.3935 110.215 97.0984 110.346 96.8689C110.477 96.6394 110.772 96.5574 111.002 96.6886L115.903 99.5247C116.133 99.6558 116.215 99.9509 116.067 100.18C115.985 100.344 115.821 100.426 115.657 100.426ZM105.854 94.7705C105.772 94.7705 105.69 94.7541 105.608 94.705L100.707 91.8689C100.477 91.7377 100.395 91.4426 100.526 91.2131C100.657 90.9836 100.952 90.9017 101.182 91.0328L106.084 93.8689C106.313 94 106.395 94.2951 106.248 94.5246C106.182 94.6722 106.018 94.7705 105.854 94.7705ZM96.0508 89.0984C95.9688 89.0984 95.8869 89.082 95.8213 89.0328L90.9196 86.1967C90.6901 86.0656 90.6082 85.7705 90.7393 85.541C90.8705 85.3115 91.1655 85.2295 91.395 85.3606L96.2967 88.1967C96.5262 88.3279 96.6082 88.623 96.4606 88.8525C96.3787 89.0164 96.2147 89.0984 96.0508 89.0984ZM86.2475 83.4426C86.1655 83.4426 86.0835 83.4262 86.0015 83.377L81.0999 80.541C80.8704 80.4098 80.8048 80.1147 80.936 79.8852C81.0671 79.6557 81.3622 79.5737 81.5917 79.7049L86.4934 82.541C86.7229 82.6721 86.8048 82.9672 86.6737 83.1967C86.5589 83.3443 86.395 83.4426 86.2475 83.4426ZM76.4277 77.7704C76.3458 77.7704 76.2638 77.7541 76.1818 77.7049L71.2802 74.8688C71.0507 74.7376 70.9687 74.4426 71.1163 74.2131C71.2474 73.9835 71.5425 73.9016 71.772 74.0327L76.6736 76.8688C76.9032 76.9999 76.9851 77.295 76.854 77.5245C76.7556 77.6885 76.5917 77.7704 76.4277 77.7704ZM66.6244 72.1147C66.5424 72.1147 66.4605 72.0983 66.3949 72.0491L61.4932 69.213C61.2637 69.0819 61.1817 68.7868 61.3293 68.5573C61.4604 68.3278 61.7555 68.2458 61.985 68.377L66.8867 71.213C67.1162 71.3442 67.1982 71.6393 67.067 71.8688C66.9523 72.0327 66.7883 72.1147 66.6244 72.1147ZM56.8211 66.4425C56.7391 66.4425 56.6571 66.4261 56.5752 66.3769L51.6735 63.5409C51.444 63.4097 51.3784 63.1146 51.5096 62.8851C51.6407 62.6556 51.9358 62.5736 52.1653 62.7048L57.067 65.5245C57.2965 65.6556 57.3785 65.9507 57.2473 66.1802C57.1326 66.3605 56.9686 66.4425 56.8211 66.4425ZM47.0178 60.7867C46.9358 60.7867 46.8538 60.7704 46.7719 60.7212L41.8702 57.8851C41.6407 57.754 41.5587 57.4589 41.6899 57.2294C41.821 56.9998 42.1161 56.9179 42.3456 57.049L47.2473 59.8851C47.4768 60.0163 47.5588 60.3113 47.4276 60.5408C47.3292 60.7048 47.1817 60.7867 47.0178 60.7867ZM37.198 55.131C37.1161 55.131 37.0341 55.1146 36.9685 55.0654L32.0668 52.2293C31.8373 52.0982 31.7554 51.8031 31.8865 51.5736C32.0177 51.3441 32.3128 51.2785 32.5423 51.4097L37.4439 54.2457C37.6734 54.3769 37.7554 54.672 37.6243 54.9015C37.5259 55.0326 37.362 55.131 37.198 55.131ZM27.3947 49.4588C27.3127 49.4588 27.2308 49.4424 27.1488 49.3932L22.2471 46.5572C22.0176 46.426 21.9521 46.1309 22.0832 45.9014C22.2143 45.6719 22.5094 45.59 22.7389 45.7211L27.6406 48.5572C27.8701 48.6883 27.9521 48.9834 27.8209 49.2129C27.7226 49.3769 27.5586 49.4588 27.3947 49.4588Z" fill="#00000E"/>
<path d="M211.311 158.509C211.049 158.509 210.836 158.296 210.836 158.033V155.443L208.59 154.148C208.361 154.017 208.295 153.722 208.426 153.492C208.557 153.263 208.852 153.181 209.082 153.312L211.557 154.738C211.705 154.82 211.803 154.984 211.803 155.148V158.017C211.803 158.296 211.574 158.509 211.311 158.509Z" fill="#00000E"/>
<path d="M211.31 373.69C211.048 373.69 210.834 373.477 210.834 373.215V367.543C210.834 367.28 211.048 367.067 211.31 367.067C211.572 367.067 211.785 367.28 211.785 367.543V373.215C211.802 373.477 211.572 373.69 211.31 373.69ZM211.31 362.362C211.048 362.362 210.834 362.149 210.834 361.887V356.231C210.834 355.969 211.048 355.756 211.31 355.756C211.572 355.756 211.785 355.969 211.785 356.231V361.887C211.802 362.149 211.572 362.362 211.31 362.362ZM211.31 351.034C211.048 351.034 210.834 350.821 210.834 350.559V344.887C210.834 344.625 211.048 344.411 211.31 344.411C211.572 344.411 211.785 344.625 211.785 344.887V350.559C211.802 350.821 211.572 351.034 211.31 351.034ZM211.31 339.707C211.048 339.707 210.834 339.493 210.834 339.231V333.575C210.834 333.313 211.048 333.1 211.31 333.1C211.572 333.1 211.785 333.313 211.785 333.575V339.231C211.802 339.51 211.572 339.707 211.31 339.707ZM211.31 328.395C211.048 328.395 210.834 328.182 210.834 327.92V322.247C210.834 321.985 211.048 321.772 211.31 321.772C211.572 321.772 211.785 321.985 211.785 322.247V327.92C211.802 328.182 211.572 328.395 211.31 328.395ZM211.31 317.067C211.048 317.067 210.834 316.854 210.834 316.592V310.919C210.834 310.657 211.048 310.444 211.31 310.444C211.572 310.444 211.785 310.657 211.785 310.919V316.592C211.802 316.854 211.572 317.067 211.31 317.067ZM211.31 305.739C211.048 305.739 210.834 305.526 210.834 305.264V299.608C210.834 299.346 211.048 299.133 211.31 299.133C211.572 299.133 211.785 299.346 211.785 299.608V305.264C211.802 305.526 211.572 305.739 211.31 305.739ZM211.31 294.411C211.048 294.411 210.834 294.198 210.834 293.936V288.28C210.834 288.018 211.048 287.805 211.31 287.805C211.572 287.805 211.785 288.018 211.785 288.28V293.936C211.802 294.198 211.572 294.411 211.31 294.411ZM211.31 283.083C211.048 283.083 210.834 282.87 210.834 282.608V276.952C210.834 276.69 211.048 276.477 211.31 276.477C211.572 276.477 211.785 276.69 211.785 276.952V282.608C211.802 282.87 211.572 283.083 211.31 283.083ZM211.31 271.772C211.048 271.772 210.834 271.559 210.834 271.296V265.641C210.834 265.378 211.048 265.165 211.31 265.165C211.572 265.165 211.785 265.378 211.785 265.641V271.296C211.802 271.559 211.572 271.772 211.31 271.772ZM211.31 260.444C211.048 260.444 210.834 260.231 210.834 259.968V254.296C210.834 254.034 211.048 253.821 211.31 253.821C211.572 253.821 211.785 254.034 211.785 254.296V259.952C211.802 260.231 211.572 260.444 211.31 260.444ZM211.31 249.116C211.048 249.116 210.834 248.903 210.834 248.64V242.985C210.834 242.722 211.048 242.509 211.31 242.509C211.572 242.509 211.785 242.722 211.785 242.985V248.64C211.802 248.903 211.572 249.116 211.31 249.116ZM211.31 237.788C211.048 237.788 210.834 237.575 210.834 237.313V231.657C210.834 231.394 211.048 231.181 211.31 231.181C211.572 231.181 211.785 231.394 211.785 231.657V237.313C211.802 237.575 211.572 237.788 211.31 237.788ZM211.31 226.46C211.048 226.46 210.834 226.247 210.834 225.985V220.329C210.834 220.067 211.048 219.853 211.31 219.853C211.572 219.853 211.785 220.067 211.785 220.329V225.985C211.802 226.247 211.572 226.46 211.31 226.46ZM211.31 215.132C211.048 215.132 210.834 214.919 210.834 214.657V209.001C210.834 208.739 211.048 208.526 211.31 208.526C211.572 208.526 211.785 208.739 211.785 209.001V214.657C211.802 214.919 211.572 215.132 211.31 215.132ZM211.31 203.821C211.048 203.821 210.834 203.607 210.834 203.345V197.673C210.834 197.411 211.048 197.198 211.31 197.198C211.572 197.198 211.785 197.411 211.785 197.673V203.345C211.802 203.607 211.572 203.821 211.31 203.821ZM211.31 192.493C211.048 192.493 210.834 192.28 210.834 192.017V186.361C210.834 186.099 211.048 185.886 211.31 185.886C211.572 185.886 211.785 186.099 211.785 186.361V192.017C211.802 192.28 211.572 192.493 211.31 192.493ZM211.31 181.165C211.048 181.165 210.834 180.952 210.834 180.689V175.017C210.834 174.755 211.048 174.542 211.31 174.542C211.572 174.542 211.785 174.755 211.785 175.017V180.689C211.802 180.952 211.572 181.165 211.31 181.165ZM211.31 169.837C211.048 169.837 210.834 169.624 210.834 169.361V163.706C210.834 163.443 211.048 163.23 211.31 163.23C211.572 163.23 211.785 163.443 211.785 163.706V169.361C211.802 169.624 211.572 169.837 211.31 169.837Z" fill="#00000E"/>
<path d="M208.836 383.641C208.672 383.641 208.508 383.559 208.426 383.395C208.295 383.166 208.377 382.871 208.59 382.739L210.836 381.444V378.854C210.836 378.592 211.049 378.379 211.311 378.379C211.574 378.379 211.787 378.592 211.787 378.854V381.707C211.787 381.871 211.688 382.035 211.541 382.116L209.065 383.543C209 383.625 208.918 383.641 208.836 383.641Z" fill="#00000E"/>
<path d="M22.492 491.232C22.3281 491.232 22.1642 491.15 22.0822 490.986C21.9511 490.757 22.033 490.461 22.2461 490.33L27.1478 487.494C27.3773 487.363 27.656 487.445 27.8035 487.658C27.9347 487.888 27.8527 488.183 27.6396 488.314L22.7379 491.15C22.656 491.216 22.574 491.232 22.492 491.232ZM32.2954 485.576C32.1314 485.576 31.9675 485.494 31.8691 485.33C31.738 485.101 31.82 484.806 32.0495 484.675L36.9511 481.838C37.1642 481.707 37.4593 481.789 37.6069 482.019C37.738 482.248 37.6561 482.527 37.4266 482.675L32.5249 485.511C32.4593 485.543 32.3773 485.576 32.2954 485.576ZM42.0987 479.904C41.9348 479.904 41.7708 479.822 41.6889 479.658C41.5577 479.429 41.6397 479.134 41.8692 479.002L46.7709 476.166C47.0004 476.035 47.2955 476.117 47.4266 476.33C47.5578 476.56 47.4758 476.855 47.2463 476.986L42.3446 479.822C42.2626 479.888 42.1807 479.904 42.0987 479.904ZM51.9184 474.248C51.7545 474.248 51.5906 474.166 51.5086 474.002C51.3774 473.773 51.4594 473.478 51.6725 473.347L56.5742 470.527C56.8037 470.396 57.0824 470.478 57.2299 470.691C57.3611 470.92 57.2791 471.215 57.066 471.347L52.1643 474.183C52.0824 474.232 51.984 474.248 51.9184 474.248ZM61.7218 468.576C61.5578 468.576 61.3939 468.494 61.3119 468.33C61.1808 468.101 61.2627 467.806 61.4759 467.674L66.3775 464.838C66.607 464.707 66.8857 464.789 67.0332 465.019C67.1644 465.248 67.0824 465.527 66.8529 465.674L61.9513 468.511C61.8857 468.56 61.8037 468.576 61.7218 468.576ZM71.5251 462.92C71.3612 462.92 71.1972 462.838 71.1153 462.674C70.9841 462.445 71.0661 462.15 71.2792 462.019L76.1808 459.183C76.4104 459.051 76.689 459.133 76.8366 459.363C76.9677 459.592 76.8857 459.871 76.6562 460.019L71.7546 462.855C71.689 462.904 71.6071 462.92 71.5251 462.92ZM81.3448 457.265C81.1809 457.265 81.0169 457.183 80.935 457.019C80.8038 456.789 80.8858 456.494 81.0989 456.363L86.0005 453.527C86.2301 453.396 86.5087 453.478 86.6563 453.691C86.7874 453.92 86.7055 454.215 86.4924 454.347L81.5743 457.183C81.5087 457.232 81.4104 457.265 81.3448 457.265ZM91.1481 451.592C90.9842 451.592 90.8203 451.51 90.7219 451.347C90.5907 451.117 90.6727 450.822 90.9022 450.691L95.8039 447.855C96.0334 447.724 96.3121 447.806 96.4596 448.019C96.5908 448.248 96.5088 448.543 96.2957 448.674L91.394 451.51C91.3121 451.576 91.2301 451.592 91.1481 451.592ZM100.951 445.937C100.788 445.937 100.624 445.855 100.542 445.691C100.41 445.461 100.492 445.166 100.722 445.035L105.624 442.199C105.837 442.068 106.132 442.15 106.279 442.379C106.411 442.609 106.329 442.904 106.115 443.035L101.214 445.871C101.115 445.904 101.033 445.937 100.951 445.937ZM110.755 440.264C110.591 440.264 110.427 440.183 110.345 440.019C110.214 439.789 110.296 439.51 110.509 439.363L115.411 436.527C115.64 436.396 115.919 436.478 116.066 436.707C116.197 436.937 116.115 437.215 115.902 437.363L110.984 440.199C110.935 440.248 110.837 440.264 110.755 440.264ZM120.575 434.609C120.411 434.609 120.247 434.527 120.148 434.363C120.017 434.133 120.099 433.838 120.329 433.707L125.23 430.871C125.46 430.74 125.755 430.822 125.886 431.035C126.017 431.264 125.935 431.56 125.722 431.691L120.82 434.527C120.738 434.576 120.656 434.609 120.575 434.609ZM130.378 428.937C130.214 428.937 130.05 428.855 129.968 428.691C129.837 428.461 129.919 428.166 130.148 428.035L135.05 425.199C135.28 425.068 135.575 425.15 135.706 425.379C135.837 425.609 135.755 425.904 135.525 426.035L130.607 428.887C130.542 428.92 130.46 428.937 130.378 428.937ZM140.181 423.281C140.017 423.281 139.853 423.199 139.771 423.035C139.64 422.805 139.722 422.51 139.935 422.379L144.837 419.543C145.066 419.412 145.362 419.494 145.493 419.723C145.624 419.953 145.542 420.232 145.329 420.379L140.427 423.199C140.345 423.264 140.263 423.281 140.181 423.281ZM149.984 417.625C149.821 417.625 149.657 417.543 149.575 417.379C149.444 417.15 149.525 416.855 149.755 416.723L154.657 413.887C154.886 413.756 155.181 413.838 155.312 414.051C155.444 414.281 155.362 414.576 155.132 414.707L150.23 417.543C150.148 417.592 150.066 417.625 149.984 417.625ZM159.788 411.953C159.624 411.953 159.46 411.871 159.378 411.707C159.247 411.477 159.329 411.199 159.558 411.051L164.46 408.215C164.689 408.084 164.985 408.166 165.116 408.395C165.247 408.625 165.165 408.92 164.935 409.051L160.034 411.887C159.968 411.936 159.886 411.953 159.788 411.953ZM169.608 406.297C169.444 406.297 169.28 406.215 169.198 406.051C169.067 405.822 169.149 405.527 169.362 405.395L174.263 402.576C174.493 402.445 174.788 402.51 174.919 402.74C175.05 402.969 174.968 403.264 174.755 403.395L169.853 406.215C169.771 406.264 169.689 406.297 169.608 406.297ZM179.411 400.641C179.247 400.641 179.083 400.559 179.001 400.395C178.87 400.166 178.952 399.871 179.181 399.74L184.083 396.904C184.313 396.772 184.591 396.854 184.739 397.084C184.87 397.313 184.788 397.592 184.558 397.74L179.657 400.576C179.575 400.609 179.493 400.641 179.411 400.641ZM189.214 394.969C189.05 394.969 188.886 394.887 188.804 394.723C188.673 394.494 188.755 394.215 188.985 394.068L193.886 391.231C194.116 391.1 194.395 391.166 194.542 391.395C194.673 391.625 194.591 391.92 194.362 392.051L189.46 394.887C189.378 394.953 189.313 394.969 189.214 394.969ZM199.034 389.313C198.87 389.313 198.706 389.231 198.624 389.068C198.493 388.838 198.575 388.543 198.788 388.412L203.69 385.576C203.919 385.445 204.198 385.527 204.345 385.74C204.477 385.969 204.395 386.264 204.182 386.395L199.28 389.231C199.198 389.297 199.116 389.313 199.034 389.313Z" fill="#00000E"/>
<path d="M15.0951 495.494C15.0131 495.494 14.9312 495.478 14.8492 495.428L12.3738 493.986C12.1443 493.855 12.0623 493.56 12.1934 493.33C12.3246 493.101 12.6197 493.019 12.8492 493.166L15.0951 494.461L17.341 493.166C17.5705 493.035 17.8656 493.117 17.9968 493.33C18.1279 493.56 18.0459 493.855 17.8164 493.986L15.341 495.428C15.259 495.478 15.1935 495.494 15.0951 495.494Z" fill="#00000E"/>
<path d="M7.71973 491.229C7.63776 491.229 7.55579 491.213 7.47383 491.164L2.57217 488.328C2.34267 488.197 2.26068 487.902 2.39183 487.672C2.52298 487.443 2.81807 487.361 3.04758 487.508L7.94926 490.344C8.17877 490.475 8.26071 490.77 8.12956 491C8.04759 491.147 7.88367 491.229 7.71973 491.229ZM-2.08357 485.574C-2.16554 485.574 -2.24751 485.557 -2.32947 485.508L-7.23117 482.672C-7.46068 482.541 -7.54262 482.246 -7.41148 482.016C-7.28033 481.787 -6.98524 481.705 -6.75574 481.836L-1.85408 484.672C-1.62457 484.803 -1.54259 485.098 -1.67374 485.328C-1.77209 485.492 -1.91963 485.574 -2.08357 485.574ZM-11.8869 479.902C-11.9689 479.902 -12.0509 479.885 -12.1328 479.836L-17.0345 477C-17.264 476.869 -17.346 476.574 -17.2148 476.344C-17.0837 476.115 -16.7886 476.033 -16.5591 476.164L-11.6574 479C-11.4279 479.131 -11.3459 479.426 -11.4771 479.656C-11.5754 479.82 -11.723 479.902 -11.8869 479.902ZM-21.6903 474.246C-21.7722 474.246 -21.8542 474.229 -21.9362 474.18L-26.8378 471.344C-27.0673 471.213 -27.1493 470.918 -27.0182 470.688C-26.887 470.459 -26.5919 470.377 -26.3624 470.524L-21.4607 473.344C-21.2312 473.475 -21.1493 473.77 -21.2804 474C-21.3788 474.164 -21.5427 474.246 -21.6903 474.246ZM-31.51 468.574C-31.5919 468.574 -31.6739 468.557 -31.7559 468.508L-36.6575 465.672C-36.8871 465.541 -36.969 465.246 -36.8379 465.016C-36.7067 464.787 -36.4117 464.705 -36.1821 464.836L-31.2805 467.672C-31.051 467.803 -30.969 468.098 -31.1001 468.328C-31.1821 468.492 -31.3461 468.574 -31.51 468.574ZM-41.3133 462.918C-41.3953 462.918 -41.4772 462.901 -41.5428 462.852L-46.4445 460.016C-46.674 459.885 -46.756 459.59 -46.6248 459.36C-46.4937 459.131 -46.1986 459.049 -45.9691 459.18L-41.0674 462.016C-40.8379 462.147 -40.7559 462.442 -40.8871 462.672C-40.9854 462.836 -41.1494 462.918 -41.3133 462.918ZM-51.1166 457.262C-51.1986 457.262 -51.2806 457.246 -51.3625 457.196L-56.2642 454.36C-56.4937 454.229 -56.5757 453.934 -56.4445 453.705C-56.3134 453.475 -56.0183 453.393 -55.7888 453.541L-50.8871 456.377C-50.6576 456.508 -50.5757 456.803 -50.7068 457.033C-50.8052 457.164 -50.9691 457.262 -51.1166 457.262ZM-60.9364 451.59C-61.0183 451.59 -61.1003 451.574 -61.1823 451.524L-66.0839 448.688C-66.3134 448.557 -66.3954 448.262 -66.2643 448.033C-66.1331 447.803 -65.838 447.721 -65.6085 447.869L-60.7068 450.705C-60.4773 450.836 -60.3954 451.131 -60.5265 451.36C-60.6085 451.508 -60.7724 451.59 -60.9364 451.59ZM-70.7397 445.934C-70.8216 445.934 -70.9036 445.918 -70.9692 445.869L-75.8709 443.032C-76.1004 442.901 -76.1823 442.606 -76.0512 442.377C-75.92 442.147 -75.625 442.065 -75.3954 442.196L-70.4938 445.032C-70.2643 445.164 -70.1823 445.459 -70.3135 445.688C-70.4118 445.852 -70.5757 445.934 -70.7397 445.934ZM-80.543 440.262C-80.625 440.262 -80.707 440.246 -80.7889 440.196L-85.6906 437.36C-85.9201 437.229 -86.0021 436.934 -85.8709 436.705C-85.7398 436.475 -85.4447 436.393 -85.2152 436.524L-80.3135 439.36C-80.084 439.491 -80.002 439.787 -80.1332 440.016C-80.2315 440.18 -80.3791 440.262 -80.543 440.262ZM-90.3627 434.606C-90.4447 434.606 -90.5267 434.573 -90.6086 434.541L-95.5103 431.705C-95.7398 431.573 -95.8218 431.278 -95.6906 431.049C-95.5595 430.819 -95.2644 430.737 -95.0349 430.885L-90.1332 433.721C-89.9037 433.852 -89.8218 434.147 -89.9529 434.377C-90.0349 434.524 -90.1824 434.606 -90.3627 434.606ZM-100.166 428.934C-100.248 428.934 -100.33 428.918 -100.412 428.868L-105.314 426.032C-105.543 425.901 -105.625 425.606 -105.494 425.377C-105.363 425.147 -105.068 425.065 -104.838 425.196L-99.9366 428.032C-99.7071 428.164 -99.6251 428.459 -99.7562 428.688C-99.8382 428.852 -100.002 428.934 -100.166 428.934ZM-109.969 423.278C-110.051 423.278 -110.133 423.262 -110.215 423.213L-115.117 420.393C-115.346 420.262 -115.428 419.967 -115.297 419.737C-115.166 419.508 -114.871 419.426 -114.642 419.557L-109.74 422.393C-109.51 422.524 -109.428 422.819 -109.56 423.049C-109.642 423.196 -109.805 423.278 -109.969 423.278ZM-119.773 417.623C-119.855 417.623 -119.937 417.606 -120.019 417.557L-124.92 414.721C-125.15 414.59 -125.232 414.295 -125.101 414.065C-124.969 413.836 -124.674 413.754 -124.445 413.901L-119.543 416.737C-119.314 416.868 -119.232 417.163 -119.363 417.393C-119.461 417.524 -119.609 417.623 -119.773 417.623ZM-129.592 411.95C-129.674 411.95 -129.756 411.934 -129.822 411.885L-134.724 409.049C-134.953 408.918 -135.035 408.622 -134.904 408.393C-134.773 408.163 -134.478 408.081 -134.248 408.213L-129.347 411.049C-129.117 411.18 -129.035 411.475 -129.166 411.704C-129.265 411.868 -129.429 411.95 -129.592 411.95ZM-139.396 406.295C-139.478 406.295 -139.56 406.278 -139.642 406.229L-144.543 403.409C-144.773 403.278 -144.855 402.983 -144.724 402.754C-144.593 402.524 -144.297 402.442 -144.068 402.59L-139.166 405.409C-138.937 405.54 -138.855 405.836 -138.986 406.065C-139.068 406.213 -139.232 406.295 -139.396 406.295ZM-149.199 400.639C-149.281 400.639 -149.363 400.622 -149.445 400.573L-154.347 397.737C-154.576 397.606 -154.658 397.311 -154.527 397.081C-154.396 396.852 -154.101 396.77 -153.871 396.901L-148.97 399.737C-148.74 399.868 -148.658 400.163 -148.789 400.393C-148.888 400.54 -149.035 400.639 -149.199 400.639ZM-159.019 394.967C-159.101 394.967 -159.183 394.95 -159.248 394.901L-164.15 392.065C-164.38 391.934 -164.461 391.639 -164.33 391.409C-164.199 391.18 -163.904 391.098 -163.675 391.245L-158.773 394.081C-158.543 394.213 -158.461 394.508 -158.593 394.737C-158.691 394.885 -158.838 394.967 -159.019 394.967ZM-168.822 389.311C-168.904 389.311 -168.986 389.294 -169.068 389.245L-173.97 386.409C-174.199 386.278 -174.281 385.983 -174.15 385.753C-174.019 385.524 -173.724 385.442 -173.494 385.59L-168.593 388.426C-168.363 388.557 -168.281 388.852 -168.412 389.081C-168.494 389.213 -168.658 389.311 -168.822 389.311Z" fill="#00000E"/>
<path d="M15.095 405.806C14.9311 405.806 14.7671 405.757 14.6196 405.675L-103.496 337.478C-103.791 337.314 -103.971 337.003 -103.971 336.658V200.264C-103.971 199.92 -103.791 199.609 -103.496 199.445L14.6196 131.248C14.9147 131.084 15.2917 131.084 15.5704 131.248L133.686 199.445C133.981 199.609 134.161 199.936 134.161 200.264V336.658C134.161 337.003 133.981 337.314 133.686 337.478L15.5704 405.675C15.4393 405.757 15.2589 405.806 15.095 405.806ZM-102.053 336.101L15.1114 403.741L132.276 336.101V200.805L15.1114 133.166L-102.053 200.805V336.101Z" fill="#00000E"/>
<path d="M15.0967 539.068C14.8344 539.068 14.6213 538.855 14.6213 538.593V510.609C14.6213 510.347 14.8344 510.134 15.0967 510.134C15.359 510.134 15.5722 510.347 15.5722 510.609V538.593C15.5886 538.855 15.3754 539.068 15.0967 539.068Z" fill="#00000E"/>
<path d="M15.097 28.9346C14.8347 28.9346 14.6216 28.7215 14.6216 28.4592V0.475416C14.6216 0.21312 14.8347 0 15.097 0C15.3593 0 15.5724 0.21312 15.5724 0.475416V28.4592C15.5888 28.7215 15.3757 28.9346 15.097 28.9346Z" fill="#00000E"/>
<path d="M248.113 404.543C248.031 404.543 247.949 404.527 247.867 404.478L223.637 390.494C223.408 390.363 223.326 390.068 223.457 389.838C223.588 389.609 223.883 389.527 224.113 389.658L248.342 403.658C248.572 403.789 248.654 404.084 248.523 404.314C248.424 404.461 248.277 404.543 248.113 404.543Z" fill="#00000E"/>
<path d="M223.867 149.493C223.703 149.493 223.539 149.411 223.457 149.247C223.326 149.017 223.408 148.722 223.637 148.591L247.867 134.591C248.096 134.46 248.391 134.542 248.523 134.771C248.654 135.001 248.572 135.296 248.359 135.427L224.129 149.427C224.031 149.476 223.949 149.493 223.867 149.493Z" fill="#00000E"/>
<path d="M15.095 494.625C14.8327 494.625 14.6196 494.412 14.6196 494.15V488.428C14.6196 488.166 14.8327 487.953 15.095 487.953C15.3573 487.953 15.5705 488.166 15.5705 488.428V494.15C15.5869 494.412 15.3737 494.625 15.095 494.625ZM15.095 483.182C14.8327 483.182 14.6196 482.969 14.6196 482.707V476.986C14.6196 476.723 14.8327 476.51 15.095 476.51C15.3573 476.51 15.5705 476.723 15.5705 476.986V482.707C15.5869 482.969 15.3737 483.182 15.095 483.182ZM15.095 471.723C14.8327 471.723 14.6196 471.51 14.6196 471.248V465.527C14.6196 465.264 14.8327 465.051 15.095 465.051C15.3573 465.051 15.5705 465.264 15.5705 465.527V471.248C15.5869 471.51 15.3737 471.723 15.095 471.723ZM15.095 460.281C14.8327 460.281 14.6196 460.068 14.6196 459.805V454.084C14.6196 453.822 14.8327 453.609 15.095 453.609C15.3573 453.609 15.5705 453.822 15.5705 454.084V459.805C15.5869 460.068 15.3737 460.281 15.095 460.281ZM15.095 448.838C14.8327 448.838 14.6196 448.625 14.6196 448.363V442.641C14.6196 442.379 14.8327 442.166 15.095 442.166C15.3573 442.166 15.5705 442.379 15.5705 442.641V448.363C15.5869 448.608 15.3737 448.838 15.095 448.838ZM15.095 437.379C14.8327 437.379 14.6196 437.166 14.6196 436.903V431.182C14.6196 430.92 14.8327 430.707 15.095 430.707C15.3573 430.707 15.5705 430.936 15.5705 431.182V436.903C15.5869 437.166 15.3737 437.379 15.095 437.379ZM15.095 425.936C14.8327 425.936 14.6196 425.723 14.6196 425.461V419.739C14.6196 419.477 14.8327 419.264 15.095 419.264C15.3573 419.264 15.5705 419.477 15.5705 419.739V425.461C15.5869 425.707 15.3737 425.936 15.095 425.936ZM15.095 414.477C14.8327 414.477 14.6196 414.264 14.6196 414.002V408.28C14.6196 408.018 14.8327 407.805 15.095 407.805C15.3573 407.805 15.5705 408.018 15.5705 408.28V414.002C15.5869 414.264 15.3737 414.477 15.095 414.477ZM15.095 403.034C14.8327 403.034 14.6196 402.821 14.6196 402.559V396.838C14.6196 396.575 14.8327 396.362 15.095 396.362C15.3573 396.362 15.5705 396.575 15.5705 396.838V402.559C15.5869 402.821 15.3737 403.034 15.095 403.034ZM15.095 391.575C14.8327 391.575 14.6196 391.362 14.6196 391.1V385.379C14.6196 385.116 14.8327 384.903 15.095 384.903C15.3573 384.903 15.5705 385.116 15.5705 385.379V391.1C15.5869 391.362 15.3737 391.575 15.095 391.575ZM15.095 380.133C14.8327 380.133 14.6196 379.92 14.6196 379.657V373.936C14.6196 373.674 14.8327 373.461 15.095 373.461C15.3573 373.461 15.5705 373.674 15.5705 373.936V379.657C15.5869 379.92 15.3737 380.133 15.095 380.133ZM15.095 368.69C14.8327 368.69 14.6196 368.477 14.6196 368.215V362.493C14.6196 362.231 14.8327 362.018 15.095 362.018C15.3573 362.018 15.5705 362.231 15.5705 362.493V368.215C15.5869 368.46 15.3737 368.69 15.095 368.69ZM15.095 357.231C14.8327 357.231 14.6196 357.018 14.6196 356.756V351.034C14.6196 350.772 14.8327 350.559 15.095 350.559C15.3573 350.559 15.5705 350.772 15.5705 351.034V356.756C15.5869 357.018 15.3737 357.231 15.095 357.231ZM15.095 345.788C14.8327 345.788 14.6196 345.575 14.6196 345.313V339.591C14.6196 339.329 14.8327 339.116 15.095 339.116C15.3573 339.116 15.5705 339.329 15.5705 339.591V345.313C15.5869 345.575 15.3737 345.788 15.095 345.788ZM15.095 334.329C14.8327 334.329 14.6196 334.116 14.6196 333.854V328.132C14.6196 327.87 14.8327 327.657 15.095 327.657C15.3573 327.657 15.5705 327.87 15.5705 328.132V333.854C15.5869 334.116 15.3737 334.329 15.095 334.329ZM15.095 322.886C14.8327 322.886 14.6196 322.673 14.6196 322.411V316.69C14.6196 316.427 14.8327 316.214 15.095 316.214C15.3573 316.214 15.5705 316.427 15.5705 316.69V322.411C15.5869 322.673 15.3737 322.886 15.095 322.886ZM15.095 311.427C14.8327 311.427 14.6196 311.214 14.6196 310.952V305.231C14.6196 304.968 14.8327 304.755 15.095 304.755C15.3573 304.755 15.5705 304.968 15.5705 305.231V310.952C15.5869 311.214 15.3737 311.427 15.095 311.427ZM15.095 299.985C14.8327 299.985 14.6196 299.772 14.6196 299.509V293.788C14.6196 293.526 14.8327 293.313 15.095 293.313C15.3573 293.313 15.5705 293.526 15.5705 293.788V299.509C15.5869 299.772 15.3737 299.985 15.095 299.985ZM15.095 288.526C14.8327 288.526 14.6196 288.313 14.6196 288.05V282.329C14.6196 282.067 14.8327 281.854 15.095 281.854C15.3573 281.854 15.5705 282.067 15.5705 282.329V288.05C15.5869 288.329 15.3737 288.526 15.095 288.526ZM15.095 277.083C14.8327 277.083 14.6196 276.87 14.6196 276.608V270.886C14.6196 270.624 14.8327 270.411 15.095 270.411C15.3573 270.411 15.5705 270.624 15.5705 270.886V276.608C15.5869 276.87 15.3737 277.083 15.095 277.083ZM15.095 265.64C14.8327 265.64 14.6196 265.427 14.6196 265.165V259.444C14.6196 259.181 14.8327 258.968 15.095 258.968C15.3573 258.968 15.5705 259.181 15.5705 259.444V265.165C15.5869 265.427 15.3737 265.64 15.095 265.64ZM15.095 254.181C14.8327 254.181 14.6196 253.968 14.6196 253.706V247.984C14.6196 247.722 14.8327 247.509 15.095 247.509C15.3573 247.509 15.5705 247.722 15.5705 247.984V253.706C15.5869 253.968 15.3737 254.181 15.095 254.181ZM15.095 242.739C14.8327 242.739 14.6196 242.525 14.6196 242.263V236.542C14.6196 236.279 14.8327 236.066 15.095 236.066C15.3573 236.066 15.5705 236.279 15.5705 236.542V242.263C15.5869 242.525 15.3737 242.739 15.095 242.739ZM15.095 231.279C14.8327 231.279 14.6196 231.066 14.6196 230.804V225.083C14.6196 224.82 14.8327 224.607 15.095 224.607C15.3573 224.607 15.5705 224.82 15.5705 225.083V230.804C15.5869 231.066 15.3737 231.279 15.095 231.279ZM15.095 219.837C14.8327 219.837 14.6196 219.624 14.6196 219.361V213.64C14.6196 213.378 14.8327 213.165 15.095 213.165C15.3573 213.165 15.5705 213.378 15.5705 213.64V219.361C15.5869 219.624 15.3737 219.837 15.095 219.837ZM15.095 208.394C14.8327 208.394 14.6196 208.181 14.6196 207.919V202.197C14.6196 201.935 14.8327 201.722 15.095 201.722C15.3573 201.722 15.5705 201.935 15.5705 202.197V207.919C15.5869 208.181 15.3737 208.394 15.095 208.394ZM15.095 196.935C14.8327 196.935 14.6196 196.722 14.6196 196.46V190.738C14.6196 190.476 14.8327 190.263 15.095 190.263C15.3573 190.263 15.5705 190.476 15.5705 190.738V196.46C15.5869 196.722 15.3737 196.935 15.095 196.935ZM15.095 185.492C14.8327 185.492 14.6196 185.279 14.6196 185.017V179.296C14.6196 179.033 14.8327 178.82 15.095 178.82C15.3573 178.82 15.5705 179.033 15.5705 179.296V185.017C15.5869 185.279 15.3737 185.492 15.095 185.492ZM15.095 174.033C14.8327 174.033 14.6196 173.82 14.6196 173.558V167.836C14.6196 167.574 14.8327 167.361 15.095 167.361C15.3573 167.361 15.5705 167.574 15.5705 167.836V173.558C15.5869 173.82 15.3737 174.033 15.095 174.033ZM15.095 162.591C14.8327 162.591 14.6196 162.377 14.6196 162.115V156.394C14.6196 156.132 14.8327 155.918 15.095 155.918C15.3573 155.918 15.5705 156.132 15.5705 156.394V162.115C15.5869 162.377 15.3737 162.591 15.095 162.591ZM15.095 151.148C14.8327 151.148 14.6196 150.935 14.6196 150.672V144.951C14.6196 144.689 14.8327 144.476 15.095 144.476C15.3573 144.476 15.5705 144.689 15.5705 144.951V150.672C15.5869 150.935 15.3737 151.148 15.095 151.148ZM15.095 139.689C14.8327 139.689 14.6196 139.476 14.6196 139.213V133.492C14.6196 133.23 14.8327 133.017 15.095 133.017C15.3573 133.017 15.5705 133.23 15.5705 133.492V139.213C15.5869 139.476 15.3737 139.689 15.095 139.689ZM15.095 128.246C14.8327 128.246 14.6196 128.033 14.6196 127.771V122.049C14.6196 121.787 14.8327 121.574 15.095 121.574C15.3573 121.574 15.5705 121.787 15.5705 122.049V127.771C15.5869 128.033 15.3737 128.246 15.095 128.246ZM15.095 116.787C14.8327 116.787 14.6196 116.574 14.6196 116.312V110.59C14.6196 110.328 14.8327 110.115 15.095 110.115C15.3573 110.115 15.5705 110.328 15.5705 110.59V116.312C15.5869 116.574 15.3737 116.787 15.095 116.787ZM15.095 105.344C14.8327 105.344 14.6196 105.131 14.6196 104.869V99.1476C14.6196 98.8853 14.8327 98.6722 15.095 98.6722C15.3573 98.6722 15.5705 98.8853 15.5705 99.1476V104.869C15.5869 105.131 15.3737 105.344 15.095 105.344ZM15.095 93.8853C14.8327 93.8853 14.6196 93.6721 14.6196 93.4098V87.6885C14.6196 87.4262 14.8327 87.2131 15.095 87.2131C15.3573 87.2131 15.5705 87.4262 15.5705 87.6885V93.4098C15.5869 93.6885 15.3737 93.8853 15.095 93.8853ZM15.095 82.4426C14.8327 82.4426 14.6196 82.2295 14.6196 81.9672V76.2458C14.6196 75.9835 14.8327 75.7704 15.095 75.7704C15.3573 75.7704 15.5705 75.9835 15.5705 76.2458V81.9672C15.5869 82.2295 15.3737 82.4426 15.095 82.4426ZM15.095 70.9999C14.8327 70.9999 14.6196 70.7868 14.6196 70.5245V64.7867C14.6196 64.5244 14.8327 64.3113 15.095 64.3113C15.3573 64.3113 15.5705 64.5244 15.5705 64.7867V70.5081C15.5869 70.7868 15.3737 70.9999 15.095 70.9999ZM15.095 59.5408C14.8327 59.5408 14.6196 59.3277 14.6196 59.0654V53.3441C14.6196 53.0818 14.8327 52.8686 15.095 52.8686C15.3573 52.8686 15.5705 53.0818 15.5705 53.3441V59.0654C15.5869 59.3277 15.3737 59.5408 15.095 59.5408ZM15.095 48.0981C14.8327 48.0981 14.6196 47.885 14.6196 47.6227V41.9014C14.6196 41.6391 14.8327 41.426 15.095 41.426C15.3573 41.426 15.5705 41.6391 15.5705 41.9014V47.6227C15.5869 47.885 15.3737 48.0981 15.095 48.0981Z" fill="#00000E"/>
<path d="M-181.1 382.212C-181.264 382.212 -181.428 382.13 -181.51 381.966C-181.641 381.737 -181.559 381.442 -181.329 381.311L-176.378 378.442C-176.149 378.311 -175.854 378.393 -175.723 378.622C-175.592 378.852 -175.674 379.147 -175.903 379.278L-180.854 382.147C-180.936 382.196 -181.018 382.212 -181.1 382.212ZM-171.182 376.491C-171.346 376.491 -171.51 376.409 -171.592 376.245C-171.723 376.016 -171.641 375.72 -171.411 375.589L-166.46 372.72C-166.231 372.589 -165.952 372.671 -165.805 372.884C-165.674 373.114 -165.755 373.409 -165.985 373.54L-170.936 376.393C-171.018 376.475 -171.1 376.491 -171.182 376.491ZM-161.264 370.77C-161.428 370.77 -161.592 370.688 -161.69 370.524C-161.821 370.294 -161.739 369.999 -161.51 369.868L-156.559 366.999C-156.329 366.868 -156.051 366.95 -155.903 367.179C-155.772 367.409 -155.854 367.688 -156.083 367.835L-161.034 370.688C-161.116 370.737 -161.182 370.77 -161.264 370.77ZM-151.346 365.032C-151.51 365.032 -151.673 364.95 -151.772 364.786C-151.903 364.556 -151.821 364.261 -151.591 364.13L-146.641 361.261C-146.411 361.13 -146.116 361.212 -145.985 361.425C-145.854 361.655 -145.936 361.95 -146.165 362.081L-151.132 364.95C-151.198 365.015 -151.28 365.032 -151.346 365.032ZM-141.444 359.311C-141.608 359.311 -141.772 359.229 -141.87 359.065C-142.001 358.835 -141.919 358.556 -141.69 358.409L-136.723 355.54C-136.493 355.409 -136.198 355.491 -136.067 355.72C-135.936 355.95 -136.018 356.245 -136.247 356.376L-141.214 359.229C-141.28 359.294 -141.362 359.311 -141.444 359.311ZM-131.526 353.589C-131.69 353.589 -131.854 353.507 -131.936 353.343C-132.067 353.114 -131.985 352.819 -131.755 352.688L-126.788 349.835C-126.559 349.704 -126.263 349.786 -126.132 349.999C-126.001 350.229 -126.083 350.524 -126.313 350.655L-131.28 353.524C-131.362 353.573 -131.444 353.589 -131.526 353.589ZM-121.608 347.868C-121.772 347.868 -121.936 347.786 -122.018 347.622C-122.149 347.392 -122.067 347.097 -121.854 346.966L-116.886 344.097C-116.657 343.966 -116.362 344.048 -116.231 344.278C-116.099 344.507 -116.181 344.802 -116.411 344.933L-121.378 347.786C-121.444 347.835 -121.526 347.868 -121.608 347.868ZM-111.69 342.13C-111.854 342.13 -112.018 342.048 -112.099 341.884C-112.231 341.655 -112.149 341.36 -111.919 341.228L-106.968 338.36C-106.739 338.228 -106.444 338.31 -106.313 338.524C-106.181 338.753 -106.263 339.048 -106.493 339.179L-111.444 342.048C-111.526 342.114 -111.608 342.13 -111.69 342.13ZM-101.788 336.409C-101.952 336.409 -102.116 336.327 -102.198 336.163C-102.329 335.933 -102.247 335.638 -102.017 335.507L-97.0666 332.638C-96.8535 332.507 -96.542 332.589 -96.4109 332.819C-96.2797 333.048 -96.3617 333.343 -96.5912 333.474L-101.542 336.343C-101.608 336.392 -101.69 336.409 -101.788 336.409ZM-91.8535 330.687C-92.0174 330.687 -92.1813 330.605 -92.2797 330.441C-92.4109 330.212 -92.3289 329.917 -92.0994 329.786L-87.1485 326.917C-86.919 326.786 -86.6403 326.868 -86.4928 327.097C-86.3616 327.327 -86.4436 327.622 -86.6731 327.753L-91.624 330.622C-91.7059 330.671 -91.7715 330.687 -91.8535 330.687ZM-81.9518 324.966C-82.1157 324.966 -82.2796 324.884 -82.3616 324.72C-82.4928 324.491 -82.4108 324.196 -82.1813 324.064L-77.2305 321.196C-77.0009 321.064 -76.7223 321.146 -76.5747 321.359C-76.4436 321.589 -76.5255 321.884 -76.755 322.015L-81.7059 324.868C-81.7878 324.95 -81.8698 324.966 -81.9518 324.966ZM-72.0337 319.245C-72.1976 319.245 -72.3616 319.163 -72.4435 318.999C-72.5747 318.769 -72.4927 318.474 -72.2796 318.343L-67.3124 315.474C-67.0829 315.343 -66.7878 315.425 -66.6566 315.638C-66.5255 315.868 -66.6074 316.163 -66.837 316.294L-71.7878 319.163C-71.8698 319.228 -71.9517 319.245 -72.0337 319.245ZM-62.1156 313.523C-62.2795 313.523 -62.4435 313.441 -62.5255 313.277C-62.6566 313.048 -62.5746 312.753 -62.3451 312.622L-57.3779 309.753C-57.1484 309.622 -56.8533 309.704 -56.7221 309.933C-56.591 310.163 -56.673 310.458 -56.9025 310.589L-61.8533 313.441C-61.9517 313.491 -62.0336 313.523 -62.1156 313.523ZM-52.1975 307.786C-52.3615 307.786 -52.5254 307.704 -52.6074 307.54C-52.7385 307.31 -52.6565 307.015 -52.4434 306.884L-47.4762 304.015C-47.2467 303.884 -46.9516 303.966 -46.8205 304.195C-46.6893 304.425 -46.7713 304.72 -47.0008 304.851L-51.968 307.72C-52.0336 307.769 -52.1156 307.786 -52.1975 307.786ZM-42.2794 302.064C-42.4434 302.064 -42.6073 301.982 -42.6893 301.818C-42.8204 301.589 -42.7385 301.294 -42.509 301.163L-37.5581 298.294C-37.3286 298.163 -37.0335 298.245 -36.9024 298.458C-36.7712 298.687 -36.8532 298.982 -37.0827 299.113L-42.0335 301.982C-42.1155 302.048 -42.1975 302.064 -42.2794 302.064ZM-32.3777 296.343C-32.5417 296.343 -32.7056 296.261 -32.7876 296.097C-32.9187 295.868 -32.8368 295.572 -32.6073 295.441L-27.6564 292.572C-27.4269 292.441 -27.1482 292.523 -27.0007 292.753C-26.8695 292.982 -26.9515 293.277 -27.181 293.409L-32.1319 296.277C-32.1974 296.327 -32.2794 296.343 -32.3777 296.343ZM-22.4433 290.622C-22.6072 290.622 -22.7711 290.54 -22.8695 290.376C-23.0007 290.146 -22.9187 289.851 -22.6892 289.72L-17.7383 286.851C-17.5088 286.72 -17.2137 286.802 -17.0826 287.031C-16.9514 287.261 -17.0334 287.556 -17.2629 287.687L-22.2138 290.54C-22.2957 290.589 -22.3777 290.622 -22.4433 290.622ZM-12.5416 284.9C-12.7055 284.9 -12.8694 284.818 -12.9514 284.654C-13.0826 284.425 -13.0006 284.13 -12.7711 283.999L-7.80386 281.13C-7.57434 280.999 -7.29565 281.081 -7.14812 281.31C-7.01697 281.54 -7.09891 281.835 -7.32841 281.966L-12.2957 284.835C-12.3776 284.868 -12.4596 284.9 -12.5416 284.9ZM-2.62349 279.163C-2.78741 279.163 -2.95135 279.081 -3.03333 278.917C-3.16447 278.687 -3.0825 278.392 -2.86938 278.261L2.09785 275.392C2.32736 275.261 2.62245 275.343 2.7536 275.572C2.88475 275.802 2.80276 276.097 2.57326 276.228L-2.394 279.081C-2.45956 279.146 -2.54152 279.163 -2.62349 279.163ZM7.2946 273.441C7.13066 273.441 6.96672 273.359 6.88477 273.195C6.75362 272.966 6.83556 272.671 7.06506 272.54L12.0323 269.671C12.2618 269.54 12.5569 269.621 12.688 269.851C12.8192 270.081 12.7373 270.376 12.5078 270.507L7.5405 273.376C7.45853 273.425 7.37657 273.441 7.2946 273.441ZM17.2127 267.72C17.0488 267.72 16.8848 267.638 16.8028 267.474C16.6717 267.244 16.7537 266.949 16.9668 266.818L21.934 263.949C22.1635 263.818 22.4586 263.884 22.5898 264.13C22.7209 264.359 22.6389 264.654 22.4094 264.785L17.4422 267.654C17.3766 267.703 17.2946 267.72 17.2127 267.72ZM27.1308 261.999C26.9668 261.999 26.8029 261.917 26.7209 261.753C26.5898 261.523 26.6717 261.228 26.9012 261.097L31.8521 258.228C32.0816 258.097 32.3767 258.179 32.5079 258.408C32.639 258.638 32.557 258.933 32.3275 259.064L27.3767 261.933C27.2947 261.966 27.2127 261.999 27.1308 261.999ZM37.0324 256.261C36.8685 256.261 36.7046 256.179 36.6226 256.015C36.4915 255.785 36.5734 255.49 36.8029 255.359L41.7538 252.49C41.9833 252.359 42.2784 252.425 42.4095 252.671C42.5407 252.9 42.4587 253.195 42.2292 253.326L37.262 256.195C37.1964 256.244 37.1308 256.261 37.0324 256.261ZM46.9505 250.539C46.7866 250.539 46.6227 250.457 46.5407 250.294C46.4095 250.064 46.4915 249.769 46.721 249.638L51.6719 246.769C51.9014 246.638 52.1965 246.72 52.3276 246.949C52.4588 247.179 52.3768 247.474 52.1473 247.605L47.1964 250.474C47.1145 250.523 47.0325 250.539 46.9505 250.539ZM56.8686 244.818C56.7047 244.818 56.5407 244.736 56.4588 244.572C56.3276 244.343 56.4096 244.048 56.6391 243.916L61.59 241.048C61.8195 240.916 62.1145 240.998 62.2457 241.228C62.3768 241.457 62.2949 241.753 62.0654 241.884L57.1145 244.753C57.0325 244.802 56.9506 244.818 56.8686 244.818ZM66.7867 239.097C66.6228 239.097 66.4588 239.015 66.3769 238.851C66.2457 238.621 66.3277 238.326 66.5408 238.195L71.4916 235.326C71.7211 235.195 72.0162 235.261 72.1474 235.507C72.2785 235.736 72.1966 236.031 71.9671 236.162L67.0162 239.031C66.9507 239.08 66.8687 239.097 66.7867 239.097ZM76.7048 233.359C76.5408 233.359 76.3769 233.277 76.295 233.113C76.1638 232.884 76.2458 232.589 76.4753 232.457L81.4261 229.589C81.6556 229.457 81.9507 229.539 82.0818 229.769C82.213 229.998 82.131 230.293 81.9015 230.425L76.9507 233.293C76.8687 233.343 76.7867 233.359 76.7048 233.359ZM86.6229 227.638C86.4589 227.638 86.295 227.556 86.213 227.392C86.0819 227.162 86.1638 226.867 86.377 226.736L91.3278 223.884C91.5573 223.752 91.836 223.834 91.9836 224.064C92.1147 224.293 92.0327 224.588 91.8032 224.72L86.8524 227.588C86.7868 227.621 86.7048 227.638 86.6229 227.638ZM96.5246 221.916C96.3606 221.916 96.1967 221.834 96.1147 221.67C95.9836 221.441 96.0655 221.146 96.295 221.015L101.246 218.146C101.475 218.015 101.754 218.097 101.902 218.326C102.033 218.556 101.951 218.851 101.721 218.982L96.7705 221.851C96.7049 221.9 96.6229 221.916 96.5246 221.916ZM106.443 216.195C106.279 216.195 106.115 216.113 106.033 215.949C105.902 215.72 105.984 215.424 106.197 215.293L111.164 212.424C111.393 212.293 111.672 212.375 111.82 212.605C111.951 212.834 111.869 213.129 111.639 213.261L106.689 216.129C106.607 216.179 106.525 216.195 106.443 216.195ZM116.361 210.474C116.197 210.474 116.033 210.392 115.951 210.228C115.82 209.998 115.902 209.703 116.115 209.572L121.082 206.703C121.312 206.572 121.59 206.638 121.738 206.883C121.869 207.113 121.787 207.408 121.557 207.539L116.607 210.408C116.525 210.441 116.443 210.474 116.361 210.474ZM126.279 204.752C126.115 204.752 125.951 204.67 125.869 204.506C125.738 204.277 125.82 203.982 126.033 203.851L131 200.982C131.23 200.851 131.508 200.933 131.656 201.162C131.787 201.392 131.705 201.687 131.476 201.818L126.508 204.687C126.443 204.72 126.361 204.752 126.279 204.752ZM136.197 199.015C136.033 199.015 135.869 198.933 135.787 198.785C135.656 198.556 135.738 198.26 135.951 198.129L140.918 195.26C141.148 195.129 141.426 195.195 141.574 195.441C141.705 195.67 141.623 195.965 141.394 196.097L136.426 198.965C136.361 198.998 136.279 199.015 136.197 199.015ZM146.115 193.293C145.951 193.293 145.787 193.211 145.705 193.047C145.574 192.818 145.656 192.523 145.885 192.392L150.836 189.523C151.066 189.392 151.345 189.474 151.492 189.703C151.623 189.933 151.541 190.228 151.328 190.359L146.377 193.228C146.279 193.277 146.197 193.293 146.115 193.293ZM156.033 187.572C155.869 187.572 155.705 187.49 155.623 187.326C155.492 187.096 155.574 186.801 155.804 186.67L160.754 183.801C160.967 183.67 161.263 183.752 161.41 183.982C161.541 184.211 161.459 184.506 161.246 184.637L156.295 187.506C156.197 187.556 156.115 187.572 156.033 187.572ZM165.935 181.851C165.771 181.851 165.607 181.769 165.525 181.605C165.394 181.375 165.476 181.08 165.705 180.949L170.656 178.08C170.886 177.949 171.181 178.031 171.312 178.26C171.443 178.49 171.361 178.785 171.148 178.916L166.197 181.785C166.115 181.818 166.033 181.851 165.935 181.851ZM175.853 176.129C175.689 176.129 175.525 176.047 175.443 175.883C175.312 175.654 175.394 175.359 175.623 175.228L180.574 172.359C180.804 172.228 181.082 172.31 181.23 172.539C181.361 172.769 181.279 173.064 181.05 173.195L176.099 176.064C176.017 176.096 175.935 176.129 175.853 176.129ZM185.771 170.391C185.607 170.391 185.443 170.31 185.361 170.146C185.23 169.916 185.312 169.621 185.541 169.49L190.492 166.621C190.722 166.49 191.017 166.572 191.148 166.801C191.279 167.031 191.197 167.326 190.968 167.457L186.017 170.326C185.935 170.375 185.853 170.391 185.771 170.391ZM195.689 164.67C195.525 164.67 195.361 164.588 195.279 164.424C195.148 164.195 195.23 163.9 195.46 163.768L200.41 160.9C200.64 160.768 200.935 160.85 201.066 161.08C201.197 161.309 201.115 161.605 200.886 161.736L195.935 164.605C195.853 164.654 195.771 164.67 195.689 164.67ZM205.607 158.949C205.443 158.949 205.279 158.867 205.197 158.703C205.066 158.473 205.148 158.178 205.361 158.047L210.312 155.178C210.542 155.047 210.837 155.113 210.968 155.359C211.099 155.588 211.017 155.883 210.787 156.014L205.837 158.883C205.771 158.932 205.689 158.949 205.607 158.949Z" fill="#00000E"/>
<path d="M210.555 381.773C210.473 381.773 210.391 381.756 210.309 381.707L205.358 378.838C205.129 378.707 205.047 378.412 205.194 378.182C205.326 377.953 205.621 377.871 205.85 378.018L210.801 380.887C211.03 381.018 211.112 381.314 210.981 381.543C210.883 381.691 210.719 381.773 210.555 381.773ZM200.653 376.051C200.571 376.051 200.489 376.035 200.407 375.986L195.457 373.117C195.227 372.986 195.145 372.691 195.276 372.461C195.407 372.232 195.703 372.15 195.932 372.281L200.883 375.15C201.112 375.281 201.194 375.576 201.063 375.805C200.965 375.969 200.801 376.051 200.653 376.051ZM190.735 370.33C190.653 370.33 190.571 370.313 190.489 370.264L185.539 367.395C185.309 367.264 185.227 366.969 185.358 366.74C185.489 366.51 185.784 366.428 186.014 366.576L190.965 369.428C191.194 369.559 191.276 369.855 191.145 370.084C191.047 370.248 190.899 370.33 190.735 370.33ZM180.817 364.609C180.735 364.609 180.653 364.592 180.571 364.543L175.62 361.674C175.391 361.543 175.309 361.248 175.44 361.018C175.571 360.789 175.866 360.707 176.096 360.838L181.047 363.707C181.276 363.838 181.358 364.133 181.227 364.363C181.145 364.51 180.981 364.609 180.817 364.609ZM170.899 358.887C170.817 358.887 170.735 358.871 170.653 358.822L165.702 355.953C165.473 355.822 165.391 355.527 165.522 355.297C165.653 355.068 165.948 354.986 166.178 355.133L171.129 357.986C171.358 358.117 171.44 358.412 171.293 358.641C171.227 358.789 171.063 358.887 170.899 358.887ZM160.981 353.149C160.899 353.149 160.817 353.133 160.735 353.084L155.784 350.215C155.555 350.084 155.473 349.789 155.604 349.559C155.735 349.33 156.03 349.248 156.26 349.379L161.211 352.248C161.44 352.379 161.522 352.674 161.374 352.904C161.309 353.068 161.145 353.149 160.981 353.149ZM151.063 347.428C150.981 347.428 150.899 347.412 150.817 347.363L145.866 344.494C145.637 344.363 145.555 344.067 145.686 343.838C145.817 343.608 146.112 343.526 146.342 343.674L151.292 346.527C151.522 346.658 151.604 346.953 151.456 347.182C151.391 347.346 151.227 347.428 151.063 347.428ZM141.145 341.707C141.063 341.707 140.981 341.69 140.915 341.641L135.948 338.772C135.719 338.641 135.653 338.346 135.784 338.117C135.915 337.887 136.21 337.805 136.44 337.936L141.407 340.805C141.637 340.936 141.719 341.231 141.587 341.461C141.473 341.625 141.309 341.707 141.145 341.707ZM131.227 335.985C131.145 335.985 131.063 335.969 130.997 335.92L126.03 333.067C125.801 332.936 125.719 332.641 125.866 332.412C125.997 332.182 126.292 332.1 126.522 332.231L131.489 335.1C131.719 335.231 131.801 335.526 131.669 335.756C131.555 335.903 131.391 335.985 131.227 335.985ZM121.309 330.264C121.227 330.264 121.145 330.248 121.079 330.199L116.112 327.33C115.882 327.199 115.8 326.903 115.948 326.674C116.079 326.444 116.374 326.362 116.604 326.494L121.555 329.362C121.784 329.494 121.866 329.789 121.735 330.018C121.637 330.166 121.489 330.264 121.309 330.264ZM111.407 324.526C111.325 324.526 111.243 324.51 111.161 324.461L106.194 321.592C105.964 321.461 105.882 321.166 106.03 320.936C106.161 320.707 106.456 320.625 106.686 320.772L111.637 323.641C111.866 323.772 111.948 324.067 111.817 324.297C111.735 324.444 111.571 324.526 111.407 324.526ZM101.489 318.805C101.407 318.805 101.325 318.789 101.243 318.74L96.2921 315.871C96.0626 315.739 95.9807 315.444 96.1118 315.215C96.243 314.985 96.5381 314.903 96.7676 315.035L101.718 317.903C101.948 318.035 102.03 318.33 101.899 318.559C101.817 318.723 101.653 318.805 101.489 318.805ZM91.5708 313.084C91.4888 313.084 91.4069 313.067 91.3249 313.018L86.3741 310.149C86.1446 310.018 86.0626 309.723 86.2101 309.494C86.3413 309.264 86.6364 309.182 86.8659 309.33L91.8167 312.198C92.0462 312.33 92.1282 312.625 91.997 312.854C91.8987 313.002 91.7347 313.084 91.5708 313.084ZM81.6527 307.362C81.5707 307.362 81.4888 307.346 81.4068 307.297L76.456 304.428C76.2265 304.297 76.1445 304.002 76.2757 303.772C76.4068 303.543 76.7019 303.461 76.9314 303.608L81.8823 306.477C82.1118 306.608 82.1937 306.903 82.0626 307.133C81.9806 307.264 81.8167 307.362 81.6527 307.362ZM71.7346 301.625C71.6527 301.625 71.5707 301.608 71.4887 301.559L66.5379 298.69C66.3084 298.559 66.2264 298.264 66.374 298.034C66.5051 297.805 66.8002 297.723 67.0297 297.854L71.9805 300.723C72.21 300.854 72.292 301.149 72.1609 301.379C72.0625 301.543 71.8986 301.625 71.7346 301.625ZM61.8165 295.903C61.7346 295.903 61.6526 295.887 61.5706 295.838L56.6198 292.969C56.3903 292.838 56.3083 292.543 56.4395 292.313C56.5706 292.084 56.8657 292.002 57.0952 292.133L62.0461 295.002C62.2756 295.133 62.3575 295.428 62.2264 295.657C62.1444 295.821 61.9969 295.903 61.8165 295.903ZM51.9149 290.182C51.8329 290.182 51.7509 290.166 51.669 290.116L46.7181 287.248C46.4886 287.116 46.4066 286.821 46.5378 286.592C46.6689 286.362 46.964 286.28 47.1935 286.411L52.1444 289.28C52.3739 289.411 52.4559 289.707 52.3247 289.936C52.2427 290.1 52.0788 290.182 51.9149 290.182ZM41.9968 284.461C41.9148 284.461 41.8329 284.444 41.7509 284.395L36.8 281.526C36.5705 281.395 36.4886 281.1 36.6197 280.87C36.7509 280.641 37.0459 280.559 37.2755 280.69L42.2427 283.559C42.4722 283.69 42.5542 283.985 42.423 284.215C42.3247 284.379 42.1607 284.461 41.9968 284.461ZM32.0787 278.739C31.9967 278.739 31.9148 278.723 31.8328 278.674L26.882 275.805C26.6525 275.674 26.5705 275.379 26.7016 275.149C26.8328 274.92 27.1279 274.838 27.3574 274.969L32.3082 277.838C32.5377 277.969 32.6197 278.264 32.4885 278.493C32.4066 278.657 32.2426 278.739 32.0787 278.739ZM22.1606 273.002C22.0787 273.002 21.9967 272.985 21.9147 272.936L16.9475 270.067C16.718 269.936 16.6524 269.641 16.7835 269.411C16.9147 269.182 17.2098 269.1 17.4393 269.231L22.4065 272.1C22.636 272.231 22.718 272.526 22.5869 272.756C22.4885 272.92 22.3246 273.002 22.1606 273.002ZM12.2425 267.28C12.1606 267.28 12.0786 267.264 11.9966 267.215L7.02939 264.346C6.79988 264.215 6.71794 263.92 6.84908 263.69C6.98022 263.461 7.27531 263.379 7.50482 263.51L12.472 266.379C12.7015 266.51 12.7835 266.805 12.6524 267.034C12.5704 267.198 12.4065 267.28 12.2425 267.28ZM2.32445 261.559C2.24249 261.559 2.16054 261.542 2.09496 261.493L-2.87228 258.624C-3.10179 258.493 -3.16737 258.198 -3.03622 257.969C-2.90508 257.739 -2.61 257.657 -2.3969 257.788L2.57036 260.657C2.79987 260.788 2.88185 261.083 2.7507 261.313C2.65234 261.477 2.48839 261.559 2.32445 261.559ZM-7.59363 255.837C-7.6756 255.837 -7.75755 255.821 -7.82312 255.772L-12.7904 252.903C-13.0199 252.772 -13.1019 252.477 -12.9707 252.247C-12.8396 252.018 -12.5445 251.936 -12.315 252.067L-7.34773 254.936C-7.11823 255.067 -7.03624 255.362 -7.16739 255.592C-7.26575 255.756 -7.4133 255.837 -7.59363 255.837ZM-17.4953 250.116C-17.5773 250.116 -17.6593 250.1 -17.7412 250.051L-22.6921 247.182C-22.9216 247.051 -23.0036 246.756 -22.8724 246.526C-22.7413 246.296 -22.4462 246.215 -22.2167 246.346L-17.2658 249.215C-17.0363 249.346 -16.9543 249.641 -17.0855 249.87C-17.1675 250.018 -17.3314 250.116 -17.4953 250.116ZM-27.4134 244.378C-27.4954 244.378 -27.5774 244.362 -27.6593 244.313L-32.6102 241.444C-32.8397 241.313 -32.9216 241.018 -32.7905 240.788C-32.6593 240.559 -32.3643 240.477 -32.1348 240.608L-27.1839 243.477C-26.9544 243.608 -26.8724 243.903 -27.0036 244.133C-27.0856 244.296 -27.2495 244.378 -27.4134 244.378ZM-37.3315 238.657C-37.4135 238.657 -37.4954 238.641 -37.5774 238.592L-42.5282 235.723C-42.7578 235.591 -42.8397 235.296 -42.7086 235.067C-42.5774 234.837 -42.2823 234.755 -42.0528 234.887L-37.102 237.755C-36.8725 237.887 -36.7905 238.182 -36.9217 238.411C-37.0036 238.575 -37.1676 238.657 -37.3315 238.657ZM-47.2496 232.936C-47.3316 232.936 -47.4135 232.919 -47.4955 232.87L-52.4627 230.001C-52.6922 229.87 -52.7578 229.575 -52.6266 229.346C-52.4955 229.116 -52.2004 229.034 -51.9873 229.165L-47.0201 232.034C-46.7906 232.165 -46.7086 232.46 -46.8398 232.69C-46.9217 232.854 -47.0856 232.936 -47.2496 232.936ZM-57.1513 227.214C-57.2333 227.214 -57.3152 227.198 -57.3972 227.149L-62.3644 224.28C-62.5939 224.149 -62.6759 223.854 -62.5447 223.624C-62.4136 223.395 -62.1185 223.313 -61.889 223.46L-56.9382 226.329C-56.7086 226.46 -56.6267 226.755 -56.7578 226.985C-56.8398 227.132 -57.0037 227.214 -57.1513 227.214ZM-67.0858 221.493C-67.1677 221.493 -67.2497 221.477 -67.3153 221.427L-72.2825 218.559C-72.512 218.427 -72.5776 218.132 -72.4464 217.903C-72.3153 217.673 -72.0202 217.591 -71.7907 217.739L-66.8399 220.608C-66.6103 220.739 -66.5284 221.034 -66.6595 221.264C-66.7579 221.395 -66.9218 221.493 -67.0858 221.493ZM-76.9874 215.755C-77.0694 215.755 -77.1514 215.739 -77.2334 215.69L-82.1842 212.821C-82.4137 212.69 -82.4957 212.395 -82.3645 212.165C-82.2334 211.936 -81.9383 211.854 -81.7088 211.985L-76.7579 214.854C-76.5284 214.985 -76.4465 215.28 -76.5776 215.509C-76.676 215.673 -76.8235 215.755 -76.9874 215.755ZM-86.9055 210.034C-86.9875 210.034 -87.0695 210.018 -87.1514 209.968L-92.1023 207.1C-92.3318 206.968 -92.4137 206.673 -92.2826 206.444C-92.1515 206.214 -91.8564 206.132 -91.6269 206.263L-86.676 209.132C-86.4465 209.263 -86.3645 209.559 -86.4957 209.788C-86.5777 209.952 -86.7416 210.034 -86.9055 210.034ZM-96.8236 204.313C-96.9056 204.313 -96.9876 204.296 -97.0695 204.247L-102.02 201.378C-102.25 201.247 -102.332 200.952 -102.201 200.722C-102.07 200.493 -101.774 200.411 -101.545 200.559L-96.5941 203.427C-96.3646 203.559 -96.2826 203.854 -96.4138 204.083C-96.4958 204.231 -96.6597 204.313 -96.8236 204.313ZM-106.742 198.591C-106.824 198.591 -106.906 198.575 -106.988 198.526L-111.938 195.657C-112.168 195.526 -112.25 195.231 -112.119 195.001C-111.988 194.772 -111.693 194.69 -111.463 194.821L-106.512 197.69C-106.283 197.821 -106.201 198.116 -106.332 198.345C-106.414 198.509 -106.578 198.591 -106.742 198.591ZM-116.66 192.854C-116.742 192.854 -116.824 192.837 -116.906 192.788L-121.873 189.919C-122.102 189.788 -122.168 189.493 -122.037 189.263C-121.906 189.034 -121.611 188.952 -121.381 189.083L-116.414 191.952C-116.184 192.083 -116.102 192.378 -116.234 192.608C-116.332 192.772 -116.496 192.854 -116.66 192.854ZM-126.561 187.132C-126.643 187.132 -126.725 187.116 -126.807 187.067L-131.775 184.198C-132.004 184.067 -132.086 183.772 -131.955 183.542C-131.824 183.313 -131.529 183.231 -131.299 183.378L-126.332 186.247C-126.102 186.378 -126.02 186.673 -126.152 186.903C-126.25 187.05 -126.414 187.132 -126.561 187.132ZM-136.496 181.411C-136.578 181.411 -136.66 181.394 -136.725 181.345L-141.693 178.476C-141.922 178.345 -142.004 178.05 -141.873 177.821C-141.742 177.591 -141.447 177.509 -141.217 177.64L-136.25 180.509C-136.021 180.64 -135.939 180.935 -136.07 181.165C-136.168 181.329 -136.316 181.411 -136.496 181.411ZM-146.398 175.69C-146.48 175.69 -146.562 175.673 -146.644 175.624L-151.594 172.755C-151.824 172.624 -151.906 172.329 -151.775 172.099C-151.644 171.87 -151.348 171.788 -151.119 171.919L-146.152 174.788C-145.922 174.919 -145.84 175.214 -145.971 175.444C-146.07 175.608 -146.234 175.69 -146.398 175.69ZM-156.316 169.968C-156.398 169.968 -156.48 169.952 -156.562 169.903L-161.512 167.034C-161.742 166.903 -161.824 166.608 -161.693 166.378C-161.562 166.149 -161.267 166.067 -161.037 166.198L-156.086 169.067C-155.857 169.198 -155.775 169.493 -155.906 169.722C-155.988 169.87 -156.152 169.968 -156.316 169.968ZM-166.234 164.247C-166.316 164.247 -166.398 164.23 -166.48 164.181L-171.431 161.312C-171.66 161.181 -171.742 160.886 -171.611 160.657C-171.48 160.427 -171.185 160.345 -170.955 160.476L-166.004 163.345C-165.775 163.476 -165.693 163.771 -165.824 164.001C-165.906 164.148 -166.07 164.247 -166.234 164.247ZM-176.152 158.509C-176.234 158.509 -176.316 158.493 -176.398 158.444L-181.349 155.575C-181.578 155.444 -181.66 155.148 -181.529 154.919C-181.398 154.689 -181.103 154.607 -180.873 154.739L-175.922 157.607C-175.693 157.739 -175.611 158.034 -175.742 158.263C-175.824 158.427 -175.988 158.509 -176.152 158.509Z" fill="#00000E"/>
<path d="M15.0969 270.063C14.7691 270.063 14.4412 269.899 14.2773 269.588C14.015 269.129 14.1625 268.555 14.6216 268.276L132.737 199.423C133.196 199.161 133.786 199.309 134.048 199.768C134.311 200.227 134.163 200.817 133.704 201.079L15.5888 269.932C15.4412 270.014 15.2609 270.063 15.0969 270.063Z" fill="#00000E"/>
<path d="M15.0958 270.063C14.9319 270.063 14.768 270.014 14.6205 269.932L-103.495 201.079C-103.954 200.817 -104.101 200.227 -103.839 199.768C-103.577 199.309 -102.987 199.161 -102.544 199.423L15.5713 268.276C16.0303 268.539 16.1778 269.129 15.9155 269.588C15.7516 269.899 15.4401 270.063 15.0958 270.063Z" fill="#00000E"/>
<path d="M15.0987 405.804C14.5741 405.804 14.1479 405.377 14.1479 404.853V269.114C14.1479 268.59 14.5741 268.164 15.0987 268.164C15.6233 268.164 16.0496 268.59 16.0496 269.114V404.853C16.066 405.377 15.6397 405.804 15.0987 405.804Z" fill="#00000E"/>
<path d="M3.06062 29.0363C2.92947 29.0363 2.83111 28.938 2.81471 28.8068L2.07701 14.8395C2.06061 14.7084 2.17535 14.5936 2.3065 14.5936H2.32291C2.45406 14.5936 2.55242 14.692 2.56881 14.8231L3.30652 28.8068C3.30652 28.9052 3.20816 29.0199 3.06062 29.0363Z" fill="#00000E"/>
<path d="M29.028 524.496C28.8969 524.496 28.7985 524.398 28.7821 524.266L28.0444 510.299C28.0444 510.168 28.1428 510.053 28.274 510.037H28.2903C28.4215 510.037 28.5199 510.135 28.5199 510.266L29.2576 524.234C29.274 524.381 29.1756 524.48 29.028 524.496Z" fill="#00000E"/>
<path d="M42.342 523.446C42.2272 523.446 42.1125 523.364 42.1125 523.233L40.637 509.314C40.6206 509.183 40.719 509.069 40.8502 509.052C40.9649 509.036 41.0961 509.134 41.1125 509.265L42.5715 523.183C42.5879 523.314 42.4895 523.429 42.3584 523.446H42.342Z" fill="#00000E"/>
<path d="M55.5719 521.69C55.4571 521.69 55.3587 521.608 55.3424 521.493L53.1456 507.674C53.1292 507.542 53.2112 507.411 53.3423 507.395C53.4735 507.362 53.5883 507.46 53.6047 507.592L55.785 521.411C55.8014 521.542 55.7194 521.657 55.5883 521.69C55.6046 521.69 55.5883 521.69 55.5719 521.69Z" fill="#00000E"/>
<path d="M68.7018 519.267C68.6035 519.267 68.4887 519.185 68.4724 519.087L65.5707 505.398C65.5379 505.267 65.6199 505.136 65.751 505.12C65.8822 505.087 66.0133 505.169 66.0297 505.3L68.9314 518.989C68.9642 519.12 68.8822 519.251 68.751 519.267C68.751 519.267 68.7182 519.267 68.7018 519.267Z" fill="#00000E"/>
<path d="M81.704 516.15C81.6056 516.15 81.5073 516.085 81.4745 515.97L77.8515 502.462C77.8187 502.331 77.9007 502.2 78.0155 502.167C78.1302 502.134 78.2778 502.2 78.3106 502.331L81.9335 515.839C81.9663 515.97 81.8844 516.101 81.7696 516.134C81.7368 516.15 81.7204 516.15 81.704 516.15Z" fill="#00000E"/>
<path d="M94.5065 512.347C94.4082 512.347 94.3098 512.282 94.277 512.183L89.9491 498.888C89.9163 498.757 89.9819 498.626 90.0966 498.593C90.2278 498.544 90.3589 498.626 90.3917 498.741L94.7196 512.052C94.7524 512.167 94.6868 512.314 94.5721 512.347C94.5557 512.347 94.5229 512.347 94.5065 512.347Z" fill="#00000E"/>
<path d="M107.099 507.902C107.001 507.902 106.919 507.837 106.869 507.755L101.853 494.689C101.804 494.574 101.869 494.427 101.984 494.378C102.115 494.328 102.246 494.394 102.296 494.509L107.312 507.574C107.361 507.689 107.296 507.837 107.181 507.886C107.148 507.886 107.115 507.902 107.099 507.902Z" fill="#00000E"/>
<path d="M119.424 502.788C119.326 502.788 119.244 502.739 119.211 502.657L113.506 489.87C113.457 489.755 113.506 489.608 113.621 489.542C113.752 489.493 113.883 489.542 113.932 489.673L119.637 502.46C119.686 502.575 119.637 502.723 119.522 502.772C119.489 502.772 119.457 502.788 119.424 502.788Z" fill="#00000E"/>
<path d="M131.474 497.035C131.392 497.035 131.31 496.986 131.261 496.904L124.9 484.429C124.835 484.314 124.884 484.166 124.999 484.117C125.113 484.052 125.261 484.101 125.326 484.216L131.687 496.691C131.753 496.806 131.704 496.953 131.589 497.019C131.556 497.019 131.523 497.035 131.474 497.035Z" fill="#00000E"/>
<path d="M143.214 490.658C143.132 490.658 143.05 490.625 143.017 490.543L136.017 478.428C135.952 478.313 135.985 478.166 136.099 478.1C136.214 478.035 136.362 478.067 136.427 478.182L143.427 490.297C143.493 490.412 143.444 490.559 143.345 490.625C143.296 490.658 143.263 490.658 143.214 490.658Z" fill="#00000E"/>
<path d="M154.602 483.688C154.537 483.688 154.455 483.655 154.406 483.573L146.783 471.835C146.717 471.721 146.75 471.573 146.848 471.507C146.963 471.442 147.111 471.475 147.176 471.573L154.799 483.311C154.865 483.425 154.848 483.573 154.734 483.639C154.701 483.671 154.652 483.688 154.602 483.688Z" fill="#00000E"/>
<path d="M165.604 476.116C165.522 476.116 165.456 476.083 165.407 476.018L157.194 464.706C157.112 464.608 157.145 464.444 157.243 464.362C157.341 464.296 157.489 464.313 157.587 464.428L165.801 475.739C165.882 475.837 165.85 476.001 165.751 476.067C165.702 476.1 165.653 476.116 165.604 476.116Z" fill="#00000E"/>
<path d="M176.197 467.986C176.131 467.986 176.066 467.953 176.016 467.904L167.213 457.019C167.131 456.92 167.148 456.773 167.246 456.674C167.344 456.592 167.508 456.609 167.59 456.707L176.394 467.576C176.475 467.674 176.459 467.838 176.361 467.92C176.312 467.969 176.262 467.986 176.197 467.986Z" fill="#00000E"/>
<path d="M186.364 459.31C186.298 459.31 186.233 459.277 186.183 459.228L176.823 448.834C176.724 448.736 176.741 448.588 176.839 448.49C176.937 448.408 177.085 448.408 177.183 448.506L186.544 458.9C186.626 458.998 186.626 459.146 186.528 459.244C186.462 459.293 186.413 459.31 186.364 459.31Z" fill="#00000E"/>
<path d="M196.046 450.133C195.98 450.133 195.931 450.116 195.882 450.067L185.98 440.165C185.882 440.083 185.882 439.92 185.98 439.838C186.079 439.739 186.226 439.739 186.325 439.838L196.226 449.723C196.308 449.821 196.308 449.969 196.226 450.067C196.161 450.1 196.111 450.133 196.046 450.133Z" fill="#00000E"/>
<path d="M205.225 440.444C205.159 440.444 205.11 440.427 205.061 440.378L194.667 431.018C194.569 430.936 194.569 430.772 194.651 430.673C194.733 430.575 194.897 430.575 194.979 430.657L205.389 440.018C205.487 440.1 205.487 440.263 205.405 440.362C205.372 440.411 205.307 440.444 205.225 440.444Z" fill="#00000E"/>
<path d="M213.899 430.279C213.85 430.279 213.801 430.263 213.752 430.23L202.883 421.427C202.784 421.345 202.768 421.197 202.85 421.099C202.932 421 203.079 420.984 203.178 421.066L214.063 429.869C214.161 429.951 214.178 430.099 214.096 430.197C214.047 430.263 213.981 430.279 213.899 430.279Z" fill="#00000E"/>
<path d="M222.035 419.692C221.986 419.692 221.936 419.675 221.904 419.642L210.576 411.429C210.461 411.347 210.445 411.2 210.527 411.101C210.609 410.987 210.756 410.97 210.854 411.052L222.182 419.282C222.297 419.364 222.313 419.511 222.232 419.61C222.182 419.659 222.117 419.692 222.035 419.692Z" fill="#00000E"/>
<path d="M229.606 408.691C229.557 408.691 229.524 408.674 229.475 408.658L217.737 401.035C217.622 400.969 217.589 400.822 217.671 400.707C217.753 400.592 217.901 400.559 217.999 400.641L229.737 408.264C229.852 408.33 229.868 408.494 229.802 408.592C229.753 408.641 229.688 408.691 229.606 408.691Z" fill="#00000E"/>
<path d="M242.95 385.558C242.917 385.558 242.884 385.541 242.851 385.525L230.376 379.181C230.261 379.115 230.212 378.984 230.278 378.853C230.343 378.738 230.474 378.689 230.589 378.755L243.065 385.099C243.179 385.164 243.229 385.296 243.163 385.427C243.114 385.509 243.048 385.558 242.95 385.558Z" fill="#00000E"/>
<path d="M248.705 373.51C248.672 373.51 248.639 373.51 248.606 373.494L235.82 367.805C235.705 367.756 235.656 367.609 235.705 367.477C235.754 367.363 235.901 367.313 236.016 367.363L248.803 373.051C248.918 373.1 248.984 373.248 248.918 373.363C248.885 373.461 248.787 373.51 248.705 373.51Z" fill="#00000E"/>
<path d="M253.803 361.162C253.77 361.162 253.754 361.162 253.721 361.146L240.655 356.129C240.54 356.08 240.475 355.949 240.524 355.818C240.573 355.687 240.721 355.637 240.836 355.687L253.901 360.703C254.016 360.752 254.082 360.883 254.032 361.014C254 361.113 253.918 361.162 253.803 361.162Z" fill="#00000E"/>
<path d="M258.26 348.591C258.244 348.591 258.211 348.591 258.195 348.575L244.883 344.247C244.752 344.214 244.686 344.066 244.736 343.952C244.768 343.821 244.9 343.755 245.031 343.804L258.342 348.132C258.457 348.165 258.523 348.296 258.49 348.427C258.457 348.526 258.375 348.591 258.26 348.591Z" fill="#00000E"/>
<path d="M262.064 335.768C262.047 335.768 262.031 335.768 262.015 335.752L248.49 332.129C248.359 332.096 248.293 331.965 248.326 331.834C248.359 331.703 248.49 331.637 248.621 331.67L262.129 335.293C262.26 335.326 262.326 335.457 262.293 335.588C262.26 335.703 262.162 335.768 262.064 335.768Z" fill="#00000E"/>
<path d="M265.178 322.789C265.162 322.789 265.145 322.789 265.129 322.789L251.441 319.887C251.309 319.854 251.227 319.739 251.26 319.608C251.293 319.477 251.424 319.395 251.539 319.428L265.227 322.33C265.359 322.346 265.441 322.477 265.408 322.608C265.391 322.723 265.293 322.789 265.178 322.789Z" fill="#00000E"/>
<path d="M267.605 309.655C267.589 309.655 267.572 309.655 267.572 309.655L253.753 307.475C253.621 307.459 253.539 307.327 253.556 307.196C253.572 307.065 253.687 306.983 253.834 307L267.654 309.18C267.785 309.196 267.884 309.327 267.851 309.459C267.835 309.573 267.736 309.655 267.605 309.655Z" fill="#00000E"/>
<path d="M269.361 296.422H269.344L255.426 294.963C255.295 294.947 255.197 294.832 255.213 294.701C255.229 294.57 255.344 294.471 255.475 294.488L269.393 295.947C269.525 295.963 269.623 296.078 269.606 296.209C269.574 296.324 269.475 296.422 269.361 296.422Z" fill="#00000E"/>
<path d="M270.405 283.112H270.389L256.422 282.374C256.29 282.374 256.192 282.259 256.192 282.128C256.209 281.997 256.307 281.899 256.438 281.899H256.454L270.422 282.636C270.553 282.653 270.651 282.751 270.651 282.882C270.635 283.014 270.52 283.112 270.405 283.112Z" fill="#00000E"/>
<path d="M256.754 269.753C256.623 269.753 256.508 269.638 256.508 269.507C256.508 269.376 256.623 269.261 256.754 269.261H270.754C270.885 269.261 271 269.376 271 269.491C271 269.622 270.902 269.737 270.754 269.737H256.754V269.753Z" fill="#00000E"/>
<path d="M256.424 257.144C256.293 257.144 256.195 257.046 256.178 256.914C256.178 256.783 256.277 256.668 256.408 256.668L270.375 255.931H270.392C270.523 255.931 270.621 256.029 270.638 256.16C270.654 256.291 270.556 256.406 270.408 256.406L256.424 257.144Z" fill="#00000E"/>
<path d="M255.424 244.556C255.309 244.556 255.195 244.457 255.195 244.343C255.178 244.211 255.277 244.097 255.408 244.08L269.326 242.621C269.457 242.605 269.572 242.703 269.588 242.834C269.605 242.965 269.506 243.08 269.375 243.097L255.457 244.556H255.424Z" fill="#00000E"/>
<path d="M253.788 232.047C253.673 232.047 253.575 231.965 253.559 231.85C253.542 231.719 253.624 231.604 253.755 231.588L267.575 229.391C267.706 229.375 267.821 229.457 267.854 229.588C267.87 229.719 267.788 229.834 267.657 229.867L253.837 232.063C253.805 232.047 253.805 232.047 253.788 232.047Z" fill="#00000E"/>
<path d="M251.49 219.64C251.375 219.64 251.277 219.558 251.26 219.46C251.227 219.329 251.309 219.198 251.441 219.181L265.129 216.263C265.26 216.23 265.391 216.312 265.424 216.443C265.441 216.575 265.375 216.706 265.244 216.722L251.555 219.64C251.522 219.64 251.506 219.64 251.49 219.64Z" fill="#00000E"/>
<path d="M248.539 207.357C248.441 207.357 248.342 207.292 248.309 207.177C248.277 207.046 248.342 206.915 248.473 206.882L261.982 203.259C262.096 203.226 262.244 203.308 262.277 203.423C262.309 203.554 262.227 203.685 262.113 203.718L248.604 207.341C248.588 207.357 248.555 207.357 248.539 207.357Z" fill="#00000E"/>
<path d="M244.965 195.265C244.866 195.265 244.768 195.199 244.735 195.101C244.702 194.986 244.768 194.838 244.883 194.805L258.194 190.478C258.325 190.428 258.457 190.51 258.489 190.642C258.522 190.773 258.473 190.904 258.342 190.937L245.03 195.265C245.014 195.265 244.981 195.265 244.965 195.265Z" fill="#00000E"/>
<path d="M240.736 183.356C240.638 183.356 240.556 183.291 240.507 183.209C240.458 183.094 240.523 182.947 240.638 182.897L253.704 177.881C253.818 177.832 253.966 177.897 254.015 178.012C254.064 178.127 254.015 178.274 253.884 178.324L240.818 183.34C240.802 183.356 240.769 183.356 240.736 183.356Z" fill="#00000E"/>
<path d="M235.918 171.708C235.82 171.708 235.738 171.659 235.705 171.56C235.656 171.445 235.705 171.298 235.82 171.249L248.606 165.56C248.721 165.511 248.869 165.56 248.918 165.675C248.967 165.79 248.918 165.937 248.787 165.986L236 171.675C235.983 171.708 235.951 171.708 235.918 171.708Z" fill="#00000E"/>
<path d="M230.491 160.312C230.409 160.312 230.327 160.262 230.278 160.18C230.212 160.066 230.261 159.918 230.376 159.853L242.835 153.492C242.95 153.443 243.097 153.476 243.163 153.59C243.229 153.705 243.179 153.853 243.065 153.918L230.606 160.279C230.556 160.312 230.524 160.312 230.491 160.312Z" fill="#00000E"/>
<path d="M217.866 138.458C217.8 138.458 217.718 138.426 217.669 138.344C217.603 138.229 217.636 138.081 217.734 138.016L229.472 130.393C229.587 130.327 229.735 130.344 229.8 130.458C229.866 130.573 229.833 130.721 229.734 130.786L217.997 138.409C217.948 138.442 217.915 138.458 217.866 138.458Z" fill="#00000E"/>
<path d="M210.718 128.047C210.652 128.047 210.57 128.014 210.521 127.949C210.439 127.85 210.472 127.687 210.57 127.621L221.882 119.391C221.98 119.309 222.144 119.342 222.226 119.441C222.308 119.555 222.275 119.703 222.177 119.768L210.849 127.998C210.816 128.031 210.767 128.047 210.718 128.047Z" fill="#00000E"/>
<path d="M203.03 118.034C202.965 118.034 202.899 118.001 202.85 117.952C202.768 117.837 202.784 117.689 202.883 117.607L213.752 108.804C213.85 108.722 213.997 108.738 214.079 108.837C214.161 108.935 214.145 109.083 214.047 109.165L203.178 117.968C203.129 118.017 203.079 118.034 203.03 118.034Z" fill="#00000E"/>
<path d="M194.832 108.445C194.766 108.445 194.701 108.412 194.652 108.363C194.57 108.265 194.57 108.117 194.668 108.019L205.061 98.6581C205.16 98.5761 205.324 98.5761 205.406 98.6745C205.488 98.7728 205.488 98.9204 205.389 99.0023L194.996 108.363C194.947 108.429 194.881 108.445 194.832 108.445Z" fill="#00000E"/>
<path d="M186.147 99.2939C186.098 99.2939 186.032 99.2611 185.983 99.2283C185.885 99.1299 185.885 98.9824 185.983 98.9004L195.868 88.9987C195.95 88.9004 196.114 88.9004 196.212 88.9987C196.311 89.0971 196.311 89.2446 196.212 89.343L186.327 99.2447C186.278 99.2611 186.196 99.2939 186.147 99.2939Z" fill="#00000E"/>
<path d="M176.999 90.6075C176.934 90.6075 176.885 90.5911 176.835 90.5419C176.737 90.4599 176.737 90.296 176.819 90.214L186.18 79.8041C186.262 79.7058 186.409 79.7058 186.524 79.7877C186.622 79.8697 186.622 80.0337 186.54 80.1156L177.163 90.5255C177.131 90.5747 177.065 90.6075 176.999 90.6075Z" fill="#00000E"/>
<path d="M167.394 82.4115C167.345 82.4115 167.296 82.3951 167.246 82.3623C167.148 82.2803 167.132 82.1328 167.214 82.0344L176.017 71.1655C176.099 71.0671 176.246 71.0507 176.345 71.1327C176.443 71.2147 176.46 71.3622 176.378 71.4606L167.574 82.3459C167.525 82.3787 167.459 82.4115 167.394 82.4115Z" fill="#00000E"/>
<path d="M157.376 74.7189C157.327 74.7189 157.278 74.7025 157.245 74.6697C157.147 74.6042 157.114 74.4402 157.196 74.3419L165.409 63.0139C165.491 62.8992 165.639 62.8828 165.737 62.9647C165.835 63.0467 165.868 63.1943 165.786 63.2926L157.573 74.6041C157.54 74.6861 157.458 74.7189 157.376 74.7189Z" fill="#00000E"/>
<path d="M146.984 67.5734C146.934 67.5734 146.885 67.557 146.852 67.5406C146.738 67.4587 146.721 67.3111 146.787 67.2128L154.41 55.475C154.475 55.3603 154.623 55.3275 154.738 55.393C154.852 55.475 154.869 55.6225 154.803 55.7209L147.18 67.4587C147.131 67.5406 147.066 67.5734 146.984 67.5734Z" fill="#00000E"/>
<path d="M136.211 60.9876C136.178 60.9876 136.129 60.9712 136.096 60.9548C135.982 60.8892 135.949 60.7417 136.014 60.6269L143.014 48.5121C143.08 48.3974 143.228 48.3646 143.342 48.4301C143.457 48.4957 143.49 48.6433 143.424 48.758L136.441 60.8728C136.375 60.9384 136.293 60.9876 136.211 60.9876Z" fill="#00000E"/>
<path d="M125.128 54.9521C125.095 54.9521 125.062 54.9357 125.013 54.9193C124.898 54.8537 124.849 54.7226 124.915 54.6078L131.275 42.1324C131.341 42.0176 131.488 41.9684 131.603 42.034C131.718 42.0996 131.767 42.2307 131.702 42.3455L125.341 54.821C125.292 54.9029 125.21 54.9521 125.128 54.9521Z" fill="#00000E"/>
<path d="M113.735 49.523C113.702 49.523 113.669 49.5066 113.636 49.5066C113.522 49.4574 113.456 49.3098 113.522 49.1951L119.21 36.4081C119.259 36.2934 119.391 36.2278 119.522 36.2934C119.636 36.3426 119.702 36.4901 119.636 36.6049L113.948 49.3918C113.915 49.4738 113.817 49.523 113.735 49.523Z" fill="#00000E"/>
<path d="M102.066 44.69C102.033 44.69 102.017 44.69 101.984 44.6736C101.869 44.6245 101.804 44.4933 101.853 44.3622L106.869 31.2965C106.919 31.1818 107.05 31.1162 107.181 31.1654C107.296 31.2146 107.361 31.3457 107.312 31.4769L102.296 44.5425C102.246 44.6409 102.164 44.69 102.066 44.69Z" fill="#00000E"/>
<path d="M90.1618 40.4765C90.129 40.4765 90.1126 40.4765 90.0798 40.4601C89.9651 40.4273 89.8995 40.2797 89.9323 40.165L94.2602 26.8534C94.3094 26.7223 94.4241 26.6567 94.5716 26.7059C94.6864 26.7551 94.7684 26.8862 94.7192 27.0174L90.3913 40.3289C90.3585 40.4109 90.2766 40.4765 90.1618 40.4765Z" fill="#00000E"/>
<path d="M78.0792 36.8842C78.0628 36.8842 78.03 36.8842 78.0136 36.8679C77.8825 36.8351 77.8169 36.7039 77.8497 36.5728L81.4726 23.0645C81.5054 22.9334 81.6366 22.8678 81.7677 22.9006C81.8989 22.9334 81.9645 23.0645 81.9317 23.1956L78.3087 36.7039C78.2759 36.8187 78.1776 36.8842 78.0792 36.8842Z" fill="#00000E"/>
<path d="M65.8002 33.9497C65.7838 33.9497 65.7674 33.9497 65.751 33.9497C65.6199 33.9169 65.5379 33.8021 65.5707 33.671L68.4888 19.9824C68.5052 19.8512 68.6363 19.7692 68.7674 19.802C68.8986 19.8348 68.9805 19.9496 68.9478 20.0807L66.0461 33.7693C65.9969 33.8677 65.915 33.9497 65.8002 33.9497Z" fill="#00000E"/>
<path d="M53.3925 31.6392H53.3597C53.2285 31.6228 53.1466 31.4916 53.163 31.3605L55.3597 17.5407C55.3761 17.4096 55.5072 17.3276 55.6384 17.344C55.7695 17.3604 55.8515 17.4915 55.8351 17.6227L53.6548 31.4424C53.6056 31.5572 53.5072 31.6392 53.3925 31.6392Z" fill="#00000E"/>
<path d="M40.865 30.0003H40.8486C40.7011 29.9839 40.6191 29.8691 40.6191 29.738L42.0781 15.8199C42.0945 15.6887 42.2093 15.5904 42.3405 15.6068C42.4716 15.6232 42.5699 15.7379 42.5535 15.8691L41.0945 29.7872C41.0945 29.9019 40.9962 30.0003 40.865 30.0003Z" fill="#00000E"/>
<path d="M2.3275 524.477C2.19635 524.477 2.08161 524.362 2.098 524.231L2.8193 510.248C2.8193 510.116 2.93406 510.018 3.0652 510.018H3.08161C3.21276 510.018 3.31111 510.133 3.31111 510.264L2.58981 524.231C2.55702 524.379 2.45864 524.477 2.3275 524.477Z" fill="#00000E"/>
<path d="M28.2925 29.0147C28.145 28.9983 28.0466 28.8999 28.0466 28.7688L28.7843 14.8015C28.7843 14.6703 28.8827 14.5884 29.0302 14.572C29.1614 14.5884 29.2598 14.6867 29.2598 14.8179L28.5221 28.7851C28.5221 28.8999 28.4073 29.0147 28.2925 29.0147Z" fill="#00000E"/>
</g>
</svg>
