<svg width="113" height="99" viewBox="0 0 113 99" fill="none" xmlns="http://www.w3.org/2000/svg">
<path d="M65.5995 19.9042C65.3177 19.9042 65.0868 20.1309 65.0868 20.417V55.9818C65.0868 56.2637 65.3162 56.4917 65.5995 56.4917C65.8828 56.4917 66.1122 56.2637 66.1122 55.9818V20.417C66.1122 20.1323 65.8828 19.9042 65.5995 19.9042Z" fill="#498BCA" fill-opacity="0.2"/>
<path d="M65.6052 55.4691C65.4239 55.4691 65.2553 55.5598 65.1604 55.7255C65.0174 55.9691 65.1024 56.2835 65.3474 56.4237L96.149 74.2048C96.3927 74.3464 96.7043 74.2628 96.8473 74.0178C96.9861 73.7742 96.9054 73.4597 96.6604 73.3195L65.8587 55.5385C65.778 55.4904 65.6916 55.4691 65.6052 55.4691Z" fill="#498BCA" fill-opacity="0.2"/>
<path d="M65.5995 55.4691C65.5131 55.4691 65.4267 55.4904 65.346 55.5385L34.5443 73.3195C34.3021 73.4612 34.2171 73.7742 34.3574 74.0178C34.499 74.2614 34.812 74.345 35.0556 74.2048L65.8587 56.4237C66.1023 56.2821 66.1844 55.9691 66.0456 55.7255C65.9493 55.5598 65.778 55.4691 65.6009 55.4691H65.5995Z" fill="#498BCA" fill-opacity="0.2"/>
<path d="M65.5995 19.6477C65.4706 19.6477 65.3417 19.6817 65.2171 19.7511L54.0122 26.221C53.6468 26.4321 53.5193 26.9009 53.7318 27.2663C53.9428 27.6346 54.4131 27.7592 54.7799 27.5482L65.9876 21.0782C66.3516 20.8658 66.4762 20.397 66.2652 20.0301C66.1221 19.7865 65.8686 19.6477 65.5995 19.6477Z" fill="#498BCA" fill-opacity="0.2"/>
<path d="M34.7993 60.0593C34.3758 60.0593 34.033 60.4021 34.033 60.8256V73.7669C34.033 74.1904 34.3758 74.5331 34.7993 74.5331C35.2228 74.5331 35.5655 74.1904 35.5655 73.7669L35.5684 60.8256C35.5684 60.4021 35.2242 60.0593 34.8007 60.0593H34.7993Z" fill="#498BCA" fill-opacity="0.2"/>
<path d="M54.3946 13.1777C53.974 13.1777 53.6284 13.5219 53.6284 13.9454V49.0684L23.2106 66.6327C22.8438 66.8437 22.7177 67.3125 22.9302 67.6808C23.1412 68.0476 23.61 68.1708 23.9754 67.9612L54.7785 50.1774C55.015 50.0414 55.1609 49.7879 55.1609 49.5117V13.9454C55.1609 13.5219 54.8167 13.1777 54.3932 13.1777H54.3946Z" fill="#498BCA" fill-opacity="0.2"/>
<path d="M48.5847 10.0788C48.3029 10.0788 48.0749 10.3082 48.0749 10.5915V45.8632L17.5267 63.4983C17.2831 63.64 17.1996 63.953 17.3398 64.1966C17.4814 64.4402 17.7916 64.5238 18.0381 64.3836L48.8397 46.5997C48.9969 46.5091 49.0932 46.3419 49.0932 46.1592V10.5915C49.0932 10.3097 48.8666 10.0788 48.5833 10.0788H48.5847Z" fill="#498BCA" fill-opacity="0.2"/>
<path d="M50.0761 46.7611C50.0336 46.7611 49.9883 46.7724 49.9472 46.7965L19.1456 64.5775C19.0238 64.6469 18.9827 64.8041 19.0521 64.9274C19.1244 65.0492 19.2787 65.0903 19.402 65.0209L50.2036 47.2398C50.3254 47.1676 50.3693 47.0104 50.2971 46.8886C50.2517 46.8078 50.1654 46.7611 50.0775 46.7611H50.0761Z" fill="#498BCA" fill-opacity="0.2"/>
<path d="M51.3651 47.5061C51.3226 47.5061 51.2772 47.5174 51.2362 47.5401L20.4345 65.3239C20.3127 65.3962 20.2717 65.5506 20.3411 65.6738C20.4133 65.7956 20.5677 65.8395 20.6909 65.7673L51.4925 47.9834C51.6143 47.914 51.6554 47.7582 51.586 47.6336C51.5407 47.5528 51.4543 47.5061 51.3665 47.5061H51.3651Z" fill="#498BCA" fill-opacity="0.2"/>
<path d="M52.6525 48.2497C52.6114 48.2497 52.5661 48.261 52.5251 48.2851L21.7234 66.0661C21.6016 66.1384 21.5605 66.2942 21.6299 66.416C21.6993 66.5378 21.858 66.5817 21.9798 66.5094L52.7814 48.7256C52.9032 48.6562 52.9471 48.5004 52.8749 48.3786C52.8296 48.295 52.7403 48.2497 52.6525 48.2497Z" fill="#498BCA" fill-opacity="0.2"/>
<path d="M50.0762 11.1963C49.9345 11.1963 49.8198 11.311 49.8198 11.4498V47.0175C49.8198 47.1591 49.9345 47.2739 50.0762 47.2739C50.2178 47.2739 50.3325 47.1591 50.3325 47.0175V11.4498C50.3325 11.311 50.2178 11.1963 50.0762 11.1963Z" fill="#498BCA" fill-opacity="0.2"/>
<path d="M51.365 11.9399C51.222 11.9399 51.1086 12.0518 51.1086 12.1935V47.7612C51.1086 47.9028 51.2205 48.0175 51.365 48.0175C51.5095 48.0175 51.6185 47.9028 51.6185 47.7612V12.1935C51.6185 12.0518 51.5038 11.9399 51.365 11.9399Z" fill="#498BCA" fill-opacity="0.2"/>
<path d="M52.6553 12.6849C52.5137 12.6849 52.3989 12.7997 52.3989 12.9413V48.5062C52.3989 48.6478 52.5136 48.7625 52.6525 48.7625C52.7913 48.7625 52.9102 48.6478 52.9102 48.5062V12.9413C52.9102 12.7997 52.7955 12.6849 52.6539 12.6849H52.6553Z" fill="#498BCA" fill-opacity="0.2"/>
<path d="M48.5847 9.82521C48.3184 9.82521 48.0635 9.96118 47.9219 10.2076C47.7094 10.573 47.8355 11.0433 48.2023 11.2529L54.0122 14.6083C54.3776 14.8207 54.8493 14.6975 55.0575 14.3278C55.2699 13.9624 55.1453 13.4922 54.7799 13.2797L48.9671 9.92435C48.8482 9.85495 48.7164 9.82379 48.5847 9.82379V9.82521Z" fill="#498BCA" fill-opacity="0.2"/>
<path d="M48.5847 45.6464C48.4105 45.6464 48.2377 45.7371 48.1414 45.9C47.9998 46.1464 48.0833 46.458 48.3283 46.5982L54.1411 49.9536C54.3833 50.0952 54.6963 50.0131 54.8379 49.7666C54.9796 49.523 54.896 49.2086 54.651 49.0684L48.8411 45.713C48.7603 45.6677 48.6711 45.6464 48.5847 45.6464Z" fill="#498BCA" fill-opacity="0.2"/>
<path d="M17.7845 63.174C17.5211 63.174 17.2633 63.3099 17.1188 63.5564C16.9078 63.9218 17.0324 64.392 17.4007 64.6017L23.2106 67.9584C23.576 68.1695 24.0462 68.0448 24.2559 67.678C24.4683 67.3126 24.3451 66.8409 23.9754 66.6299L18.1655 63.2745C18.0465 63.2051 17.9148 63.1711 17.7831 63.1711L17.7845 63.174Z" fill="#498BCA" fill-opacity="0.2"/>
<path d="M60.8291 27.796C60.7838 27.796 60.7413 27.8073 60.7002 27.8314L54.2345 31.5649C54.1127 31.6343 54.0688 31.7915 54.141 31.9147C54.2104 32.0365 54.3676 32.0776 54.4909 32.0082L60.9566 28.2747C61.0784 28.2025 61.1194 28.0481 61.05 27.9248C61.0019 27.8441 60.9155 27.796 60.8305 27.796H60.8291Z" fill="#498BCA" fill-opacity="0.2"/>
<path d="M60.8319 29.9701C60.7894 29.9701 60.7441 29.98 60.7044 30.0055L54.267 33.7192C54.1424 33.7914 54.1013 33.9458 54.1736 34.069C54.243 34.1909 54.3988 34.2319 54.5234 34.1625L60.9579 30.446C61.0797 30.3766 61.1237 30.2208 61.0543 30.099C61.0061 30.0154 60.9197 29.9701 60.8319 29.9701Z" fill="#498BCA" fill-opacity="0.2"/>
<path d="M60.8248 25.6233C60.7824 25.6233 60.737 25.6346 60.696 25.6573L54.2685 29.3682C54.1467 29.4376 54.1028 29.5948 54.175 29.718C54.2444 29.8398 54.4031 29.8809 54.5249 29.8115L60.9523 26.1006C61.0741 26.0312 61.118 25.8754 61.0458 25.7536C61.0005 25.67 60.9141 25.6247 60.8263 25.6247L60.8248 25.6233Z" fill="#498BCA" fill-opacity="0.2"/>
<path d="M60.8362 32.1428C60.7937 32.1428 60.7469 32.1527 60.7073 32.1768L54.2685 35.872C54.1467 35.9414 54.1028 36.0972 54.175 36.2219C54.2444 36.3437 54.4002 36.3876 54.5249 36.3154L60.9636 32.6215C61.0855 32.5521 61.1265 32.3963 61.06 32.2745C61.0118 32.1909 60.9254 32.1456 60.8376 32.1456L60.8362 32.1428Z" fill="#498BCA" fill-opacity="0.2"/>
<path d="M60.839 34.3183C60.7965 34.3183 60.7526 34.3296 60.7115 34.3523L54.267 38.0731C54.1424 38.1453 54.1013 38.2997 54.1736 38.4229C54.243 38.5447 54.3988 38.5886 54.5234 38.5164L60.9679 34.7956C61.0897 34.7262 61.1307 34.569 61.0613 34.4486C61.0132 34.365 60.9268 34.3197 60.839 34.3197V34.3183Z" fill="#498BCA" fill-opacity="0.2"/>
<path d="M60.8432 36.4938C60.8022 36.4938 60.7625 36.5009 60.7257 36.5222L54.1495 39.9696C54.0249 40.0348 53.9767 40.1891 54.0419 40.3138C54.1084 40.4384 54.2614 40.4866 54.386 40.4214L60.9622 36.9712C61.0868 36.9088 61.135 36.753 61.0699 36.6284C61.0245 36.5406 60.9339 36.4924 60.8418 36.4924L60.8432 36.4938Z" fill="#498BCA" fill-opacity="0.2"/>
<path d="M60.8489 38.6666C60.8064 38.6666 60.7625 38.6765 60.7214 38.7006L54.2685 42.4256C54.1467 42.495 54.1028 42.6536 54.175 42.7754C54.2444 42.8944 54.4031 42.9383 54.5249 42.8689L60.9764 39.1425C61.101 39.0731 61.1421 38.9159 61.0727 38.7926C61.0245 38.7119 60.9382 38.6652 60.8503 38.6652L60.8489 38.6666Z" fill="#498BCA" fill-opacity="0.2"/>
<path d="M60.8532 40.8421C60.8078 40.8421 60.7654 40.852 60.7243 40.8761L54.2685 44.604C54.1467 44.6734 54.1028 44.832 54.175 44.951C54.2444 45.0728 54.4031 45.1153 54.5249 45.0445L60.9806 41.3194C61.1025 41.2472 61.1464 41.0928 61.0741 40.9696C61.026 40.8888 60.9396 40.8421 60.8546 40.8421H60.8532Z" fill="#498BCA" fill-opacity="0.2"/>
<path d="M60.8574 43.0148C60.812 43.0148 60.7696 43.0247 60.7285 43.0488L54.267 46.7795C54.1452 46.8517 54.1013 47.0061 54.1736 47.1293C54.243 47.2511 54.4016 47.2922 54.5234 47.2228L60.9848 43.4921C61.1066 43.4198 61.1506 43.264 61.0783 43.1422C61.0302 43.0615 60.9438 43.0148 60.8588 43.0148H60.8574Z" fill="#498BCA" fill-opacity="0.2"/>
<path d="M60.8602 45.1874C60.8177 45.1874 60.7738 45.1988 60.7327 45.2228L54.267 48.9535C54.1424 49.0258 54.1013 49.1816 54.1736 49.3034C54.243 49.4252 54.3988 49.4691 54.5234 49.3969L60.9863 45.6662C61.1109 45.5939 61.152 45.4396 61.0797 45.3163C61.0344 45.2328 60.948 45.1874 60.8602 45.1874Z" fill="#498BCA" fill-opacity="0.2"/>
<path d="M60.8673 47.3616C60.822 47.3616 60.7795 47.3715 60.7384 47.3956L35.1986 62.1257C35.0768 62.198 35.0357 62.3524 35.1051 62.4756C35.1773 62.5974 35.3317 62.6413 35.4549 62.5691L60.9948 47.8389C61.1166 47.7695 61.1577 47.6109 61.0883 47.489C61.0401 47.4083 60.9537 47.3616 60.8687 47.3616H60.8673Z" fill="#498BCA" fill-opacity="0.2"/>
<path d="M60.8702 49.5343C60.8248 49.5343 60.7823 49.5456 60.7413 49.5683L35.2043 64.3013C35.0824 64.3707 35.0414 64.5279 35.1108 64.6483C35.183 64.7729 35.3374 64.8154 35.4606 64.7446L60.9976 50.0116C61.1194 49.9422 61.1605 49.785 61.0911 49.6618C61.043 49.581 60.9594 49.5357 60.8716 49.5357L60.8702 49.5343Z" fill="#498BCA" fill-opacity="0.2"/>
<path d="M60.8744 51.707C60.8291 51.707 60.7866 51.7183 60.7455 51.7424L35.2085 66.4725C35.0867 66.5448 35.0456 66.7006 35.115 66.8224C35.1844 66.9442 35.3402 66.9881 35.4649 66.9159L61.0019 52.1829C61.1237 52.1135 61.1676 51.9577 61.0954 51.8359C61.0501 51.7523 60.9637 51.707 60.8758 51.707H60.8744Z" fill="#498BCA" fill-opacity="0.2"/>
<path d="M48.5847 9.82532C48.4529 9.82532 48.3212 9.85648 48.2023 9.92588L36.996 16.3987C36.6306 16.6097 36.5031 17.0757 36.7156 17.4439C36.9266 17.8094 37.3954 17.934 37.7608 17.7244L48.9671 11.2544C49.3325 11.0434 49.46 10.5746 49.2489 10.2092C49.1059 9.9627 48.8467 9.82673 48.5833 9.82673L48.5847 9.82532Z" fill="#498BCA" fill-opacity="0.2"/>
<path d="M17.7845 50.2341C17.361 50.2341 17.0182 50.5783 17.0182 51.0004L17.0154 63.9417C17.0154 64.3652 17.3596 64.7079 17.7831 64.7079C18.2065 64.7079 18.5493 64.3652 18.5493 63.9417L18.5521 51.0004C18.5521 50.5797 18.208 50.2341 17.7845 50.2341Z" fill="#498BCA" fill-opacity="0.2"/>
<path d="M37.3798 3.35536C36.9563 3.35536 36.6136 3.69812 36.6136 4.12161V39.2446L6.19577 56.8089C5.82751 57.0199 5.70287 57.4887 5.91391 57.857C6.12637 58.2238 6.59518 58.347 6.96202 58.1374L37.7637 40.3536C38.0002 40.2148 38.1461 39.9641 38.1461 39.6879V4.12019C38.1461 3.6967 37.8033 3.35394 37.3798 3.35394V3.35536Z" fill="#498BCA" fill-opacity="0.2"/>
<path d="M31.5699 0.256348C31.2881 0.256348 31.06 0.484382 31.06 0.766238V36.0393L0.511916 53.6745C0.268302 53.8161 0.184737 54.1263 0.324957 54.3713C0.466593 54.6178 0.779609 54.7013 1.02322 54.5597L31.8249 36.7758C31.9835 36.6852 32.0784 36.5152 32.0784 36.3325V0.766238C32.0784 0.484382 31.8504 0.256348 31.5685 0.256348H31.5699Z" fill="#498BCA" fill-opacity="0.2"/>
<path d="M33.0599 36.9359C33.0146 36.9359 32.9721 36.9472 32.931 36.9713L2.1294 54.7566C2.00759 54.8288 1.96369 54.9832 2.03592 55.1064C2.10532 55.2282 2.26254 55.2693 2.38576 55.1999L33.1874 37.4161C33.3092 37.3438 33.3503 37.1894 33.2809 37.0662C33.2327 36.9827 33.1463 36.9373 33.0613 36.9373L33.0599 36.9359Z" fill="#498BCA" fill-opacity="0.2"/>
<path d="M34.3474 37.681C34.3049 37.681 34.261 37.6924 34.2199 37.7164L3.41971 55.5003C3.2979 55.5697 3.25682 55.7283 3.32623 55.8473C3.39846 55.9691 3.55426 56.013 3.67607 55.9436L34.4777 38.1598C34.5995 38.0875 34.6406 37.9331 34.5712 37.8099C34.523 37.7292 34.4366 37.681 34.3488 37.681H34.3474Z" fill="#498BCA" fill-opacity="0.2"/>
<path d="M35.6377 38.4275C35.5966 38.4275 35.5513 38.4374 35.5102 38.4615L4.70858 56.2453C4.58677 56.3147 4.54286 56.4719 4.61226 56.5952C4.6845 56.717 4.83888 56.7581 4.96352 56.6887L35.7652 38.9048C35.887 38.8326 35.928 38.6782 35.8586 38.555C35.8105 38.4742 35.7241 38.4275 35.6363 38.4275H35.6377Z" fill="#498BCA" fill-opacity="0.2"/>
<path d="M33.06 1.37103C32.9183 1.37103 32.8036 1.48576 32.8036 1.62739V37.1923C32.8036 37.3339 32.9183 37.4486 33.06 37.4486C33.2016 37.4486 33.3135 37.3339 33.3135 37.1923V1.62739C33.3135 1.48576 33.2016 1.37103 33.06 1.37103Z" fill="#498BCA" fill-opacity="0.2"/>
<path d="M34.3475 2.11598C34.2059 2.11598 34.094 2.2307 34.094 2.37234V37.9372C34.094 38.0788 34.2059 38.1936 34.3475 38.1936C34.4892 38.1936 34.6039 38.0788 34.6039 37.9372V2.37092C34.6039 2.22929 34.4892 2.11456 34.3475 2.11456V2.11598Z" fill="#498BCA" fill-opacity="0.2"/>
<path d="M35.6378 2.86237C35.4962 2.86237 35.3843 2.97426 35.3843 3.11589V38.6808C35.3843 38.8238 35.4962 38.9371 35.6378 38.9371C35.7794 38.9371 35.8942 38.8252 35.8942 38.6808V3.11589C35.8942 2.97426 35.7794 2.86237 35.6378 2.86237Z" fill="#498BCA" fill-opacity="0.2"/>
<path d="M31.5699 0C31.4382 0 31.3064 0.0339927 31.1875 0.103394L0.385836 17.8844C0.149303 18.0232 0.00341797 18.2739 0.00341797 18.5501V54.1178C0.00341797 54.5413 0.346178 54.884 0.76967 54.884C1.19316 54.884 1.53592 54.5413 1.53592 54.1178V18.992L31.9523 1.43053C32.3177 1.21807 32.4452 0.749256 32.2327 0.382418C32.0911 0.135971 31.8333 0 31.5699 0Z" fill="#498BCA" fill-opacity="0.2"/>
<path d="M31.5699 0C31.3065 0 31.0487 0.135971 30.9042 0.382418C30.6932 0.747839 30.8178 1.21807 31.1861 1.43053L36.996 4.78589C37.3614 4.99693 37.8316 4.87229 38.0441 4.50403C38.2551 4.13861 38.1305 3.66838 37.7622 3.45876L31.9523 0.103394C31.8333 0.0339927 31.7016 0 31.5699 0Z" fill="#498BCA" fill-opacity="0.2"/>
<path d="M31.5699 35.8212C31.3929 35.8212 31.2229 35.9147 31.1266 36.0776C30.985 36.3212 31.0685 36.6356 31.3136 36.7759L37.1235 40.1284C37.3671 40.27 37.6815 40.1865 37.8218 39.9414C37.9634 39.6978 37.8798 39.3834 37.6348 39.2432L31.8249 35.8878C31.7442 35.8425 31.6549 35.8212 31.5685 35.8212H31.5699Z" fill="#498BCA" fill-opacity="0.2"/>
<path d="M0.768261 53.3515C0.501985 53.3515 0.244207 53.4875 0.102571 53.7339C-0.108467 54.1008 0.0161726 54.5696 0.384427 54.7792L6.19435 58.1346C6.55835 58.3456 7.03 58.221 7.23962 57.8541C7.45208 57.4859 7.32602 57.0171 6.95918 56.806L1.14926 53.4535C1.02746 53.3813 0.895734 53.3501 0.766845 53.3501L0.768261 53.3515Z" fill="#498BCA" fill-opacity="0.2"/>
<path d="M43.8115 17.9722C43.7691 17.9722 43.7251 17.9836 43.6827 18.0062L37.2198 21.7398C37.098 21.812 37.0541 21.9664 37.1263 22.0896C37.1957 22.2114 37.3529 22.2553 37.4762 22.1831L43.939 18.4495C44.0608 18.3801 44.1047 18.2229 44.0325 18.0997C43.9872 18.019 43.9008 17.9722 43.813 17.9722H43.8115Z" fill="#498BCA" fill-opacity="0.2"/>
<path d="M43.8159 20.1464C43.7734 20.1464 43.7295 20.1577 43.687 20.1818L37.2524 23.8955C37.1306 23.9677 37.0867 24.1221 37.159 24.2453C37.2284 24.37 37.387 24.411 37.506 24.3388L43.9433 20.6251C44.0651 20.5529 44.1091 20.3985 44.0368 20.2752C43.9915 20.1945 43.9051 20.1464 43.8173 20.1464H43.8159Z" fill="#498BCA" fill-opacity="0.2"/>
<path d="M43.8059 15.7981C43.7634 15.7981 43.7195 15.8094 43.6784 15.8335L37.251 19.5444C37.1292 19.6138 37.0853 19.7696 37.1575 19.8914C37.2269 20.0132 37.3855 20.0571 37.5045 19.9849L43.9348 16.274C44.0538 16.2046 44.0977 16.0488 44.0283 15.927C43.9801 15.8463 43.8937 15.7981 43.8059 15.7981Z" fill="#498BCA" fill-opacity="0.2"/>
<path d="M43.8215 22.3191C43.779 22.3191 43.7337 22.3304 43.6926 22.3545L37.2538 26.047C37.132 26.1192 37.0881 26.2736 37.1603 26.3968C37.2297 26.5186 37.3827 26.5625 37.5073 26.4931L43.9489 22.7978C44.0707 22.7256 44.1118 22.5712 44.0424 22.448C43.9971 22.3672 43.9107 22.3191 43.8229 22.3191H43.8215Z" fill="#498BCA" fill-opacity="0.2"/>
<path d="M43.8229 24.4932C43.7804 24.4932 43.7365 24.5045 43.6954 24.5272L37.251 28.2479C37.1292 28.3202 37.0853 28.4746 37.1575 28.5978C37.2269 28.7196 37.3855 28.7607 37.5045 28.6913L43.9504 24.9705C44.0722 24.8982 44.1133 24.7439 44.0439 24.6206C43.9957 24.5399 43.9093 24.4932 43.8215 24.4932H43.8229Z" fill="#498BCA" fill-opacity="0.2"/>
<path d="M43.8286 26.6687C43.7875 26.6687 43.7479 26.6786 43.7096 26.697L37.1363 30.1459C37.0088 30.2124 36.9621 30.3654 37.0286 30.49C37.0938 30.6175 37.2482 30.6643 37.3728 30.5977L43.949 27.1517C44.0736 27.0851 44.1218 26.9321 44.0538 26.8047C44.0113 26.7183 43.9192 26.6687 43.8286 26.6687Z" fill="#498BCA" fill-opacity="0.2"/>
<path d="M43.8329 28.8414C43.7875 28.8414 43.7451 28.8528 43.704 28.8754L37.2524 32.6033C37.1306 32.6727 37.0867 32.8285 37.159 32.9503C37.2284 33.0749 37.387 33.116 37.506 33.0438L43.9589 29.3187C44.0807 29.2493 44.1246 29.0935 44.0524 28.9717C44.0071 28.8882 43.9178 28.8428 43.8329 28.8428V28.8414Z" fill="#498BCA" fill-opacity="0.2"/>
<path d="M43.8357 31.0169C43.7932 31.0169 43.7493 31.0268 43.7082 31.0509L37.2524 34.7788C37.1306 34.851 37.0867 35.0068 37.159 35.1286C37.2284 35.2504 37.387 35.2943 37.506 35.2221L43.9646 31.4942C44.0864 31.4248 44.1303 31.2676 44.0552 31.1444C44.0127 31.0636 43.9235 31.0169 43.8357 31.0169Z" fill="#498BCA" fill-opacity="0.2"/>
<path d="M43.8399 33.1896C43.7974 33.1896 43.7535 33.1996 43.7124 33.2236L37.251 36.9543C37.1292 37.0237 37.0853 37.1809 37.1575 37.3013C37.2269 37.426 37.3855 37.4671 37.5045 37.3976L43.9674 33.6669C44.0892 33.5975 44.1331 33.4389 44.058 33.3171C44.0127 33.2364 43.9263 33.1896 43.8385 33.1896H43.8399Z" fill="#498BCA" fill-opacity="0.2"/>
<path d="M43.8441 35.3623C43.8017 35.3623 43.7563 35.3736 43.7167 35.3977L37.251 39.1312C37.1292 39.2006 37.0853 39.3579 37.1575 39.4811C37.2269 39.6029 37.3855 39.644 37.5045 39.5746L43.9702 35.8396C44.092 35.7702 44.1359 35.6144 44.0637 35.4926C44.0184 35.409 43.9291 35.3637 43.8441 35.3637V35.3623Z" fill="#498BCA" fill-opacity="0.2"/>
<path d="M43.8498 37.535C43.8073 37.535 43.7634 37.5464 43.7223 37.5704L18.1825 52.3034C18.0607 52.3728 18.0168 52.5286 18.089 52.6505C18.1584 52.7751 18.3142 52.8176 18.436 52.7439L43.9745 38.0109C44.0991 37.9415 44.1402 37.7857 44.0679 37.6639C44.0226 37.5832 43.9362 37.535 43.8484 37.535H43.8498Z" fill="#498BCA" fill-opacity="0.2"/>
<path d="M43.8512 39.7106C43.8088 39.7106 43.7648 39.7219 43.7238 39.746L18.1896 54.4762C18.0649 54.5456 18.0239 54.7042 18.0933 54.826C18.1627 54.9478 18.3199 54.9917 18.4431 54.9195L43.9801 40.1893C44.1019 40.1171 44.1459 39.9613 44.0736 39.8395C44.0255 39.7587 43.9419 39.7106 43.8512 39.7106Z" fill="#498BCA" fill-opacity="0.2"/>
<path d="M43.8597 41.8847C43.8172 41.8847 43.7719 41.8946 43.7308 41.9187L18.1938 56.6517C18.0692 56.7211 18.0281 56.8769 18.0975 57.0015C18.1697 57.1233 18.3241 57.1644 18.4473 57.095L43.9872 42.362C44.109 42.2898 44.1529 42.1354 44.0807 42.0122C44.0325 41.9314 43.9489 41.8847 43.8611 41.8847H43.8597Z" fill="#498BCA" fill-opacity="0.2"/>
<path d="M10.5695 20.3376C10.4278 20.3376 10.3131 20.4524 10.3131 20.594V41.9867C10.3131 42.1284 10.4278 42.2431 10.5695 42.2431C10.7111 42.2431 10.8258 42.1284 10.8258 41.9867V20.594C10.8258 20.4524 10.7111 20.3376 10.5695 20.3376Z" fill="#498BCA" fill-opacity="0.2"/>
<path d="M7.7835 21.9381C7.64186 21.9381 7.52997 22.0528 7.52997 22.1945V43.5872C7.52997 43.7288 7.64186 43.8436 7.7835 43.8436C7.92513 43.8436 8.03986 43.7288 8.03986 43.5872L8.04269 22.1945C8.04269 22.0528 7.92797 21.9381 7.78491 21.9381H7.7835Z" fill="#498BCA" fill-opacity="0.2"/>
<path d="M9.17863 21.1393C9.03699 21.1393 8.92227 21.2512 8.92227 21.3928L8.91943 42.7855C8.91943 42.9286 9.03416 43.0419 9.17721 43.0419C9.32026 43.0419 9.43074 42.93 9.43074 42.7855L9.43357 21.3928C9.43357 21.2512 9.31885 21.1393 9.17721 21.1393H9.17863Z" fill="#498BCA" fill-opacity="0.2"/>
<path d="M11.9617 19.5374C11.8187 19.5374 11.7054 19.6521 11.7054 19.7938V41.1865C11.7054 41.3282 11.8173 41.4429 11.9617 41.4429C12.1062 41.4429 12.2153 41.3282 12.2153 41.1865V19.7938C12.2153 19.6521 12.1034 19.5374 11.9617 19.5374Z" fill="#498BCA" fill-opacity="0.2"/>
<path d="M13.3526 18.7386C13.211 18.7386 13.0963 18.8533 13.0963 18.9949V40.3849C13.0963 40.5265 13.211 40.6412 13.3526 40.6412C13.4942 40.6412 13.609 40.5265 13.609 40.3849V18.9949C13.609 18.8533 13.4942 18.7386 13.3526 18.7386Z" fill="#498BCA" fill-opacity="0.2"/>
<path d="M14.7449 17.9398C14.6033 17.9398 14.4885 18.0517 14.4885 18.1961V39.586C14.4885 39.7277 14.6033 39.8424 14.7449 39.8424C14.8865 39.8424 15.0012 39.7277 15.0012 39.586V18.1961C15.0012 18.0531 14.8865 17.9398 14.7449 17.9398Z" fill="#498BCA" fill-opacity="0.2"/>
<path d="M16.1372 17.1381C15.9942 17.1381 15.8809 17.2528 15.8809 17.3944V38.7872C15.8809 38.9288 15.9928 39.0435 16.1372 39.0435C16.2817 39.0435 16.3907 38.9288 16.3907 38.7872V17.3944C16.3907 17.2528 16.2789 17.1381 16.1372 17.1381Z" fill="#498BCA" fill-opacity="0.2"/>
<path d="M17.5281 16.3392C17.3864 16.3392 17.2745 16.454 17.2745 16.5956V37.9855C17.2745 38.1271 17.3893 38.2419 17.5281 38.2419C17.6711 38.2419 17.7844 38.1271 17.7844 37.9855V16.5942C17.7844 16.4526 17.6697 16.3378 17.5281 16.3378V16.3392Z" fill="#498BCA" fill-opacity="0.2"/>
<path d="M18.9204 15.5376C18.7787 15.5376 18.664 15.6523 18.664 15.794V37.1867C18.664 37.3283 18.7787 37.4431 18.9204 37.4431C19.062 37.4431 19.1767 37.3283 19.1767 37.1867V15.7926C19.1767 15.6509 19.062 15.5362 18.9204 15.5362V15.5376Z" fill="#498BCA" fill-opacity="0.2"/>
<path d="M20.3126 14.7374C20.171 14.7374 20.0563 14.8521 20.0563 14.9937V36.3865C20.0563 36.5281 20.171 36.64 20.3126 36.64C20.4543 36.64 20.569 36.5281 20.569 36.3865V14.9937C20.569 14.8521 20.4543 14.7374 20.3126 14.7374Z" fill="#498BCA" fill-opacity="0.2"/>
<path d="M21.7064 13.9385C21.5633 13.9385 21.45 14.0504 21.45 14.1949V35.5876C21.45 35.7293 21.5619 35.8412 21.7035 35.8412C21.8452 35.8412 21.9599 35.7293 21.9599 35.5876V14.1949C21.9599 14.0518 21.848 13.9385 21.7064 13.9385Z" fill="#498BCA" fill-opacity="0.2"/>
<path d="M23.0958 13.1396C22.9541 13.1396 22.8394 13.2515 22.8394 13.3932V34.7859C22.8394 34.9276 22.9541 35.0423 23.0958 35.0423C23.2374 35.0423 23.3521 34.9276 23.3521 34.7859V13.3932C23.3521 13.2515 23.2374 13.1396 23.0958 13.1396Z" fill="#498BCA" fill-opacity="0.2"/>
<path d="M24.4881 12.338C24.3464 12.338 24.2317 12.4527 24.2317 12.5944V33.9871C24.2317 34.1288 24.3464 34.2435 24.4881 34.2435C24.6297 34.2435 24.7444 34.1288 24.7444 33.9871V12.5944C24.7444 12.4527 24.6297 12.338 24.4881 12.338Z" fill="#498BCA" fill-opacity="0.2"/>
<path d="M79.933 11.8251C79.7942 11.8251 79.6794 11.9399 79.6794 12.0787V47.7639C79.6794 47.9056 79.7942 48.0174 79.9386 48.0174C80.0774 48.0174 80.1922 47.9056 80.1922 47.7639V12.0787C80.1922 11.9399 80.0774 11.8251 79.9344 11.8251H79.933Z" fill="#498BCA" fill-opacity="0.2"/>
<path d="M78.4402 12.6891C78.2971 12.6891 78.1824 12.8038 78.1824 12.9454V48.6279C78.1824 48.7695 78.2971 48.8842 78.4402 48.8842C78.5832 48.8842 78.6937 48.7695 78.6937 48.6279V12.9454C78.6937 12.8038 78.579 12.6891 78.4402 12.6891Z" fill="#498BCA" fill-opacity="0.2"/>
<path d="M76.9416 13.553C76.7986 13.553 76.6881 13.6678 76.6881 13.8094V49.4918C76.6881 49.6335 76.8028 49.7482 76.9416 49.7482C77.0847 49.7482 77.1994 49.6335 77.1994 49.4918L77.1952 13.8094C77.1952 13.6678 77.0804 13.553 76.9416 13.553Z" fill="#498BCA" fill-opacity="0.2"/>
<path d="M75.4431 14.4171C75.3043 14.4171 75.1896 14.5318 75.1896 14.6734V50.3558C75.1896 50.4975 75.3043 50.6122 75.4431 50.6122C75.5819 50.6122 75.7023 50.4975 75.7023 50.3558V14.6734C75.7023 14.5318 75.5876 14.4171 75.4431 14.4171Z" fill="#498BCA" fill-opacity="0.2"/>
<path d="M79.9375 47.5076C79.8511 47.5076 79.7647 47.5529 79.7123 47.635C79.6457 47.7597 79.6839 47.9155 79.8086 47.9849L110.711 65.8268C110.83 65.899 110.988 65.8551 111.061 65.7333C111.133 65.6115 111.085 65.4557 110.964 65.3863L80.0621 47.543C80.0239 47.5217 79.9814 47.509 79.9375 47.509V47.5076Z" fill="#498BCA" fill-opacity="0.2"/>
<path d="M78.4404 48.3716C78.354 48.3716 78.2633 48.4197 78.2208 48.5005C78.1486 48.6223 78.1925 48.7781 78.3115 48.8475L109.214 66.6894C109.338 66.7616 109.491 66.7177 109.564 66.5959C109.636 66.4741 109.592 66.3183 109.467 66.2461L78.5707 48.407C78.5282 48.3829 78.4843 48.3716 78.4418 48.3716H78.4404Z" fill="#498BCA" fill-opacity="0.2"/>
<path d="M76.9418 49.2355C76.8554 49.2355 76.769 49.2808 76.7223 49.3644C76.65 49.4862 76.694 49.642 76.8186 49.7114L107.715 67.5547C107.84 67.6241 107.993 67.583 108.065 67.4612C108.137 67.3366 108.093 67.1808 107.974 67.1114L77.0721 49.2695C77.0339 49.2454 76.9857 49.2341 76.9432 49.2341L76.9418 49.2355Z" fill="#498BCA" fill-opacity="0.2"/>
<path d="M75.4433 50.0995C75.3569 50.0995 75.2705 50.1448 75.2238 50.227C75.1572 50.3488 75.1955 50.5074 75.3201 50.5768L106.222 68.4201C106.341 68.4924 106.5 68.4485 106.572 68.3267C106.644 68.2048 106.6 68.0462 106.476 67.9768L75.5736 50.1349C75.5354 50.108 75.4929 50.0995 75.4447 50.0995H75.4433Z" fill="#498BCA" fill-opacity="0.2"/>
<path d="M87.0345 22.1263C86.9481 22.1263 86.8618 22.1716 86.815 22.2538C86.7428 22.3756 86.7867 22.5314 86.9057 22.6036L105.341 33.2447C105.46 33.317 105.619 33.2731 105.685 33.1484C105.757 33.0294 105.714 32.8708 105.595 32.8014L87.1592 22.1603C87.1209 22.1362 87.0785 22.1263 87.0345 22.1263Z" fill="#498BCA" fill-opacity="0.2"/>
<path d="M87.0345 23.5554C86.9481 23.5554 86.8618 23.6035 86.815 23.6814C86.7428 23.8032 86.7867 23.9619 86.9057 24.0327L104.1 33.9586C104.219 34.0308 104.378 33.9897 104.444 33.8651C104.517 33.7433 104.478 33.5875 104.354 33.5181L87.1592 23.5894C87.1209 23.5653 87.0785 23.554 87.0345 23.554V23.5554Z" fill="#498BCA" fill-opacity="0.2"/>
<path d="M86.968 24.9476C86.8816 24.9476 86.7952 24.993 86.7484 25.0765C86.6819 25.1983 86.7201 25.3541 86.8448 25.4235L102.862 34.6738C102.981 34.746 103.14 34.7021 103.212 34.5803C103.279 34.4585 103.241 34.3027 103.116 34.2305L87.0983 24.9816C87.0601 24.9576 87.0119 24.9462 86.9694 24.9462L86.968 24.9476Z" fill="#498BCA" fill-opacity="0.2"/>
<path d="M87.0345 26.4178C86.9481 26.4178 86.8618 26.4632 86.815 26.5467C86.7428 26.6685 86.7867 26.8243 86.9057 26.8966L101.622 35.3919C101.741 35.4642 101.899 35.4202 101.972 35.2984C102.038 35.1766 101.996 35.0208 101.875 34.9486L87.1592 26.4533C87.1209 26.4292 87.0785 26.4178 87.0345 26.4178Z" fill="#498BCA" fill-opacity="0.2"/>
<path d="M105.394 32.6413C105.251 32.6413 105.136 32.756 105.136 32.8977V54.1828C105.136 54.3244 105.251 54.4391 105.394 54.4391C105.537 54.4391 105.647 54.3244 105.647 54.1828V32.8977C105.647 32.756 105.532 32.6413 105.394 32.6413Z" fill="#498BCA" fill-opacity="0.2"/>
<path d="M104.154 33.3566C104.015 33.3566 103.901 33.4713 103.901 33.6129L103.896 53.4661C103.896 53.6077 104.011 53.7224 104.154 53.7224C104.297 53.7224 104.408 53.6077 104.408 53.4661L104.412 33.6129C104.412 33.4713 104.297 33.3566 104.154 33.3566Z" fill="#498BCA" fill-opacity="0.2"/>
<path d="M102.914 34.0718C102.77 34.0718 102.656 34.1866 102.656 34.3282L102.66 52.8273C102.66 52.9689 102.775 53.0808 102.914 53.0808C103.057 53.0808 103.173 52.9689 103.173 52.8273L103.168 34.3282C103.168 34.1866 103.058 34.0718 102.915 34.0718H102.914Z" fill="#498BCA" fill-opacity="0.2"/>
<path d="M101.674 34.787C101.531 34.787 101.421 34.9018 101.421 35.0434V52.0327C101.421 52.1743 101.535 52.289 101.674 52.289C101.817 52.289 101.932 52.1743 101.932 52.0327V35.0434C101.932 34.9018 101.817 34.787 101.674 34.787Z" fill="#498BCA" fill-opacity="0.2"/>
<path d="M81.4316 10.5093C81.1681 10.5093 80.9104 10.6453 80.7659 10.8917C80.5549 11.2571 80.6795 11.7274 81.0478 11.937L111.466 29.4985V64.6228C111.466 65.0463 111.81 65.3891 112.232 65.3891C112.654 65.3891 112.998 65.0463 112.998 64.6228V29.058C112.998 28.7832 112.849 28.5297 112.616 28.3923L81.814 10.6113C81.695 10.539 81.5647 10.5079 81.4316 10.5079V10.5093Z" fill="#498BCA" fill-opacity="0.2"/>
<path d="M81.4315 10.7657C81.1497 10.7657 80.9188 10.9923 80.9188 11.2756V46.8404C80.9188 47.0217 81.0194 47.1917 81.1766 47.2823L111.978 65.0662C112.222 65.2078 112.533 65.1243 112.677 64.8764C112.815 64.6328 112.735 64.3212 112.49 64.1796L81.9414 46.5444V11.2756C81.9414 10.9937 81.712 10.7657 81.4287 10.7657H81.4315Z" fill="#498BCA" fill-opacity="0.2"/>
<path d="M112.232 63.858C112.103 63.858 111.968 63.8892 111.849 63.9586L104.178 68.3904C103.81 68.6014 103.685 69.0702 103.897 69.4385C104.108 69.8053 104.581 69.9286 104.945 69.7189L112.616 65.2871C112.984 65.0761 113.109 64.6073 112.898 64.2419C112.754 63.9954 112.495 63.8594 112.232 63.8594V63.858Z" fill="#498BCA" fill-opacity="0.2"/>
<path d="M81.4316 10.5093C81.3027 10.5093 81.1738 10.5405 81.0492 10.6127L73.3781 15.0389C73.0099 15.2513 72.8852 15.7201 73.0963 16.087C73.3073 16.4552 73.7761 16.5799 74.1444 16.3674L81.8154 11.9384C82.1837 11.7274 82.3083 11.2586 82.0973 10.8932C81.9542 10.6467 81.695 10.5108 81.4316 10.5108V10.5093Z" fill="#498BCA" fill-opacity="0.2"/>
<path d="M81.4316 46.3291C81.3452 46.3291 81.2588 46.3532 81.1781 46.3985L73.5014 50.8303C73.2578 50.9691 73.1756 51.2821 73.3144 51.5271C73.4532 51.7736 73.7691 51.8543 74.0127 51.7155L81.6894 47.2837C81.933 47.1421 82.0152 46.8291 81.8764 46.5855C81.78 46.4226 81.6087 46.3291 81.4316 46.3291Z" fill="#498BCA" fill-opacity="0.2"/>
<path d="M73.7549 14.9369C73.3343 14.9369 72.9943 15.2811 72.9943 15.7046V51.2723C72.9943 51.5456 73.1374 51.7991 73.3767 51.9351L104.178 69.719C104.542 69.93 105.011 69.8054 105.222 69.4385C105.438 69.0703 105.309 68.6014 104.945 68.3904L74.5268 50.8289V15.7046C74.5268 15.2811 74.1827 14.9369 73.7563 14.9369H73.7549Z" fill="#498BCA" fill-opacity="0.2"/>
<path d="M87.2882 20.5357L106.886 31.8511C107.045 31.9417 107.14 32.1088 107.14 32.2944V54.9208C107.14 55.1021 107.044 55.2706 106.886 55.3627C106.729 55.4533 106.532 55.4533 106.374 55.3627L86.7812 44.0474C86.6183 43.9567 86.522 43.7868 86.522 43.604V20.9777C86.522 20.7964 86.6183 20.6264 86.7812 20.5357C86.8577 20.4904 86.944 20.4692 87.0347 20.4692C87.1211 20.4692 87.2117 20.4904 87.2882 20.5357ZM106.116 54.0341L106.12 32.589L87.5474 21.8643V43.3123L106.116 54.0341Z" fill="#498BCA" fill-opacity="0.2"/>
<path d="M87.0404 27.7592C86.8633 27.7592 86.6905 27.8499 86.5956 28.0156C86.4568 28.2592 86.5376 28.5708 86.7826 28.7124L99.8089 36.2333V51.2751C99.8089 51.5569 100.034 51.7878 100.316 51.7878C100.598 51.7878 100.829 51.5584 100.829 51.2751V35.9373C100.829 35.756 100.732 35.5875 100.569 35.4968L87.2939 27.8272C87.2132 27.7819 87.1268 27.7606 87.0404 27.7606V27.7592Z" fill="#498BCA" fill-opacity="0.2"/>
<path d="M106.627 31.7817C106.541 31.7817 106.454 31.8029 106.374 31.8511L100.061 35.4954C99.8174 35.637 99.731 35.9472 99.8741 36.1922C100.013 36.4358 100.324 36.5222 100.568 36.3792L106.885 32.7377C107.129 32.5961 107.211 32.2831 107.072 32.0395C106.976 31.8766 106.809 31.7831 106.627 31.7831V31.7817Z" fill="#498BCA" fill-opacity="0.2"/>
<path d="M96.4011 63.579C95.9804 63.579 95.6348 63.9217 95.6348 64.3452V73.764C95.6348 74.1875 95.979 74.5317 96.4011 74.5317C96.8232 74.5317 97.1673 74.1875 97.1673 73.764L97.1716 64.3452C97.1716 63.9217 96.8274 63.579 96.4011 63.579Z" fill="#498BCA" fill-opacity="0.2"/>
<path d="M87.3888 32.2279C87.1254 32.2279 86.8676 32.3667 86.7231 32.6103C86.5121 32.9757 86.6367 33.4459 87.005 33.6584L95.6335 38.6383V48.7285C95.6335 49.152 95.9776 49.4947 96.3997 49.4947C96.826 49.4947 97.166 49.152 97.166 48.7285V38.1978C97.166 37.9231 97.0229 37.6695 96.7835 37.5321L87.7726 32.3298C87.6537 32.2604 87.5234 32.2264 87.3902 32.2264L87.3888 32.2279Z" fill="#498BCA" fill-opacity="0.2"/>
<path d="M65.6051 19.6477C65.3374 19.6477 65.0783 19.7865 64.9394 20.0301C64.7242 20.3955 64.8531 20.8658 65.2171 21.0782L73.3767 25.7876C73.7407 26.0001 74.2095 25.874 74.4206 25.5058C74.6316 25.1404 74.507 24.6701 74.143 24.4605L65.9876 19.7511C65.8629 19.6817 65.734 19.6477 65.6051 19.6477Z" fill="#498BCA" fill-opacity="0.2"/>
<path d="M89.9595 60.3694C89.8207 60.3694 89.7059 60.4842 89.7059 60.6258L89.7102 65.6241C89.7102 65.7658 89.8207 65.8805 89.9637 65.8805C90.1025 65.8805 90.2172 65.7658 90.2172 65.6241V60.6258C90.2172 60.4842 90.1025 60.3694 89.9595 60.3694Z" fill="#498BCA" fill-opacity="0.2"/>
<path d="M90.3561 35.1029C90.2173 35.1029 90.1025 35.2176 90.1025 35.3593V45.4027C90.1025 45.5443 90.2173 45.6591 90.3561 45.6591C90.4949 45.6591 90.6138 45.5443 90.6138 45.4027V35.3593C90.6138 35.2176 90.4991 35.1029 90.3561 35.1029Z" fill="#498BCA" fill-opacity="0.2"/>
<path d="M93.9168 62.6526C93.7737 62.6526 93.659 62.7673 93.659 62.9089L93.6547 67.8988C93.6547 68.0404 93.7695 68.1523 93.9139 68.1523C94.057 68.1523 94.1717 68.0404 94.1717 67.8988V62.9089C94.1717 62.7673 94.057 62.6526 93.9182 62.6526H93.9168Z" fill="#498BCA" fill-opacity="0.2"/>
<path d="M94.1137 37.321C93.9706 37.321 93.8559 37.4329 93.8559 37.5745L93.8601 47.6293C93.8601 47.7709 93.9749 47.8856 94.1137 47.8856C94.2525 47.8856 94.3672 47.7709 94.3672 47.6293V37.5745C94.3672 37.4329 94.2525 37.321 94.1137 37.321Z" fill="#498BCA" fill-opacity="0.2"/>
<path d="M91.9353 61.511C91.7965 61.511 91.6818 61.6258 91.6818 61.7674V66.7615C91.6818 66.9031 91.7965 67.015 91.9395 67.015C92.0783 67.015 92.1931 66.9031 92.1931 66.7615L92.1888 61.7674C92.1888 61.6258 92.0783 61.511 91.9353 61.511Z" fill="#498BCA" fill-opacity="0.2"/>
<path d="M92.2327 36.2119C92.0939 36.2119 91.9792 36.3266 91.9792 36.4683V46.5188C91.9792 46.6576 92.0939 46.7723 92.2327 46.7723C92.3715 46.7723 92.4905 46.6576 92.4905 46.5188V36.4683C92.4905 36.3266 92.3758 36.2119 92.2327 36.2119Z" fill="#498BCA" fill-opacity="0.2"/>
<path d="M87.9879 59.2307C87.8448 59.2307 87.7301 59.3425 87.7301 59.4842V64.4882C87.7301 64.6312 87.8448 64.7445 87.9879 64.7445C88.1309 64.7445 88.2414 64.6327 88.2414 64.4882V59.4842C88.2414 59.3425 88.1267 59.2307 87.9879 59.2307Z" fill="#498BCA" fill-opacity="0.2"/>
<path d="M88.4808 33.9954C88.3377 33.9954 88.2272 34.1101 88.2272 34.2517V44.2881C88.2272 44.4297 88.342 44.5444 88.4808 44.5444C88.6238 44.5444 88.7385 44.4297 88.7385 44.2881L88.7343 34.2517C88.7343 34.1101 88.6196 33.9954 88.4808 33.9954Z" fill="#498BCA" fill-opacity="0.2"/>
<path d="M86.0106 58.0891C85.8676 58.0891 85.7529 58.2009 85.7529 58.3454V63.3537C85.7529 63.4953 85.8676 63.6072 86.0106 63.6072C86.1537 63.6072 86.2642 63.4953 86.2642 63.3537V58.3454C86.2642 58.2024 86.1537 58.0891 86.0106 58.0891Z" fill="#498BCA" fill-opacity="0.2"/>
<path d="M84.0348 56.9474C83.8918 56.9474 83.777 57.0593 83.777 57.2038V62.2163C83.777 62.358 83.8918 62.4698 84.0348 62.4698C84.1779 62.4698 84.2883 62.358 84.2883 62.2163V57.2038C84.2883 57.0608 84.1736 56.9474 84.0348 56.9474Z" fill="#498BCA" fill-opacity="0.2"/>
<path d="M82.0576 55.8059C81.9145 55.8059 81.7998 55.9206 81.7998 56.0623V61.0804C81.7998 61.2221 81.9145 61.3368 82.0576 61.3368C82.2006 61.3368 82.3111 61.2221 82.3111 61.0804V56.0623C82.3111 55.9206 82.1964 55.8059 82.0576 55.8059Z" fill="#498BCA" fill-opacity="0.2"/>
<path d="M80.0817 54.6657C79.9429 54.6657 79.8282 54.7804 79.8282 54.9221V59.9473C79.8282 60.089 79.9429 60.2037 80.0817 60.2037C80.2248 60.2037 80.3395 60.089 80.3395 59.9473L80.3352 54.9221C80.3352 54.7804 80.2205 54.6657 80.0817 54.6657Z" fill="#498BCA" fill-opacity="0.2"/>
<path d="M78.1045 53.5256C77.9657 53.5256 77.851 53.6375 77.851 53.7791L77.8467 58.8086C77.8467 58.9502 77.9615 59.065 78.1045 59.065C78.2476 59.065 78.358 58.9502 78.358 58.8086V53.7791C78.358 53.6375 78.2433 53.5256 78.1045 53.5256Z" fill="#498BCA" fill-opacity="0.2"/>
<path d="M76.1287 52.3854C75.9857 52.3854 75.8752 52.5001 75.8752 52.6417V57.6741C75.8752 57.8157 75.9899 57.9304 76.1287 57.9304C76.2718 57.9304 76.3865 57.8157 76.3865 57.6741L76.3822 52.6417C76.3822 52.5001 76.2675 52.3854 76.1287 52.3854Z" fill="#498BCA" fill-opacity="0.2"/>
<path d="M74.1514 25.9093C74.0084 25.9093 73.8979 26.024 73.8979 26.1657V56.5381C73.8979 56.6798 74.0126 56.7945 74.1514 56.7945C74.2945 56.7945 74.4106 56.6798 74.4106 56.5381L74.4064 26.1657C74.4064 26.024 74.2916 25.9093 74.1528 25.9093H74.1514Z" fill="#498BCA" fill-opacity="0.2"/>
<path d="M72.1756 24.7734C72.0325 24.7734 71.9221 24.8881 71.9221 25.0312V55.4022C71.9221 55.5438 72.0368 55.6586 72.1756 55.6586C72.3186 55.6586 72.4334 55.5438 72.4334 55.4022V25.0312C72.4334 24.8881 72.3186 24.7734 72.1756 24.7734Z" fill="#498BCA" fill-opacity="0.2"/>
<path d="M70.2041 23.639C70.061 23.639 69.9463 23.7537 69.9463 23.8953V54.2678C69.9463 54.4095 70.061 54.5242 70.2041 54.5242C70.3471 54.5242 70.4576 54.4095 70.4576 54.2678V23.8953C70.4576 23.7537 70.3429 23.639 70.2041 23.639Z" fill="#498BCA" fill-opacity="0.2"/>
<path d="M65.5329 81.901C65.2453 81.901 65.0201 82.1305 65.0201 82.4137V107.632C65.0201 107.914 65.2453 108.142 65.5272 108.142C65.8091 108.142 66.0399 107.914 66.0399 107.632V82.4137C66.0399 82.1319 65.8147 81.901 65.5329 81.901Z" fill="#498BCA" fill-opacity="0.2"/>
<path d="M65.7424 81.901L87.6988 94.5789C87.8575 94.6695 87.9566 94.8395 87.9566 95.0208C87.9566 95.2021 87.8561 95.372 87.6988 95.4641L65.7424 108.142C65.5838 108.233 65.3883 108.233 65.2297 108.142L43.2732 95.4641C43.1146 95.3734 43.0168 95.2035 43.0168 95.0208C43.0168 94.8381 43.1146 94.6695 43.2732 94.5789L65.2297 81.901C65.3104 81.8557 65.3968 81.8316 65.4874 81.8316C65.5738 81.8316 65.6645 81.8557 65.741 81.901H65.7424ZM65.4889 107.108L86.4213 95.0222L65.4889 82.9335L44.5522 95.0222L65.4889 107.108Z" fill="#498BCA" fill-opacity="0.2"/>
<path d="M75.8553 88.2972C75.8128 88.2972 75.7689 88.3086 75.7307 88.3312L65.4026 94.2941C65.2779 94.3664 65.2354 94.5207 65.3062 94.644C65.3785 94.7658 65.5314 94.8097 65.6561 94.7374L75.9842 88.7746C76.1088 88.7052 76.1513 88.5494 76.0749 88.4247C76.0324 88.344 75.946 88.2972 75.8553 88.2972Z" fill="#498BCA" fill-opacity="0.2"/>
<path d="M74.3101 87.3129C74.2676 87.3129 74.2194 87.3243 74.1812 87.3469L65.404 92.4175C65.2793 92.4869 65.2411 92.6427 65.3077 92.7645C65.3799 92.8863 65.5371 92.9274 65.6575 92.8608L74.4347 87.7902C74.5593 87.7208 74.6018 87.5622 74.531 87.4404C74.4829 87.3597 74.3965 87.3129 74.3115 87.3129H74.3101Z" fill="#498BCA" fill-opacity="0.2"/>
<path d="M72.7592 86.3271C72.7167 86.3271 72.6728 86.3371 72.6345 86.3611L65.4026 90.5366C65.2779 90.606 65.2354 90.7618 65.3062 90.8836C65.3785 91.0082 65.5314 91.0493 65.6561 90.9771L72.888 86.8045C73.007 86.7351 73.0509 86.5793 72.9787 86.4546C72.9362 86.3739 72.8498 86.3271 72.7592 86.3271Z" fill="#498BCA" fill-opacity="0.2"/>
<path d="M71.1657 85.3682C71.1232 85.3682 71.0793 85.3781 71.0411 85.4022L65.404 88.657C65.2793 88.7293 65.2368 88.8851 65.3077 89.0069C65.3799 89.1287 65.5329 89.1726 65.6575 89.1003L71.2946 85.8455C71.4193 85.7733 71.4575 85.6175 71.3909 85.4957C71.3428 85.415 71.2564 85.3682 71.1657 85.3682Z" fill="#498BCA" fill-opacity="0.2"/>
<path d="M69.5383 84.4278C69.4958 84.4278 69.4519 84.4391 69.4094 84.4618L65.404 86.7804C65.2793 86.8498 65.2368 87.0056 65.3077 87.1274C65.3799 87.2492 65.5329 87.2931 65.6575 87.2237L69.6686 84.9051C69.7876 84.8357 69.8315 84.6771 69.7593 84.5581C69.7168 84.4774 69.6304 84.4292 69.5397 84.4292L69.5383 84.4278Z" fill="#498BCA" fill-opacity="0.2"/>
<path d="M67.792 83.5596C67.7495 83.5596 67.7056 83.5723 67.6673 83.5936L65.404 84.8994C65.2793 84.9688 65.2411 85.1275 65.3077 85.2493C65.3799 85.3711 65.5329 85.4122 65.6575 85.3428L67.9208 84.0383C68.0455 83.9661 68.0837 83.8117 68.0172 83.687C67.969 83.6063 67.8826 83.5596 67.792 83.5596Z" fill="#498BCA" fill-opacity="0.2"/>
<path d="M55.2033 88.3C55.1155 88.3 55.0291 88.3454 54.981 88.4275C54.9115 88.5493 54.9526 88.7051 55.0744 88.7774L65.404 94.7374C65.5229 94.8097 65.6816 94.7686 65.7481 94.6439C65.8204 94.5221 65.7821 94.3663 65.6575 94.2941L55.3308 88.334C55.2897 88.3128 55.2472 88.3 55.2033 88.3Z" fill="#498BCA" fill-opacity="0.2"/>
<path d="M56.7542 87.3129C56.6664 87.3129 56.58 87.3582 56.5347 87.4404C56.4625 87.5622 56.5064 87.718 56.6282 87.7902L65.404 92.8608C65.5229 92.9302 65.6816 92.8891 65.7538 92.7645C65.826 92.6427 65.7821 92.4869 65.6575 92.4175L56.8817 87.3469C56.8435 87.3228 56.7981 87.3129 56.7542 87.3129Z" fill="#498BCA" fill-opacity="0.2"/>
<path d="M58.3023 86.3271C58.2131 86.3271 58.1281 86.3725 58.0828 86.4546C58.0106 86.5793 58.0516 86.7351 58.1734 86.8045L65.404 90.9771C65.5229 91.0493 65.6816 91.0082 65.7481 90.8836C65.8204 90.7618 65.7821 90.606 65.6575 90.5366L58.4298 86.3611C58.3887 86.3371 58.3462 86.3271 58.3037 86.3271H58.3023Z" fill="#498BCA" fill-opacity="0.2"/>
<path d="M59.8943 85.3682C59.8065 85.3682 59.7201 85.4136 59.6748 85.4957C59.6025 85.6175 59.6464 85.7733 59.7683 85.8455L65.4054 89.1003C65.5244 89.1726 65.683 89.1287 65.7496 89.0069C65.8218 88.8851 65.7835 88.7293 65.6589 88.657L60.0232 85.4022C59.985 85.3781 59.9396 85.3682 59.8957 85.3682H59.8943Z" fill="#498BCA" fill-opacity="0.2"/>
<path d="M61.5203 84.4278C61.4324 84.4278 61.346 84.476 61.2979 84.5567C61.2256 84.6757 61.2696 84.8343 61.3914 84.9037L65.4025 87.2223C65.5215 87.2917 65.6801 87.2492 65.7467 87.126C65.8189 87.0042 65.7807 86.8484 65.656 86.779L61.6463 84.4604C61.6052 84.4391 61.5627 84.4264 61.5188 84.4264L61.5203 84.4278Z" fill="#498BCA" fill-opacity="0.2"/>
<path d="M63.2695 83.5567C63.1831 83.5567 63.0967 83.6049 63.0499 83.6856C62.9777 83.8074 63.0216 83.9632 63.1406 84.0354L65.4039 85.3399C65.5229 85.4121 65.6815 85.3711 65.7538 85.2493C65.826 85.1274 65.7821 84.9688 65.6575 84.8994L63.3984 83.5935C63.3601 83.5695 63.312 83.5581 63.2695 83.5581V83.5567Z" fill="#498BCA" fill-opacity="0.2"/>
<path d="M34.802 72.9963C34.3785 72.9963 34.0343 73.3405 34.0343 73.7626V95.0208C34.0343 95.4443 34.3785 95.787 34.802 95.787C35.2255 95.787 35.5682 95.4443 35.5682 95.0208V73.7626C35.5682 73.3419 35.224 72.9963 34.802 72.9963Z" fill="#498BCA" fill-opacity="0.2"/>
<path d="M96.401 72.9963C95.9803 72.9963 95.6347 73.3405 95.6347 73.7626V95.0208C95.6347 95.4443 95.9789 95.787 96.401 95.787C96.823 95.787 97.1672 95.4443 97.1672 95.0208V73.7626C97.1672 73.3419 96.8273 72.9963 96.401 72.9963Z" fill="#498BCA" fill-opacity="0.2"/>
<path d="M65.605 55.2153C65.1787 55.2153 64.8345 55.5581 64.8345 55.9816V77.2369C64.8345 77.6604 65.1787 78.0032 65.605 78.0032C66.0314 78.0032 66.3713 77.6604 66.3713 77.2369V55.9816C66.3713 55.5581 66.0271 55.2153 65.605 55.2153Z" fill="#498BCA" fill-opacity="0.2"/>
<path d="M65.9874 76.5741L96.7834 94.358C97.0228 94.4939 97.1658 94.7474 97.1658 95.0208C97.1658 95.2942 97.0228 95.5477 96.7834 95.6837L65.9874 113.468C65.7481 113.603 65.4563 113.603 65.2169 113.468L34.4167 95.6837C34.1802 95.5477 34.0343 95.2942 34.0343 95.0208C34.0343 94.7474 34.1802 94.4939 34.4167 94.358L65.2169 76.5741C65.3359 76.5075 65.4705 76.4707 65.605 76.4707C65.7396 76.4707 65.8685 76.5061 65.9874 76.5741ZM65.605 111.919L94.8699 95.0208L65.605 78.1222L36.3345 95.0208L65.605 111.919Z" fill="#498BCA" fill-opacity="0.2"/>
<path d="M65.605 58.3767C65.5144 58.3767 65.428 58.422 65.3798 58.5042C65.3076 58.626 65.3515 58.7818 65.4761 58.854L96.2778 76.635C96.3967 76.7073 96.5554 76.6662 96.6219 76.5416C96.6942 76.4197 96.6559 76.264 96.5313 76.1946L65.7297 58.4107C65.6914 58.3866 65.6489 58.3767 65.605 58.3767Z" fill="#498BCA" fill-opacity="0.2"/>
<path d="M65.6051 60.3555C65.5144 60.3555 65.428 60.4008 65.3799 60.4844C65.3076 60.6062 65.3515 60.762 65.4762 60.8314L96.2778 78.6152C96.3968 78.6875 96.5554 78.6464 96.622 78.5217C96.6942 78.3999 96.656 78.2441 96.5313 78.1719L65.7297 60.3881C65.6915 60.3668 65.649 60.3541 65.6051 60.3541V60.3555Z" fill="#498BCA" fill-opacity="0.2"/>
<path d="M65.6051 62.337C65.5144 62.337 65.428 62.3823 65.3799 62.4644C65.3076 62.5863 65.3515 62.7421 65.4762 62.8143L96.2778 80.5981C96.3968 80.6704 96.5554 80.6265 96.622 80.5047C96.6942 80.3829 96.656 80.2242 96.5313 80.1548L65.7297 62.371C65.6915 62.3497 65.649 62.337 65.6051 62.337Z" fill="#498BCA" fill-opacity="0.2"/>
<path d="M65.6051 64.3156C65.5144 64.3156 65.428 64.3609 65.3799 64.4431C65.3076 64.5677 65.3515 64.7235 65.4762 64.7943L96.2778 82.5754C96.3968 82.6476 96.5554 82.6037 96.622 82.4819C96.6942 82.3601 96.656 82.2043 96.5313 82.1349L65.7297 64.351C65.6915 64.3269 65.649 64.3156 65.6051 64.3156Z" fill="#498BCA" fill-opacity="0.2"/>
<path d="M65.6051 66.2971C65.5144 66.2971 65.428 66.3424 65.3799 66.4246C65.3076 66.5464 65.3515 66.705 65.4762 66.7744L96.2778 84.5583C96.3968 84.6277 96.5554 84.5866 96.622 84.4648C96.6942 84.3402 96.656 84.1844 96.5313 84.115L65.7297 66.3311C65.6915 66.307 65.649 66.2971 65.6051 66.2971Z" fill="#498BCA" fill-opacity="0.2"/>
<path d="M65.6051 68.2758C65.5144 68.2758 65.428 68.3239 65.3799 68.4046C65.3076 68.5265 65.3515 68.6823 65.4762 68.7545L96.2778 86.5355C96.3968 86.6092 96.5554 86.5638 96.622 86.442C96.6942 86.3202 96.656 86.1644 96.5313 86.0922L65.7297 68.3112C65.6915 68.2871 65.649 68.2758 65.6051 68.2758Z" fill="#498BCA" fill-opacity="0.2"/>
<path d="M65.6051 70.2573C65.5144 70.2573 65.428 70.3026 65.3799 70.3847C65.3076 70.5065 65.3515 70.6623 65.4762 70.7346L96.2778 88.5184C96.3968 88.5907 96.5554 88.5468 96.622 88.4249C96.6942 88.3031 96.656 88.1445 96.5313 88.0751L65.7297 70.2913C65.6915 70.27 65.649 70.2573 65.6051 70.2573Z" fill="#498BCA" fill-opacity="0.2"/>
<path d="M65.6051 72.2388C65.5144 72.2388 65.428 72.2841 65.3799 72.3662C65.3076 72.488 65.3515 72.6439 65.4762 72.7161L96.2778 90.4971C96.3968 90.5693 96.5554 90.5254 96.622 90.4036C96.6942 90.2818 96.656 90.126 96.5313 90.0566L65.7297 72.2728C65.6915 72.2487 65.649 72.2388 65.6051 72.2388Z" fill="#498BCA" fill-opacity="0.2"/>
<path d="M65.6051 74.2174C65.5144 74.2174 65.428 74.2627 65.3799 74.3449C65.3076 74.4695 65.3515 74.6253 65.4762 74.6947L96.2778 92.4786C96.3968 92.5508 96.5554 92.5069 96.622 92.3851C96.6942 92.2633 96.656 92.1075 96.5313 92.0352L65.7297 74.2514C65.6915 74.2302 65.649 74.2174 65.6051 74.2174Z" fill="#498BCA" fill-opacity="0.2"/>
<path d="M65.605 58.3767C65.5626 58.3767 65.5144 58.3866 65.4762 58.4107L34.6731 76.1946C34.5513 76.264 34.5074 76.4197 34.5796 76.5416C34.649 76.6662 34.8077 76.7073 34.9295 76.635L65.7297 58.854C65.8543 58.7818 65.8926 58.626 65.826 58.5042C65.7778 58.4234 65.6914 58.3767 65.6065 58.3767H65.605Z" fill="#498BCA" fill-opacity="0.2"/>
<path d="M65.6051 60.3555C65.5626 60.3555 65.5145 60.3668 65.4762 60.3895L34.6732 78.1733C34.5514 78.2455 34.5074 78.3999 34.5797 78.5232C34.6491 78.645 34.8077 78.6889 34.9295 78.6166L65.7297 60.8328C65.8544 60.7634 65.8926 60.6076 65.8261 60.4858C65.7779 60.4022 65.6915 60.3569 65.6065 60.3569L65.6051 60.3555Z" fill="#498BCA" fill-opacity="0.2"/>
<path d="M65.6051 62.337C65.5626 62.337 65.5145 62.3483 65.4762 62.371L34.6732 80.1548C34.5514 80.2242 34.5074 80.3829 34.5797 80.5047C34.6491 80.6236 34.8077 80.6675 34.9295 80.5981L65.7297 62.8143C65.8544 62.7421 65.8926 62.5877 65.8261 62.4644C65.7779 62.3837 65.6915 62.337 65.6065 62.337H65.6051Z" fill="#498BCA" fill-opacity="0.2"/>
<path d="M65.6051 64.3156C65.5626 64.3156 65.5145 64.3269 65.4762 64.351L34.6732 82.1349C34.5514 82.2043 34.5074 82.3601 34.5797 82.4819C34.6491 82.6037 34.8077 82.6448 34.9295 82.5754L65.7297 64.7943C65.8544 64.7221 65.8926 64.5677 65.8261 64.4431C65.7779 64.3624 65.6915 64.3156 65.6065 64.3156H65.6051Z" fill="#498BCA" fill-opacity="0.2"/>
<path d="M65.6051 66.2971C65.5626 66.2971 65.5145 66.307 65.4762 66.3311L34.6732 84.115C34.5514 84.1844 34.5074 84.3402 34.5797 84.4648C34.6491 84.5866 34.8077 84.6277 34.9295 84.5583L65.7297 66.7744C65.8544 66.705 65.8926 66.5464 65.8261 66.4246C65.7779 66.3439 65.6915 66.2971 65.6065 66.2971H65.6051Z" fill="#498BCA" fill-opacity="0.2"/>
<path d="M65.6051 68.2758C65.5626 68.2758 65.5145 68.2871 65.4762 68.3112L34.6732 86.0922C34.5514 86.1644 34.5074 86.3188 34.5797 86.442C34.6491 86.5638 34.8077 86.6077 34.9295 86.5355L65.7297 68.7545C65.8544 68.6823 65.8926 68.5265 65.8261 68.4046C65.7779 68.3239 65.6915 68.2758 65.6065 68.2758H65.6051Z" fill="#498BCA" fill-opacity="0.2"/>
<path d="M65.6051 70.2573C65.5626 70.2573 65.5145 70.2686 65.4762 70.2913L34.6732 88.0751C34.5514 88.1445 34.5074 88.3031 34.5797 88.4249C34.6491 88.5467 34.8077 88.5878 34.9295 88.5184L65.7297 70.7346C65.8544 70.6623 65.8926 70.508 65.8261 70.3847C65.7779 70.304 65.6915 70.2573 65.6065 70.2573H65.6051Z" fill="#498BCA" fill-opacity="0.2"/>
<path d="M65.6051 72.2388C65.5626 72.2388 65.5145 72.2487 65.4762 72.2728L34.6732 90.0566C34.5514 90.126 34.5074 90.2818 34.5797 90.4036C34.6491 90.5254 34.8077 90.5693 34.9295 90.4971L65.7297 72.7161C65.8544 72.6439 65.8926 72.4895 65.8261 72.3662C65.7779 72.2855 65.6915 72.2388 65.6065 72.2388H65.6051Z" fill="#498BCA" fill-opacity="0.2"/>
<path d="M65.6051 74.2174C65.5626 74.2174 65.5145 74.2287 65.4762 74.2514L34.6732 92.0352C34.5514 92.1075 34.5074 92.2619 34.5797 92.3851C34.6491 92.5069 34.8077 92.548 34.9295 92.4786L65.7297 74.6947C65.8544 74.6253 65.8926 74.4695 65.8261 74.3449C65.7779 74.2642 65.6915 74.2174 65.6065 74.2174H65.6051Z" fill="#498BCA" fill-opacity="0.2"/>
</svg>
