<svg width="113" height="120" viewBox="0 0 113 120" fill="none" xmlns="http://www.w3.org/2000/svg">
<path d="M51.9354 6.66937C51.5779 6.66937 51.2928 6.95745 51.2928 7.31189V52.0135C51.2928 52.368 51.5779 52.656 51.9354 52.656C52.2928 52.656 52.5779 52.368 52.5779 52.0135V7.31189C52.5779 6.95745 52.2928 6.66937 51.9354 6.66937Z" fill="#8C4799" fill-opacity="0.2"/>
<path d="M51.9354 51.368C51.7107 51.368 51.4965 51.4856 51.3804 51.6923C51.2024 51.9984 51.3035 52.3936 51.6142 52.5686L90.331 74.9209C90.6312 75.0958 91.0294 74.9948 91.2073 74.6841C91.3853 74.3779 91.2782 73.9858 90.9675 73.8078L52.2567 51.4555C52.1541 51.3997 52.0425 51.3695 51.9354 51.3695V51.368Z" fill="#8C4799" fill-opacity="0.2"/>
<path d="M51.9354 51.368C51.8238 51.368 51.7167 51.3981 51.6142 51.4539L12.8973 73.8063C12.5911 73.9842 12.484 74.3779 12.6635 74.6825C12.8415 74.9902 13.2351 75.0958 13.5398 74.9193L52.2567 52.567C52.5628 52.3906 52.6699 51.9969 52.4904 51.6907C52.3728 51.4841 52.1541 51.3665 51.9354 51.3665V51.368Z" fill="#8C4799" fill-opacity="0.2"/>
<path d="M90.6461 57.14C90.1168 57.14 89.6824 57.5714 89.6824 58.1038V74.3628C89.6824 74.8982 90.1152 75.3265 90.6461 75.3265C91.1771 75.3265 91.6099 74.8982 91.6099 74.3628V58.1038C91.6099 57.5714 91.1816 57.14 90.6461 57.14Z" fill="#8C4799" fill-opacity="0.2"/>
<path d="M51.9353 6.34808C51.6035 6.34808 51.2777 6.52153 51.0997 6.83223C50.8343 7.29074 50.9926 7.87896 51.4512 8.14743L65.5367 16.2814C65.9952 16.5469 66.5865 16.3885 66.8519 15.927C67.1174 15.4655 66.959 14.8803 66.5005 14.6118L52.4149 6.47779C52.2671 6.38881 52.0997 6.34808 51.9353 6.34808Z" fill="#8C4799" fill-opacity="0.2"/>
<path d="M66.0164 -1.78595C65.487 -1.78595 65.0526 -1.35308 65.0526 -0.822175V43.8825C65.0526 44.2294 65.2366 44.5446 65.5368 44.718L104.248 67.0673C104.706 67.3343 105.297 67.1774 105.563 66.7129C105.833 66.2544 105.674 65.6632 105.211 65.3977L66.9787 43.3259L66.9832 -0.822175C66.9832 -1.35157 66.5503 -1.78595 66.0149 -1.78595H66.0164Z" fill="#8C4799" fill-opacity="0.2"/>
<path d="M73.3194 -5.67871C72.968 -5.67871 72.6769 -5.39365 72.6769 -5.03619V39.6654C72.6769 39.8977 72.799 40.1058 72.9981 40.2235L111.715 62.5758C112.021 62.7523 112.413 62.6467 112.591 62.339C112.769 62.0313 112.662 61.6377 112.358 61.4627L73.9619 39.2959V-5.03619C73.9619 -5.39365 73.6769 -5.67871 73.3194 -5.67871Z" fill="#8C4799" fill-opacity="0.2"/>
<path d="M71.4491 -4.27759C71.2711 -4.27759 71.1278 -4.1328 71.1278 -3.95633V40.7483C71.1278 40.9263 71.2711 41.0696 71.4491 41.0696C71.627 41.0696 71.7703 40.9263 71.7703 40.7483V-3.95633C71.7703 -4.1328 71.627 -4.27759 71.4491 -4.27759Z" fill="#8C4799" fill-opacity="0.2"/>
<path d="M69.8277 -3.33942C69.6498 -3.33942 69.5065 -3.19613 69.5065 -3.01816V41.6835C69.5065 41.8614 69.6498 42.0047 69.8277 42.0047C70.0057 42.0047 70.149 41.8614 70.149 41.6835V-3.01816C70.149 -3.19613 70.0057 -3.33942 69.8277 -3.33942Z" fill="#8C4799" fill-opacity="0.2"/>
<path d="M68.2079 -2.40131C68.0299 -2.40131 67.8866 -2.25802 67.8866 -2.08306V42.6216C67.8866 42.7996 68.0299 42.9428 68.2079 42.9428C68.3858 42.9428 68.5291 42.7996 68.5291 42.6216V-2.08306C68.5291 -2.25953 68.3858 -2.40131 68.2079 -2.40131Z" fill="#8C4799" fill-opacity="0.2"/>
<path d="M71.4491 40.4271C71.3375 40.4271 71.2304 40.4859 71.1685 40.59C71.0811 40.7408 71.1324 40.9369 71.2862 41.0259L110.003 63.3752C110.155 63.4672 110.354 63.4159 110.442 63.2575C110.528 63.1052 110.478 62.9091 110.324 62.8186L71.6075 40.4693C71.5562 40.4407 71.5049 40.4256 71.4491 40.4256V40.4271Z" fill="#8C4799" fill-opacity="0.2"/>
<path d="M69.8277 41.3622C69.7161 41.3622 69.609 41.421 69.5471 41.5221C69.4612 41.6744 69.511 41.8705 69.6648 41.961L108.382 64.3133C108.534 64.4023 108.729 64.3495 108.821 64.1957C108.908 64.0433 108.857 63.8443 108.703 63.7568L69.9861 41.4045C69.9408 41.3743 69.8835 41.3607 69.8277 41.3607V41.3622Z" fill="#8C4799" fill-opacity="0.2"/>
<path d="M68.2078 42.2974C68.0962 42.2974 67.9891 42.3592 67.9273 42.4603C67.8413 42.6126 67.8911 42.8087 68.0449 42.8992L106.762 65.2485C106.914 65.3374 107.113 65.2862 107.201 65.1308C107.287 64.9785 107.237 64.7824 107.083 64.6919L68.3662 42.3426C68.3149 42.3124 68.2636 42.2974 68.2078 42.2974Z" fill="#8C4799" fill-opacity="0.2"/>
<path d="M73.3239 -6C72.9876 -6 72.6663 -5.82655 72.4883 -5.52038C72.2184 -5.05583 72.3813 -4.46761 72.8398 -4.20065L111.072 17.8711V62.0147C111.072 62.5501 111.501 62.98 112.036 62.98C112.572 62.98 113 62.5486 113 62.0147V17.3161C113 16.9722 112.816 16.654 112.52 16.4805L73.8035 -5.8718C73.6512 -5.95928 73.4883 -6 73.3239 -6Z" fill="#8C4799" fill-opacity="0.2"/>
<path d="M112.035 61.054C111.872 61.054 111.703 61.0947 111.551 61.1837L104.248 65.3977C103.785 65.6632 103.631 66.2544 103.896 66.7129C104.162 67.1775 104.753 67.3343 105.211 67.0674L112.514 62.8533C112.979 62.5863 113.136 61.9966 112.872 61.5366C112.688 61.2259 112.368 61.0555 112.036 61.0555L112.035 61.054Z" fill="#8C4799" fill-opacity="0.2"/>
<path d="M73.3194 39.0259C73.2123 39.0259 73.1007 39.0515 72.9981 39.1103L65.6951 43.3274C65.389 43.5054 65.2819 43.8975 65.4614 44.2067C65.6393 44.5144 66.0315 44.62 66.3376 44.4405L73.6406 40.2234C73.9513 40.0455 74.0539 39.6533 73.8804 39.3471C73.7583 39.139 73.5441 39.0259 73.3194 39.0259Z" fill="#8C4799" fill-opacity="0.2"/>
<path d="M85.3357 54.6664C85.1577 54.6664 85.0144 54.8097 85.0144 54.9877V64.3721C85.0144 64.5485 85.1577 64.6903 85.3357 64.6903C85.5136 64.6903 85.6569 64.547 85.6569 64.3721V54.9877C85.6569 54.8097 85.5091 54.6664 85.3357 54.6664Z" fill="#8C4799" fill-opacity="0.2"/>
<path d="M82.9662 53.3452C82.7882 53.3452 82.6449 53.4885 82.6449 53.6665V63.0086C82.6449 63.1866 82.7882 63.3299 82.9662 63.3299C83.1441 63.3299 83.2874 63.1866 83.2874 63.0086V53.6665C83.2874 53.4885 83.1396 53.3452 82.9662 53.3452Z" fill="#8C4799" fill-opacity="0.2"/>
<path d="M87.7005 56.0827C87.5271 56.0827 87.3793 56.226 87.3793 56.404V65.7325C87.3793 65.9105 87.5271 66.0538 87.7005 66.0538C87.874 66.0538 88.0218 65.9105 88.0218 65.7325V56.404C88.0218 56.226 87.8785 56.0827 87.7005 56.0827Z" fill="#8C4799" fill-opacity="0.2"/>
<path d="M80.6223 51.9954C80.4488 51.9954 80.301 52.1386 80.301 52.3166L80.2754 61.6452C80.2754 61.8216 80.4187 61.9664 80.5966 61.9694C80.7746 61.9694 80.9179 61.8247 80.9179 61.6482L80.9435 52.3166C80.9435 52.1386 80.8003 51.9954 80.6283 51.9954H80.6238H80.6223Z" fill="#8C4799" fill-opacity="0.2"/>
<path d="M78.2273 50.6122C78.0493 50.6122 77.906 50.7555 77.906 50.9335V60.2877C77.906 60.4642 78.0493 60.6059 78.2273 60.6059C78.4052 60.6059 78.5485 60.4626 78.5485 60.2877V50.9335C78.5485 50.7555 78.4052 50.6122 78.2273 50.6122Z" fill="#8C4799" fill-opacity="0.2"/>
<path d="M76.2348 49.279C76.0658 49.279 75.9241 49.4147 75.9135 49.5867L75.541 58.9107C75.5304 59.0887 75.6677 59.2365 75.8472 59.244C76.0161 59.247 76.1729 59.1143 76.1835 58.9363L76.556 49.6123C76.5666 49.4358 76.4293 49.2865 76.2499 49.279H76.2348Z" fill="#8C4799" fill-opacity="0.2"/>
<path d="M73.4868 47.8748C73.3133 47.8748 73.1655 48.0195 73.1655 48.199V57.5638C73.1655 57.7402 73.3133 57.882 73.4868 57.882C73.6602 57.882 73.808 57.7387 73.808 57.5638V48.199C73.808 48.0211 73.6648 47.8748 73.4868 47.8748Z" fill="#8C4799" fill-opacity="0.2"/>
<path d="M71.1233 46.5068C70.9453 46.5068 70.7975 46.6516 70.7975 46.828V56.2003C70.7975 56.3783 70.9453 56.5216 71.1233 56.5216C71.3012 56.5216 71.4445 56.3783 71.4445 56.2003V46.828C71.4445 46.6516 71.2967 46.5068 71.1233 46.5068Z" fill="#8C4799" fill-opacity="0.2"/>
<path d="M68.7523 45.1403C68.5743 45.1403 68.431 45.2836 68.431 45.4616V54.8384C68.431 55.0164 68.5743 55.1596 68.7523 55.1596C68.9303 55.1596 69.0735 55.0164 69.0735 54.8384V45.4616C69.0735 45.2836 68.9303 45.1403 68.7523 45.1403Z" fill="#8C4799" fill-opacity="0.2"/>
<path d="M66.3829 43.7723C66.2049 43.7723 66.0616 43.9171 66.0616 44.0936V53.478C66.0616 53.6544 66.2049 53.7962 66.3829 53.7962C66.5609 53.7962 66.7042 53.6529 66.7042 53.478V44.0936C66.7042 43.9171 66.5609 43.7723 66.3829 43.7723Z" fill="#8C4799" fill-opacity="0.2"/>
<path d="M64.0285 14.7385C63.855 14.7385 63.7072 14.8817 63.7072 15.0597L63.6921 52.1175C63.6921 52.294 63.8399 52.4388 64.0134 52.4388C64.1914 52.4388 64.3347 52.294 64.3347 52.1175L64.3497 15.0597C64.3497 14.8817 64.2065 14.7385 64.0285 14.7385Z" fill="#8C4799" fill-opacity="0.2"/>
<path d="M61.6591 13.378C61.4811 13.378 61.3378 13.5228 61.3378 13.6992L61.3273 50.754C61.3273 50.9305 61.4706 51.0723 61.6485 51.0723C61.8265 51.0723 61.9698 50.929 61.9698 50.754L61.9803 13.6992C61.9803 13.5228 61.8371 13.378 61.6591 13.378Z" fill="#8C4799" fill-opacity="0.2"/>
<path d="M59.2896 12.0161C59.1116 12.0161 58.9683 12.1608 58.9683 12.3373L58.9578 49.3951C58.9578 49.5716 59.101 49.7194 59.279 49.7194C59.457 49.7194 59.6003 49.5716 59.6003 49.3951L59.6108 12.3373C59.6108 12.1608 59.4676 12.0161 59.2896 12.0161Z" fill="#8C4799" fill-opacity="0.2"/>
<path d="M40.5193 21.2391C40.4786 21.2391 40.4379 21.2496 40.3972 21.2647C40.2343 21.3341 40.1528 21.5226 40.2237 21.6855C41.2991 24.2692 41.6098 27.5692 41.1211 31.2282C41.0955 31.4047 41.2237 31.5646 41.3956 31.5902C41.5736 31.6189 41.732 31.4877 41.7576 31.3157C42.2614 27.5451 41.9356 24.1304 40.8149 21.4397C40.7637 21.3175 40.646 21.2406 40.5193 21.2406V21.2391Z" fill="#8C4799" fill-opacity="0.2"/>
<path d="M37.8996 19.0687C37.8483 19.0687 37.797 19.0838 37.7473 19.1064C37.5949 19.1909 37.5331 19.3839 37.6145 19.5393C38.6598 21.5091 39.1997 24.0626 39.1741 26.9192C39.1741 27.0972 39.3174 27.2435 39.4893 27.2435C39.6627 27.2404 39.8151 27.1032 39.8151 26.9282C39.8407 23.963 39.2751 21.307 38.1847 19.2437C38.1228 19.1321 38.0112 19.0702 37.8996 19.0702V19.0687Z" fill="#8C4799" fill-opacity="0.2"/>
<path d="M43.1498 24.3325C43.1241 24.3325 43.094 24.3355 43.0683 24.3431C42.8949 24.3913 42.7984 24.5678 42.8436 24.7382C43.919 28.5933 43.5359 33.5344 41.7727 38.6504C41.7109 38.8193 41.8029 39.0018 41.9718 39.0606C42.1408 39.1194 42.3187 39.0274 42.3791 38.8615C44.189 33.6234 44.5706 28.5436 43.459 24.5663C43.4182 24.423 43.29 24.3325 43.1483 24.3325H43.1498Z" fill="#8C4799" fill-opacity="0.2"/>
<path d="M45.4273 34.9159C45.2749 34.9159 45.1422 35.026 45.112 35.1783C44.465 38.8932 43.0171 42.7724 40.9236 46.3952C40.8316 46.5475 40.8874 46.7436 41.0413 46.8341C41.1936 46.9261 41.3882 46.8703 41.4802 46.7165C43.6098 43.0273 45.0879 39.0772 45.7515 35.2914C45.7817 35.118 45.6656 34.9506 45.4861 34.9189C45.471 34.9159 45.4499 34.9159 45.4303 34.9159H45.4273Z" fill="#8C4799" fill-opacity="0.2"/>
<path d="M35.337 17.4865C35.2752 17.4865 35.2149 17.5046 35.1636 17.5408C35.0158 17.6343 34.9705 17.8334 35.0671 17.9842C36.0912 19.5694 36.7231 21.5543 36.9479 23.8875C36.9675 24.064 37.1258 24.1862 37.2993 24.1756C37.4773 24.1575 37.6055 24.0022 37.5904 23.8272C37.3566 21.3884 36.6884 19.31 35.6085 17.6358C35.5467 17.5423 35.4456 17.488 35.3386 17.488L35.337 17.4865Z" fill="#8C4799" fill-opacity="0.2"/>
<path d="M32.7836 16.3524C32.7127 16.3524 32.6403 16.375 32.5799 16.4232C32.4427 16.5333 32.4216 16.737 32.5347 16.8742C33.5543 18.1457 34.2677 19.7821 34.6493 21.7338C34.6855 21.9073 34.8529 22.0249 35.0263 21.9857C35.1998 21.9525 35.3114 21.7851 35.2812 21.6086C34.8785 19.5544 34.1199 17.8274 33.0339 16.4715C32.9676 16.3931 32.8756 16.3524 32.7836 16.3524Z" fill="#8C4799" fill-opacity="0.2"/>
<path d="M30.4895 15.5771C30.4187 15.5771 30.3463 15.5997 30.2859 15.651C30.1487 15.7626 30.1276 15.9677 30.2452 16.102C31.1275 17.1698 31.7897 18.5182 32.2029 20.1079C32.2482 20.2813 32.4216 20.3854 32.5951 20.3371C32.7685 20.2919 32.8711 20.1184 32.8243 19.945C32.3854 18.2633 31.6826 16.8304 30.7399 15.6917C30.6735 15.6148 30.5815 15.5771 30.4895 15.5771Z" fill="#8C4799" fill-opacity="0.2"/>
<path d="M28.0748 15.0703C27.9933 15.0703 27.9164 15.099 27.8561 15.1548C27.7234 15.2769 27.7188 15.4806 27.841 15.6103C28.6615 16.4926 29.304 17.6027 29.752 18.9149C29.8078 19.0838 29.9918 19.1697 30.1592 19.1139C30.3221 19.0581 30.4141 18.8741 30.3583 18.7067C29.8847 17.3101 29.1909 16.1231 28.3101 15.1729C28.2437 15.1035 28.1577 15.0703 28.0763 15.0703H28.0748Z" fill="#8C4799" fill-opacity="0.2"/>
<path d="M25.9496 14.8954C25.8727 14.8954 25.7973 14.924 25.7355 14.9768C25.6027 15.0884 25.5877 15.2921 25.7053 15.4278C26.3523 16.1714 26.8727 17.0808 27.2603 18.1215C27.3222 18.2905 27.5047 18.3734 27.6736 18.3146C27.8425 18.2513 27.9239 18.0642 27.8621 17.8998C27.4488 16.7837 26.8893 15.8109 26.191 15.0085C26.1291 14.9346 26.0386 14.8969 25.9511 14.8969L25.9496 14.8954Z" fill="#8C4799" fill-opacity="0.2"/>
<path d="M23.6616 14.8381C23.5907 14.8381 23.5138 14.8637 23.452 14.915C23.3147 15.0326 23.3042 15.2363 23.4158 15.369C23.9768 16.013 24.4399 16.7882 24.7913 17.6781C24.8577 17.841 25.0462 17.9225 25.2091 17.8561C25.372 17.7897 25.4534 17.6042 25.3871 17.4383C25.01 16.4851 24.5047 15.6465 23.9044 14.9482C23.8381 14.8773 23.7521 14.8381 23.6601 14.8381H23.6616Z" fill="#8C4799" fill-opacity="0.2"/>
<path d="M21.6587 15.007C21.5818 15.007 21.5109 15.0326 21.4551 15.0809C21.3178 15.1955 21.2967 15.3961 21.4098 15.5318C21.8834 16.105 22.2816 16.7852 22.5923 17.5499C22.6587 17.7128 22.8472 17.7942 23.0101 17.7263C23.173 17.66 23.2544 17.4745 23.1881 17.3086C22.8517 16.4805 22.4188 15.746 21.903 15.1246C21.8412 15.0477 21.7507 15.007 21.6587 15.007Z" fill="#8C4799" fill-opacity="0.2"/>
<path d="M19.8231 15.5107C19.7567 15.5107 19.6904 15.5319 19.6301 15.5726C19.4868 15.6797 19.4611 15.8803 19.5637 16.0235C19.9212 16.5032 20.2258 17.0552 20.4656 17.6615C20.532 17.8274 20.7205 17.9058 20.8834 17.8425C21.0463 17.7761 21.1278 17.5906 21.0614 17.4277C20.802 16.7656 20.4702 16.1668 20.078 15.642C20.0162 15.5545 19.9196 15.5123 19.8231 15.5123V15.5107Z" fill="#8C4799" fill-opacity="0.2"/>
<path d="M18.0298 16.0823C17.9679 16.0823 17.9031 16.1035 17.8458 16.1412C17.7025 16.2437 17.6678 16.4443 17.7688 16.5891C18.0599 17.0039 18.3148 17.479 18.5184 17.9858C18.5803 18.1517 18.7688 18.2331 18.9317 18.1667C19.1006 18.1004 19.1821 17.9149 19.1157 17.749C18.891 17.1939 18.6165 16.6781 18.2952 16.2196C18.2334 16.1306 18.1323 16.0823 18.0298 16.0823Z" fill="#8C4799" fill-opacity="0.2"/>
<path d="M16.3029 16.8546C16.247 16.8546 16.1912 16.8696 16.14 16.9028C15.9876 16.9948 15.9409 17.1909 16.0329 17.3417C16.2425 17.6886 16.425 18.0808 16.5834 18.5061C16.6452 18.672 16.8277 18.758 16.9967 18.6976C17.1595 18.6358 17.247 18.4533 17.1852 18.2874C17.0163 17.8213 16.8126 17.393 16.5789 17.0114C16.517 16.9089 16.416 16.8561 16.3029 16.8561V16.8546Z" fill="#8C4799" fill-opacity="0.2"/>
<path d="M14.5699 17.8154C14.5186 17.8154 14.4674 17.8259 14.4221 17.8515C14.2637 17.933 14.2034 18.1276 14.2849 18.2844C14.4327 18.568 14.5594 18.8907 14.6725 19.2422C14.7283 19.4111 14.9063 19.5076 15.0797 19.4533C15.2486 19.3975 15.3391 19.2165 15.2894 19.0476C15.1612 18.66 15.0194 18.304 14.8565 17.9873C14.8007 17.8757 14.683 17.8138 14.5714 17.8138L14.5699 17.8154Z" fill="#8C4799" fill-opacity="0.2"/>
<path d="M12.9485 18.8847C12.9032 18.8847 12.8565 18.8953 12.8112 18.9149C12.6529 18.9858 12.582 19.1803 12.6529 19.3372C12.7705 19.5876 12.867 19.8515 12.944 20.1245C12.9892 20.2949 13.1687 20.3945 13.3361 20.3462C13.5096 20.2979 13.6061 20.12 13.5608 19.9495C13.4749 19.6464 13.3678 19.3508 13.2396 19.0732C13.1838 18.9541 13.0661 18.8847 12.9485 18.8847Z" fill="#8C4799" fill-opacity="0.2"/>
<path d="M11.4916 20.1003C11.4554 20.1003 11.4252 20.1049 11.389 20.1184C11.2216 20.1742 11.1296 20.3552 11.1854 20.5242C11.2518 20.7248 11.3076 20.9389 11.3543 21.1591C11.3905 21.3356 11.5579 21.4517 11.7314 21.414C11.9048 21.3778 12.0164 21.2104 11.9863 21.037C11.935 20.7896 11.8747 20.5483 11.7977 20.3236C11.7525 20.1863 11.6243 20.1018 11.4916 20.1018V20.1003Z" fill="#8C4799" fill-opacity="0.2"/>
<path d="M10.1462 21.4005C10.1205 21.4005 10.1009 21.4035 10.0798 21.408C9.90636 21.4457 9.79475 21.6176 9.82944 21.7896C9.86564 21.9404 9.89128 22.0958 9.90636 22.2556C9.92597 22.4321 10.0904 22.5663 10.2638 22.5392C10.4418 22.5196 10.57 22.3582 10.5489 22.1817C10.5232 22.0007 10.4976 21.8243 10.4569 21.6523C10.4267 21.5015 10.294 21.4005 10.1462 21.4005Z" fill="#8C4799" fill-opacity="0.2"/>
<path d="M21.5063 59.6965H21.5017C21.3283 59.6965 21.1865 59.8398 21.1865 60.0177V62.1172C21.1865 62.2937 21.3298 62.4385 21.5078 62.4385C21.6858 62.4385 21.829 62.2937 21.829 62.1172V60.0177C21.829 59.8398 21.6858 59.6965 21.5078 59.6965H21.5063Z" fill="#8C4799" fill-opacity="0.2"/>
<path d="M45.4122 20.3778C45.3609 20.3778 45.3051 20.3929 45.2538 20.4231L43.4349 21.4698C43.2825 21.5588 43.2312 21.7548 43.3172 21.9087C43.4032 22.064 43.6023 22.1153 43.7561 22.0278L45.5751 20.9781C45.7274 20.8891 45.7847 20.693 45.6927 20.5377C45.6309 20.4336 45.5238 20.3778 45.4122 20.3778Z" fill="#8C4799" fill-opacity="0.2"/>
<path d="M24.9256 11.909C16.4356 11.909 8.16434 16.3146 3.62299 24.1802C0.341032 29.8617 -0.530739 36.4769 1.16605 42.8116C2.86887 49.1463 6.93059 54.4418 12.6077 57.7237C16.2456 59.8202 20.3797 60.9604 24.553 61.0102H24.5636C24.915 61.0102 25.2001 60.7297 25.2061 60.3782C25.2106 60.0208 24.9256 59.7312 24.5696 59.7267C20.615 59.6784 16.7011 58.6 13.2502 56.6106C7.86873 53.5021 4.01514 48.4842 2.41036 42.4813C0.799541 36.4785 1.62606 30.2041 4.73457 24.8227C11.1507 13.7129 25.4097 9.89095 36.5195 16.3071C40.0564 18.3462 42.9975 21.2813 45.0246 24.7955C45.2025 25.1032 45.5962 25.2088 45.9008 25.0293C46.2115 24.8528 46.3141 24.4592 46.1346 24.15C43.9944 20.4457 40.8904 17.3463 37.1605 15.194C33.3024 12.9693 29.0883 11.909 24.9241 11.909H24.9256Z" fill="#8C4799" fill-opacity="0.2"/>
<path d="M24.93 11.5877C16.3224 11.5877 7.94409 16.0491 3.34241 24.0233C0.019726 29.7757 -0.862602 36.4769 0.861332 42.896C2.57923 49.3152 6.69676 54.6755 12.4508 57.9982C12.9093 58.2636 13.5005 58.1083 13.7659 57.6468C14.0314 57.1852 13.873 56.597 13.4145 56.3301C8.10397 53.2668 4.30769 48.3167 2.72252 42.3968C1.13282 36.4769 1.94727 30.2901 5.01657 24.9825C11.3407 14.025 25.4067 10.2589 36.3641 16.5846C36.8226 16.8515 37.4139 16.6916 37.6793 16.2301C37.9448 15.7716 37.7864 15.1834 37.3279 14.9149C33.4185 12.6601 29.1486 11.5877 24.9346 11.5877H24.93Z" fill="#8C4799" fill-opacity="0.2"/>
<path d="M28.019 14.5122C25.9708 14.5122 23.912 14.7777 21.8789 15.3116C15.7177 16.9345 10.57 20.862 7.39513 26.3596C4.22026 31.8557 3.39524 38.2748 5.07091 44.4254C6.74206 50.5746 10.7178 55.7238 16.2576 58.9243C16.41 59.0133 16.6091 58.9605 16.7011 58.8051C16.787 58.6528 16.7373 58.4567 16.5789 58.3662C11.1869 55.2517 7.31821 50.2398 5.69382 44.255C4.0634 38.2703 4.86277 32.0291 7.9562 26.6808C11.0451 21.3296 16.0495 17.5122 22.0418 15.933C28.0446 14.3478 34.319 15.194 39.711 18.3085C39.8633 18.4005 40.0624 18.3447 40.1499 18.1909C40.2419 18.0385 40.1861 17.841 40.0322 17.752C36.3174 15.6057 32.1938 14.5107 28.0205 14.5107L28.019 14.5122Z" fill="#8C4799" fill-opacity="0.2"/>
<path d="M13.2184 56.3678C12.689 56.3678 12.2546 56.8007 12.2546 57.3331V74.3643C12.2546 74.8967 12.6875 75.328 13.2184 75.328C13.7493 75.328 14.1822 74.8967 14.1822 74.3643V57.3331C14.1822 56.8007 13.7538 56.3678 13.2184 56.3678Z" fill="#8C4799" fill-opacity="0.2"/>
<path d="M51.9354 6.34808C51.7725 6.34808 51.6036 6.38881 51.4512 6.47478L36.601 15.0537C36.1364 15.3192 35.9796 15.9074 36.2495 16.3689C36.515 16.8304 37.1002 16.9888 37.5647 16.7234L52.415 8.14441C52.8796 7.87896 53.0364 7.29074 52.7725 6.82922C52.5945 6.51852 52.2687 6.34808 51.9369 6.34808H51.9354Z" fill="#8C4799" fill-opacity="0.2"/>
<path d="M45.5795 17.672C45.4724 17.672 45.3608 17.7022 45.2583 17.758L42.0683 19.5996C41.7576 19.7745 41.655 20.1697 41.8285 20.4759C42.0065 20.7836 42.4001 20.8907 42.7048 20.7127L44.937 19.4261V47.9729L20.2152 62.247V59.7704C20.2152 59.413 19.9241 59.1279 19.5727 59.1279C19.2213 59.1279 18.9257 59.413 18.9257 59.7704V63.3601C18.9257 63.5893 19.0524 63.8005 19.2514 63.9181C19.4505 64.0297 19.6949 64.0297 19.894 63.9181L45.9008 48.8989C46.0999 48.7843 46.222 48.5731 46.222 48.3439V18.3115C46.222 18.0823 46.0999 17.8681 45.9008 17.7565C45.8042 17.7007 45.6911 17.6705 45.5795 17.6705V17.672Z" fill="#8C4799" fill-opacity="0.2"/>
<path d="M36.8242 15.4609C36.7126 15.4609 36.6055 15.5167 36.5436 15.6208C36.4577 15.7762 36.5074 15.9692 36.6613 16.0597C43.0985 19.7745 43.0412 31.9552 36.5436 43.2098C30.0461 54.4674 19.5215 60.6015 13.0903 56.8881C12.938 56.7992 12.7389 56.8519 12.6514 57.0058C12.5594 57.1581 12.6152 57.3542 12.769 57.4447C19.5064 61.333 30.4231 55.0948 37.0987 43.5326C43.7742 31.9688 43.7244 19.396 36.981 15.5062C36.9298 15.4775 36.8785 15.4624 36.8227 15.4624L36.8242 15.4609Z" fill="#8C4799" fill-opacity="0.2"/>
<path d="M18.4582 16.4926C22.4083 18.773 22.458 26.1016 18.5758 32.833C15.5487 38.0772 10.9214 41.5959 7.05274 41.5959C6.06483 41.5959 5.15687 41.3637 4.36202 40.9036C0.411899 38.6232 0.362127 31.2946 4.24437 24.5632C7.27144 19.322 11.9033 15.8033 15.7674 15.8033C16.7553 15.8033 17.6633 16.0325 18.4582 16.4941V16.4926ZM18.0193 32.5132C21.725 26.0896 21.7808 19.1516 18.1369 17.0491C17.4446 16.6464 16.6437 16.4458 15.7674 16.4458C12.1235 16.4458 7.71486 19.8348 4.80092 24.8845C1.09514 31.3081 1.03933 38.2476 4.68327 40.3486C5.38159 40.7513 6.17644 40.9549 7.05274 40.9549C10.6967 40.9549 15.1053 37.5629 18.0193 32.5132Z" fill="#8C4799" fill-opacity="0.2"/>
<path d="M27.6162 13.0749C27.5091 13.0749 27.4021 13.1307 27.3402 13.2347C27.2482 13.3871 27.304 13.5832 27.4579 13.6736C33.1907 16.9843 33.1349 27.8482 27.3402 37.8932C21.541 47.9382 12.1536 53.4161 6.42075 50.1085C6.26841 50.0165 6.07385 50.0708 5.98184 50.2232C5.89587 50.3785 5.94565 50.5716 6.09949 50.6636C12.1431 54.1522 21.9181 48.5671 27.8968 38.2129C33.8695 27.8633 33.8182 16.6042 27.7791 13.1171C27.7278 13.0884 27.672 13.0734 27.6162 13.0734V13.0749Z" fill="#8C4799" fill-opacity="0.2"/>
<path d="M45.4016 43.5718C45.2794 43.5718 45.1618 43.6427 45.106 43.7633C44.5916 44.9171 44.0049 46.0559 43.373 47.1524C42.6897 48.3318 41.9416 49.4811 41.1408 50.5701C41.0382 50.7134 41.0699 50.917 41.2116 51.018C41.3549 51.1251 41.5525 51.0949 41.6596 50.9517C42.4756 49.8431 43.2342 48.6742 43.928 47.4736C44.5705 46.3605 45.1663 45.2007 45.6912 44.0258C45.762 43.8629 45.6912 43.6713 45.5283 43.6004C45.4875 43.5823 45.4423 43.5718 45.4016 43.5718Z" fill="#8C4799" fill-opacity="0.2"/>
<path d="M9.8656 23.0489C11.0888 23.7548 11.1401 25.8724 9.98325 27.8753C9.10695 29.3896 7.75103 30.4077 6.60476 30.4077C6.28953 30.4077 5.99844 30.3308 5.74355 30.186C4.52488 29.4801 4.46907 27.3595 5.6259 25.3596C6.5022 23.8438 7.86264 22.8272 9.01042 22.8272C9.32112 22.8272 9.61222 22.9011 9.86711 23.0489H9.8656ZM9.4267 27.5541C10.3694 25.9237 10.4206 24.1107 9.54434 23.604C9.39201 23.515 9.208 23.4682 9.00891 23.4682C8.09642 23.4682 6.93507 24.3777 6.18094 25.6793C5.23828 27.3128 5.187 29.1227 6.0633 29.6264C6.22166 29.7184 6.39964 29.7637 6.60325 29.7637C7.50971 29.7637 8.67257 28.8542 9.4267 27.5526V27.5541Z" fill="#8C4799" fill-opacity="0.2"/>
<path d="M4.56108 24.34C4.44947 24.34 4.34239 24.3988 4.28055 24.4999C4.19458 24.6522 4.24435 24.8513 4.39819 24.9388L45.4227 48.6214C45.575 48.7134 45.7696 48.6591 45.8616 48.5068C45.9476 48.3514 45.8978 48.1584 45.744 48.0679L4.71794 24.3838C4.66666 24.3536 4.61086 24.34 4.55958 24.34H4.56108Z" fill="#8C4799" fill-opacity="0.2"/>
<path d="M11.5066 16.6177C11.4101 16.6177 11.3181 16.6584 11.2562 16.7369C10.6801 17.4458 10.1446 18.218 9.67708 19.0279C6.75107 24.1032 6.48712 30.3066 8.94256 36.495C11.3844 42.6592 16.2304 48.0739 22.5907 51.7449C25.9904 53.7042 29.5875 55.042 33.2933 55.7222C33.4668 55.7509 33.6342 55.6378 33.6704 55.4643C33.7005 55.2909 33.5844 55.1234 33.411 55.0918C29.7776 54.4236 26.2452 53.1099 22.912 51.1854C16.6799 47.5882 11.9289 42.2852 9.53983 36.2567C7.1598 30.2538 7.40414 24.248 10.2321 19.3477C10.6861 18.5679 11.2004 17.8243 11.7555 17.1411C11.8671 17.0038 11.8475 16.8002 11.7042 16.6871C11.6484 16.6419 11.5775 16.6162 11.5051 16.6162L11.5066 16.6177Z" fill="#8C4799" fill-opacity="0.2"/>
<path d="M20.9045 22.3552C19.5697 22.3552 18.244 22.4517 16.9393 22.6432C10.3543 23.6146 5.1116 26.9418 2.18106 32.0155C1.71803 32.8209 1.31532 33.6671 0.983506 34.5253C0.921668 34.6942 1.00311 34.8767 1.17204 34.94C1.33493 35.0034 1.52346 34.9219 1.5853 34.7545C1.90203 33.9265 2.28815 33.1135 2.73761 32.3338C5.56558 27.4365 10.6469 24.2209 17.0328 23.2782C23.4535 22.3295 30.4156 23.7955 36.6477 27.3957C39.9854 29.3218 42.8903 31.7229 45.2809 34.5358C45.3925 34.6716 45.5977 34.6866 45.7349 34.572C45.8676 34.4574 45.8827 34.2568 45.7711 34.118C43.3307 31.2508 40.3685 28.8029 36.9704 26.8407C31.8786 23.8981 26.2995 22.3567 20.9075 22.3567L20.9045 22.3552Z" fill="#8C4799" fill-opacity="0.2"/>
<path d="M51.9865 59.1098C51.8086 59.1098 51.6653 59.2531 51.6653 59.4311V89.3005C51.6653 89.477 51.8086 89.6218 51.9865 89.6218C52.1645 89.6218 52.3078 89.477 52.3078 89.3005V59.4311C52.3078 59.2531 52.1645 59.1098 51.9865 59.1098Z" fill="#8C4799" fill-opacity="0.2"/>
<path d="M52.2566 98.5235L68.8594 108.11C69.0585 108.225 69.1807 108.436 69.1807 108.665C69.1807 108.894 69.0585 109.108 68.8594 109.22L52.2566 118.806C52.0575 118.918 51.8131 118.918 51.6141 118.806L35.0112 109.22C34.8121 109.108 34.6899 108.894 34.6899 108.665C34.6899 108.436 34.8121 108.225 35.0112 108.11L51.6141 98.5235C51.7106 98.4677 51.8237 98.4375 51.9353 98.4375C52.0469 98.4375 52.154 98.4677 52.2566 98.5235ZM51.9353 117.506L67.2547 108.665L51.9353 99.8236L36.616 108.665L51.9353 117.506Z" fill="#8C4799" fill-opacity="0.2"/>
<path d="M52.2566 102.805L61.4509 108.11C61.65 108.225 61.7722 108.436 61.7722 108.665C61.7722 108.894 61.65 109.108 61.4509 109.22L52.2566 114.531C52.0575 114.642 51.8132 114.642 51.6141 114.531L42.4198 109.22C42.2207 109.108 42.0985 108.894 42.0985 108.665C42.0985 108.436 42.2207 108.225 42.4198 108.11L51.6141 102.805C51.7106 102.747 51.8237 102.719 51.9353 102.719C52.047 102.719 52.1601 102.748 52.2566 102.805ZM51.9353 113.232L59.8446 108.665L51.9353 104.099L44.0261 108.665L51.9353 113.232Z" fill="#8C4799" fill-opacity="0.2"/>
<path d="M51.9353 95.6548C51.8795 95.6548 51.8237 95.6669 51.7724 95.6955L35.1741 105.282C35.0218 105.368 34.9645 105.567 35.0565 105.721C35.1424 105.876 35.3415 105.929 35.4954 105.839L51.9353 96.3441L68.3753 105.839C68.5276 105.931 68.7267 105.876 68.8142 105.721C68.9017 105.569 68.8504 105.369 68.6966 105.282L52.0937 95.6955C52.0485 95.6669 51.9911 95.6548 51.9353 95.6548Z" fill="#8C4799" fill-opacity="0.2"/>
<path d="M51.9353 92.8524C51.8795 92.8524 51.8237 92.8675 51.7724 92.8977L35.1741 102.481C35.0218 102.57 34.9645 102.766 35.0565 102.92C35.1424 103.075 35.3415 103.13 35.4954 103.038L51.9353 93.5462L68.3753 103.038C68.5276 103.13 68.7267 103.075 68.8142 102.92C68.9017 102.768 68.8504 102.572 68.6966 102.481L52.0937 92.8977C52.0485 92.8675 51.9911 92.8524 51.9353 92.8524Z" fill="#8C4799" fill-opacity="0.2"/>
<path d="M51.9353 90.0546C51.8795 90.0546 51.8237 90.0697 51.7724 90.0984L35.1741 99.6818C35.0218 99.7708 34.9645 99.9669 35.0565 100.121C35.1424 100.276 35.3415 100.33 35.4954 100.238L51.9353 90.7484L68.3753 100.238C68.5276 100.33 68.7267 100.276 68.8142 100.121C68.9017 99.9684 68.8504 99.7723 68.6966 99.6818L52.0937 90.0984C52.0485 90.0697 51.9911 90.0546 51.9353 90.0546Z" fill="#8C4799" fill-opacity="0.2"/>
<path d="M51.9353 87.2538C51.8795 87.2538 51.8237 87.2689 51.7724 87.2975L35.1741 96.881C35.0218 96.97 34.9645 97.166 35.0565 97.3199C35.1424 97.4752 35.3415 97.528 35.4954 97.439L51.9353 87.9476L68.3753 97.439C68.5276 97.528 68.7267 97.4752 68.8142 97.3199C68.9017 97.1675 68.8504 96.97 68.6966 96.881L52.0937 87.2975C52.0485 87.2689 51.9911 87.2538 51.9353 87.2538Z" fill="#8C4799" fill-opacity="0.2"/>
<path d="M51.9353 84.453C51.8795 84.453 51.8237 84.4681 51.7724 84.4983L35.1741 94.0847C35.0218 94.1707 34.9645 94.3683 35.0565 94.5236C35.1424 94.6744 35.3415 94.7272 35.4954 94.6413L51.9353 85.1468L68.3753 94.6413C68.5276 94.7272 68.7267 94.6744 68.8142 94.5236C68.9017 94.3683 68.8504 94.1722 68.6966 94.0847L52.0937 84.4983C52.0485 84.4681 51.9911 84.453 51.9353 84.453Z" fill="#8C4799" fill-opacity="0.2"/>
<path d="M51.9353 81.6536C51.8795 81.6536 51.8237 81.6687 51.7724 81.6989L35.1741 91.2823C35.0218 91.3713 34.9645 91.5674 35.0565 91.7212C35.1424 91.8736 35.3415 91.9309 35.4954 91.8389L51.9353 82.3474L68.3753 91.8389C68.5276 91.9309 68.7267 91.8751 68.8142 91.7212C68.9017 91.5689 68.8504 91.3728 68.6966 91.2823L52.0937 81.6989C52.0485 81.6687 51.9911 81.6536 51.9353 81.6536Z" fill="#8C4799" fill-opacity="0.2"/>
<path d="M51.9353 78.8574C51.8795 78.8574 51.8237 78.8679 51.7724 78.8981L35.1741 88.4845C35.0218 88.572 34.9645 88.7681 35.0565 88.9234C35.1424 89.0758 35.3415 89.1301 35.4954 89.0411L51.9353 79.5466L68.3753 89.0411C68.5276 89.1301 68.7267 89.0773 68.8142 88.9234C68.9017 88.7681 68.8504 88.572 68.6966 88.4845L52.0937 78.8981C52.0485 78.8679 51.9911 78.8574 51.9353 78.8574Z" fill="#8C4799" fill-opacity="0.2"/>
<path d="M51.9353 76.0551C51.8795 76.0551 51.8237 76.0701 51.7724 76.0988L35.1741 85.6822C35.0218 85.7712 34.9645 85.9673 35.0565 86.1211C35.1424 86.2765 35.3415 86.3308 35.4954 86.2388L51.9353 76.7489L68.3753 86.2388C68.5276 86.3308 68.7267 86.2765 68.8142 86.1211C68.9017 85.9688 68.8504 85.7727 68.6966 85.6822L52.0937 76.0988C52.0485 76.0701 51.9911 76.0551 51.9353 76.0551Z" fill="#8C4799" fill-opacity="0.2"/>
<path d="M51.9353 73.2572C51.8795 73.2572 51.8237 73.2693 51.7724 73.2979L35.1741 82.8844C35.0218 82.9704 34.9645 83.1694 35.0565 83.3233C35.1424 83.4756 35.3415 83.5299 35.4954 83.4409L51.9353 73.9495L68.3753 83.4409C68.5276 83.5299 68.7267 83.4771 68.8142 83.3233C68.9017 83.171 68.8504 82.9719 68.6966 82.8844L52.0937 73.2979C52.0485 73.2693 51.9911 73.2572 51.9353 73.2572Z" fill="#8C4799" fill-opacity="0.2"/>
<path d="M51.9353 70.4534C51.8795 70.4534 51.8237 70.4685 51.7724 70.4971L35.1741 80.0836C35.0218 80.1726 34.9645 80.3686 35.0565 80.5225C35.1424 80.6778 35.3415 80.7321 35.4954 80.6401L51.9353 71.1487L68.3753 80.6401C68.5276 80.7321 68.7267 80.6778 68.8142 80.5225C68.9017 80.3701 68.8504 80.1741 68.6966 80.0836L52.0937 70.4971C52.0485 70.4685 51.9911 70.4534 51.9353 70.4534Z" fill="#8C4799" fill-opacity="0.2"/>
<path d="M51.9353 67.6556C51.8795 67.6556 51.8237 67.6676 51.7724 67.6993L35.1741 77.2828C35.0218 77.3717 34.9645 77.5678 35.0565 77.7217C35.1424 77.874 35.3415 77.9313 35.4954 77.8393L51.9353 68.3479L68.3753 77.8393C68.5276 77.9313 68.7267 77.8755 68.8142 77.7217C68.9017 77.5693 68.8504 77.3733 68.6966 77.2828L52.0937 67.6993C52.0485 67.6692 51.9911 67.6556 51.9353 67.6556Z" fill="#8C4799" fill-opacity="0.2"/>
<path d="M51.9353 64.8563C51.8795 64.8563 51.8237 64.8713 51.7724 64.9L35.1741 74.4865C35.0218 74.5724 34.9645 74.77 35.0565 74.9254C35.1424 75.0777 35.3415 75.132 35.4954 75.043L51.9353 65.5516L68.3753 75.043C68.5276 75.132 68.7267 75.0792 68.8142 74.9254C68.9017 74.77 68.8504 74.5739 68.6966 74.4865L52.0937 64.9C52.0485 64.8713 51.9911 64.8563 51.9353 64.8563Z" fill="#8C4799" fill-opacity="0.2"/>
<path d="M51.9353 62.0554C51.8795 62.0554 51.8237 62.0705 51.7724 62.1007L35.1741 71.6871C35.0218 71.7731 34.9645 71.9707 35.0565 72.123C35.1424 72.2753 35.3415 72.3296 35.4954 72.2422L51.9353 62.7477L68.3753 72.2422C68.5276 72.3281 68.7267 72.2753 68.8142 72.123C68.9017 71.9707 68.8504 71.7746 68.6966 71.6871L52.0937 62.1007C52.0485 62.0705 51.9911 62.0554 51.9353 62.0554Z" fill="#8C4799" fill-opacity="0.2"/>
<path d="M75.8984 72.9948C75.8426 72.9948 75.7868 73.0068 75.7355 73.0385L68.3767 77.2887C68.2244 77.3777 68.1731 77.5738 68.2591 77.7277C68.3451 77.88 68.5442 77.9358 68.698 77.8453L76.0568 73.595C76.2091 73.5091 76.2664 73.31 76.1744 73.1561C76.1186 73.0536 76.0055 72.9963 75.8984 72.9963V72.9948Z" fill="#8C4799" fill-opacity="0.2"/>
<path d="M73.9815 71.8757C73.9257 71.8757 73.8699 71.8877 73.8186 71.9164L68.3753 75.0611C68.2229 75.1501 68.1717 75.3462 68.2576 75.5C68.3436 75.6523 68.5427 75.7081 68.6965 75.6176L74.1398 72.4729C74.2922 72.387 74.3495 72.1894 74.2575 72.034C74.2017 71.9315 74.0946 71.8757 73.983 71.8757H73.9815Z" fill="#8C4799" fill-opacity="0.2"/>
<path d="M72.1565 70.7037C72.1007 70.7037 72.0449 70.7158 71.9936 70.7445L68.3753 72.8334C68.2229 72.9254 68.1717 73.1185 68.2576 73.2723C68.3436 73.4276 68.5427 73.4819 68.6965 73.3899L72.3148 71.301C72.4732 71.215 72.523 71.0159 72.437 70.8621C72.3752 70.7595 72.2681 70.7037 72.1565 70.7037Z" fill="#8C4799" fill-opacity="0.2"/>
<path d="M70.1746 69.5574C70.1188 69.5574 70.063 69.5725 70.0117 69.6012L68.3753 70.5514C68.2229 70.6434 68.1717 70.8364 68.2576 70.9918C68.3496 71.1471 68.5427 71.1984 68.6965 71.1094L70.3375 70.1562C70.4899 70.0672 70.5411 69.8712 70.4491 69.7173C70.3873 69.6132 70.2862 69.5574 70.1746 69.5574Z" fill="#8C4799" fill-opacity="0.2"/>
<path d="M28.0748 72.9948C27.9632 72.9948 27.8561 73.0536 27.7988 73.1547C27.7068 73.307 27.758 73.5061 27.9164 73.5936L35.1741 77.782C35.3265 77.874 35.521 77.8182 35.613 77.6644C35.699 77.512 35.6492 77.3174 35.4954 77.2254L28.2377 73.037C28.1864 73.0069 28.1306 72.9933 28.0748 72.9933V72.9948Z" fill="#8C4799" fill-opacity="0.2"/>
<path d="M29.9902 71.8757C29.8832 71.8757 29.7761 71.9315 29.7157 72.034C29.6237 72.1864 29.675 72.3824 29.8273 72.4729L35.1681 75.6176C35.3204 75.7066 35.5195 75.6554 35.6115 75.506C35.6975 75.3507 35.6477 75.1546 35.4939 75.0626L30.1531 71.9209C30.1018 71.8908 30.046 71.8772 29.9902 71.8772V71.8757Z" fill="#8C4799" fill-opacity="0.2"/>
<path d="M31.8152 70.7037C31.7036 70.7037 31.5965 70.7595 31.5407 70.8621C31.4487 71.0144 31.5 71.2135 31.6583 71.301L35.2766 73.3899C35.429 73.4819 35.6235 73.4276 35.7155 73.2723C35.8015 73.12 35.7517 72.9254 35.5979 72.8334L31.9796 70.7445C31.9283 70.7158 31.8725 70.7037 31.8167 70.7037H31.8152Z" fill="#8C4799" fill-opacity="0.2"/>
<path d="M33.7971 69.5574C33.69 69.5574 33.5784 69.6132 33.5166 69.7173C33.4306 69.8696 33.4804 70.0657 33.6388 70.1562L35.1727 71.0476C35.325 71.1366 35.5196 71.0853 35.6116 70.933C35.6975 70.7776 35.6478 70.5815 35.4939 70.4926L33.96 69.6012C33.9087 69.5725 33.8529 69.5574 33.7971 69.5574Z" fill="#8C4799" fill-opacity="0.2"/>
<path d="M68.5382 68.2468C68.1807 68.2468 67.8911 68.5318 67.8911 68.8893V108.665C67.8911 109.019 68.1822 109.307 68.5382 109.307C68.8941 109.307 69.1807 109.019 69.1807 108.665V68.8893C69.1807 68.5318 68.8896 68.2468 68.5382 68.2468Z" fill="#8C4799" fill-opacity="0.2"/>
<path d="M35.331 68.2468C34.9796 68.2468 34.6885 68.5318 34.6885 68.8893V108.665C34.6885 109.019 34.9796 109.307 35.331 109.307C35.6824 109.307 35.9735 109.019 35.9735 108.665V68.8893C35.9735 68.5318 35.6884 68.2468 35.331 68.2468Z" fill="#8C4799" fill-opacity="0.2"/>
<path d="M51.9354 58.7855C51.5779 58.7855 51.2928 59.0736 51.2928 59.4295V99.0815C51.2928 99.436 51.5779 99.724 51.9354 99.724C52.2928 99.724 52.5779 99.436 52.5779 99.0815V59.4295C52.5779 59.0721 52.2928 58.7855 51.9354 58.7855Z" fill="#8C4799" fill-opacity="0.2"/>
<path d="M13.2245 73.399C12.8927 73.399 12.5669 73.5724 12.3889 73.8801C12.1235 74.3416 12.2818 74.9298 12.7403 75.1968L34.3687 87.7002V108.663C34.3687 109.01 34.5527 109.326 34.8528 109.499L51.4512 119.082C51.7513 119.253 52.1193 119.253 52.4149 119.082L69.0193 109.499C69.3149 109.326 69.4989 109.01 69.4989 108.663V87.7078L91.1318 75.1968C91.5903 74.9298 91.7487 74.3401 91.4832 73.8801C91.2178 73.4186 90.6266 73.2602 90.1681 73.5287L68.0555 86.3172C67.7554 86.4906 67.5759 86.8058 67.5759 87.1512V108.11L51.9353 117.138L36.2993 108.11V87.1467C36.2993 86.8028 36.1107 86.4846 35.8151 86.3141L13.7026 73.5302C13.5503 73.4412 13.3874 73.4005 13.223 73.4005L13.2245 73.399Z" fill="#8C4799" fill-opacity="0.2"/>
<path d="M51.9354 58.704C51.8237 58.704 51.7106 58.7327 51.6141 58.7915L25.6028 73.8077C25.4037 73.9223 25.2815 74.1335 25.2815 74.3627C25.2815 74.592 25.4037 74.8062 25.6028 74.9208L35.0112 80.3505C35.3219 80.5285 35.7096 80.4214 35.8921 80.1167C36.0655 79.809 35.9629 79.4154 35.6522 79.2404L27.2075 74.3627L51.9338 60.0886L76.6556 74.3627L68.2154 79.2404C67.9047 79.4169 67.8022 79.809 67.9817 80.1167C68.1551 80.4229 68.5518 80.53 68.858 80.3505L78.2604 74.9208C78.4595 74.8062 78.5817 74.595 78.5817 74.3627C78.5817 74.1305 78.4595 73.9223 78.2604 73.8077L52.2536 58.7915C52.151 58.7327 52.044 58.704 51.9323 58.704H51.9354Z" fill="#8C4799" fill-opacity="0.2"/>
<path d="M51.9353 103.039C51.7573 103.039 51.614 103.182 51.614 103.36V113.976C51.614 114.152 51.7573 114.294 51.9353 114.294C52.1132 114.294 52.2565 114.15 52.2565 113.976V103.36C52.2565 103.182 52.1132 103.039 51.9353 103.039Z" fill="#8C4799" fill-opacity="0.2"/>
</svg>
