<svg width="232" height="95" viewBox="0 0 232 95" fill="none" xmlns="http://www.w3.org/2000/svg">
<mask id="mask0_1753_9718" style="mask-type:alpha" maskUnits="userSpaceOnUse" x="4" y="10" width="228" height="85">
<rect x="4" y="10" width="228" height="85" rx="10" fill="#EFB7C0"/>
</mask>
<g mask="url(#mask0_1753_9718)">
<path d="M88.9231 54.4848C88.8708 54.4848 88.8186 54.4706 88.7733 54.4424L64.5806 40.4775C64.4379 40.3969 64.387 40.2103 64.4704 40.0661C64.551 39.9234 64.7375 39.8753 64.8817 39.9559L89.0716 53.9251C89.2143 54.0056 89.2666 54.188 89.1818 54.3364C89.1295 54.4325 89.0249 54.4848 88.9246 54.4848H88.9231Z" fill="#C8102E" fill-opacity="0.2"/>
<path d="M96.871 77.247C96.7664 77.247 96.6633 77.2188 96.57 77.1665C96.3834 77.0562 96.2689 76.8612 96.2689 76.6463V58.7181C96.2689 58.5032 96.3834 58.3067 96.57 58.1979L112.097 49.238C112.283 49.1278 112.512 49.1278 112.699 49.238C112.885 49.3426 113 49.5391 113 49.7539L112.997 67.6822C112.997 67.897 112.883 68.0977 112.696 68.2023L97.1721 77.1665C97.076 77.2188 96.9756 77.247 96.871 77.247ZM97.4732 59.0644V75.6032L111.796 67.3316V50.7928L97.4732 59.0644Z" fill="#C8102E" fill-opacity="0.2"/>
<path d="M100.333 71.2484C100.229 71.2484 100.128 71.2201 100.034 71.1678C99.8478 71.0575 99.7333 70.8625 99.7333 70.6476V60.7181C99.7333 60.5033 99.8478 60.3068 100.034 60.198L108.631 55.2353C108.815 55.1251 109.047 55.1251 109.23 55.2353C109.417 55.3399 109.531 55.5406 109.531 55.7555V65.685C109.531 65.8956 109.417 66.0963 109.23 66.2009L100.634 71.1678C100.543 71.2201 100.437 71.2484 100.333 71.2484ZM100.935 61.0658V69.6059L108.33 65.3359V56.7958L100.935 61.0658Z" fill="#C8102E" fill-opacity="0.2"/>
<path d="M94.3537 75.4944C94.1869 75.4944 94.0526 75.3601 94.0526 75.1933V57.265C94.0526 57.1604 94.1106 57.0601 94.2024 57.0078L109.729 48.0437C109.875 47.9575 110.056 48.0097 110.141 48.1539C110.225 48.2981 110.176 48.479 110.03 48.5652L94.6547 57.4431V75.1947C94.6547 75.3615 94.5205 75.4958 94.3537 75.4958V75.4944Z" fill="#C8102E" fill-opacity="0.2"/>
<path d="M92.085 74.1855C91.9182 74.1855 91.7839 74.047 91.7839 73.8844V55.9562C91.7839 55.8516 91.8419 55.7512 91.9338 55.6989L107.462 46.7348C107.605 46.6486 107.787 46.6966 107.87 46.845C107.954 46.9878 107.906 47.1701 107.763 47.2564L92.3847 56.13V73.8873C92.3847 74.0498 92.2504 74.1883 92.0836 74.1883L92.085 74.1855Z" fill="#C8102E" fill-opacity="0.2"/>
<path d="M89.8192 72.8767C89.6539 72.8767 89.521 72.7381 89.521 72.5756V54.6417C89.521 54.5371 89.5761 54.4367 89.6694 54.3844L105.196 45.4246C105.338 45.3383 105.521 45.3864 105.605 45.5348C105.688 45.6733 105.64 45.8599 105.497 45.9405L90.1189 54.8184V72.5756C90.1189 72.7381 89.9846 72.8767 89.8206 72.8767H89.8192Z" fill="#C8102E" fill-opacity="0.2"/>
<path d="M87.5507 71.5635C87.3853 71.5635 87.2524 71.4292 87.2524 71.2667V53.3328C87.2524 53.2282 87.3104 53.1278 87.4009 53.0755L102.928 44.1114C103.07 44.0308 103.254 44.0775 103.339 44.2217C103.42 44.3644 103.373 44.551 103.229 44.633L87.8532 53.5109V71.2681C87.8532 71.4306 87.7175 71.5649 87.5521 71.5649L87.5507 71.5635Z" fill="#C8102E" fill-opacity="0.2"/>
<path d="M85.2835 70.2547C85.1167 70.2547 84.9824 70.1204 84.9824 69.9536V52.0296C84.9824 51.9194 85.0404 51.819 85.1308 51.7667L100.658 42.8026C100.8 42.7164 100.987 42.7687 101.069 42.9128C101.152 43.0556 101.104 43.2422 100.959 43.3241L85.5846 52.2021V69.9536C85.5846 70.1204 85.4489 70.2547 85.2835 70.2547Z" fill="#C8102E" fill-opacity="0.2"/>
<path d="M83.0149 68.9458C82.8481 68.9458 82.7139 68.8116 82.7139 68.6448V50.7208C82.7139 50.6105 82.7718 50.5102 82.8637 50.4579L98.3905 41.4937C98.5332 41.4075 98.717 41.4598 98.8018 41.604C98.8866 41.7482 98.8357 41.9333 98.6915 42.0153L83.316 50.8932V68.6448C83.316 68.8116 83.1817 68.9458 83.0149 68.9458Z" fill="#C8102E" fill-opacity="0.2"/>
<path d="M80.7463 67.6384C80.5809 67.6384 80.448 67.5041 80.448 67.3373L80.4452 49.4091C80.4452 49.3045 80.5031 49.2041 80.595 49.1518L96.1246 40.1877C96.2674 40.1015 96.4497 40.1538 96.5331 40.298C96.6165 40.4421 96.567 40.6231 96.4229 40.7093L81.0473 49.5872V67.3388C81.0473 67.5055 80.913 67.6398 80.7463 67.6398V67.6384Z" fill="#C8102E" fill-opacity="0.2"/>
<path d="M78.4805 66.3296C78.3151 66.3296 78.1795 66.1953 78.1795 66.0285L78.1766 48.1003C78.1766 47.9957 78.236 47.8953 78.3293 47.843L93.8561 38.8789C93.9988 38.7927 94.1826 38.845 94.2674 38.9891C94.3522 39.1333 94.3013 39.3142 94.1571 39.4004L78.7788 48.2783V66.0299C78.7788 66.1967 78.6445 66.331 78.4805 66.331V66.3296Z" fill="#C8102E" fill-opacity="0.2"/>
<path d="M76.2119 65.0206C76.0466 65.0206 75.9137 64.8864 75.9137 64.7196V46.7913C75.9137 46.6867 75.9716 46.5864 76.0621 46.5341L91.5889 37.5699C91.7317 37.4837 91.9182 37.5318 92.0002 37.6802C92.0836 37.8229 92.0341 38.0053 91.89 38.0859L76.5144 46.9694V64.721C76.5144 64.8878 76.3787 65.022 76.2133 65.022L76.2119 65.0206Z" fill="#C8102E" fill-opacity="0.2"/>
<path d="M73.9462 63.7076C73.7794 63.7076 73.6451 63.5733 73.6451 63.4108V45.4825C73.6451 45.3723 73.7031 45.2776 73.7936 45.2253L89.3203 36.2612C89.4659 36.1749 89.6497 36.223 89.7317 36.3714C89.8151 36.5142 89.7656 36.6965 89.6214 36.7771L74.2473 45.655V63.4122C74.2473 63.5748 74.1116 63.709 73.9462 63.709V63.7076Z" fill="#C8102E" fill-opacity="0.2"/>
<path d="M71.6776 62.3987C71.5109 62.3987 71.3766 62.2644 71.3766 62.0977V44.1736C71.3766 44.0634 71.4345 43.963 71.5264 43.9107L87.0532 34.9466C87.196 34.8661 87.3797 34.9127 87.4645 35.0569C87.5479 35.1996 87.4984 35.3862 87.3543 35.4682L71.9787 44.3461V62.0977C71.9787 62.2644 71.843 62.3987 71.6776 62.3987Z" fill="#C8102E" fill-opacity="0.2"/>
<path d="M69.409 61.0899C69.2436 61.0899 69.1107 60.9556 69.1107 60.7888V42.8606C69.1107 42.756 69.1687 42.6556 69.2605 42.6033L84.7873 33.6392C84.9301 33.5586 85.1124 33.6053 85.1958 33.7494C85.2792 33.8922 85.2297 34.0788 85.0856 34.1607L69.71 43.0387V60.7902C69.71 60.957 69.5757 61.0913 69.409 61.0913V61.0899Z" fill="#C8102E" fill-opacity="0.2"/>
<path d="M67.1404 59.781C66.975 59.781 66.8422 59.6467 66.8422 59.4799V41.5559C66.8422 41.4457 66.9001 41.3453 66.992 41.293L82.5188 32.3289C82.6615 32.2427 82.8453 32.295 82.9301 32.4391C83.0107 32.5819 82.964 32.7685 82.8198 32.8505L67.4415 41.7284V59.4799C67.4415 59.6467 67.3072 59.781 67.1404 59.781Z" fill="#C8102E" fill-opacity="0.2"/>
<path d="M64.7956 66.3776C64.6924 66.3776 64.5906 66.3253 64.5383 66.2292C64.4521 66.0808 64.503 65.8999 64.6486 65.8179L71.5307 61.839C71.6734 61.7584 71.86 61.8051 71.942 61.9493C72.0254 62.0977 71.9759 62.2786 71.8317 62.3606L64.9468 66.3394C64.8987 66.3635 64.8493 66.3776 64.797 66.3776H64.7956Z" fill="#C8102E" fill-opacity="0.2"/>
<path d="M64.7856 64.2998C64.681 64.2998 64.5807 64.2475 64.5256 64.1514C64.4422 64.0086 64.4902 63.822 64.633 63.7401L69.7271 60.8029C69.8698 60.7167 70.0536 60.7647 70.1356 60.9132C70.2218 61.0559 70.1709 61.2383 70.0253 61.3188L64.934 64.2602C64.886 64.2885 64.8365 64.2984 64.7856 64.2984V64.2998Z" fill="#C8102E" fill-opacity="0.2"/>
<path d="M64.6881 62.2743C64.5849 62.2743 64.4831 62.222 64.428 62.1259C64.3446 61.9832 64.3941 61.7966 64.5382 61.7146L67.9249 59.757C68.0676 59.6764 68.2514 59.7231 68.3362 59.8672C68.4167 60.0156 68.3701 60.1966 68.2259 60.2785L64.8393 62.2362C64.7912 62.2644 64.7389 62.2743 64.6895 62.2743H64.6881Z" fill="#C8102E" fill-opacity="0.2"/>
<path d="M64.691 60.1344C64.5864 60.1344 64.486 60.0821 64.4281 59.9817C64.3475 59.839 64.3941 59.6566 64.5383 59.5704L66.0762 58.6912C66.2175 58.6107 66.4012 58.6573 66.4875 58.8015C66.568 58.9443 66.5214 59.1308 66.3758 59.2128L64.8408 60.0962C64.7927 60.1202 64.7404 60.1344 64.6924 60.1344H64.691Z" fill="#C8102E" fill-opacity="0.2"/>
<path d="M87.1564 35.4809C86.991 35.4809 86.8582 35.3466 86.8582 35.1798V27.3422C86.8582 27.1754 86.9924 27.0411 87.1564 27.0411C87.3204 27.0411 87.4575 27.1754 87.4575 27.3422V35.1798C87.4575 35.3466 87.3232 35.4809 87.1564 35.4809Z" fill="#C8102E" fill-opacity="0.2"/>
<path d="M85.4037 34.4689C85.2383 34.4689 85.1026 34.3346 85.1026 34.1735L85.0546 28.3755C85.0546 28.2087 85.1888 28.0744 85.3528 28.0744H85.3556C85.521 28.0744 85.6539 28.203 85.6567 28.3698L85.7048 34.1678C85.7048 34.3303 85.5733 34.4689 85.4079 34.4689H85.4037Z" fill="#C8102E" fill-opacity="0.2"/>
<path d="M83.5549 33.5134C83.3881 33.5134 83.2538 33.3749 83.2538 33.2123V29.3013C83.2538 29.1345 83.3881 29.0002 83.5549 29.0002C83.7216 29.0002 83.8531 29.1345 83.8531 29.3013V33.2123C83.8531 33.3749 83.7188 33.5134 83.5549 33.5134Z" fill="#C8102E" fill-opacity="0.2"/>
<path d="M81.7018 32.3345C81.5364 32.3345 81.4007 32.2003 81.4007 32.0335L81.3965 30.3713C81.3965 30.2087 81.5308 30.0702 81.6976 30.0702C81.8643 30.0702 81.9986 30.2045 81.9986 30.3713L82.0029 32.0335C82.0029 32.196 81.8686 32.3345 81.7018 32.3345Z" fill="#C8102E" fill-opacity="0.2"/>
<path d="M96.871 77.2471C96.7678 77.2471 96.666 77.223 96.5699 77.1665L64.3545 58.5697C64.0661 58.4029 63.9672 58.0354 64.1354 57.7485C64.3008 57.4573 64.6683 57.3612 64.9538 57.5294L97.172 76.1262C97.459 76.293 97.5593 76.6605 97.3911 76.9474C97.2795 77.1382 97.0759 77.2485 96.871 77.2485V77.2471Z" fill="#C8102E" fill-opacity="0.2"/>
<path d="M112.396 50.3533C112.293 50.3533 112.191 50.3292 112.095 50.2727L79.8799 31.6702C79.5916 31.5077 79.4955 31.1402 79.6609 30.8533C79.8262 30.5621 80.1937 30.466 80.4792 30.6342L112.698 49.2366C112.984 49.3992 113.085 49.7667 112.917 50.0536C112.805 50.2501 112.604 50.3547 112.396 50.3547V50.3533Z" fill="#C8102E" fill-opacity="0.2"/>
<path d="M96.8711 59.3188C96.7679 59.3188 96.6661 59.2905 96.57 59.2382L64.4549 40.698C64.1666 40.5312 64.0704 40.1637 64.2358 39.8767C64.4012 39.5898 64.7687 39.4895 65.057 39.6577L97.1721 58.1979C97.459 58.3647 97.5594 58.7322 97.3912 59.0191C97.2795 59.21 97.076 59.3202 96.8711 59.3202V59.3188Z" fill="#C8102E" fill-opacity="0.2"/>
<path d="M58.7487 79.4153C58.4378 79.4153 58.1325 79.2528 57.9657 78.9658C57.7169 78.5319 57.8653 77.9821 58.2978 77.7333L78.7505 65.9225C79.1802 65.6737 79.7343 65.8221 79.9802 66.2575C80.2304 66.6872 80.0834 67.237 79.6509 67.4844L59.1982 79.2952C59.0555 79.3757 58.9014 79.4139 58.7487 79.4139V79.4153Z" fill="#C8102E" fill-opacity="0.2"/>
<path d="M94.9558 40.2767C94.4569 40.2767 94.0526 39.8753 94.0526 39.3792V15.8056C94.0526 15.3095 94.4569 14.9024 94.9558 14.9024C95.4548 14.9024 95.8562 15.3081 95.8562 15.8056V39.3792C95.8562 39.8753 95.4519 40.2767 94.9558 40.2767Z" fill="#C8102E" fill-opacity="0.2"/>
<path d="M64.6909 68.8271C64.5863 68.8271 64.4803 68.7988 64.3898 68.7465C64.2032 68.6363 64.0887 68.4412 64.0887 68.2264V40.1396C64.0887 39.9248 64.2032 39.7241 64.3898 39.6195L88.7139 25.5782C88.9005 25.468 89.1295 25.468 89.3161 25.5782C89.4998 25.6828 89.6143 25.8835 89.6143 26.0941V36.2526C89.6143 36.5876 89.3443 36.8548 89.015 36.8548C88.6857 36.8548 88.4129 36.5876 88.4129 36.2526V27.1359L65.2902 40.4845V67.1861L73.1871 62.6249C73.4741 62.4623 73.8416 62.5584 74.0084 62.8496C74.1737 63.1365 74.0748 63.504 73.7865 63.6666L64.9891 68.7479C64.8958 68.8002 64.7926 68.8285 64.6909 68.8285V68.8271Z" fill="#C8102E" fill-opacity="0.2"/>
<path d="M108.929 65.9804C108.88 65.9804 108.829 65.9705 108.781 65.9422L100.184 60.9754C100.041 60.8948 99.9905 60.7125 100.074 60.5697C100.154 60.4269 100.341 60.3732 100.485 60.4594L109.082 65.4221C109.225 65.5026 109.273 65.6892 109.192 65.8334C109.134 65.9295 109.034 65.9818 108.929 65.9818V65.9804Z" fill="#C8102E" fill-opacity="0.2"/>
<path d="M22.5432 16.7075C22.2322 16.7075 21.9297 16.5449 21.7601 16.2538C21.5113 15.8241 21.6598 15.2743 22.0923 15.0212L58.2979 -5.87809C58.5778 -6.04064 58.9184 -6.04064 59.1983 -5.87809L95.4039 15.0212C95.8336 15.2743 95.982 15.8241 95.7332 16.2538C95.4845 16.6877 94.9332 16.8319 94.5035 16.5831L58.746 -4.05756L22.9912 16.5845C22.8499 16.6651 22.6958 16.7089 22.5418 16.7089L22.5432 16.7075Z" fill="#C8102E" fill-opacity="0.2"/>
<path d="M58.746 79.4154C58.2498 79.4154 57.8456 79.014 57.8456 78.5179V36.7093C57.8456 36.2132 58.2498 35.8061 58.746 35.8061C59.2421 35.8061 59.6463 36.2118 59.6463 36.7093V78.5179C59.6463 79.014 59.2449 79.4154 58.746 79.4154Z" fill="#C8102E" fill-opacity="0.2"/>
<path d="M58.7489 37.6111C58.4379 37.6111 58.1326 37.4485 57.9658 37.1573C57.717 36.7277 57.8654 36.1778 58.298 35.9248L94.5036 15.0212C94.9333 14.7725 95.4845 14.9209 95.7333 15.3562C95.9821 15.7859 95.8336 16.3358 95.404 16.5831L59.1983 37.4867C59.0556 37.5672 58.9015 37.6111 58.7489 37.6111Z" fill="#C8102E" fill-opacity="0.2"/>
<path d="M58.746 37.611C58.5934 37.611 58.4379 37.5686 58.2966 37.4867L22.0909 16.5831C21.6584 16.3343 21.51 15.7859 21.7588 15.3562C22.009 14.9223 22.5616 14.7739 22.9913 15.0212L59.1983 35.9248C59.628 36.1778 59.7764 36.7276 59.5277 37.1573C59.3609 37.4485 59.0598 37.611 58.7475 37.611H58.746Z" fill="#C8102E" fill-opacity="0.2"/>
<path d="M58.7969 30.0703C58.6301 30.0703 58.4958 29.936 58.4958 29.7692V1.83512C58.4958 1.67258 58.6301 1.53406 58.7969 1.53406C58.9637 1.53406 59.098 1.67258 59.098 1.83512V29.7692C59.098 29.936 58.9623 30.0703 58.7969 30.0703Z" fill="#C8102E" fill-opacity="0.2"/>
<path d="M58.7459 30.4477C58.6428 30.4477 58.5382 30.4237 58.4477 30.3671L34.1236 16.3259C33.937 16.2156 33.8225 16.0206 33.8225 15.8057C33.8225 15.5909 33.937 15.3944 34.1236 15.2856L58.4477 1.24007C58.6343 1.13547 58.8633 1.13547 59.047 1.24007L83.3726 15.2856C83.5563 15.3958 83.6708 15.5909 83.6708 15.8057C83.6708 16.0206 83.5563 16.217 83.3726 16.3259L59.047 30.3671C58.9537 30.4251 58.8505 30.4477 58.7459 30.4477ZM35.6233 15.8043L58.7459 29.153L81.8686 15.8043L58.7459 2.4514L35.6233 15.8043Z" fill="#C8102E" fill-opacity="0.2"/>
<path d="M81.1577 17.0849C81.1054 17.0849 81.0545 17.075 81.0093 17.0467L58.6442 4.132C58.5014 4.05143 58.4534 3.86486 58.534 3.72068C58.6202 3.57792 58.8011 3.52987 58.9453 3.61043L81.3089 16.5252C81.4517 16.6057 81.5026 16.7923 81.4192 16.9365C81.3641 17.0326 81.2623 17.0849 81.1591 17.0849H81.1577Z" fill="#C8102E" fill-opacity="0.2"/>
<path d="M79.3669 18.1309C79.3146 18.1309 79.2637 18.121 79.217 18.0927L58.6442 6.21543C58.5014 6.13487 58.4534 5.94829 58.534 5.80412C58.6202 5.66136 58.8011 5.6133 58.9453 5.69387L79.5181 17.5711C79.6609 17.6517 79.7117 17.8383 79.6255 17.9824C79.5732 18.0786 79.47 18.1309 79.3683 18.1309H79.3669Z" fill="#C8102E" fill-opacity="0.2"/>
<path d="M77.6594 19.2291C77.6099 19.2291 77.5562 19.215 77.5096 19.1867L58.6442 8.29746C58.5014 8.2169 58.4534 8.03032 58.534 7.88615C58.6202 7.74339 58.8011 7.69533 58.9453 7.7759L77.8106 18.6694C77.9534 18.75 78.0043 18.9323 77.9209 19.0807C77.8658 19.1768 77.7626 19.2291 77.6608 19.2291H77.6594Z" fill="#C8102E" fill-opacity="0.2"/>
<path d="M75.8036 20.2991C75.7541 20.2991 75.7033 20.2892 75.6552 20.2609L58.6429 10.3795C58.5001 10.2932 58.452 10.1123 58.5326 9.96814C58.6188 9.81972 58.8026 9.77308 58.9439 9.85789L75.9563 19.7393C76.099 19.8199 76.1471 20.0065 76.0665 20.1507C76.0086 20.2468 75.9082 20.2991 75.8036 20.2991Z" fill="#C8102E" fill-opacity="0.2"/>
<path d="M73.9025 21.2249C73.8545 21.2249 73.8022 21.2107 73.7541 21.1825L58.6429 12.4615C58.5001 12.3752 58.452 12.1943 58.5326 12.0502C58.6188 11.9074 58.7998 11.8593 58.9439 11.9399L74.0552 20.6652C74.1979 20.7457 74.246 20.9281 74.1654 21.0708C74.1075 21.1669 74.0071 21.2235 73.9025 21.2235V21.2249Z" fill="#C8102E" fill-opacity="0.2"/>
<path d="M72.2502 22.3528C72.2007 22.3528 72.1498 22.3387 72.1018 22.3104L58.6429 14.5449C58.5001 14.4587 58.452 14.2778 58.5326 14.1336C58.6188 13.9908 58.7998 13.9428 58.9439 14.0233L72.4028 21.7889C72.5456 21.8751 72.5937 22.056 72.5103 22.2002C72.4551 22.2963 72.3548 22.3528 72.2502 22.3528Z" fill="#C8102E" fill-opacity="0.2"/>
<path d="M70.2346 23.2702C70.1851 23.2702 70.1342 23.2561 70.0862 23.232L58.6429 16.6227C58.5001 16.5422 58.452 16.3598 58.5326 16.2171C58.6188 16.0686 58.7998 16.0206 58.9439 16.1068L70.3844 22.7119C70.53 22.7924 70.5781 22.9748 70.4947 23.1232C70.4395 23.2193 70.3392 23.2716 70.2346 23.2716V23.2702Z" fill="#C8102E" fill-opacity="0.2"/>
<path d="M68.5186 24.3585C68.4678 24.3585 68.4155 24.3444 68.3688 24.3203L58.6457 18.7033C58.5029 18.6227 58.4549 18.4361 58.5354 18.2976C58.6216 18.1492 58.8026 18.1011 58.9467 18.1831L68.6699 23.8002C68.8126 23.8808 68.8635 24.0673 68.7801 24.2115C68.725 24.3076 68.6232 24.3599 68.5201 24.3599L68.5186 24.3585Z" fill="#C8102E" fill-opacity="0.2"/>
<path d="M66.8041 25.4525C66.7547 25.4525 66.7009 25.4384 66.6543 25.4101L58.6457 20.7867C58.5029 20.7062 58.4549 20.5196 58.5354 20.3754C58.6216 20.2326 58.8026 20.1846 58.9467 20.2652L66.9554 24.8886C67.0981 24.9748 67.1462 25.1557 67.0656 25.2999C67.0077 25.396 66.9073 25.4525 66.8055 25.4525H66.8041Z" fill="#C8102E" fill-opacity="0.2"/>
<path d="M65.0415 26.5169C64.992 26.5169 64.9383 26.5027 64.8917 26.4745L58.6442 22.8688C58.5014 22.7882 58.4534 22.6016 58.534 22.4574C58.6202 22.3147 58.8011 22.2666 58.9453 22.3472L65.1927 25.9529C65.3355 26.0391 65.3836 26.2201 65.303 26.3642C65.245 26.4603 65.1461 26.5169 65.0429 26.5169H65.0415Z" fill="#C8102E" fill-opacity="0.2"/>
<path d="M63.2379 27.5544C63.1856 27.5544 63.1333 27.5445 63.0853 27.5162L58.6442 24.9508C58.5014 24.8646 58.4534 24.6836 58.534 24.5395C58.6202 24.3967 58.8011 24.3487 58.9453 24.4292L63.3863 26.9932C63.5319 27.0738 63.5828 27.2604 63.4966 27.4045C63.4443 27.5007 63.3411 27.553 63.2379 27.553V27.5544Z" fill="#C8102E" fill-opacity="0.2"/>
<path d="M61.3015 28.5183C61.252 28.5183 61.1983 28.5042 61.1517 28.4802L58.6442 27.0286C58.5014 26.948 58.4534 26.7657 58.534 26.6229C58.6202 26.4801 58.8011 26.4321 58.9453 26.5127L61.4527 27.96C61.5955 28.0406 61.6464 28.2272 61.563 28.3713C61.5079 28.4675 61.4047 28.5198 61.3029 28.5198L61.3015 28.5183Z" fill="#C8102E" fill-opacity="0.2"/>
<path d="M36.4303 17.0849C36.33 17.0849 36.2268 17.0326 36.1731 16.9365C36.0897 16.7937 36.1392 16.6071 36.2833 16.5252L58.6442 3.61044C58.7869 3.52987 58.9735 3.57651 59.0555 3.72068C59.1389 3.86344 59.0894 4.05002 58.9453 4.132L36.5844 17.0467C36.5363 17.075 36.4841 17.0849 36.4318 17.0849H36.4303Z" fill="#C8102E" fill-opacity="0.2"/>
<path d="M38.2269 18.1309C38.1223 18.1309 38.022 18.0786 37.9668 17.9824C37.8834 17.8397 37.9315 17.6531 38.0743 17.5711L58.6443 5.69387C58.787 5.6133 58.9736 5.65995 59.0556 5.80412C59.139 5.94688 59.0895 6.13345 58.9453 6.21543L38.3753 18.0927C38.3273 18.121 38.2778 18.1309 38.2269 18.1309Z" fill="#C8102E" fill-opacity="0.2"/>
<path d="M39.9315 19.2291C39.8269 19.2291 39.7266 19.1768 39.6714 19.0807C39.5881 18.9323 39.6361 18.7514 39.7817 18.6694L58.6442 7.7759C58.787 7.69533 58.9736 7.74198 59.0556 7.88615C59.1389 8.02891 59.0895 8.21549 58.9453 8.29747L40.0828 19.1867C40.0347 19.215 39.9824 19.2291 39.9329 19.2291H39.9315Z" fill="#C8102E" fill-opacity="0.2"/>
<path d="M41.7846 20.2991C41.6814 20.2991 41.581 20.2468 41.5273 20.1507C41.4411 20.0079 41.492 19.8213 41.6347 19.7394L58.6442 9.8579C58.787 9.77168 58.9736 9.81974 59.0555 9.96815C59.1389 10.1109 59.0909 10.2932 58.9453 10.3795L41.9358 20.2609C41.8906 20.2892 41.8383 20.2991 41.786 20.2991H41.7846Z" fill="#C8102E" fill-opacity="0.2"/>
<path d="M43.6884 21.2249C43.5852 21.2249 43.4835 21.1669 43.4283 21.0722C43.3449 20.9295 43.3944 20.7471 43.5386 20.6666L58.6456 11.9413C58.7883 11.8551 58.9749 11.9074 59.0569 12.0516C59.1403 12.1943 59.0908 12.3767 58.9467 12.4629L43.8397 21.1839C43.7916 21.2122 43.7393 21.2263 43.6898 21.2263L43.6884 21.2249Z" fill="#C8102E" fill-opacity="0.2"/>
<path d="M45.338 22.3528C45.2348 22.3528 45.133 22.2949 45.0808 22.2002C44.9974 22.0574 45.0454 21.8751 45.191 21.7889L58.6443 14.0233C58.787 13.9371 58.9736 13.9894 59.0556 14.1336C59.139 14.2764 59.0895 14.4587 58.9453 14.5449L45.4921 22.3104C45.4412 22.3387 45.3917 22.3528 45.3394 22.3528H45.338Z" fill="#C8102E" fill-opacity="0.2"/>
<path d="M47.3535 23.2702C47.2504 23.2702 47.15 23.2179 47.0949 23.1218C47.0087 22.9734 47.061 22.7925 47.2051 22.7105L58.6428 16.1054C58.7856 16.0192 58.9721 16.0672 59.0541 16.2157C59.1375 16.3584 59.088 16.5407 58.9439 16.6213L47.5034 23.2306C47.4581 23.2547 47.4058 23.2688 47.3535 23.2688V23.2702Z" fill="#C8102E" fill-opacity="0.2"/>
<path d="M49.0723 24.3585C48.9691 24.3585 48.8673 24.3062 48.8094 24.2101C48.7288 24.0673 48.7783 23.8807 48.921 23.7988L58.6428 18.1817C58.7855 18.1011 58.9721 18.1478 59.0541 18.2962C59.1375 18.4347 59.088 18.6213 58.9438 18.7018L49.2207 24.3189C49.1726 24.3429 49.1231 24.3571 49.0723 24.3571V24.3585Z" fill="#C8102E" fill-opacity="0.2"/>
<path d="M50.7868 25.4525C50.6836 25.4525 50.5819 25.3946 50.5267 25.2999C50.4433 25.1571 50.4928 24.9748 50.637 24.8886L58.6442 20.2652C58.787 20.1846 58.9735 20.2312 59.0555 20.3754C59.1389 20.5182 59.0894 20.7047 58.9453 20.7867L50.938 25.4101C50.8928 25.4384 50.8405 25.4525 50.7882 25.4525H50.7868Z" fill="#C8102E" fill-opacity="0.2"/>
<path d="M52.5494 26.5169C52.449 26.5169 52.3458 26.4589 52.2921 26.3642C52.2087 26.2215 52.2582 26.0391 52.4024 25.9529L58.6442 22.3472C58.7869 22.2666 58.9735 22.3133 59.0555 22.4574C59.1389 22.6002 59.0894 22.7868 58.9452 22.8688L52.7034 26.4745C52.6554 26.5027 52.6031 26.5169 52.5508 26.5169H52.5494Z" fill="#C8102E" fill-opacity="0.2"/>
<path d="M54.3529 27.5544C54.2498 27.5544 54.1494 27.5021 54.0929 27.406C54.0123 27.2632 54.0589 27.0766 54.2031 26.9946L58.6442 24.4306C58.7869 24.3444 58.9735 24.3967 59.0555 24.5409C59.1389 24.6836 59.0894 24.866 58.9452 24.9522L54.5042 27.5176C54.4561 27.5459 54.4066 27.5558 54.3543 27.5558L54.3529 27.5544Z" fill="#C8102E" fill-opacity="0.2"/>
<path d="M56.2893 28.5183C56.189 28.5183 56.0858 28.466 56.0321 28.3699C55.9487 28.2272 55.9982 28.0406 56.1424 27.9586L58.6456 26.5112C58.7883 26.425 58.9749 26.4731 59.0569 26.6215C59.1403 26.7642 59.0908 26.9466 58.9466 27.0271L56.4434 28.4788C56.3954 28.5028 56.3431 28.5169 56.2908 28.5169L56.2893 28.5183Z" fill="#C8102E" fill-opacity="0.2"/>
<path d="M6.21067 67.7386C6.0029 67.7386 5.80219 67.634 5.69052 67.4375C5.52515 67.1506 5.62126 66.7831 5.90961 66.6163L31.5808 51.7963C31.8677 51.6295 32.2352 51.7242 32.3992 52.0154C32.5659 52.3023 32.4684 52.6698 32.1801 52.8366L6.51174 67.6566C6.41562 67.7146 6.31386 67.7372 6.21067 67.7372V67.7386Z" fill="#C8102E" fill-opacity="0.2"/>
<path d="M31.9752 82.72C31.8748 82.72 31.7702 82.6959 31.677 82.6394L5.86587 67.7388C5.68212 67.6342 5.56763 67.4335 5.56763 67.2186V37.4174C5.56763 37.2025 5.68212 37.0018 5.86587 36.8972C6.05244 36.787 6.28142 36.787 6.468 36.8972L32.2777 51.7978C32.4642 51.9081 32.5787 52.1031 32.5787 52.318V82.1249C32.5787 82.3355 32.4642 82.5362 32.2777 82.6408C32.1872 82.6988 32.0812 82.7214 31.9766 82.7214L31.9752 82.72ZM6.76765 66.8737L31.3759 81.0818V52.6657L6.76765 38.4577V66.8737Z" fill="#C8102E" fill-opacity="0.2"/>
<path d="M8.08352 66.3535C7.91814 66.3535 7.78528 66.2192 7.78528 66.0566V38.6526C7.78528 38.4901 7.91956 38.3558 8.08352 38.3558C8.24748 38.3558 8.38458 38.4901 8.38458 38.6526V66.0566C8.38458 66.2192 8.24889 66.3535 8.08352 66.3535Z" fill="#C8102E" fill-opacity="0.2"/>
<path d="M9.99872 65.2496C9.83334 65.2496 9.69765 65.1153 9.69765 64.9485L9.69482 39.7452C9.69482 39.5784 9.83052 39.4442 9.99589 39.4442C10.1613 39.4442 10.297 39.5784 10.297 39.7452L10.2998 64.9485C10.2998 65.1153 10.1641 65.2496 9.99872 65.2496Z" fill="#C8102E" fill-opacity="0.2"/>
<path d="M11.9112 64.147C11.7444 64.147 11.6101 64.0128 11.6101 63.846L11.6073 40.7304C11.6073 40.5678 11.7416 40.4335 11.9055 40.4335C12.0695 40.4335 12.2066 40.5678 12.2066 40.7304L12.2108 63.846C12.2108 64.0128 12.0752 64.147 11.9098 64.147H11.9112Z" fill="#C8102E" fill-opacity="0.2"/>
<path d="M13.8222 63.0432C13.6554 63.0432 13.5211 62.9089 13.5211 62.7421L13.5762 41.8668C13.5762 41.7 13.7119 41.5657 13.8745 41.5657H13.8773C14.0427 41.57 14.1784 41.7043 14.1755 41.8668L14.1232 62.7421C14.1232 62.9089 13.989 63.0432 13.8222 63.0432Z" fill="#C8102E" fill-opacity="0.2"/>
<path d="M15.7345 61.935C15.5691 61.935 15.4363 61.8007 15.4363 61.6339V43.1219C15.4363 42.9594 15.5706 42.8209 15.7345 42.8209C15.8985 42.8209 16.0328 42.9594 16.0328 43.1219L16.0356 61.6339C16.0356 61.8007 15.9013 61.935 15.7345 61.935Z" fill="#C8102E" fill-opacity="0.2"/>
<path d="M17.6498 60.8325C17.4844 60.8325 17.3515 60.6982 17.3515 60.5315L17.3473 44.0449C17.3473 43.8824 17.4816 43.7495 17.6484 43.7495C17.8151 43.7495 17.9494 43.8838 17.9494 44.0449L17.9522 60.5315C17.9522 60.6982 17.818 60.8325 17.6512 60.8325H17.6498Z" fill="#C8102E" fill-opacity="0.2"/>
<path d="M19.5622 59.7286C19.3954 59.7286 19.2611 59.5943 19.2611 59.4275V45.4103C19.2611 45.2435 19.3954 45.1093 19.5622 45.1093C19.729 45.1093 19.8632 45.2435 19.8632 45.4103V59.4275C19.8632 59.5943 19.7275 59.7286 19.5622 59.7286Z" fill="#C8102E" fill-opacity="0.2"/>
<path d="M21.4732 58.6261C21.3078 58.6261 21.1749 58.4918 21.1749 58.325V46.4096C21.1749 46.2428 21.3092 46.1142 21.4732 46.1142C21.6371 46.1142 21.7742 46.2428 21.7742 46.4096V58.325C21.7742 58.4918 21.64 58.6261 21.4732 58.6261Z" fill="#C8102E" fill-opacity="0.2"/>
<path d="M23.3883 57.5222C23.2216 57.5222 23.0873 57.3879 23.0873 57.2211V47.4061C23.0873 47.2393 23.2216 47.105 23.3883 47.105C23.5551 47.105 23.6894 47.2393 23.6894 47.4061V57.2211C23.6894 57.3879 23.5551 57.5222 23.3883 57.5222Z" fill="#C8102E" fill-opacity="0.2"/>
<path d="M25.3008 56.414C25.1355 56.414 24.9998 56.2798 24.9998 56.113L24.9969 48.462C24.9969 48.2952 25.1326 48.1609 25.298 48.1609C25.4634 48.1609 25.5991 48.2952 25.5991 48.462L25.6019 56.113C25.6019 56.2798 25.4662 56.414 25.3008 56.414Z" fill="#C8102E" fill-opacity="0.2"/>
<path d="M27.2132 55.3115C27.0464 55.3115 26.9121 55.1773 26.9121 55.0105V49.5658C26.9121 49.4033 27.0478 49.2648 27.2132 49.2648C27.38 49.2648 27.5142 49.4033 27.5142 49.5658V55.0105C27.5142 55.1773 27.38 55.3115 27.2132 55.3115Z" fill="#C8102E" fill-opacity="0.2"/>
<path d="M29.1284 54.2034C28.9616 54.2034 28.8274 54.0691 28.8274 53.9066L28.8231 50.8351C28.8231 50.6683 28.9574 50.5341 29.1242 50.5341C29.291 50.5341 29.4253 50.6683 29.4253 50.8351L29.4295 53.9066C29.4295 54.0691 29.2938 54.2034 29.1284 54.2034Z" fill="#C8102E" fill-opacity="0.2"/>
<path d="M31.8126 80.0555C31.7632 80.0555 31.7095 80.0413 31.6628 80.0131L7.93376 66.3153C7.791 66.2347 7.74294 66.0481 7.82351 65.904C7.9069 65.7612 8.09065 65.7132 8.23482 65.7937L31.9639 79.4957C32.1066 79.5763 32.1575 79.7586 32.0713 79.9014C32.019 80.0018 31.9158 80.0541 31.8126 80.0541V80.0555Z" fill="#C8102E" fill-opacity="0.2"/>
<path d="M31.8225 77.8533C31.7717 77.8533 31.7222 77.8392 31.6741 77.8109L9.84757 65.2114C9.70482 65.1252 9.65676 64.9443 9.73733 64.8001C9.81789 64.6559 10.0045 64.6036 10.1486 64.6899L31.9752 77.2894C32.118 77.3756 32.166 77.5565 32.0854 77.7007C32.0275 77.7968 31.9286 77.8533 31.8225 77.8533Z" fill="#C8102E" fill-opacity="0.2"/>
<path d="M31.9271 75.7049C31.8748 75.7049 31.8239 75.6907 31.7787 75.6625L11.7599 64.1047C11.6171 64.0241 11.5663 63.8417 11.6482 63.699C11.7345 63.5506 11.9182 63.5025 12.0596 63.5887L32.0783 75.1466C32.2239 75.2271 32.2719 75.4095 32.1886 75.5522C32.1334 75.6483 32.0331 75.7049 31.9285 75.7049H31.9271Z" fill="#C8102E" fill-opacity="0.2"/>
<path d="M31.9271 73.4306C31.8791 73.4306 31.8268 73.4165 31.7787 73.3924L13.6738 63.005C13.531 62.9187 13.4773 62.7378 13.5621 62.5936C13.6455 62.4509 13.8278 62.3972 13.9734 62.4792L32.0812 72.8723C32.2239 72.9529 32.272 73.1394 32.1914 73.2779C32.1335 73.3783 32.0331 73.4306 31.9285 73.4306H31.9271Z" fill="#C8102E" fill-opacity="0.2"/>
<path d="M31.7674 71.1959C31.7179 71.1959 31.6642 71.1818 31.6176 71.1535L15.5848 61.8982C15.442 61.8177 15.3939 61.6311 15.4745 61.4869C15.5579 61.3442 15.7417 61.2961 15.8858 61.3767L31.9186 70.632C32.0614 70.7182 32.1094 70.8991 32.0289 71.0433C31.9709 71.1394 31.872 71.1959 31.7688 71.1959H31.7674Z" fill="#C8102E" fill-opacity="0.2"/>
<path d="M31.927 69.08C31.8747 69.08 31.8224 69.0659 31.7772 69.0376L17.4999 60.7944C17.3572 60.7081 17.3091 60.5272 17.3897 60.383C17.4731 60.2403 17.6568 60.1922 17.801 60.2728L32.0769 68.5161C32.2225 68.6023 32.2733 68.7832 32.1871 68.9274C32.1348 69.0235 32.0316 69.08 31.9299 69.08H31.927Z" fill="#C8102E" fill-opacity="0.2"/>
<path d="M31.698 66.7351C31.65 66.7351 31.5977 66.7252 31.5496 66.6969L19.4095 59.6904C19.2667 59.6042 19.2186 59.4233 19.2992 59.2791C19.3854 59.1363 19.5692 59.0826 19.7105 59.1689L31.8507 66.1753C31.9934 66.2559 32.0415 66.4425 31.9609 66.5867C31.903 66.6828 31.8026 66.7351 31.698 66.7351Z" fill="#C8102E" fill-opacity="0.2"/>
<path d="M31.7943 64.581C31.742 64.581 31.6897 64.5668 31.6416 64.5386L21.3262 58.5823C21.1835 58.5017 21.1326 58.3194 21.216 58.171C21.2966 58.0324 21.4831 57.9801 21.6273 58.0607L31.9427 64.017C32.0855 64.1032 32.1363 64.2841 32.0529 64.4283C31.9978 64.5244 31.8961 64.581 31.7957 64.581H31.7943Z" fill="#C8102E" fill-opacity="0.2"/>
<path d="M31.8847 62.4226C31.8352 62.4226 31.7843 62.4127 31.7362 62.3845L23.2371 57.4798C23.0916 57.3992 23.0435 57.2169 23.1269 57.0741C23.2075 56.9257 23.3926 56.8776 23.5382 56.9639L32.0373 61.8643C32.1801 61.9449 32.2281 62.1315 32.1476 62.2756C32.0896 62.3717 31.9907 62.424 31.8847 62.424V62.4226Z" fill="#C8102E" fill-opacity="0.2"/>
<path d="M31.9271 60.2403C31.8748 60.2403 31.8225 60.2261 31.7773 60.2021L25.151 56.3773C25.0083 56.2911 24.9602 56.1102 25.0408 55.966C25.1242 55.8232 25.3079 55.7695 25.4521 55.8557L32.077 59.6805C32.2226 59.7611 32.2734 59.9435 32.1872 60.0919C32.1349 60.188 32.0317 60.2403 31.93 60.2403H31.9271Z" fill="#C8102E" fill-opacity="0.2"/>
<path d="M31.9271 58.0339C31.8748 58.0339 31.8239 58.0198 31.7787 57.9915L27.0648 55.2734C26.9192 55.1872 26.8683 55.0063 26.9546 54.8621C27.0351 54.7194 27.2175 54.6656 27.3631 54.7519L32.0769 57.4699C32.2225 57.5562 32.2706 57.7371 32.1872 57.8813C32.132 57.9774 32.0317 58.0339 31.9271 58.0339Z" fill="#C8102E" fill-opacity="0.2"/>
<path d="M31.7843 55.7413C31.7349 55.7413 31.684 55.7271 31.6345 55.6989L28.9772 54.1653C28.8345 54.0847 28.7864 53.8981 28.867 53.7539C28.9532 53.6112 29.1341 53.5631 29.2783 53.6437L31.9356 55.1815C32.0812 55.2621 32.1292 55.4444 32.0458 55.5872C31.9907 55.6833 31.8903 55.7398 31.7857 55.7398L31.7843 55.7413Z" fill="#C8102E" fill-opacity="0.2"/>
<path d="M37.1088 91.9088C36.7979 91.9088 36.4926 91.7463 36.3258 91.4551C36.077 91.0254 36.2254 90.4756 36.6551 90.2282L58.2965 77.7347C58.7262 77.4859 59.2774 77.6301 59.5262 78.0641C59.775 78.4937 59.6266 79.0478 59.1969 79.2966L37.5569 91.7859C37.4141 91.8721 37.2615 91.9103 37.1074 91.9103L37.1088 91.9088Z" fill="#C8102E" fill-opacity="0.2"/>
<path d="M0.903137 29.1967C0.592177 29.1967 0.289698 29.0384 0.12291 28.7472C-0.127271 28.3175 0.019728 27.7677 0.452245 27.5147L22.0922 15.0211C22.5247 14.7724 23.0732 14.9208 23.3219 15.3505C23.5707 15.7844 23.4251 16.3342 22.9926 16.583L1.3512 29.0765C1.20986 29.1571 1.05438 29.1953 0.901723 29.1953L0.903137 29.1967Z" fill="#C8102E" fill-opacity="0.2"/>
<path d="M37.1088 50.1002C36.7979 50.1002 36.4926 49.9377 36.3258 49.6508C36.077 49.2211 36.2254 48.667 36.6551 48.4182L58.2965 35.9247C58.7262 35.6759 59.2774 35.8244 59.5262 36.254C59.775 36.6837 59.6266 37.2378 59.1969 37.4866L37.5569 49.9801C37.4141 50.0607 37.2615 50.0988 37.1074 50.0988L37.1088 50.1002Z" fill="#C8102E" fill-opacity="0.2"/>
<path d="M37.1074 91.9088C36.9519 91.9088 36.7993 91.8664 36.6565 91.7844L0.449478 70.8851C0.172441 70.7225 0 70.4271 0 70.102V28.2991C0 27.974 0.172441 27.6786 0.450892 27.5161C0.730756 27.3578 1.07423 27.3578 1.35126 27.5161L37.5569 48.4196C37.8339 48.5765 38.0078 48.8776 38.0078 49.1985V91.007C38.0078 91.3264 37.8339 91.6275 37.5569 91.7858C37.4184 91.8664 37.2615 91.9102 37.106 91.9102L37.1074 91.9088ZM1.80074 69.5819L36.207 89.4451V49.7186L1.80357 29.8596L1.80074 69.5805V69.5819Z" fill="#C8102E" fill-opacity="0.2"/>
<path d="M56.0506 38.5622C55.9983 38.5622 55.9461 38.5523 55.898 38.5241L19.691 17.6191C19.5482 17.5385 19.5001 17.3562 19.5807 17.2078C19.6641 17.0692 19.8479 17.0169 19.992 17.0975L56.1991 38.0011C56.3418 38.0816 56.3927 38.2682 56.3093 38.4124C56.2542 38.5085 56.151 38.5608 56.0506 38.5608V38.5622Z" fill="#C8102E" fill-opacity="0.2"/>
<path d="M54.0322 39.7269C53.9813 39.7269 53.929 39.7128 53.8824 39.6888L17.6753 18.7852C17.5326 18.7046 17.4845 18.5181 17.5651 18.3739C17.6485 18.2311 17.8322 18.1831 17.9764 18.2636L54.1834 39.1672C54.3262 39.2478 54.3743 39.4343 54.2937 39.5785C54.2357 39.6746 54.1368 39.7269 54.0336 39.7269H54.0322Z" fill="#C8102E" fill-opacity="0.2"/>
<path d="M52.018 40.893C51.9672 40.893 51.9149 40.8789 51.8682 40.8549L15.6612 19.9499C15.5184 19.8636 15.4704 19.6827 15.5509 19.5386C15.6343 19.3958 15.8181 19.3477 15.9622 19.4283L52.1679 40.3319C52.3106 40.4124 52.3615 40.599 52.2781 40.7432C52.223 40.8393 52.1212 40.8916 52.018 40.8916V40.893Z" fill="#C8102E" fill-opacity="0.2"/>
<path d="M50.0024 42.0577C49.9515 42.0577 49.8992 42.0436 49.8526 42.0153L13.6455 21.1103C13.5028 21.0297 13.4547 20.8474 13.5353 20.699C13.6187 20.5562 13.8024 20.5082 13.9466 20.5944L50.1522 41.4937C50.295 41.5799 50.3431 41.7609 50.2625 41.905C50.2074 42.0012 50.1042 42.0577 50.0024 42.0577Z" fill="#C8102E" fill-opacity="0.2"/>
<path d="M47.984 43.2181C47.9331 43.2181 47.8808 43.2083 47.8356 43.18L11.63 22.2764C11.4872 22.1958 11.4363 22.0135 11.5197 21.8651C11.6003 21.7223 11.7869 21.6743 11.931 21.7548L48.1367 42.6584C48.2794 42.739 48.3275 42.9256 48.2469 43.0697C48.1889 43.1658 48.0886 43.2181 47.984 43.2181Z" fill="#C8102E" fill-opacity="0.2"/>
<path d="M45.9684 44.3842C45.9189 44.3842 45.868 44.3701 45.8185 44.3418L9.61433 23.4411C9.47157 23.3605 9.42069 23.1739 9.50408 23.0298C9.58465 22.887 9.77123 22.8389 9.9154 22.9195L46.1196 43.8231C46.2652 43.9037 46.3133 44.0902 46.2299 44.2287C46.1747 44.3291 46.0744 44.3814 45.9698 44.3814L45.9684 44.3842Z" fill="#C8102E" fill-opacity="0.2"/>
<path d="M43.9528 45.5489C43.9005 45.5489 43.8496 45.5348 43.8044 45.5065L7.59873 24.6015C7.45597 24.521 7.40367 24.3386 7.48848 24.1902C7.56904 24.0517 7.75562 23.9994 7.89979 24.0856L44.104 44.985C44.2496 45.0712 44.2976 45.2521 44.2143 45.3963C44.1591 45.4966 44.0588 45.5489 43.9542 45.5489H43.9528Z" fill="#C8102E" fill-opacity="0.2"/>
<path d="M41.9373 46.7094C41.8878 46.7094 41.8341 46.6995 41.7874 46.6712L5.58321 25.7676C5.43763 25.6871 5.38957 25.5047 5.47296 25.3563C5.55353 25.2135 5.74011 25.1655 5.88428 25.2461L42.0857 46.1496C42.2313 46.2302 42.2821 46.4168 42.1959 46.5609C42.1436 46.6571 42.0433 46.7094 41.9373 46.7094Z" fill="#C8102E" fill-opacity="0.2"/>
<path d="M39.9217 47.8754C39.8694 47.8754 39.8185 47.8613 39.7718 47.8373L3.56762 26.9323C3.42486 26.8461 3.37115 26.6651 3.45737 26.521C3.53793 26.3782 3.7231 26.3302 3.86586 26.4107L40.0715 47.3143C40.2142 47.3949 40.2651 47.5814 40.1817 47.7256C40.1266 47.8217 40.0262 47.874 39.9217 47.874V47.8754Z" fill="#C8102E" fill-opacity="0.2"/>
<path d="M56.0505 80.3709C55.8837 80.3709 55.7494 80.2366 55.7494 80.0699V38.2655C55.7494 38.0988 55.8837 37.9645 56.0505 37.9645C56.2172 37.9645 56.3487 38.0988 56.3487 38.2655L56.3515 80.0699C56.3515 80.2366 56.2172 80.3709 56.0505 80.3709Z" fill="#C8102E" fill-opacity="0.2"/>
<path d="M54.0321 81.5356C53.8667 81.5356 53.7339 81.4013 53.7339 81.2346V39.426C53.7339 39.2635 53.8682 39.1249 54.0321 39.1249C54.1961 39.1249 54.3304 39.2635 54.3304 39.426V81.2346C54.3304 81.4013 54.1961 81.5356 54.0321 81.5356Z" fill="#C8102E" fill-opacity="0.2"/>
<path d="M52.0178 82.7017C51.8525 82.7017 51.7196 82.5674 51.7196 82.4006V40.5921C51.7196 40.4295 51.8539 40.291 52.0178 40.291C52.1818 40.291 52.3189 40.4295 52.3189 40.5921V82.4006C52.3189 82.5674 52.1832 82.7017 52.0178 82.7017Z" fill="#C8102E" fill-opacity="0.2"/>
<path d="M50.0024 83.8621C49.837 83.8621 49.7013 83.7279 49.7013 83.5611V41.7568C49.7013 41.59 49.837 41.4557 50.0024 41.4557C50.1677 41.4557 50.3034 41.59 50.3034 41.7568V83.5611C50.3034 83.7279 50.1677 83.8621 50.0024 83.8621Z" fill="#C8102E" fill-opacity="0.2"/>
<path d="M47.9868 85.0269C47.8214 85.0269 47.6857 84.8926 47.6857 84.7258L47.6829 42.9172C47.6829 42.7547 47.8186 42.6218 47.9839 42.6218C48.1493 42.6218 48.285 42.7561 48.285 42.9172V84.7258C48.285 84.8926 48.1507 85.0269 47.9868 85.0269Z" fill="#C8102E" fill-opacity="0.2"/>
<path d="M45.9683 86.1929C45.8029 86.1929 45.67 86.0544 45.67 85.8918V44.0833C45.67 43.9165 45.8015 43.7822 45.9683 43.7822C46.1351 43.7822 46.2694 43.9165 46.2694 44.0833V85.8918C46.2694 86.0544 46.1351 86.1929 45.9683 86.1929Z" fill="#C8102E" fill-opacity="0.2"/>
<path d="M43.9527 87.3576C43.7859 87.3576 43.6516 87.2234 43.6516 87.0566V45.248C43.6516 45.0812 43.7859 44.947 43.9527 44.947C44.1195 44.947 44.2537 45.0812 44.2537 45.248V87.0566C44.2537 87.2234 44.1195 87.3576 43.9527 87.3576Z" fill="#C8102E" fill-opacity="0.2"/>
<path d="M41.9372 88.5181C41.7704 88.5181 41.6361 88.3838 41.6361 88.217V46.4127C41.6361 46.2459 41.7704 46.1116 41.9372 46.1116C42.104 46.1116 42.2382 46.2459 42.2382 46.4127V88.217C42.2382 88.3838 42.104 88.5181 41.9372 88.5181Z" fill="#C8102E" fill-opacity="0.2"/>
<path d="M39.9215 89.6842C39.7548 89.6842 39.6205 89.5499 39.6205 89.3831V47.5746C39.6205 47.412 39.7548 47.2735 39.9215 47.2735C40.0883 47.2735 40.2226 47.412 40.2226 47.5746V89.3831C40.2226 89.5499 40.0883 89.6842 39.9215 89.6842Z" fill="#C8102E" fill-opacity="0.2"/>
</g>
</svg>
