<svg width="234" height="92" viewBox="0 0 234 92" fill="none" xmlns="http://www.w3.org/2000/svg">
<mask id="mask0_1753_9842" style="mask-type:alpha" maskUnits="userSpaceOnUse" x="0" y="0" width="228" height="82">
<rect width="228" height="82" rx="10" fill="#E6F6F5"/>
</mask>
<g mask="url(#mask0_1753_9842)">
<path d="M180.788 14.2036C180.546 14.2036 180.347 14.4008 180.347 14.6446V45.3013C180.347 45.5451 180.547 45.7411 180.788 45.7411C181.03 45.7411 181.229 45.5463 181.229 45.3013V14.6458C181.229 14.402 181.032 14.2048 180.788 14.2048V14.2036Z" fill="#EAAA00" fill-opacity="0.2"/>
<path d="M180.788 44.8602C180.639 44.8602 180.488 44.9396 180.408 45.0807C180.288 45.2919 180.359 45.5614 180.568 45.6816L207.119 61.0111C207.33 61.1336 207.599 61.0601 207.722 60.8489C207.842 60.6377 207.77 60.3682 207.56 60.2457L181.009 44.9186C180.94 44.8789 180.863 44.8591 180.788 44.8591V44.8602Z" fill="#EAAA00" fill-opacity="0.2"/>
<path d="M180.788 44.8602C180.714 44.8602 180.639 44.8801 180.568 44.9197L154.02 60.2469C153.808 60.3694 153.737 60.6389 153.858 60.8501C153.981 61.0613 154.248 61.1336 154.461 61.0123L181.009 45.6828C181.22 45.5626 181.292 45.2919 181.171 45.0819C181.088 44.9396 180.942 44.8614 180.788 44.8614V44.8602Z" fill="#EAAA00" fill-opacity="0.2"/>
<path d="M180.744 59.3228C180.669 59.3228 180.595 59.3624 180.555 59.4336C180.492 59.5386 180.527 59.6716 180.634 59.7346L207.272 75.1108C207.377 75.1714 207.512 75.1341 207.572 75.0303C207.632 74.9264 207.597 74.7899 207.492 74.7304L180.855 59.3519C180.82 59.3321 180.783 59.3228 180.744 59.3228Z" fill="#EAAA00" fill-opacity="0.2"/>
<path d="M180.744 57.8329C180.669 57.8329 180.595 57.8737 180.555 57.9437C180.492 58.0487 180.527 58.1841 180.634 58.2459L207.272 73.6244C207.377 73.6839 207.512 73.6501 207.572 73.5416C207.632 73.4366 207.597 73.3035 207.492 73.2417L180.855 57.8632C180.82 57.8434 180.783 57.8341 180.744 57.8341V57.8329Z" fill="#EAAA00" fill-opacity="0.2"/>
<path d="M180.744 56.3442C180.669 56.3442 180.595 56.3838 180.555 56.455C180.492 56.56 180.527 56.693 180.634 56.7549L207.272 72.1333C207.377 72.194 207.512 72.1567 207.572 72.0528C207.632 71.9478 207.597 71.8125 207.492 71.7507L180.855 56.3745C180.82 56.3523 180.783 56.3453 180.744 56.3453V56.3442Z" fill="#EAAA00" fill-opacity="0.2"/>
<path d="M180.744 54.8542C180.669 54.8542 180.595 54.8939 180.555 54.9651C180.492 55.0701 180.527 55.2054 180.634 55.2649L207.272 70.6434C207.377 70.7064 207.512 70.6691 207.571 70.5641C207.632 70.4579 207.597 70.3237 207.492 70.2607L180.855 54.8846C180.82 54.8647 180.782 54.8554 180.744 54.8554V54.8542Z" fill="#EAAA00" fill-opacity="0.2"/>
<path d="M180.744 59.3228C180.707 59.3228 180.669 59.3321 180.633 59.352L153.996 74.7305C153.891 74.79 153.856 74.9253 153.916 75.0303C153.976 75.1353 154.111 75.1727 154.216 75.1108L180.854 59.7347C180.96 59.6717 180.996 59.5375 180.934 59.4337C180.892 59.3625 180.817 59.3228 180.743 59.3228H180.744Z" fill="#EAAA00" fill-opacity="0.2"/>
<path d="M180.744 57.833C180.707 57.833 180.669 57.8423 180.633 57.8621L153.996 73.2406C153.891 73.3013 153.856 73.4355 153.916 73.5405C153.976 73.649 154.111 73.6828 154.216 73.6233L180.854 58.2448C180.96 58.1841 180.996 58.0476 180.934 57.9426C180.892 57.8738 180.817 57.8318 180.743 57.8318L180.744 57.833Z" fill="#EAAA00" fill-opacity="0.2"/>
<path d="M180.744 56.3442C180.707 56.3442 180.669 56.3523 180.633 56.3733L153.996 71.7495C153.891 71.8102 153.856 71.9467 153.916 72.0517C153.976 72.1567 154.111 72.194 154.216 72.1322L180.854 56.7537C180.96 56.693 180.996 56.5589 180.934 56.4539C180.892 56.3827 180.817 56.343 180.743 56.343L180.744 56.3442Z" fill="#EAAA00" fill-opacity="0.2"/>
<path d="M180.744 54.8543C180.707 54.8543 180.669 54.8636 180.633 54.8834L153.996 70.2596C153.891 70.3226 153.856 70.4567 153.917 70.5629C153.976 70.6679 154.111 70.7053 154.216 70.6423L180.854 55.2638C180.96 55.2043 180.996 55.0689 180.934 54.9639C180.892 54.8928 180.817 54.8531 180.743 54.8531L180.744 54.8543Z" fill="#EAAA00" fill-opacity="0.2"/>
<path d="M196.631 75.5601C196.596 75.5601 196.556 75.5694 196.52 75.5892L180.633 84.7631C180.527 84.8226 180.491 84.958 180.554 85.063C180.613 85.1691 180.747 85.2065 180.854 85.1435L196.741 75.9719C196.847 75.9112 196.883 75.7747 196.821 75.6709C196.78 75.5997 196.707 75.5601 196.63 75.5601H196.631Z" fill="#EAAA00" fill-opacity="0.2"/>
<path d="M195.564 74.944C195.529 74.944 195.489 74.9534 195.455 74.9755L180.634 83.5299C180.528 83.5906 180.492 83.7247 180.555 83.8297C180.614 83.9359 180.749 83.9733 180.855 83.9102L195.673 75.3559C195.779 75.2952 195.816 75.161 195.756 75.0549C195.714 74.9837 195.639 74.944 195.562 74.944H195.564Z" fill="#EAAA00" fill-opacity="0.2"/>
<path d="M194.554 74.293C194.515 74.293 194.48 74.3046 194.443 74.3245L180.634 82.2955C180.528 82.3561 180.492 82.4927 180.555 82.5965C180.614 82.7015 180.749 82.7388 180.855 82.677L194.664 74.7037C194.769 74.643 194.806 74.5088 194.743 74.4026C194.704 74.3315 194.629 74.2918 194.554 74.2918V74.293Z" fill="#EAAA00" fill-opacity="0.2"/>
<path d="M193.426 73.7119C193.391 73.7119 193.352 73.7212 193.318 73.7411L180.633 81.0622C180.527 81.1229 180.491 81.2594 180.554 81.3644C180.613 81.4682 180.747 81.5079 180.854 81.4449L193.536 74.1226C193.642 74.0619 193.678 73.9278 193.616 73.8216C193.576 73.7527 193.502 73.7131 193.425 73.7131L193.426 73.7119Z" fill="#EAAA00" fill-opacity="0.2"/>
<path d="M164.983 75.56C164.906 75.56 164.833 75.5997 164.791 75.6708C164.731 75.7758 164.766 75.9112 164.872 75.9718L180.759 85.1434C180.865 85.2064 180.999 85.1691 181.06 85.0629C181.121 84.9579 181.086 84.8226 180.98 84.7631L165.092 75.5892C165.057 75.5693 165.02 75.56 164.982 75.56H164.983Z" fill="#EAAA00" fill-opacity="0.2"/>
<path d="M166.051 74.944C165.974 74.944 165.902 74.9836 165.858 75.0548C165.798 75.161 165.834 75.2952 165.941 75.3558L180.759 83.9102C180.865 83.9732 180.999 83.9359 181.06 83.8297C181.121 83.7247 181.086 83.5917 180.98 83.5298L166.161 74.9755C166.126 74.9533 166.086 74.944 166.05 74.944H166.051Z" fill="#EAAA00" fill-opacity="0.2"/>
<path d="M167.061 74.293C166.986 74.293 166.911 74.3326 166.872 74.4038C166.809 74.51 166.846 74.6441 166.951 74.7048L180.76 82.6782C180.866 82.7388 181.001 82.7015 181.061 82.5977C181.122 82.4926 181.087 82.3573 180.981 82.2966L167.171 74.3256C167.136 74.3058 167.1 74.2941 167.061 74.2941V74.293Z" fill="#EAAA00" fill-opacity="0.2"/>
<path d="M168.189 73.7119C168.112 73.7119 168.04 73.7516 167.998 73.8204C167.937 73.9266 167.972 74.0608 168.078 74.1214L180.76 81.4437C180.866 81.5067 181.001 81.4671 181.061 81.3632C181.122 81.2582 181.087 81.1229 180.981 81.0611L168.299 73.7399C168.264 73.7201 168.226 73.7108 168.188 73.7108L168.189 73.7119Z" fill="#EAAA00" fill-opacity="0.2"/>
<path d="M207.338 75.7245C207.224 75.7245 207.109 75.7537 207.007 75.8156L180.787 90.9537L154.57 75.8156C154.252 75.63 153.85 75.7409 153.666 76.0559C153.485 76.3709 153.594 76.7769 153.909 76.9589L180.457 92.2861C180.662 92.4039 180.914 92.4039 181.12 92.2861L207.668 76.9589C207.986 76.7781 208.094 76.3709 207.911 76.0559C207.788 75.8436 207.568 75.7245 207.339 75.7245H207.338Z" fill="#EAAA00" fill-opacity="0.2"/>
<path d="M180.788 60.6179C180.714 60.6179 180.637 60.6378 180.568 60.6774L154.02 76.0046C153.808 76.1271 153.737 76.3966 153.858 76.6054C153.981 76.8189 154.248 76.8913 154.461 76.7676L180.787 61.5665L207.118 76.7676C207.329 76.8913 207.598 76.8189 207.721 76.6054C207.841 76.3966 207.769 76.1259 207.559 76.0046L181.008 60.6774C180.941 60.6378 180.864 60.6179 180.787 60.6179H180.788Z" fill="#EAAA00" fill-opacity="0.2"/>
<path d="M154.238 68.0884C153.873 68.0884 153.578 68.3836 153.578 68.7464V76.3861C153.578 76.7512 153.873 77.0464 154.238 77.0464C154.604 77.0464 154.899 76.7512 154.899 76.3861V68.7464C154.899 68.3836 154.604 68.0884 154.238 68.0884Z" fill="#EAAA00" fill-opacity="0.2"/>
<path d="M207.338 68.0884C206.972 68.0884 206.675 68.3836 206.675 68.7464V76.3861C206.675 76.7512 206.971 77.0464 207.338 77.0464C207.706 77.0464 207.998 76.7512 207.998 76.3861V68.7464C207.998 68.3836 207.703 68.0884 207.338 68.0884Z" fill="#EAAA00" fill-opacity="0.2"/>
<path d="M180.788 52.9794C180.546 52.9794 180.347 53.1766 180.347 53.4193V61.0578C180.347 61.3016 180.547 61.4988 180.788 61.4988C181.03 61.4988 181.229 61.3016 181.229 61.0578V53.4193C181.229 53.1766 181.032 52.9794 180.788 52.9794Z" fill="#EAAA00" fill-opacity="0.2"/>
<path d="M180.788 52.7612C180.674 52.7612 180.56 52.7892 180.457 52.8475L153.909 68.177C153.594 68.3578 153.484 68.7627 153.666 69.0777C153.851 69.3927 154.253 69.5035 154.57 69.3204L180.787 54.1846L207.007 69.3204C207.324 69.5035 207.728 69.3927 207.91 69.0777C208.093 68.7627 207.984 68.3578 207.667 68.177L181.118 52.8475C181.016 52.788 180.901 52.7612 180.787 52.7612H180.788Z" fill="#EAAA00" fill-opacity="0.2"/>
<path d="M181.009 66.2508L197.902 76.0034C198.036 76.0827 198.121 76.2285 198.121 76.3861C198.121 76.5436 198.036 76.6894 197.902 76.7664L181.009 86.519C180.872 86.5983 180.705 86.5983 180.568 86.519L163.679 76.7664C163.542 76.6894 163.459 76.5436 163.459 76.3861C163.459 76.2285 163.542 76.0827 163.679 76.0034L180.568 66.2508C180.637 66.2135 180.714 66.1913 180.788 66.1913C180.863 66.1913 180.942 66.2135 181.009 66.2508ZM180.788 85.6311L196.798 76.3861L180.788 67.141L164.779 76.3861L180.788 85.6311Z" fill="#EAAA00" fill-opacity="0.2"/>
<path d="M169.339 72.803C169.188 72.803 169.039 72.8824 168.957 73.0236C168.836 73.2347 168.909 73.5042 169.119 73.6244L180.567 80.2339C180.704 80.3132 180.872 80.3132 181.008 80.2339L192.455 73.6267C192.664 73.5042 192.739 73.2371 192.618 73.0236C192.495 72.8147 192.227 72.7435 192.014 72.8614L180.787 79.3448L169.56 72.8614C169.489 72.8217 169.414 72.8019 169.339 72.8019V72.803Z" fill="#EAAA00" fill-opacity="0.2"/>
<path d="M180.788 79.4125C180.546 79.4125 180.347 79.6097 180.347 79.8547V86.1387C180.347 86.3813 180.547 86.5785 180.788 86.5785C181.03 86.5785 181.229 86.3813 181.229 86.1387V79.8547C181.229 79.6097 181.032 79.4125 180.788 79.4125Z" fill="#EAAA00" fill-opacity="0.2"/>
<path d="M154.241 59.9692C154.012 59.9692 153.789 60.087 153.666 60.2982C153.485 60.6155 153.594 61.0192 153.909 61.2012L160.939 65.2614C161.259 65.4422 161.66 65.3361 161.842 65.0187C162.025 64.7037 161.917 64.2989 161.602 64.1157L154.571 60.0567C154.466 59.9972 154.352 59.968 154.242 59.968L154.241 59.9692Z" fill="#EAAA00" fill-opacity="0.2"/>
<path d="M172.927 70.7567C172.698 70.7567 172.478 70.8768 172.355 71.088C172.172 71.4054 172.281 71.809 172.596 71.991L180.457 76.5307C180.662 76.6486 180.914 76.6486 181.12 76.5307L188.888 72.0459C189.205 71.8627 189.313 71.459 189.13 71.1428C188.949 70.8255 188.543 70.717 188.227 70.9002L180.788 75.1948L173.258 70.8465C173.152 70.787 173.039 70.7555 172.927 70.7555V70.7567Z" fill="#EAAA00" fill-opacity="0.2"/>
<path d="M207.338 59.9692C207.224 59.9692 207.109 59.9983 207.007 60.0578L199.977 64.1145C199.66 64.3 199.551 64.7014 199.733 65.0176C199.917 65.3349 200.32 65.4434 200.636 65.2626L207.667 61.2024C207.984 61.0216 208.093 60.6167 207.91 60.2994C207.787 60.0882 207.567 59.9703 207.338 59.9703V59.9692Z" fill="#EAAA00" fill-opacity="0.2"/>
<path d="M163.092 59.1093C163.015 59.1093 162.942 59.1489 162.9 59.2178C162.84 59.3239 162.875 59.4581 162.981 59.5188L166.714 61.6737C166.817 61.7367 166.952 61.6994 167.014 61.5932C167.074 61.4882 167.037 61.3552 166.934 61.2922L163.202 59.1396C163.167 59.1174 163.128 59.1104 163.092 59.1104V59.1093Z" fill="#EAAA00" fill-opacity="0.2"/>
<path d="M178.016 68.1198C177.941 68.1198 177.867 68.1595 177.825 68.2307C177.764 68.3345 177.799 68.471 177.905 68.5305L185.404 72.859C185.509 72.922 185.642 72.8847 185.704 72.7785C185.764 72.6747 185.727 72.5382 185.624 72.4775L178.126 68.1513C178.091 68.1291 178.052 68.1221 178.015 68.1221L178.016 68.1198Z" fill="#EAAA00" fill-opacity="0.2"/>
<path d="M159.693 61.0786C159.616 61.0786 159.541 61.1183 159.499 61.1895C159.44 61.2956 159.476 61.4298 159.58 61.4905L163.305 63.6407C163.41 63.7037 163.543 63.6641 163.606 63.5579C163.666 63.4529 163.629 63.321 163.523 63.258L159.8 61.109C159.766 61.0868 159.728 61.0775 159.692 61.0775L159.693 61.0786Z" fill="#EAAA00" fill-opacity="0.2"/>
<path d="M174.734 69.9609C174.657 69.9609 174.582 70.0005 174.543 70.0717C174.483 70.1779 174.519 70.3121 174.622 70.3727L182.128 74.7047C182.234 74.7654 182.368 74.7304 182.429 74.6242C182.489 74.5192 182.454 74.3839 182.348 74.3244L174.844 69.9924C174.809 69.9725 174.771 69.9609 174.733 69.9609H174.734Z" fill="#EAAA00" fill-opacity="0.2"/>
<path d="M161.392 60.0928C161.315 60.0928 161.242 60.1336 161.2 60.2036C161.14 60.3098 161.175 60.444 161.281 60.507L165.008 62.6561C165.113 62.7191 165.246 62.684 165.309 62.5767C165.369 62.4705 165.333 62.3364 165.227 62.2769L161.499 60.1243C161.465 60.1044 161.428 60.0928 161.39 60.0928H161.392Z" fill="#EAAA00" fill-opacity="0.2"/>
<path d="M176.376 69.0403C176.299 69.0403 176.226 69.0811 176.184 69.1511C176.124 69.2561 176.159 69.3915 176.265 69.4533L183.765 73.7841C183.87 73.8448 184.003 73.8098 184.066 73.7036C184.125 73.5975 184.089 73.4633 183.983 73.4026L176.484 69.0718C176.449 69.052 176.41 69.0426 176.373 69.0426L176.376 69.0403Z" fill="#EAAA00" fill-opacity="0.2"/>
<path d="M164.79 58.1245C164.713 58.1245 164.641 58.1642 164.599 58.233C164.538 58.3392 164.573 58.4734 164.679 58.534L168.414 60.6901C168.519 60.7531 168.652 60.7158 168.715 60.6096C168.775 60.5034 168.738 60.3693 168.632 60.3098L164.899 58.1537C164.864 58.1338 164.825 58.1245 164.788 58.1245H164.79Z" fill="#EAAA00" fill-opacity="0.2"/>
<path d="M179.657 67.1969C179.582 67.1969 179.507 67.2389 179.468 67.3077C179.407 67.4139 179.442 67.5481 179.547 67.6088L187.041 71.9349C187.147 71.9979 187.281 71.9606 187.341 71.8556C187.404 71.7494 187.369 71.6153 187.261 71.5534L179.767 67.2272C179.732 67.2074 179.696 67.1957 179.657 67.1957V67.1969Z" fill="#EAAA00" fill-opacity="0.2"/>
<path d="M166.489 57.1387C166.414 57.1387 166.34 57.1783 166.298 57.2495C166.237 57.3545 166.272 57.4875 166.378 57.5494L170.12 59.7078C170.222 59.7708 170.358 59.7311 170.42 59.6273C170.48 59.5223 170.443 59.3893 170.339 59.3274L166.6 57.169C166.565 57.1492 166.527 57.1398 166.489 57.1398V57.1387Z" fill="#EAAA00" fill-opacity="0.2"/>
<path d="M168.19 56.1505C168.113 56.1505 168.038 56.1901 167.999 56.2613C167.938 56.3675 167.975 56.5016 168.078 56.5611L171.823 58.7254C171.928 58.7849 172.064 58.7487 172.123 58.6426C172.186 58.5376 172.149 58.4045 172.044 58.3427L168.299 56.1808C168.265 56.1633 168.227 56.1516 168.19 56.1516V56.1505Z" fill="#EAAA00" fill-opacity="0.2"/>
<path d="M169.89 55.1669C169.813 55.1669 169.738 55.2065 169.699 55.2754C169.638 55.3816 169.675 55.5157 169.778 55.5764L173.527 57.7383C173.629 57.8013 173.767 57.764 173.826 57.659C173.887 57.5528 173.85 57.4186 173.747 57.3568L169.999 55.1949C169.965 55.1727 169.927 55.1657 169.89 55.1657V55.1669Z" fill="#EAAA00" fill-opacity="0.2"/>
<path d="M171.589 54.1799C171.512 54.1799 171.439 54.2207 171.397 54.2907C171.337 54.3969 171.374 54.5311 171.478 54.5906L175.229 56.7583C175.335 56.819 175.469 56.7816 175.529 56.6755C175.589 56.5705 175.554 56.4375 175.449 56.3756L171.696 54.2114C171.662 54.1892 171.625 54.1799 171.588 54.1799H171.589Z" fill="#EAAA00" fill-opacity="0.2"/>
<path d="M173.29 53.194C173.21 53.194 173.138 53.2336 173.096 53.3048C173.037 53.411 173.073 53.5452 173.177 53.6058L176.931 55.7724C177.037 55.8354 177.171 55.7981 177.233 55.6931C177.294 55.5869 177.259 55.4527 177.153 55.3921L173.398 53.2255C173.364 53.2033 173.325 53.194 173.29 53.194Z" fill="#EAAA00" fill-opacity="0.2"/>
<path d="M174.989 52.2093C174.912 52.2093 174.837 52.249 174.795 52.3201C174.735 52.4263 174.772 52.5605 174.875 52.62L178.634 54.7924C178.741 54.8554 178.875 54.8157 178.936 54.7119C178.996 54.6069 178.961 54.4716 178.855 54.4109L175.096 52.2408C175.062 52.2233 175.024 52.2116 174.987 52.2116L174.989 52.2093Z" fill="#EAAA00" fill-opacity="0.2"/>
<path d="M176.687 51.2257C176.61 51.2257 176.538 51.263 176.494 51.3342C176.434 51.4404 176.47 51.5746 176.576 51.6352L199.248 64.7234C199.353 64.7841 199.488 64.7491 199.548 64.6429C199.611 64.5379 199.574 64.4049 199.469 64.3431L176.797 51.2549C176.762 51.2327 176.722 51.2257 176.686 51.2257H176.687Z" fill="#EAAA00" fill-opacity="0.2"/>
<path d="M178.387 50.2375C178.31 50.2375 178.238 50.2784 178.193 50.3484C178.134 50.4546 178.17 50.5887 178.276 50.6482L200.948 63.74C201.054 63.8006 201.188 63.7633 201.248 63.6571C201.311 63.5521 201.276 63.4191 201.168 63.3573L178.497 50.269C178.462 50.2469 178.422 50.2375 178.386 50.2375H178.387Z" fill="#EAAA00" fill-opacity="0.2"/>
<path d="M180.086 49.2516C180.009 49.2516 179.937 49.2913 179.895 49.3625C179.834 49.4687 179.869 49.6028 179.975 49.6635L202.647 62.7517C202.753 62.8124 202.887 62.7774 202.947 62.6712C203.01 62.565 202.975 62.4309 202.867 62.3714L180.196 49.2831C180.161 49.261 180.121 49.2516 180.085 49.2516H180.086Z" fill="#EAAA00" fill-opacity="0.2"/>
<path d="M223.133 8.56255L233.559 14.5805C233.693 14.6598 233.778 14.8056 233.778 14.9632V26.999C233.778 27.1565 233.693 27.3023 233.555 27.3817C233.421 27.461 233.252 27.461 233.116 27.3817L222.692 21.3614C222.556 21.2821 222.473 21.1386 222.473 20.9811V8.94406C222.473 8.78889 222.556 8.64188 222.693 8.56371C222.76 8.52405 222.836 8.50421 222.913 8.50421C222.99 8.50421 223.064 8.52405 223.133 8.56371V8.56255ZM232.896 26.236V15.2152L223.352 9.70826V20.7267L232.896 26.236Z" fill="#EAAA00" fill-opacity="0.2"/>
<path d="M225.457 12.5901L231.23 15.9234C231.367 16.0027 231.451 16.1486 231.451 16.3037L231.448 22.9704C231.448 23.1279 231.366 23.2714 231.228 23.3507C231.094 23.4277 230.925 23.4277 230.788 23.3507L225.019 20.0174C224.881 19.9404 224.798 19.7946 224.798 19.637V12.9728C224.798 12.8153 224.881 12.6694 225.019 12.5901C225.085 12.5527 225.161 12.5306 225.238 12.5306C225.315 12.5306 225.39 12.5527 225.457 12.5901ZM230.569 22.205L230.571 16.5592L225.679 13.737V19.3827L230.57 22.205H230.569Z" fill="#EAAA00" fill-opacity="0.2"/>
<path d="M221.223 9.69781C221.101 9.69781 221.003 9.79815 221.003 9.91716V21.9565C221.003 22.079 221.101 22.177 221.223 22.177C221.346 22.177 221.444 22.079 221.444 21.9565V9.91716C221.444 9.79932 221.346 9.69781 221.223 9.69781Z" fill="#EAAA00" fill-opacity="0.2"/>
<path d="M219.66 10.6008C219.539 10.6008 219.44 10.6988 219.44 10.8213V22.8584C219.44 22.9785 219.538 23.0777 219.66 23.0777C219.781 23.0777 219.882 22.9797 219.882 22.8584V10.8213C219.882 10.6988 219.782 10.6008 219.66 10.6008Z" fill="#EAAA00" fill-opacity="0.2"/>
<path d="M218.096 11.5039C217.974 11.5039 217.876 11.6019 217.876 11.7244V23.7603C217.876 23.8828 217.974 23.9808 218.096 23.9808C218.219 23.9808 218.317 23.8828 218.317 23.7603V11.7244C218.317 11.6019 218.219 11.5039 218.096 11.5039Z" fill="#EAAA00" fill-opacity="0.2"/>
<path d="M216.535 12.4058C216.412 12.4058 216.315 12.5026 216.315 12.6263V24.6621C216.315 24.7846 216.412 24.8815 216.535 24.8815C216.659 24.8815 216.755 24.7846 216.755 24.6621V12.6263C216.755 12.5026 216.657 12.4058 216.535 12.4058Z" fill="#EAAA00" fill-opacity="0.2"/>
<path d="M214.971 13.3088C214.848 13.3088 214.75 13.4068 214.75 13.5281V25.5651C214.75 25.6853 214.848 25.7845 214.971 25.7845C215.093 25.7845 215.191 25.6865 215.191 25.5651V13.5281C215.191 13.4079 215.093 13.3088 214.971 13.3088Z" fill="#EAAA00" fill-opacity="0.2"/>
<path d="M213.407 14.2095C213.287 14.2095 213.188 14.3075 213.188 14.43V26.4682C213.188 26.5907 213.286 26.6887 213.407 26.6887C213.529 26.6887 213.627 26.5907 213.627 26.4682V14.43C213.627 14.3075 213.529 14.2095 213.407 14.2095Z" fill="#EAAA00" fill-opacity="0.2"/>
<path d="M211.844 15.1149C211.721 15.1149 211.623 15.2117 211.623 15.3342V27.3701C211.623 27.4926 211.721 27.5906 211.844 27.5906C211.966 27.5906 212.064 27.4926 212.064 27.3701V15.3342C212.064 15.2117 211.966 15.1149 211.844 15.1149Z" fill="#EAAA00" fill-opacity="0.2"/>
<path d="M210.279 16.0179C210.159 16.0179 210.062 16.1159 210.062 16.2384V28.2719C210.062 28.3944 210.159 28.4924 210.279 28.4924C210.399 28.4924 210.502 28.3944 210.502 28.2719V16.2384C210.502 16.1159 210.402 16.0179 210.279 16.0179Z" fill="#EAAA00" fill-opacity="0.2"/>
<path d="M208.718 16.9186C208.596 16.9186 208.498 17.0189 208.498 17.1391V29.1749C208.498 29.2974 208.596 29.3954 208.718 29.3954C208.841 29.3954 208.939 29.2974 208.939 29.1749V17.1391C208.939 17.0189 208.841 16.9186 208.718 16.9186Z" fill="#EAAA00" fill-opacity="0.2"/>
<path d="M207.157 17.8205C207.035 17.8205 206.937 17.9185 206.937 18.041L206.934 30.0768C206.934 30.1994 207.031 30.2962 207.155 30.2962C207.279 30.2962 207.374 30.1994 207.374 30.0768L207.377 18.041C207.377 17.9185 207.279 17.8205 207.157 17.8205Z" fill="#EAAA00" fill-opacity="0.2"/>
<path d="M205.593 18.7235C205.47 18.7235 205.372 18.8215 205.372 18.944V30.9799C205.372 31.1024 205.47 31.2004 205.593 31.2004C205.715 31.2004 205.813 31.1024 205.813 30.9799V18.944C205.813 18.8215 205.715 18.7235 205.593 18.7235Z" fill="#EAAA00" fill-opacity="0.2"/>
<path d="M204.032 19.6265C203.909 19.6265 203.811 19.7245 203.811 19.847V30.4023C203.811 30.5248 203.909 30.6217 204.032 30.6217C204.154 30.6217 204.249 30.5248 204.249 30.4023V19.847C204.249 19.7245 204.152 19.6265 204.032 19.6265Z" fill="#EAAA00" fill-opacity="0.2"/>
<path d="M202.466 20.5296C202.343 20.5296 202.245 20.6276 202.245 20.7489V26.53C202.245 26.6525 202.343 26.7505 202.466 26.7505C202.588 26.7505 202.686 26.6525 202.686 26.53V20.7489C202.686 20.6288 202.588 20.5296 202.466 20.5296Z" fill="#EAAA00" fill-opacity="0.2"/>
<path d="M193.088 31.9611C192.965 31.9611 192.867 32.0591 192.867 32.1816V38.1995C192.867 38.3197 192.965 38.42 193.088 38.42C193.21 38.42 193.308 38.3197 193.308 38.1995V32.1816C193.308 32.0591 193.21 31.9611 193.088 31.9611Z" fill="#EAAA00" fill-opacity="0.2"/>
<path d="M191.524 26.845C191.404 26.845 191.305 26.943 191.305 27.0655V39.1014C191.305 39.2239 191.403 39.3219 191.525 39.3219C191.646 39.3219 191.745 39.2239 191.745 39.1014L191.743 27.0655C191.743 26.943 191.645 26.845 191.523 26.845H191.524Z" fill="#EAAA00" fill-opacity="0.2"/>
<path d="M189.961 27.7469C189.841 27.7469 189.74 27.8449 189.74 27.9674V40.0044C189.74 40.1246 189.841 40.2238 189.961 40.2238C190.081 40.2238 190.181 40.1257 190.181 40.0044V27.9674C190.181 27.8449 190.083 27.7469 189.961 27.7469Z" fill="#EAAA00" fill-opacity="0.2"/>
<path d="M221.22 21.7277C221.145 21.7277 221.07 21.7673 221.031 21.8385C220.968 21.9447 221.005 22.0788 221.11 22.1383L231.534 28.1586C231.636 28.2193 231.774 28.1819 231.833 28.0781C231.896 27.9731 231.857 27.8378 231.754 27.7771L221.331 21.7592C221.296 21.7393 221.259 21.73 221.22 21.73V21.7277Z" fill="#EAAA00" fill-opacity="0.2"/>
<path d="M219.656 22.6307C219.579 22.6307 219.507 22.6703 219.465 22.7415C219.405 22.8465 219.442 22.9819 219.548 23.0414L229.969 29.0616C230.074 29.1246 230.209 29.0849 230.27 28.9811C230.329 28.8749 230.293 28.7408 230.189 28.6789L219.766 22.661C219.731 22.6412 219.694 22.6318 219.655 22.6318L219.656 22.6307Z" fill="#EAAA00" fill-opacity="0.2"/>
<path d="M218.093 23.5326C218.018 23.5326 217.944 23.5723 217.902 23.6434C217.841 23.7484 217.876 23.8838 217.982 23.9433L228.406 29.9635C228.512 30.0242 228.646 29.9869 228.707 29.883C228.767 29.7769 228.732 29.6427 228.626 29.5808L218.203 23.5629C218.168 23.5408 218.128 23.5338 218.092 23.5338L218.093 23.5326Z" fill="#EAAA00" fill-opacity="0.2"/>
<path d="M216.53 24.4356C216.453 24.4356 216.378 24.4753 216.338 24.5464C216.278 24.6515 216.315 24.7868 216.418 24.8463L226.845 30.8642C226.95 30.9249 227.083 30.8899 227.144 30.7837C227.205 30.6787 227.168 30.5434 227.065 30.4839L216.638 24.4659C216.604 24.4438 216.567 24.4368 216.53 24.4368V24.4356Z" fill="#EAAA00" fill-opacity="0.2"/>
<path d="M214.967 25.3386C214.89 25.3386 214.818 25.376 214.774 25.4471C214.714 25.5521 214.75 25.6851 214.856 25.7481L225.28 31.7661C225.386 31.8291 225.52 31.7917 225.581 31.6856C225.642 31.5806 225.607 31.4452 225.5 31.3857L215.077 25.3655C215.042 25.3456 215.002 25.3375 214.966 25.3375L214.967 25.3386Z" fill="#EAAA00" fill-opacity="0.2"/>
<path d="M213.404 26.2394C213.327 26.2394 213.255 26.2802 213.213 26.3502C213.153 26.4564 213.189 26.5906 213.293 26.6512L223.719 32.6692C223.822 32.7298 223.957 32.6948 224.019 32.5887C224.078 32.4825 224.042 32.3483 223.938 32.2888L213.515 26.2685C213.48 26.2487 213.442 26.2394 213.404 26.2394Z" fill="#EAAA00" fill-opacity="0.2"/>
<path d="M211.841 27.1436C211.766 27.1436 211.691 27.1832 211.651 27.2521C211.588 27.3571 211.626 27.4924 211.731 27.5531L222.154 33.5687C222.259 33.6317 222.395 33.5943 222.455 33.4893C222.516 33.3832 222.481 33.249 222.375 33.1883L211.951 27.1704C211.916 27.1506 211.88 27.1424 211.841 27.1424V27.1436Z" fill="#EAAA00" fill-opacity="0.2"/>
<path d="M210.276 28.0466C210.201 28.0466 210.127 28.0863 210.087 28.1551C210.026 28.2613 210.064 28.3954 210.167 28.4561L220.591 34.4717C220.696 34.5347 220.831 34.4974 220.892 34.3924C220.951 34.2862 220.915 34.152 220.811 34.0902L210.386 28.0723C210.352 28.0524 210.314 28.0443 210.275 28.0443L210.276 28.0466Z" fill="#EAAA00" fill-opacity="0.2"/>
<path d="M208.715 28.9473C208.638 28.9473 208.566 28.9869 208.524 29.0581C208.463 29.1631 208.498 29.2961 208.604 29.3591L219.028 35.3747C219.133 35.4377 219.268 35.4004 219.327 35.2954C219.39 35.1892 219.353 35.055 219.248 34.9944L208.825 28.9764C208.79 28.9566 208.752 28.9473 208.714 28.9473H208.715Z" fill="#EAAA00" fill-opacity="0.2"/>
<path d="M207.151 29.8503C207.074 29.8503 207.002 29.89 206.96 29.9612C206.899 30.0662 206.937 30.1992 207.043 30.261L217.466 36.2789C217.569 36.342 217.703 36.3046 217.766 36.1996C217.827 36.0934 217.79 35.9593 217.686 35.8986L207.261 29.8807C207.23 29.8608 207.19 29.8515 207.153 29.8515L207.151 29.8503Z" fill="#EAAA00" fill-opacity="0.2"/>
<path d="M205.588 30.751C205.513 30.751 205.439 30.793 205.399 30.8619C205.336 30.968 205.371 31.1022 205.478 31.1629L215.902 37.1808C216.008 37.2438 216.142 37.2065 216.203 37.1003C216.264 36.9953 216.229 36.8623 216.122 36.8005L205.699 30.7825C205.664 30.7627 205.625 30.751 205.588 30.751Z" fill="#EAAA00" fill-opacity="0.2"/>
<path d="M205.307 32.395C205.23 32.395 205.158 32.4346 205.116 32.5058C205.055 32.6085 205.092 32.7438 205.196 32.8056L214.338 38.0839C214.443 38.1469 214.576 38.1095 214.639 38.0034C214.699 37.8984 214.663 37.763 214.557 37.7012L205.414 32.423C205.38 32.4031 205.343 32.395 205.306 32.395H205.307Z" fill="#EAAA00" fill-opacity="0.2"/>
<path d="M207.878 35.6828C207.804 35.6828 207.729 35.7236 207.689 35.7936C207.629 35.8998 207.666 36.034 207.77 36.0947L212.775 38.9846C212.881 39.0453 213.015 39.0103 213.078 38.9041C213.138 38.7991 213.102 38.6638 212.996 38.6043L207.989 35.7143C207.954 35.6945 207.918 35.6828 207.878 35.6828Z" fill="#EAAA00" fill-opacity="0.2"/>
<path d="M193.083 37.9719C193.009 37.9719 192.934 38.0127 192.894 38.0839C192.831 38.1865 192.869 38.323 192.974 38.3837L198.185 41.3915C198.288 41.4545 198.426 41.4172 198.485 41.311C198.546 41.206 198.511 41.073 198.406 41.01L193.194 38.0022C193.159 37.9824 193.122 37.973 193.083 37.973V37.9719Z" fill="#EAAA00" fill-opacity="0.2"/>
<path d="M191.521 38.876C191.444 38.876 191.369 38.9134 191.33 38.9845C191.27 39.0896 191.306 39.2249 191.41 39.2856L201.836 45.3035C201.939 45.3642 202.073 45.3268 202.136 45.223C202.195 45.1168 202.159 44.9826 202.055 44.9231L191.632 38.9029C191.597 38.883 191.558 38.8749 191.521 38.8749V38.876Z" fill="#EAAA00" fill-opacity="0.2"/>
<path d="M189.958 39.7767C189.881 39.7767 189.808 39.8176 189.766 39.8876C189.706 39.9926 189.741 40.1256 189.847 40.1886L200.27 46.2042C200.376 46.2672 200.511 46.2322 200.57 46.1248C200.633 46.0187 200.598 45.8845 200.491 45.8238L190.067 39.8059C190.032 39.7861 189.995 39.7767 189.956 39.7767H189.958Z" fill="#EAAA00" fill-opacity="0.2"/>
<path d="M188.4 28.4294C188.156 28.4294 187.959 28.6266 187.959 28.8704V40.9062C187.959 41.1501 188.156 41.3473 188.4 41.3473C188.644 41.3473 188.84 41.1501 188.84 40.9062V28.8704C188.84 28.6266 188.64 28.4294 188.4 28.4294Z" fill="#EAAA00" fill-opacity="0.2"/>
<path d="M188.4 40.4664C188.246 40.4664 188.1 40.5458 188.017 40.6869C187.895 40.8981 187.966 41.1665 188.179 41.2878L198.603 47.3057C198.812 47.4282 199.082 47.3547 199.204 47.1459C199.324 46.9324 199.253 46.6652 199.043 46.5427L188.619 40.5248C188.551 40.4839 188.476 40.4653 188.4 40.4653V40.4664Z" fill="#EAAA00" fill-opacity="0.2"/>
<path d="M191.751 26.4962C191.676 26.4962 191.599 26.516 191.53 26.5557L188.18 28.4889C187.967 28.6114 187.896 28.8809 188.017 29.0921C188.14 29.3009 188.407 29.3756 188.618 29.2531L191.971 27.3175C192.18 27.195 192.251 26.9267 192.134 26.7167C192.051 26.5767 191.902 26.4962 191.751 26.4962Z" fill="#EAAA00" fill-opacity="0.2"/>
<path d="M222.913 8.50305C222.838 8.50305 222.761 8.52289 222.693 8.56255L201.311 20.9076C201.1 21.0301 201.027 21.2996 201.149 21.5108C201.271 21.7196 201.54 21.7943 201.75 21.6729L223.132 9.32559C223.343 9.20308 223.414 8.9359 223.294 8.72239C223.211 8.58239 223.063 8.50305 222.911 8.50305H222.913Z" fill="#EAAA00" fill-opacity="0.2"/>
<path d="M201.946 44.6818C201.871 44.6818 201.796 44.6993 201.725 44.7413L198.603 46.545C198.391 46.6675 198.319 46.9347 198.441 47.1482C198.563 47.357 198.832 47.4305 199.042 47.308L202.166 45.5043C202.377 45.3818 202.45 45.1134 202.328 44.9011C202.245 44.7611 202.097 44.6818 201.946 44.6818Z" fill="#EAAA00" fill-opacity="0.2"/>
<path d="M233.334 26.5568C233.26 26.5568 233.184 26.5767 233.114 26.6163L211.734 38.9637C211.522 39.0862 211.451 39.3545 211.572 39.5645C211.695 39.7757 211.962 39.8481 212.173 39.7255L233.554 27.3805C233.767 27.258 233.838 26.9885 233.716 26.7773C233.636 26.635 233.488 26.5568 233.334 26.5568Z" fill="#EAAA00" fill-opacity="0.2"/>
<path d="M195.173 36.5544C195.098 36.5544 195.023 36.5743 194.952 36.6139L188.18 40.5271C187.967 40.6473 187.896 40.9191 188.017 41.128C188.14 41.3391 188.407 41.4115 188.618 41.2901L195.393 37.3793C195.602 37.2568 195.677 36.9873 195.555 36.7785C195.473 36.6349 195.324 36.5556 195.173 36.5556V36.5544Z" fill="#EAAA00" fill-opacity="0.2"/>
<path d="M222.91 20.5413C222.836 20.5413 222.761 20.5588 222.691 20.5984L204.451 31.1315C204.239 31.2517 204.168 31.5224 204.288 31.7324C204.411 31.9436 204.68 32.0159 204.889 31.8934L223.13 21.3603C223.342 21.2378 223.413 20.9706 223.292 20.7594C223.211 20.6194 223.063 20.5401 222.909 20.5401L222.91 20.5413Z" fill="#EAAA00" fill-opacity="0.2"/>
<path d="M231.012 16.082C230.972 16.082 230.935 16.0937 230.901 16.1135L225.128 19.4445C225.023 19.5052 224.988 19.6417 225.048 19.7467C225.108 19.8517 225.245 19.8902 225.35 19.8272L231.122 16.4962C231.228 16.4355 231.264 16.299 231.202 16.1952C231.162 16.124 231.088 16.0832 231.013 16.0832L231.012 16.082Z" fill="#EAAA00" fill-opacity="0.2"/>
<path d="M195.27 14.2269C195.158 14.2269 195.043 14.2561 194.941 14.3156C192.177 15.9105 190.653 19.2193 190.653 23.6307C190.653 28.042 192.09 32.7532 194.698 37.2707C200.144 46.7048 209.116 51.7602 214.699 48.5377C215.014 48.3569 215.122 47.9509 214.939 47.6347C214.758 47.3197 214.356 47.2088 214.036 47.3943C209.088 50.2505 200.925 45.4133 195.842 36.608C193.347 32.2912 191.975 27.6803 191.975 23.6307C191.975 19.581 193.26 16.81 195.6 15.459C195.915 15.2781 196.023 14.8733 195.842 14.5559C195.72 14.3448 195.497 14.2269 195.268 14.2269H195.27Z" fill="#EAAA00" fill-opacity="0.2"/>
<path d="M201.5 10.8505C201.425 10.8505 201.35 10.8703 201.279 10.91C195.805 14.0718 195.733 24.2327 201.117 33.5618C206.506 42.8932 215.341 47.9135 220.818 44.7494C221.029 44.6292 221.101 44.3586 220.978 44.1497C220.858 43.9385 220.587 43.8662 220.378 43.9864C215.323 46.9055 207.027 42.031 201.881 33.1219C196.737 24.2129 196.666 14.591 201.719 11.6718C201.93 11.5493 202.003 11.2798 201.881 11.071C201.798 10.9286 201.65 10.8505 201.499 10.8505H201.5Z" fill="#EAAA00" fill-opacity="0.2"/>
<path d="M206.171 14.6458C205.3 14.6458 204.496 14.8488 203.79 15.2571C200.047 17.4179 200.258 24.8149 204.259 31.7498C206.175 35.0691 208.662 37.7992 211.26 39.4408C213.945 41.136 216.449 41.4791 218.309 40.4045C220.047 39.4011 221.005 37.2567 221.01 34.3714C221.01 34.1276 220.812 33.9304 220.569 33.9304C220.325 33.9304 220.128 34.1276 220.128 34.3714C220.128 36.93 219.324 38.8026 217.869 39.6426C216.308 40.5469 214.127 40.2085 211.733 38.6964C209.251 37.1295 206.87 34.5056 205.026 31.3088C201.265 24.7962 200.909 17.9382 204.231 16.0213C205.684 15.1813 207.707 15.4216 209.921 16.6992C210.133 16.8217 210.402 16.7482 210.524 16.5382C210.647 16.327 210.573 16.0575 210.362 15.935C208.876 15.0809 207.451 14.6481 206.171 14.6481V14.6458Z" fill="#EAAA00" fill-opacity="0.2"/>
<path d="M222.912 8.28486C222.8 8.28486 222.686 8.31286 222.583 8.3712L213.903 13.3857C209.305 9.75492 204.572 8.75621 201.17 10.7186C200.855 10.9018 200.747 11.3055 200.929 11.6217C201.11 11.939 201.516 12.0452 201.832 11.8643C204.823 10.1353 209.157 11.1946 213.422 14.6948C213.635 14.8686 213.935 14.892 214.171 14.7543L222.914 9.70825L232.677 15.3458V26.6163L223.933 31.6647C223.697 31.8012 223.568 32.073 223.614 32.3449C224.512 37.7888 223.261 42.0706 220.271 43.7985C219.956 43.9794 219.845 44.3842 220.026 44.6992C220.212 45.0142 220.613 45.1251 220.93 44.9419C224.329 42.9807 225.828 38.3803 224.987 32.5806L233.666 27.5695C233.871 27.4517 233.997 27.2347 233.997 26.9978L234 14.962C234 14.7251 233.871 14.5081 233.668 14.3903L223.245 8.37003C223.142 8.31053 223.028 8.28369 222.914 8.28369L222.912 8.28486Z" fill="#EAAA00" fill-opacity="0.2"/>
<path d="M201.5 10.63C201.389 10.63 201.275 10.658 201.168 10.7186L194.939 14.3156C194.624 14.4964 194.514 14.9013 194.697 15.2186C194.88 15.5337 195.282 15.6422 195.6 15.459L201.83 11.8632C202.145 11.68 202.253 11.2751 202.07 10.9601C201.948 10.7478 201.727 10.6288 201.499 10.6288L201.5 10.63Z" fill="#EAAA00" fill-opacity="0.2"/>
<path d="M220.597 43.7098C220.486 43.7098 220.371 43.7378 220.27 43.7985L214.037 47.3955C213.722 47.5763 213.615 47.9812 213.797 48.2962C213.978 48.6135 214.384 48.722 214.7 48.5389L220.93 44.9419C221.245 44.761 221.354 44.3562 221.173 44.0389C221.049 43.8277 220.826 43.7098 220.598 43.7098H220.597Z" fill="#EAAA00" fill-opacity="0.2"/>
<path d="M215.507 44.908C215.47 44.908 215.433 44.9162 215.397 44.936L208.858 48.7127C208.752 48.7722 208.716 48.9064 208.778 49.0125C208.838 49.1187 208.975 49.1549 209.078 49.093L215.618 45.3187C215.723 45.258 215.761 45.1215 215.698 45.0177C215.658 44.9489 215.583 44.9092 215.509 44.9092L215.507 44.908Z" fill="#EAAA00" fill-opacity="0.2"/>
<path d="M216.843 45.1285C216.804 45.1285 216.769 45.1367 216.732 45.1565L210.192 48.9332C210.087 48.9927 210.049 49.128 210.112 49.2331C210.172 49.3392 210.306 49.3754 210.412 49.3136L216.951 45.5392C217.057 45.4786 217.094 45.342 217.031 45.2382C216.991 45.1694 216.917 45.1297 216.842 45.1297L216.843 45.1285Z" fill="#EAAA00" fill-opacity="0.2"/>
<path d="M214.447 44.4717C214.409 44.4717 214.372 44.481 214.336 44.5009L207.8 48.2752C207.694 48.3358 207.658 48.47 207.717 48.5762C207.78 48.6789 207.914 48.7185 208.021 48.6555L214.556 44.8812C214.663 44.8205 214.699 44.6864 214.637 44.5814C214.596 44.5102 214.523 44.4705 214.446 44.4705L214.447 44.4717Z" fill="#EAAA00" fill-opacity="0.2"/>
<path d="M212.913 43.9396C212.873 43.9396 212.838 43.949 212.802 43.9688L206.261 47.7455C206.156 47.805 206.119 47.9391 206.182 48.0453C206.241 48.1515 206.377 48.1877 206.482 48.1258L213.022 44.3515C213.127 44.2908 213.162 44.1543 213.102 44.0505C213.062 43.9793 212.987 43.9396 212.913 43.9396Z" fill="#EAAA00" fill-opacity="0.2"/>
<path d="M211.254 43.2327C211.219 43.2327 211.179 43.2408 211.143 43.2618L204.607 47.0362C204.501 47.0957 204.464 47.231 204.524 47.336C204.585 47.4422 204.721 47.4795 204.825 47.4188L211.363 43.6422C211.469 43.5815 211.506 43.4485 211.446 43.3423C211.403 43.2712 211.329 43.2315 211.252 43.2315L211.254 43.2327Z" fill="#EAAA00" fill-opacity="0.2"/>
<path d="M209.325 42.0577C209.288 42.0577 209.25 42.0659 209.214 42.0857L202.676 45.8601C202.571 45.9207 202.533 46.0549 202.595 46.1622C202.655 46.2684 202.792 46.3046 202.895 46.2416L209.436 42.4684C209.542 42.4078 209.578 42.2712 209.516 42.1674C209.475 42.0986 209.4 42.0589 209.325 42.0589V42.0577Z" fill="#EAAA00" fill-opacity="0.2"/>
<path d="M207.129 40.1478C207.094 40.1478 207.055 40.1572 207.021 40.177L200.482 43.9537C200.376 44.0143 200.34 44.1508 200.402 44.2535C200.463 44.3597 200.597 44.397 200.703 44.3363L207.239 40.5597C207.345 40.499 207.381 40.3625 207.319 40.2575C207.279 40.1863 207.205 40.1467 207.128 40.1467L207.129 40.1478Z" fill="#EAAA00" fill-opacity="0.2"/>
<path d="M204.587 37.3489C204.552 37.3489 204.512 37.3582 204.476 37.3781L197.938 41.1524C197.833 41.213 197.798 41.3472 197.857 41.4534C197.92 41.5596 198.054 41.5957 198.158 41.5327L204.697 37.7596C204.803 37.6989 204.839 37.5624 204.777 37.4586C204.736 37.3897 204.663 37.3477 204.586 37.3477L204.587 37.3489Z" fill="#EAAA00" fill-opacity="0.2"/>
<path d="M201.689 33.452C201.654 33.452 201.614 33.4614 201.58 33.4812L195.042 37.2555C194.936 37.315 194.9 37.4504 194.959 37.5554C195.022 37.6615 195.156 37.6989 195.263 37.6382L201.801 33.8616C201.906 33.8021 201.941 33.6667 201.881 33.5617C201.84 33.4905 201.767 33.4509 201.688 33.4509L201.689 33.452Z" fill="#EAAA00" fill-opacity="0.2"/>
<path d="M207.615 14.9748C207.58 14.9748 207.54 14.983 207.504 15.004L201.692 18.3606C201.586 18.4201 201.55 18.5555 201.609 18.6605C201.672 18.7666 201.807 18.8028 201.913 18.741L207.723 15.3843C207.829 15.3248 207.865 15.1906 207.804 15.0845C207.763 15.0133 207.689 14.9736 207.612 14.9736L207.615 14.9748Z" fill="#EAAA00" fill-opacity="0.2"/>
<path d="M209.05 15.5418C209.012 15.5418 208.975 15.5511 208.939 15.5733L203.616 18.6441C203.51 18.7048 203.474 18.8413 203.536 18.9451C203.596 19.049 203.731 19.0875 203.837 19.0256L209.159 15.9525C209.265 15.8918 209.302 15.7577 209.24 15.6515C209.199 15.5803 209.125 15.5406 209.048 15.5406L209.05 15.5418Z" fill="#EAAA00" fill-opacity="0.2"/>
<path d="M202.013 17.7504C201.804 17.7504 201.619 17.8997 201.579 18.1132C201.536 18.3536 201.693 18.5822 201.934 18.6254C202.843 18.7888 203.815 19.1738 204.824 19.7688C205.033 19.8913 205.304 19.8236 205.427 19.6148C205.551 19.4036 205.482 19.1341 205.272 19.0093C204.174 18.3629 203.104 17.9405 202.092 17.7574C202.064 17.7539 202.039 17.7492 202.013 17.7492V17.7504Z" fill="#EAAA00" fill-opacity="0.2"/>
<path d="M215.357 37.0455C215.117 37.0455 214.919 37.2404 214.916 37.4807C214.908 38.5669 214.753 39.5306 214.455 40.3462C214.372 40.5748 214.49 40.8269 214.719 40.9097C214.947 40.9925 215.199 40.8747 215.285 40.646C215.614 39.736 215.787 38.6754 215.799 37.4889C215.799 37.2485 215.605 37.0479 215.362 37.0455H215.358H215.357Z" fill="#EAAA00" fill-opacity="0.2"/>
<path d="M180.788 13.9854C180.562 13.9854 180.339 14.1033 180.217 14.3144C180.036 14.6318 180.142 15.0343 180.457 15.2151L191.221 21.4302C191.538 21.6134 191.941 21.5026 192.122 21.1876C192.307 20.8725 192.197 20.47 191.882 20.2845L181.12 14.0741C181.015 14.0134 180.903 13.9854 180.788 13.9854Z" fill="#EAAA00" fill-opacity="0.2"/>
<path d="M207.338 47.5436C206.972 47.5436 206.675 47.8388 206.675 48.204V60.6295C206.675 60.9935 206.971 61.2922 207.338 61.2922C207.706 61.2922 207.999 60.9947 207.999 60.6295V48.204C207.999 47.8388 207.703 47.5436 207.338 47.5436Z" fill="#EAAA00" fill-opacity="0.2"/>
<path d="M198.437 46.426C198.317 46.426 198.22 46.524 198.22 46.6465L198.224 55.0831C198.224 55.2056 198.322 55.3024 198.443 55.3024H198.446C198.566 55.3024 198.665 55.2056 198.665 55.0831L198.659 46.6465C198.659 46.524 198.561 46.426 198.439 46.426H198.437Z" fill="#EAAA00" fill-opacity="0.2"/>
<path d="M197.022 45.6093C196.9 45.6093 196.802 45.7073 196.802 45.8298L196.807 54.2663C196.807 54.3889 196.905 54.4869 197.028 54.4869C197.148 54.4869 197.247 54.3889 197.247 54.2663L197.244 45.8298C197.244 45.7073 197.146 45.6093 197.023 45.6093H197.022Z" fill="#EAAA00" fill-opacity="0.2"/>
<path d="M195.607 44.7972C195.484 44.7972 195.386 44.8941 195.386 45.0166L195.39 53.4508C195.39 53.5744 195.488 53.6713 195.61 53.6713C195.733 53.6713 195.831 53.5744 195.831 53.4508L195.827 45.0166C195.827 44.8941 195.729 44.7972 195.607 44.7972Z" fill="#EAAA00" fill-opacity="0.2"/>
<path d="M194.187 43.9818C194.065 43.9818 193.967 44.0798 193.967 44.2023L193.975 52.6388C193.975 52.7613 194.072 52.8593 194.192 52.8593H194.194C194.314 52.8593 194.415 52.7613 194.415 52.6388L194.409 44.2023C194.409 44.0798 194.311 43.9818 194.188 43.9818H194.187Z" fill="#EAAA00" fill-opacity="0.2"/>
<path d="M192.772 43.1674C192.649 43.1674 192.551 43.2654 192.551 43.3879L192.555 51.8244C192.555 51.9446 192.653 52.0437 192.775 52.0437C192.898 52.0437 192.996 51.9457 192.996 51.8244L192.992 43.3879C192.992 43.2654 192.894 43.1674 192.772 43.1674Z" fill="#EAAA00" fill-opacity="0.2"/>
<path d="M191.353 42.353C191.233 42.353 191.133 42.451 191.133 42.5723L191.141 51.0088C191.141 51.1313 191.239 51.2293 191.36 51.2293C191.483 51.2293 191.581 51.129 191.581 51.0088L191.575 42.5723C191.575 42.4521 191.477 42.353 191.354 42.353H191.353Z" fill="#EAAA00" fill-opacity="0.2"/>
<path d="M189.938 41.5398C189.815 41.5398 189.717 41.6378 189.717 41.7591L189.726 50.1957C189.726 50.3182 189.822 50.4162 189.943 50.4162C190.065 50.4162 190.163 50.3182 190.163 50.1957L190.16 41.7591C190.16 41.639 190.062 41.5398 189.939 41.5398H189.938Z" fill="#EAAA00" fill-opacity="0.2"/>
<path d="M188.52 40.7253C188.4 40.7253 188.301 40.8233 188.301 40.9447L188.304 49.3812C188.304 49.5014 188.402 49.6006 188.525 49.6006C188.647 49.6006 188.745 49.5025 188.745 49.3812L188.74 40.9447C188.74 40.8245 188.642 40.7253 188.52 40.7253Z" fill="#EAAA00" fill-opacity="0.2"/>
<path d="M165.236 20.33C165.181 20.33 165.122 20.3382 165.065 20.3522C164.712 20.449 164.503 20.8119 164.598 21.1642C165.382 24.0892 167.259 26.5358 169.882 28.049C172.506 29.5646 175.563 29.9671 178.49 29.1819C178.841 29.0874 179.05 28.7245 178.955 28.3734C178.861 28.021 178.502 27.8098 178.147 27.9043C175.56 28.5985 172.861 28.2415 170.542 26.9045C168.224 25.5662 166.566 23.4055 165.874 20.82C165.795 20.5249 165.528 20.3289 165.236 20.3289V20.33Z" fill="#EAAA00" fill-opacity="0.2"/>
<path d="M154.687 43.0192C153.717 43.0192 152.735 43.1452 151.754 43.4053C151.402 43.4999 151.193 43.8627 151.288 44.2139C151.38 44.5686 151.743 44.7739 152.097 44.6829C157.432 43.2513 162.94 46.4318 164.37 51.7695C164.465 52.1219 164.828 52.3272 165.18 52.2362C165.531 52.1417 165.74 51.7789 165.646 51.4265C164.29 46.3665 159.693 43.0192 154.687 43.0192Z" fill="#EAAA00" fill-opacity="0.2"/>
<path d="M155.869 40.5621C155.797 40.5621 155.726 40.5621 155.656 40.5644C155.534 40.5644 155.436 40.6624 155.436 40.7849C155.438 40.9074 155.534 41.0043 155.656 41.0043H155.659C162.934 40.9588 167.526 43.2654 170.594 48.4782C170.654 48.5832 170.791 48.6182 170.895 48.5576C171 48.4946 171.035 48.3604 170.972 48.2566C167.846 42.9422 163.181 40.5632 155.869 40.5632V40.5621Z" fill="#EAAA00" fill-opacity="0.2"/>
<path d="M154.241 43.025C153.875 43.025 153.578 43.319 153.578 43.6854V60.6273C153.578 60.9925 153.873 61.2876 154.241 61.2876C154.608 61.2876 154.899 60.9925 154.899 60.6273V43.6854C154.899 43.319 154.605 43.025 154.241 43.025Z" fill="#EAAA00" fill-opacity="0.2"/>
<path d="M180.788 13.9808C180.678 13.9808 180.563 14.0099 180.459 14.0718L165.733 22.5736C165.418 22.7545 165.311 23.1593 165.493 23.4767C165.676 23.7905 166.08 23.9002 166.396 23.7194L181.12 15.2163C181.435 15.0355 181.546 14.6283 181.36 14.3133C181.24 14.1009 181.017 13.9819 180.788 13.9819V13.9808Z" fill="#EAAA00" fill-opacity="0.2"/>
<path d="M172.556 22.618C170.801 22.618 168.856 23.2247 166.895 24.4171C166.689 24.5454 166.623 24.8149 166.749 25.0238C166.875 25.2303 167.147 25.2979 167.356 25.1696C170.336 23.3519 173.234 22.996 175.307 24.1942C177.317 25.3528 178.433 27.8251 178.446 31.156C178.457 34.5698 177.31 38.4515 175.215 42.08C173.12 45.7108 170.332 48.6439 167.368 50.3392C164.48 51.9947 161.781 52.2666 159.771 51.1057C157.682 49.897 156.57 47.3034 156.637 43.7951C156.643 43.5501 156.448 43.3494 156.208 43.3459C155.962 43.3307 155.762 43.5349 155.759 43.7752C155.684 47.6207 156.951 50.4932 159.33 51.8687C161.625 53.193 164.634 52.9211 167.806 51.1034C170.905 49.3288 173.807 46.2825 175.978 42.521C178.15 38.756 179.339 34.7192 179.325 31.1514C179.314 27.4972 178.044 24.7531 175.749 23.43C174.806 22.884 173.723 22.6157 172.556 22.6157V22.618Z" fill="#EAAA00" fill-opacity="0.2"/>
<path d="M173.958 23.6435C172.115 23.6435 170.058 24.3435 167.984 25.6969C167.881 25.7634 167.854 25.8999 167.918 26.0026C167.987 26.1029 168.121 26.1321 168.224 26.0679C170.944 24.2899 173.617 23.6785 175.754 24.347C175.872 24.3844 175.994 24.3179 176.031 24.2035C176.066 24.0868 176.003 23.9632 175.887 23.927C175.28 23.738 174.635 23.6435 173.96 23.6435H173.958Z" fill="#EAAA00" fill-opacity="0.2"/>
<path d="M175.088 24.2945C173.176 24.2945 171.031 25.047 168.895 26.4926C168.792 26.5614 168.769 26.6956 168.835 26.7983C168.902 26.8986 169.038 26.9266 169.139 26.8578C171.784 25.0715 174.417 24.3797 176.554 24.9059C176.672 24.9374 176.795 24.865 176.823 24.746C176.852 24.6282 176.779 24.508 176.66 24.48C176.16 24.3563 175.631 24.2945 175.088 24.2945Z" fill="#EAAA00" fill-opacity="0.2"/>
<path d="M176.224 24.9443C174.286 24.9443 172.095 25.7225 169.944 27.1914C169.843 27.2626 169.818 27.3968 169.887 27.4994C169.955 27.5998 170.092 27.6254 170.195 27.5566C172.622 25.8964 175.087 25.1462 177.136 25.4495C177.259 25.4659 177.368 25.3842 177.385 25.264C177.403 25.1438 177.32 25.0318 177.2 25.0132C176.884 24.9653 176.557 24.9443 176.224 24.9443Z" fill="#EAAA00" fill-opacity="0.2"/>
<path d="M177.33 25.5953C175.414 25.5953 173.282 26.3502 171.145 27.7911C171.047 27.8599 171.019 27.9964 171.086 28.0991C171.155 28.1994 171.292 28.2251 171.394 28.1586C173.538 26.7084 175.668 25.971 177.56 26.0375C177.677 26.034 177.783 25.9489 177.786 25.8263C177.79 25.7038 177.695 25.6035 177.575 25.6C177.492 25.5965 177.412 25.5965 177.33 25.5965V25.5953Z" fill="#EAAA00" fill-opacity="0.2"/>
<path d="M177.93 26.2627H177.914C176.207 26.3864 174.326 27.0922 172.473 28.3068C172.371 28.3733 172.343 28.5098 172.41 28.6125C172.477 28.7128 172.611 28.7431 172.714 28.6755C174.503 27.5029 176.313 26.8204 177.945 26.7025C178.065 26.6944 178.157 26.5882 178.148 26.4657C178.139 26.349 178.043 26.2627 177.929 26.2627H177.93Z" fill="#EAAA00" fill-opacity="0.2"/>
<path d="M178.248 27.014C178.234 27.014 178.22 27.014 178.209 27.0175C176.888 27.2462 175.508 27.7922 174.107 28.6381C174.002 28.7011 173.97 28.8353 174.033 28.9391C174.096 29.0441 174.23 29.0768 174.334 29.0138C175.689 28.1959 177.016 27.6697 178.282 27.4504C178.405 27.4282 178.483 27.3162 178.463 27.1937C178.443 27.0875 178.349 27.0129 178.246 27.0129L178.248 27.014Z" fill="#EAAA00" fill-opacity="0.2"/>
<path d="M157.647 43.7728C157.53 43.7728 157.434 43.865 157.426 43.9817C157.241 47.3582 158.098 50.1034 159.845 51.7123C159.933 51.7928 160.073 51.787 160.156 51.6983C160.237 51.6097 160.233 51.4697 160.142 51.3868C158.495 49.8689 157.686 47.2473 157.867 44.005C157.873 43.8825 157.781 43.7798 157.658 43.774C157.655 43.7717 157.65 43.7717 157.647 43.7717V43.7728Z" fill="#EAAA00" fill-opacity="0.2"/>
<path d="M158.79 44.1683C158.676 44.1683 158.578 44.257 158.57 44.3737C158.337 47.6813 159.098 50.4266 160.71 52.1067C160.797 52.193 160.936 52.1977 161.022 52.1148C161.111 52.0297 161.113 51.8897 161.03 51.8033C159.501 50.2143 158.783 47.5868 159.009 44.404C159.019 44.2838 158.927 44.1777 158.806 44.1695H158.79V44.1683Z" fill="#EAAA00" fill-opacity="0.2"/>
<path d="M159.922 44.7307C159.807 44.7307 159.713 44.817 159.701 44.9313C159.473 47.9788 160.092 50.5969 161.443 52.3073C161.518 52.3995 161.656 52.4182 161.751 52.3423C161.849 52.2676 161.866 52.1276 161.791 52.0331C160.505 50.4091 159.921 47.8995 160.143 44.9663C160.152 44.8438 160.061 44.7377 159.938 44.7295H159.922V44.7307Z" fill="#EAAA00" fill-opacity="0.2"/>
<path d="M161.042 45.468C160.928 45.468 160.83 45.559 160.821 45.6734C160.636 48.3521 161.09 50.6564 162.136 52.3376C162.202 52.4403 162.336 52.4695 162.44 52.4088C162.545 52.3435 162.576 52.2081 162.508 52.1031C161.511 50.5024 161.082 48.2915 161.262 45.7049C161.271 45.5847 161.18 45.4785 161.057 45.4704C161.051 45.468 161.045 45.468 161.041 45.468H161.042Z" fill="#EAAA00" fill-opacity="0.2"/>
<path d="M162.153 46.3582C162.038 46.3582 161.94 46.4492 161.933 46.5647C161.807 48.7745 162.136 50.7567 162.882 52.2968C162.937 52.4053 163.067 52.452 163.177 52.3995C163.285 52.3458 163.331 52.2163 163.277 52.1055C162.566 50.6307 162.251 48.7255 162.373 46.5904C162.381 46.4679 162.287 46.364 162.167 46.3582H162.153Z" fill="#EAAA00" fill-opacity="0.2"/>
<path d="M163.256 47.5984C163.134 47.5984 163.037 47.6953 163.036 47.8155C163.004 49.45 163.221 50.9154 163.682 52.179C163.725 52.291 163.851 52.3505 163.966 52.3108C164.08 52.2676 164.139 52.1416 164.096 52.0273C163.655 50.8174 163.445 49.4022 163.476 47.8248C163.478 47.7023 163.381 47.5996 163.261 47.5984H163.257H163.256Z" fill="#EAAA00" fill-opacity="0.2"/>
<path d="M153.872 3.90851C153.795 3.90851 153.723 3.94934 153.681 4.01935C153.62 4.12552 153.658 4.25969 153.764 4.32153C159.596 7.68984 159.413 18.9685 153.358 29.4631C150.413 34.564 146.531 38.7152 142.434 41.1536C138.374 43.5664 134.592 44.0015 131.786 42.3833C131.681 42.3226 131.546 42.3576 131.486 42.4638C131.426 42.5688 131.463 42.7042 131.569 42.7637C134.516 44.4671 138.454 44.0295 142.659 41.5293C146.822 39.0558 150.756 34.8475 153.738 29.6813C159.917 18.9778 160.028 7.42966 153.981 3.94001C153.947 3.92018 153.91 3.90851 153.872 3.90851Z" fill="#EAAA00" fill-opacity="0.2"/>
<path d="M169.344 27.1367C169.267 27.1367 169.195 27.1763 169.153 27.2475C169.092 27.3537 169.127 27.4878 169.233 27.5473C170.434 28.2415 171.08 29.7466 171.055 31.7895C171.027 33.8768 170.302 36.2604 169.008 38.4993C167.715 40.7382 166.015 42.5583 164.22 43.6247C162.464 44.6689 160.835 44.8626 159.637 44.1684C159.532 44.1077 159.397 44.145 159.335 44.2477C159.274 44.3539 159.309 44.4881 159.415 44.5499C160.759 45.3269 162.546 45.1333 164.444 44.0039C166.302 42.9002 168.057 41.0241 169.387 38.721C170.717 36.4191 171.466 33.9584 171.492 31.7965C171.521 29.5891 170.797 27.9452 169.451 27.1705C169.416 27.1483 169.377 27.139 169.341 27.139L169.344 27.1367Z" fill="#EAAA00" fill-opacity="0.2"/>
<path d="M174.417 28.6662C174.34 28.6662 174.265 28.7059 174.226 28.777C174.165 28.8832 174.2 29.0174 174.306 29.078C175.662 29.8609 176.393 31.562 176.364 33.8663C176.335 36.216 175.517 38.8971 174.062 41.4161C172.607 43.935 170.695 45.9849 168.677 47.1855C166.693 48.3662 164.857 48.5785 163.499 47.7968C163.394 47.7362 163.261 47.7735 163.197 47.8773C163.137 47.9824 163.173 48.1177 163.277 48.1772C164.779 49.0464 166.776 48.8282 168.901 47.5647C170.982 46.3244 172.953 44.2197 174.444 41.6378C175.934 39.0558 176.774 36.2977 176.805 33.8733C176.837 31.4033 176.028 29.5646 174.524 28.6989C174.49 28.6767 174.452 28.6674 174.416 28.6674L174.417 28.6662Z" fill="#EAAA00" fill-opacity="0.2"/>
<path d="M159.579 8.38166C159.53 8.38166 159.481 8.39916 159.436 8.43066C159.344 8.51 159.33 8.64767 159.408 8.74218C163.181 13.248 162.242 22.8886 157.175 31.6658C152.107 40.443 144.223 46.0806 138.44 45.0632C138.316 45.041 138.203 45.1204 138.183 45.2429C138.164 45.3607 138.243 45.4751 138.363 45.4972C144.33 46.5473 152.4 40.8199 157.556 31.8863C162.712 22.9551 163.634 13.1022 159.748 8.45983C159.705 8.40616 159.642 8.38049 159.579 8.38049V8.38166Z" fill="#EAAA00" fill-opacity="0.2"/>
<path d="M163.347 14.71C163.324 14.71 163.302 14.7123 163.278 14.7193C163.164 14.7566 163.099 14.8815 163.138 14.997C164.668 19.7292 163.318 26.656 159.614 33.0717C155.888 39.5237 150.342 44.2874 145.485 45.2103C145.367 45.2336 145.288 45.3479 145.311 45.4669C145.333 45.5871 145.445 45.6641 145.568 45.6443C150.622 44.6841 156.149 39.9519 159.994 33.2934C163.759 26.7726 165.125 19.7082 163.556 14.8593C163.525 14.7683 163.439 14.71 163.347 14.71Z" fill="#EAAA00" fill-opacity="0.2"/>
<path d="M164.897 20.2822C164.873 20.2822 164.849 20.2845 164.828 20.2915C164.711 20.3288 164.648 20.4537 164.685 20.5692C165.863 24.2035 164.822 29.5237 161.975 34.4578C159.111 39.4152 154.851 43.0775 151.122 43.7845C151.004 43.8078 150.925 43.9222 150.948 44.0424C150.972 44.1625 151.083 44.243 151.205 44.2174C155.114 43.4742 159.385 39.82 162.355 34.6771C165.263 29.6392 166.318 24.1813 165.105 20.4315C165.074 20.3393 164.988 20.2798 164.897 20.2798V20.2822Z" fill="#EAAA00" fill-opacity="0.2"/>
<path d="M146.696 25.3936C146.619 25.3936 146.546 25.4332 146.502 25.5044C146.443 25.6106 146.479 25.7447 146.585 25.8042L175.486 42.4918C175.592 42.5548 175.726 42.5174 175.787 42.4124C175.847 42.3063 175.81 42.1721 175.706 42.1114L146.804 25.4216C146.77 25.4041 146.732 25.3936 146.696 25.3936Z" fill="#EAAA00" fill-opacity="0.2"/>
<path d="M164.256 25.6677C164.219 25.6677 164.184 25.6771 164.148 25.6969C164.041 25.7564 164.005 25.8906 164.065 25.9967C167.743 32.4604 172.162 35.3655 178.385 35.4145H178.387C178.51 35.4145 178.607 35.3165 178.608 35.1951C178.608 35.075 178.51 34.9746 178.388 34.9723C172.339 34.9245 168.039 32.0905 164.447 25.7774C164.408 25.7062 164.333 25.6666 164.256 25.6666V25.6677Z" fill="#EAAA00" fill-opacity="0.2"/>
<path d="M167.42 25.2676C167.403 25.2676 167.385 25.2711 167.365 25.2757C167.249 25.3049 167.179 25.4251 167.208 25.5418C167.92 28.4014 167.046 32.4627 164.926 36.1402C162.714 39.9705 159.525 42.787 156.606 43.4882C156.488 43.5162 156.415 43.6364 156.444 43.7542C156.472 43.872 156.59 43.9455 156.71 43.9175C159.741 43.186 163.037 40.2902 165.306 36.3607C167.482 32.5864 168.375 28.4014 167.634 25.4368C167.61 25.3364 167.519 25.2676 167.421 25.2676H167.42Z" fill="#EAAA00" fill-opacity="0.2"/>
<path d="M147.059 1.05821C153.086 4.53969 153.179 15.704 147.267 25.9454C142.665 33.9129 135.622 39.2658 129.74 39.2658C128.219 39.2658 126.83 38.9112 125.612 38.2053C122.632 36.4832 120.992 32.9072 121 28.1319C121.008 23.4883 122.57 18.2288 125.403 13.3227C130.004 5.35406 137.049 0 142.931 0C144.451 0 145.838 0.357015 147.059 1.05821ZM146.122 25.2827C151.671 15.6713 151.793 5.31906 146.396 2.20509C145.383 1.61707 144.215 1.31839 142.931 1.31839C137.507 1.31839 130.921 6.40761 126.547 13.9831C123.83 18.692 122.329 23.7182 122.321 28.1342C122.317 32.4172 123.721 35.5895 126.272 37.0619C127.287 37.6488 128.454 37.9463 129.74 37.9463C135.164 37.9463 141.748 32.8571 146.122 25.2839V25.2827Z" fill="#EAAA00" fill-opacity="0.2"/>
<path d="M138.357 35.0201C138.291 35.0201 138.221 35.0516 138.18 35.1111C138.109 35.2115 138.132 35.3492 138.231 35.4192C143.103 38.8843 149.618 40.9739 155.656 41.0031C155.779 41.0031 155.877 40.9062 155.877 40.7837C155.877 40.6612 155.779 40.5632 155.656 40.5632C149.707 40.5317 143.289 38.4736 138.486 35.0598C138.448 35.0318 138.403 35.0201 138.357 35.0201Z" fill="#EAAA00" fill-opacity="0.2"/>
<path d="M131.432 38.4503C131.377 38.4503 131.321 38.4702 131.28 38.511C131.191 38.5962 131.189 38.7338 131.274 38.8225C137.544 45.3059 146.546 45.9523 152.259 43.8055C152.373 43.7647 152.428 43.6364 152.387 43.5232C152.344 43.4089 152.218 43.3494 152.103 43.3937C146.523 45.4891 137.724 44.8579 131.59 38.5168C131.547 38.4713 131.492 38.4503 131.433 38.4503H131.432Z" fill="#EAAA00" fill-opacity="0.2"/>
<path d="M150.85 13.4767C150.765 13.4767 150.685 13.5246 150.65 13.6074C150.598 13.7183 150.646 13.8478 150.756 13.8991C156.097 16.355 161.074 20.8784 164.065 26.0003C164.128 26.1053 164.262 26.1403 164.367 26.0796C164.473 26.0189 164.507 25.8848 164.447 25.7786C161.412 20.5832 156.362 15.9922 150.941 13.5001C150.912 13.4861 150.882 13.4779 150.85 13.4779V13.4767Z" fill="#EAAA00" fill-opacity="0.2"/>
<path d="M150.164 5.70874C150.066 5.70874 149.975 5.77758 149.952 5.87675C149.923 5.99459 149.995 6.11476 150.114 6.14509C158.76 8.23818 163.757 15.5745 164.744 21.5037C164.761 21.6263 164.876 21.7091 164.996 21.6846C165.114 21.6648 165.196 21.5527 165.177 21.4326C164.167 15.3633 159.056 7.8555 150.216 5.71457C150.199 5.71107 150.182 5.70874 150.164 5.70874Z" fill="#EAAA00" fill-opacity="0.2"/>
<path d="M144.898 0.194824C144.563 0.194824 144.273 0.451502 144.24 0.792183C144.208 1.15503 144.472 1.47821 144.837 1.51205C147.982 1.80956 150.978 2.76977 153.739 4.36233C159.797 7.86132 163.857 14.1079 164.598 21.0732C164.638 21.4361 164.964 21.6986 165.327 21.6589C165.69 21.6216 165.952 21.2937 165.913 20.932C165.126 13.5479 160.821 6.92678 154.4 3.22012C151.472 1.52838 148.297 0.513338 144.962 0.198324C144.942 0.195991 144.921 0.195991 144.899 0.195991L144.898 0.194824Z" fill="#EAAA00" fill-opacity="0.2"/>
<path d="M123.787 35.0587C123.665 35.0587 123.539 35.0925 123.429 35.1637C123.121 35.3643 123.037 35.7727 123.235 36.0784C125.245 39.1772 127.895 41.6879 131.115 43.5465C137.536 47.2555 145.422 47.672 152.212 44.6596C152.546 44.5114 152.695 44.1217 152.549 43.788C152.4 43.4532 152.009 43.305 151.677 43.4532C145.272 46.2941 137.833 45.8998 131.776 42.4031C128.739 40.6507 126.237 38.28 124.343 35.3608C124.217 35.1637 124.003 35.0587 123.787 35.0587Z" fill="#EAAA00" fill-opacity="0.2"/>
<path d="M138.088 8.71779C138.05 8.71779 138.013 8.72712 137.979 8.74696L133.081 11.5751C132.975 11.6357 132.938 11.7699 133.001 11.8761C133.06 11.9811 133.196 12.0161 133.301 11.9566L138.201 9.12614C138.306 9.06664 138.341 8.93246 138.28 8.82629C138.239 8.75512 138.166 8.71545 138.089 8.71545L138.088 8.71779Z" fill="#EAAA00" fill-opacity="0.2"/>
<path d="M140.979 8.66877C140.942 8.66877 140.904 8.6781 140.868 8.69794L130.405 14.7415C130.3 14.801 130.263 14.9352 130.326 15.0414C130.385 15.1475 130.519 15.1837 130.626 15.1219L141.089 9.08062C141.195 9.01995 141.231 8.88344 141.169 8.77844C141.128 8.70727 141.055 8.6676 140.978 8.6676L140.979 8.66877Z" fill="#EAAA00" fill-opacity="0.2"/>
<path d="M142.319 9.51459C142.282 9.51459 142.245 9.5251 142.209 9.54376L129.097 17.1146C128.992 17.1741 128.955 17.3083 129.018 17.4144C129.077 17.5206 129.211 17.5579 129.318 17.4949L142.429 9.92411C142.535 9.86461 142.572 9.72927 142.509 9.62427C142.469 9.5531 142.394 9.51343 142.319 9.51343V9.51459Z" fill="#EAAA00" fill-opacity="0.2"/>
<path d="M143.195 10.63C143.16 10.63 143.12 10.6382 143.084 10.658L128.198 19.2555C128.091 19.315 128.055 19.4504 128.115 19.5554C128.175 19.6616 128.312 19.6977 128.417 19.6359L143.304 11.0395C143.41 10.9789 143.447 10.8447 143.387 10.7397C143.344 10.6685 143.27 10.6288 143.193 10.6288L143.195 10.63Z" fill="#EAAA00" fill-opacity="0.2"/>
<path d="M143.746 11.9309C143.709 11.9309 143.672 11.9402 143.636 11.9624L127.678 21.176C127.572 21.2355 127.536 21.3696 127.596 21.4758C127.656 21.582 127.793 21.6193 127.897 21.5563L143.856 12.3439C143.962 12.2833 143.998 12.1491 143.935 12.0429C143.896 11.9717 143.821 11.9321 143.746 11.9321V11.9309Z" fill="#EAAA00" fill-opacity="0.2"/>
<path d="M144.007 13.4021C143.969 13.4021 143.932 13.4103 143.896 13.4301L127.407 22.9493C127.304 23.01 127.267 23.1465 127.327 23.2527C127.387 23.3577 127.522 23.395 127.627 23.332L144.117 13.8116C144.224 13.751 144.26 13.6168 144.198 13.5094C144.157 13.4406 144.081 13.4009 144.007 13.4009V13.4021Z" fill="#EAAA00" fill-opacity="0.2"/>
<path d="M144.035 15.0064C143.995 15.0064 143.96 15.0145 143.924 15.0344L127.381 24.5863C127.276 24.6469 127.239 24.7834 127.3 24.8873C127.362 24.9911 127.495 25.0296 127.6 24.9678L144.145 15.4159C144.252 15.3564 144.288 15.221 144.226 15.116C144.185 15.0449 144.109 15.0052 144.035 15.0052V15.0064Z" fill="#EAAA00" fill-opacity="0.2"/>
<path d="M143.826 16.7448C143.786 16.7448 143.751 16.7564 143.715 16.7763L127.587 26.0843C127.482 26.1473 127.445 26.2815 127.508 26.3853C127.569 26.4915 127.703 26.5288 127.808 26.4658L143.935 17.1566C144.04 17.0959 144.078 16.9618 144.015 16.8544C143.975 16.7833 143.9 16.7436 143.826 16.7436V16.7448Z" fill="#EAAA00" fill-opacity="0.2"/>
<path d="M143.352 18.6372C143.317 18.6372 143.277 18.6465 143.241 18.6687L128.059 27.4342C127.954 27.4949 127.919 27.629 127.978 27.7352C128.039 27.8402 128.173 27.8775 128.278 27.8145L143.464 19.0467C143.57 18.9872 143.606 18.853 143.547 18.7468C143.504 18.6757 143.43 18.636 143.353 18.636L143.352 18.6372Z" fill="#EAAA00" fill-opacity="0.2"/>
<path d="M142.565 20.7128C142.53 20.7128 142.49 20.7221 142.454 20.7419L128.853 28.5951C128.747 28.6581 128.711 28.7923 128.77 28.8985C128.833 29.0035 128.968 29.0408 129.074 28.9778L142.674 21.1246C142.78 21.064 142.817 20.9275 142.755 20.8224C142.714 20.7536 142.64 20.7116 142.563 20.7116L142.565 20.7128Z" fill="#EAAA00" fill-opacity="0.2"/>
<path d="M141.327 23.0462C141.289 23.0462 141.252 23.0555 141.216 23.0754L130.087 29.5028C129.98 29.5635 129.944 29.6977 130.004 29.8038C130.067 29.9088 130.201 29.9462 130.307 29.8832L141.436 23.4569C141.543 23.3962 141.579 23.2621 141.517 23.1559C141.476 23.0847 141.402 23.045 141.325 23.045L141.327 23.0462Z" fill="#EAAA00" fill-opacity="0.2"/>
<path d="M139.043 25.9852C139.004 25.9852 138.966 25.9968 138.933 26.0167L132.219 29.8913C132.114 29.9508 132.079 30.085 132.14 30.1912C132.199 30.2974 132.335 30.3335 132.44 30.2717L139.152 26.397C139.257 26.3363 139.295 26.2022 139.232 26.096C139.193 26.0272 139.118 25.9852 139.043 25.9852Z" fill="#EAAA00" fill-opacity="0.2"/>
</g>
</svg>
