<svg width="238" height="105" viewBox="0 0 238 105" fill="none" xmlns="http://www.w3.org/2000/svg">
<mask id="mask0_1753_10229" style="mask-type:alpha" maskUnits="userSpaceOnUse" x="10" y="10" width="228" height="94">
<rect x="10" y="10" width="228" height="94" rx="10" fill="#E6F6F5"/>
</mask>
<g mask="url(#mask0_1753_10229)">
<path d="M44.408 88.6289C44.6588 88.6289 44.9083 88.4977 45.0448 88.2599C45.2462 87.909 45.1279 87.4581 44.7771 87.2541L15.5732 70.3929V36.6733C15.5732 36.2666 15.2444 35.9378 14.8351 35.9378C14.4258 35.9378 14.097 36.2666 14.097 36.6733V70.8192C14.097 71.083 14.2373 71.326 14.466 71.4559L44.0389 88.5302C44.1533 88.5977 44.2806 88.6289 44.408 88.6289Z" fill="#00A499" fill-opacity="0.2"/>
<path d="M19.7615 68.2683C19.8005 68.2683 19.8447 68.2579 19.885 68.2333L39.6401 56.8262C39.7583 56.7599 39.7986 56.6105 39.7323 56.4922C39.6661 56.374 39.5127 56.3337 39.3984 56.4025L19.6394 67.8096C19.5211 67.8772 19.4808 68.0266 19.5471 68.1449C19.5913 68.2216 19.6744 68.2683 19.7628 68.2683H19.7615Z" fill="#00A499" fill-opacity="0.2"/>
<path d="M39.31 79.9132L19.4406 68.4438C19.2911 68.3554 19.1949 68.1929 19.1949 68.0175L19.1988 45.0773C19.1988 44.9019 19.2911 44.7394 19.4406 44.6537C19.5939 44.5653 19.7836 44.5653 19.9318 44.6537L39.796 56.1231C39.9494 56.2115 40.0416 56.3739 40.0416 56.5494L40.0455 79.487C40.0455 79.6624 39.9494 79.8248 39.7947 79.9132C39.7207 79.9574 39.6362 79.9795 39.553 79.9795C39.4647 79.9795 39.3815 79.9574 39.3074 79.9132H39.31ZM20.1787 45.9272V67.7368L39.0644 78.6397V56.8327L20.1787 45.9285V45.9272Z" fill="#00A499" fill-opacity="0.2"/>
<path d="M39.4634 77.9808C39.5517 77.9808 39.6297 77.9366 39.6791 77.8574C39.7454 77.7391 39.7051 77.5897 39.5868 77.5221L21.3248 66.9779C21.2066 66.9103 21.0571 66.9493 20.9909 67.0676C20.9207 67.1845 20.9597 67.3327 21.0792 67.4028L39.3451 77.9457C39.3802 77.9678 39.4244 77.9808 39.4634 77.9808Z" fill="#00A499" fill-opacity="0.2"/>
<path d="M39.4725 76.2863C39.5608 76.2863 39.6388 76.2421 39.6882 76.1628C39.7584 76.0446 39.7142 75.8951 39.5998 75.8276L22.7959 66.1254C22.6815 66.0579 22.5321 66.0994 22.4619 66.2177C22.3956 66.3346 22.4359 66.4828 22.5542 66.5517L39.3542 76.2512C39.3893 76.2733 39.4335 76.2863 39.4725 76.2863Z" fill="#00A499" fill-opacity="0.2"/>
<path d="M39.5518 74.6307C39.6401 74.6307 39.7233 74.5865 39.7675 74.5073C39.8338 74.389 39.7935 74.2396 39.6752 74.172L24.267 65.2782C24.1526 65.208 24.0032 65.2496 23.933 65.3665C23.8628 65.4848 23.907 65.6342 24.0252 65.7018L39.4335 74.5956C39.4686 74.6177 39.5128 74.6307 39.5518 74.6307Z" fill="#00A499" fill-opacity="0.2"/>
<path d="M39.5518 72.8815C39.6401 72.8815 39.7181 72.8374 39.7675 72.7581C39.8338 72.6411 39.7935 72.493 39.6752 72.4228L25.7432 64.4269C25.6288 64.3607 25.4755 64.401 25.4092 64.5166C25.339 64.6349 25.3832 64.7843 25.4976 64.8519L39.4348 72.8478C39.4699 72.8698 39.5141 72.8802 39.5531 72.8802L39.5518 72.8815Z" fill="#00A499" fill-opacity="0.2"/>
<path d="M39.4321 71.1597C39.5153 71.1597 39.5985 71.1142 39.6427 71.0362C39.7089 70.9193 39.6687 70.7685 39.5504 70.701L27.2116 63.5771C27.0972 63.5095 26.9478 63.5485 26.8776 63.6667C26.8074 63.785 26.8516 63.9344 26.966 64.0007L39.3048 71.1272C39.349 71.1493 39.388 71.1597 39.4321 71.1597Z" fill="#00A499" fill-opacity="0.2"/>
<path d="M39.5517 69.5301C39.6401 69.5301 39.7233 69.4834 39.7675 69.4067C39.8337 69.2884 39.7935 69.139 39.6752 69.0714L28.6892 62.7259C28.5709 62.6583 28.4215 62.6999 28.3513 62.8156C28.285 62.9325 28.3253 63.0833 28.4436 63.1509L39.4335 69.4964C39.4686 69.5184 39.5128 69.5288 39.5517 69.5288V69.5301Z" fill="#00A499" fill-opacity="0.2"/>
<path d="M39.3802 67.7278C39.4634 67.7278 39.5465 67.6836 39.5959 67.6043C39.6622 67.4861 39.6219 67.3366 39.5037 67.2703L30.1602 61.8761C30.0419 61.8085 29.8925 61.8475 29.8223 61.9658C29.7561 62.0827 29.7963 62.2334 29.9146 62.2997L39.2581 67.694C39.297 67.7161 39.3412 67.7265 39.3815 67.7265L39.3802 67.7278Z" fill="#00A499" fill-opacity="0.2"/>
<path d="M39.4504 66.0683C39.5335 66.0683 39.6167 66.0241 39.6609 65.9448C39.7272 65.8279 39.6921 65.6772 39.5725 65.6109L31.6299 61.0262C31.5117 60.956 31.3622 60.9976 31.296 61.1146C31.2258 61.2328 31.27 61.3823 31.3843 61.4499L39.3269 66.0345C39.3659 66.0592 39.4062 66.067 39.4504 66.067V66.0683Z" fill="#00A499" fill-opacity="0.2"/>
<path d="M39.5206 64.4088C39.6089 64.4088 39.6869 64.3646 39.7311 64.2879C39.8013 64.1697 39.7623 64.0202 39.6427 63.9527L33.0997 60.1763C32.9853 60.1087 32.8359 60.1503 32.7657 60.266C32.6994 60.3842 32.7397 60.5337 32.858 60.6012L39.3958 64.3776C39.4348 64.3997 39.479 64.4088 39.5193 64.4088H39.5206Z" fill="#00A499" fill-opacity="0.2"/>
<path d="M39.5517 62.7272C39.6349 62.7272 39.7181 62.683 39.7675 62.6037C39.8337 62.4868 39.7935 62.3386 39.6752 62.2697L34.5772 59.3251C34.459 59.2575 34.3095 59.2965 34.2433 59.4147C34.1731 59.5317 34.2121 59.6798 34.3316 59.7487L39.4296 62.6947C39.4686 62.7168 39.5128 62.7259 39.553 62.7259L39.5517 62.7272Z" fill="#00A499" fill-opacity="0.2"/>
<path d="M39.5518 61.0274C39.6401 61.0274 39.7233 60.9832 39.7675 60.9066C39.8338 60.7896 39.7935 60.6388 39.6752 60.5713L36.0522 58.4765C35.9339 58.4089 35.7845 58.4505 35.7143 58.5661C35.6481 58.6831 35.6883 58.8338 35.8066 58.9014L39.4335 60.9962C39.4686 61.0183 39.5128 61.0274 39.5518 61.0274Z" fill="#00A499" fill-opacity="0.2"/>
<path d="M39.4413 59.2653C39.5296 59.2653 39.6128 59.2211 39.657 59.1444C39.7233 59.0262 39.683 58.8767 39.5647 58.8092L37.5232 57.6253C37.405 57.5577 37.2555 57.5993 37.1853 57.7176C37.1191 57.8345 37.1593 57.9827 37.2776 58.0515L39.3243 59.2328C39.3594 59.2549 39.4036 59.2653 39.4426 59.2653H39.4413Z" fill="#00A499" fill-opacity="0.2"/>
<path d="M21.2014 67.434C21.3379 67.434 21.447 67.3249 21.447 67.1897V46.0974C21.447 45.961 21.3379 45.8518 21.2014 45.8518C21.065 45.8518 20.9558 45.961 20.9558 46.0974V67.1897C20.9558 67.3236 21.065 67.4327 21.2014 67.4327V67.434Z" fill="#00A499" fill-opacity="0.2"/>
<path d="M22.6724 66.5841C22.8128 66.5841 22.918 66.475 22.918 66.3385V46.9369C22.918 46.8004 22.8089 46.6913 22.6724 46.6913C22.536 46.6913 22.4268 46.8004 22.4268 46.9369L22.4307 66.3385C22.4307 66.475 22.5399 66.5841 22.6724 66.5841Z" fill="#00A499" fill-opacity="0.2"/>
<path d="M24.1474 65.7342C24.2838 65.7342 24.3891 65.6251 24.3891 65.4886V47.6971C24.3891 47.5606 24.2838 47.4515 24.1474 47.4515C24.011 47.4515 23.9018 47.5606 23.9018 47.6971V65.4886C23.9018 65.6251 24.011 65.7342 24.1474 65.7342Z" fill="#00A499" fill-opacity="0.2"/>
<path d="M25.6184 64.8856C25.7549 64.8856 25.864 64.7765 25.864 64.64L25.903 48.5742C25.903 48.4378 25.7938 48.3299 25.6613 48.3286H25.6574C25.5209 48.3286 25.4118 48.4378 25.4118 48.5729L25.3728 64.6413C25.3728 64.7752 25.482 64.8856 25.6184 64.8869V64.8856Z" fill="#00A499" fill-opacity="0.2"/>
<path d="M27.0895 64.0358C27.2259 64.0358 27.3351 63.9266 27.3351 63.7902V49.5411C27.3351 49.4046 27.2259 49.2955 27.0895 49.2955C26.953 49.2955 26.8439 49.4046 26.8439 49.5411L26.8478 63.7902C26.8478 63.9266 26.9569 64.0358 27.0895 64.0358Z" fill="#00A499" fill-opacity="0.2"/>
<path d="M28.5657 63.1859C28.7022 63.1859 28.8113 63.0767 28.8113 62.9403L28.8074 50.248C28.8074 50.1115 28.6983 50.0024 28.5657 50.0024C28.4293 50.0024 28.3201 50.1115 28.3201 50.248V62.9403C28.3201 63.0767 28.4293 63.1859 28.5657 63.1859Z" fill="#00A499" fill-opacity="0.2"/>
<path d="M30.0355 62.3334C30.1719 62.3334 30.2811 62.2242 30.2811 62.0891V51.298C30.2811 51.1615 30.1719 51.0524 30.0355 51.0524C29.899 51.0524 29.7899 51.1615 29.7899 51.298V62.0891C29.7899 62.2229 29.899 62.3321 30.0355 62.3321V62.3334Z" fill="#00A499" fill-opacity="0.2"/>
<path d="M31.5065 61.4849C31.6429 61.4849 31.7521 61.3757 31.7521 61.2393V52.0712C31.7521 51.9348 31.6429 51.8256 31.5104 51.8256C31.3701 51.8256 31.2648 51.9348 31.2648 52.0712L31.2609 61.2393C31.2609 61.3757 31.3701 61.4849 31.5065 61.4849Z" fill="#00A499" fill-opacity="0.2"/>
<path d="M32.9827 60.635C33.114 60.635 33.2283 60.5258 33.2283 60.3894V52.8367C33.2283 52.7028 33.114 52.5923 32.9827 52.5923C32.8514 52.5923 32.7371 52.7015 32.7371 52.8367V60.3894C32.7371 60.5258 32.8463 60.635 32.9827 60.635Z" fill="#00A499" fill-opacity="0.2"/>
<path d="M34.4538 59.7825C34.5902 59.7825 34.6994 59.6734 34.6994 59.5382V53.6476C34.6994 53.5111 34.5902 53.4033 34.4538 53.4033C34.3173 53.4033 34.2082 53.5111 34.2082 53.6476V59.5382C34.2082 59.6721 34.3173 59.7825 34.4538 59.7825Z" fill="#00A499" fill-opacity="0.2"/>
<path d="M35.9248 58.9326C36.0613 58.9326 36.1704 58.8235 36.1704 58.687V54.4987C36.1704 54.3649 36.0613 54.2544 35.9248 54.2544C35.7884 54.2544 35.6831 54.3636 35.6831 54.4987V58.687C35.6831 58.8235 35.7923 58.9326 35.9248 58.9326Z" fill="#00A499" fill-opacity="0.2"/>
<path d="M37.3959 58.0841C37.5323 58.0841 37.6415 57.9749 37.6415 57.8385V55.476C37.6415 55.3421 37.5323 55.233 37.3959 55.233C37.2594 55.233 37.1541 55.3421 37.1541 55.4773V57.8398C37.1541 57.9762 37.2633 58.0854 37.3959 58.0854V58.0841Z" fill="#00A499" fill-opacity="0.2"/>
<path d="M29.7457 96.7171C29.8821 96.7171 29.9874 96.6079 29.9874 96.4728L30.0614 79.4687C30.0614 79.3349 29.938 79.2179 29.8158 79.2231C29.6794 79.2231 29.5702 79.3323 29.5702 79.4687L29.5001 96.4702C29.5001 96.6066 29.6092 96.7158 29.7418 96.7158H29.7457V96.7171Z" fill="#00A499" fill-opacity="0.2"/>
<path d="M31.1816 95.8867C31.3129 95.8867 31.4273 95.7776 31.4273 95.6411V80.255C31.4273 80.1211 31.3129 80.012 31.1816 80.012C31.0413 80.012 30.936 80.1211 30.936 80.2563V95.6424C30.936 95.7789 31.0413 95.888 31.1816 95.888V95.8867Z" fill="#00A499" fill-opacity="0.2"/>
<path d="M32.6176 95.0576C32.754 95.0576 32.8632 94.9485 32.8632 94.812V80.9879C32.8632 80.8514 32.754 80.7449 32.6176 80.7449C32.4811 80.7449 32.372 80.8527 32.372 80.9892V94.8133C32.372 94.9498 32.4811 95.0589 32.6176 95.0589V95.0576Z" fill="#00A499" fill-opacity="0.2"/>
<path d="M34.0536 94.2271C34.19 94.2271 34.2992 94.118 34.2992 93.9815V81.9156C34.2992 81.7792 34.19 81.6726 34.0536 81.6726C33.9171 81.6726 33.808 81.7805 33.808 81.9169V93.9828C33.808 94.1193 33.9171 94.2284 34.0536 94.2284V94.2271Z" fill="#00A499" fill-opacity="0.2"/>
<path d="M22.9271 86.8266C23.0155 86.8266 23.0987 86.7824 23.1428 86.7032C23.2091 86.5862 23.1688 86.4355 23.0506 86.3679L5.35519 76.1525C5.24084 76.0849 5.08749 76.1239 5.02122 76.2421C4.95105 76.3591 4.99523 76.5098 5.10959 76.5761L22.805 86.7941C22.844 86.8162 22.8881 86.8266 22.9284 86.8266H22.9271Z" fill="#00A499" fill-opacity="0.2"/>
<path d="M22.9271 85.4517C23.0103 85.4517 23.0935 85.4075 23.1428 85.3283C23.2091 85.2113 23.1688 85.0632 23.0506 84.993L6.54553 75.465C6.42728 75.3974 6.27783 75.4364 6.21156 75.5547C6.14138 75.6716 6.18557 75.8198 6.29992 75.89L22.805 85.4179C22.844 85.44 22.8881 85.4504 22.9284 85.4504L22.9271 85.4517Z" fill="#00A499" fill-opacity="0.2"/>
<path d="M22.9934 84.1145C23.0765 84.1145 23.1597 84.0703 23.2039 83.991C23.2702 83.8741 23.2299 83.7233 23.1116 83.6571L7.73455 74.7762C7.61629 74.7087 7.46685 74.7476 7.40057 74.8659C7.3304 74.9829 7.36938 75.1336 7.48894 75.1999L22.8699 84.0807C22.9089 84.1054 22.9492 84.1132 22.9934 84.1132V84.1145Z" fill="#00A499" fill-opacity="0.2"/>
<path d="M22.9271 82.7058C23.0103 82.7058 23.0935 82.6617 23.1429 82.5824C23.2091 82.4641 23.1689 82.3147 23.0506 82.2471L8.92495 74.0914C8.8067 74.0238 8.65725 74.0628 8.59098 74.1811C8.5247 74.298 8.55979 74.4488 8.67934 74.5163L22.805 82.6708C22.844 82.6954 22.8882 82.7058 22.9284 82.7058H22.9271Z" fill="#00A499" fill-opacity="0.2"/>
<path d="M28.3058 97.9814C28.5605 97.9814 28.8061 97.8476 28.9426 97.6124C29.1492 97.2589 29.0257 96.8093 28.6749 96.6066L-0.528958 79.7454V46.0232C-0.528958 45.6165 -0.857733 45.2877 -1.26188 45.2877C-1.66603 45.2877 -2 45.6178 -2 46.0232V80.1717C-2 80.4355 -1.85965 80.6772 -1.63094 80.8085L27.9381 97.8801C28.0563 97.9477 28.1837 97.9814 28.3071 97.9814H28.3058Z" fill="#00A499" fill-opacity="0.2"/>
<path d="M28.3058 97.7332C28.5774 97.7332 28.797 97.5162 28.797 97.2433V79.1308C28.797 78.8592 28.5774 78.6396 28.3058 78.6396C28.0329 78.6396 27.8185 78.8592 27.8185 79.1308V97.2433C27.8185 97.5162 28.0381 97.7332 28.3058 97.7332Z" fill="#00A499" fill-opacity="0.2"/>
<path d="M28.3058 97.9815C28.4332 97.9815 28.5605 97.949 28.6749 97.8801L36.0431 93.6282C36.394 93.4241 36.5135 92.9758 36.3108 92.6223C36.1094 92.2689 35.6572 92.1506 35.305 92.352L27.9368 96.6066C27.5859 96.808 27.4664 97.259 27.6691 97.6124C27.8055 97.8477 28.055 97.9815 28.3058 97.9815Z" fill="#00A499" fill-opacity="0.2"/>
<path d="M35.674 93.7268C36.0821 93.7268 36.4122 93.3981 36.4122 92.9913V82.85C36.4122 82.4458 36.0834 82.1144 35.674 82.1144C35.266 82.1144 34.9359 82.4458 34.9359 82.85V92.9913C34.9359 93.3981 35.2647 93.7268 35.674 93.7268Z" fill="#00A499" fill-opacity="0.2"/>
<path d="M14.8832 53.849C14.9663 53.849 15.0495 53.8048 15.0989 53.7255C15.1652 53.6073 15.1249 53.4578 15.0066 53.3902L0.249405 44.9525C0.13115 44.8863 -0.0182935 44.9266 -0.0884669 45.0448C-0.154742 45.1618 -0.114457 45.3125 0.00379809 45.3788L14.7623 53.8165C14.8013 53.8386 14.8455 53.849 14.8858 53.849H14.8832Z" fill="#00A499" fill-opacity="0.2"/>
<path d="M14.8832 52.274C14.9664 52.274 15.0495 52.2298 15.0937 52.1505C15.1639 52.0336 15.1249 51.8854 15.0053 51.8165L1.68279 44.1235C1.56453 44.0559 1.41509 44.0949 1.34881 44.2131C1.27864 44.3301 1.31763 44.4808 1.43718 44.5471L14.7597 52.2402C14.7987 52.2623 14.8429 52.2727 14.8832 52.2727V52.274Z" fill="#00A499" fill-opacity="0.2"/>
<path d="M14.9702 50.6652C15.0534 50.6652 15.1366 50.621 15.1807 50.5418C15.247 50.4235 15.2067 50.2741 15.0924 50.2065L3.11871 43.2957C3.00436 43.2281 2.85101 43.2671 2.78474 43.3854C2.71457 43.5023 2.75875 43.6531 2.87311 43.7193L14.8468 50.6327C14.8858 50.6548 14.926 50.6652 14.9702 50.6652Z" fill="#00A499" fill-opacity="0.2"/>
<path d="M14.8832 48.9551C14.9664 48.9551 15.0495 48.9109 15.0989 48.8342C15.1652 48.7159 15.1249 48.5665 15.0066 48.4989L4.556 42.4653C4.44164 42.3977 4.2922 42.4367 4.22202 42.555C4.15185 42.6719 4.19603 42.8227 4.31039 42.889L14.761 48.9226C14.8 48.9473 14.8442 48.9551 14.8845 48.9551H14.8832Z" fill="#00A499" fill-opacity="0.2"/>
<path d="M14.4219 55.5721C14.5934 55.5721 14.7558 55.4837 14.8481 55.3278C14.9846 55.0913 14.9014 54.7924 14.6675 54.6559L-1.02018 45.5997C-1.25279 45.4632 -1.55168 45.5425 -1.68813 45.7777C-1.82458 46.0142 -1.74531 46.3131 -1.5075 46.4495L14.1763 55.5084C14.2555 55.5526 14.3387 55.5721 14.4219 55.5721Z" fill="#00A499" fill-opacity="0.2"/>
<path d="M14.8832 47.5761C15.1379 47.5761 15.3835 47.4449 15.52 47.2097C15.7214 46.8562 15.6032 46.4066 15.2471 46.2039L6.47022 41.1319C6.11935 40.9305 5.66712 41.0487 5.4644 41.4022C5.26298 41.7556 5.38123 42.204 5.7321 42.408L14.5142 47.4774C14.6324 47.5437 14.7559 47.5761 14.8832 47.5761Z" fill="#00A499" fill-opacity="0.2"/>
<path d="M22.9271 88.4184C23.0103 88.4184 23.0987 88.3963 23.1727 88.3521C23.3222 88.2637 23.4183 88.1013 23.4183 87.9259V75.6754C23.4183 75.4051 23.1987 75.1855 22.9271 75.1855C22.6555 75.1855 22.4359 75.4025 22.4359 75.6754V87.076L4.60408 76.7813V56.1919L14.5193 61.9136C14.7558 62.0501 15.0547 61.9708 15.1912 61.7356C15.3276 61.5004 15.2483 61.2002 15.0105 61.0664L4.35847 54.9145C4.20903 54.8287 4.0206 54.8287 3.87116 54.9145C3.71781 55.0029 3.62555 55.1653 3.62555 55.3407V77.0672C3.62555 77.2426 3.71781 77.4025 3.87116 77.4908L22.6815 88.3521C22.7556 88.3963 22.844 88.4184 22.9271 88.4184Z" fill="#00A499" fill-opacity="0.2"/>
<path d="M22.9272 81.4192C23.0935 81.4192 23.2611 81.3308 23.3482 81.1736C23.4847 80.9384 23.4054 80.6382 23.1728 80.5043L10.6676 73.283V58.8415C10.6676 58.5738 10.448 58.3516 10.1764 58.3516C9.9048 58.3516 9.68518 58.5712 9.68518 58.8415V73.5663C9.68518 73.7417 9.77745 73.9041 9.93079 73.9925L22.6816 81.3542C22.7556 81.3984 22.844 81.4205 22.9272 81.4205V81.4192Z" fill="#00A499" fill-opacity="0.2"/>
<path d="M4.11677 77.5571C4.19993 77.5571 4.2831 77.5377 4.35847 77.4909L10.422 73.9913C10.6546 73.8549 10.7378 73.5547 10.6026 73.3221C10.4662 73.0855 10.1673 73.0063 9.93076 73.1414L3.87116 76.641C3.63465 76.7774 3.55538 77.0763 3.69053 77.3102C3.78279 77.4688 3.94523 77.5558 4.11677 77.5558V77.5571Z" fill="#00A499" fill-opacity="0.2"/>
<path d="M44.408 88.3834C44.6796 88.3834 44.8953 88.1637 44.8953 87.8922V53.7489C44.8953 53.4773 44.6796 53.2577 44.408 53.2577C44.1364 53.2577 43.9168 53.4773 43.9168 53.7489V87.8922C43.9168 88.1651 44.1364 88.3834 44.408 88.3834Z" fill="#00A499" fill-opacity="0.2"/>
<path d="M44.408 54.2375C44.5744 54.2375 44.742 54.1491 44.8343 53.9919C44.9655 53.7567 44.8875 53.4578 44.6497 53.3226L15.0807 36.2484C14.8481 36.1145 14.5492 36.1938 14.4089 36.4277C14.2776 36.6629 14.3556 36.9618 14.5882 37.097L44.1611 54.1712C44.2352 54.2167 44.3235 54.2375 44.4067 54.2375H44.408Z" fill="#00A499" fill-opacity="0.2"/>
<path d="M44.408 54.2375C44.4912 54.2375 44.5743 54.218 44.6497 54.1712L74.2213 37.097C74.4591 36.9605 74.5371 36.6616 74.4019 36.4277C74.2655 36.1925 73.9666 36.1133 73.734 36.2484L44.1624 53.3226C43.9298 53.4591 43.8466 53.7567 43.9831 53.9919C44.0753 54.1504 44.2378 54.2375 44.4093 54.2375H44.408Z" fill="#00A499" fill-opacity="0.2"/>
<path d="M73.9744 37.4089C74.2291 37.4089 74.4773 37.2777 74.6138 37.0399C74.8178 36.689 74.6943 36.2381 74.3435 36.0341L63.5861 29.825C63.2353 29.621 62.7869 29.7419 62.5803 30.0927C62.3789 30.4436 62.4984 30.8945 62.8519 31.0985L73.6079 37.3089C73.7249 37.3765 73.8496 37.4076 73.9744 37.4076V37.4089Z" fill="#00A499" fill-opacity="0.2"/>
<path d="M14.8351 37.4089C14.9625 37.4089 15.0859 37.3777 15.2042 37.3102L25.9615 31.0998C26.3124 30.8958 26.4358 30.4462 26.2292 30.094C26.0278 29.7431 25.5795 29.6223 25.2286 29.8263L14.4661 36.0353C14.1152 36.2394 13.9957 36.689 14.1984 37.0412C14.3348 37.2777 14.5804 37.4102 14.8351 37.4102V37.4089Z" fill="#00A499" fill-opacity="0.2"/>
<path d="M44.408 42.0585C44.5354 42.0585 44.6627 42.0261 44.7771 41.9598L74.3447 24.8882C74.6956 24.6841 74.8191 24.2345 74.6151 23.8823C74.411 23.5289 73.9627 23.408 73.6092 23.612L44.408 40.4731L15.2042 23.612C14.8533 23.408 14.4011 23.5289 14.1983 23.8823C13.9969 24.2332 14.1152 24.6841 14.466 24.8882L44.0389 41.9598C44.1533 42.0261 44.2806 42.0585 44.408 42.0585Z" fill="#00A499" fill-opacity="0.2"/>
<path d="M44.408 35.3713C44.4912 35.3713 44.5744 35.3492 44.6498 35.305L74.2213 18.2334C74.4591 18.0969 74.5371 17.7993 74.402 17.5641C74.2655 17.3289 73.9666 17.2483 73.734 17.3835L44.408 34.3148L15.0808 17.3835C14.8482 17.247 14.5493 17.3289 14.4089 17.5641C14.2777 17.7993 14.3556 18.0982 14.5882 18.2334L44.1611 35.305C44.2352 35.3492 44.3197 35.3713 44.4067 35.3713H44.408Z" fill="#00A499" fill-opacity="0.2"/>
<path d="M44.408 36.7786C44.4912 36.7786 44.5744 36.7344 44.6185 36.6578C44.6887 36.5395 44.6445 36.3901 44.5302 36.3225L14.9573 19.2483C14.839 19.1807 14.6896 19.2197 14.6233 19.3379C14.5531 19.4562 14.5921 19.6056 14.7117 19.6732L44.2807 36.7448C44.3249 36.7669 44.3638 36.7773 44.408 36.7773V36.7786Z" fill="#00A499" fill-opacity="0.2"/>
<path d="M44.408 38.2081C44.4912 38.2081 44.5744 38.1639 44.6185 38.0846C44.6887 37.9677 44.6445 37.8195 44.5302 37.7507L14.9573 20.679C14.839 20.6089 14.6896 20.6505 14.6233 20.7674C14.5531 20.8857 14.5921 21.0351 14.7117 21.1027L44.2807 38.1743C44.3249 38.199 44.3638 38.2068 44.408 38.2068V38.2081Z" fill="#00A499" fill-opacity="0.2"/>
<path d="M44.408 39.6389C44.4912 39.6389 44.5744 39.5947 44.6185 39.5155C44.6887 39.3972 44.6445 39.2478 44.5302 39.1802L14.9573 22.1086C14.839 22.041 14.6896 22.08 14.6233 22.1969C14.5531 22.3152 14.5921 22.4646 14.7117 22.5322L44.2807 39.6038C44.3249 39.6285 44.3638 39.6389 44.408 39.6389Z" fill="#00A499" fill-opacity="0.2"/>
<path d="M44.4081 36.7787C44.447 36.7787 44.4912 36.7683 44.5315 36.7462L74.0992 19.6746C74.2175 19.607 74.2577 19.4575 74.1889 19.338C74.1213 19.221 73.9718 19.1795 73.8549 19.2483L44.2807 36.3226C44.1664 36.3901 44.1274 36.5396 44.1923 36.6578C44.2404 36.7345 44.3197 36.7787 44.4081 36.7787Z" fill="#00A499" fill-opacity="0.2"/>
<path d="M44.4081 38.2081C44.4471 38.2081 44.4913 38.199 44.5315 38.1756L74.0992 21.104C74.2175 21.0364 74.2578 20.8869 74.1889 20.7687C74.1213 20.6517 73.9719 20.6102 73.8549 20.6803L44.2807 37.752C44.1664 37.8195 44.1274 37.969 44.1924 38.0859C44.2405 38.1652 44.3197 38.2094 44.4081 38.2094V38.2081Z" fill="#00A499" fill-opacity="0.2"/>
<path d="M44.4081 39.6388C44.4471 39.6388 44.4913 39.6285 44.5315 39.6038L74.0992 22.5321C74.2175 22.4646 74.2578 22.3151 74.1889 22.1969C74.1213 22.0799 73.9719 22.0409 73.8549 22.1085L44.2807 39.1801C44.1664 39.2477 44.1274 39.3971 44.1924 39.5154C44.2405 39.5947 44.3197 39.6388 44.4081 39.6388Z" fill="#00A499" fill-opacity="0.2"/>
<path d="M14.8353 18.5453C14.9627 18.5453 15.0861 18.5128 15.2044 18.4465L44.4082 1.5854L73.6094 18.4465C73.9629 18.6505 74.4112 18.5297 74.6153 18.1762C74.8193 17.8253 74.6958 17.3744 74.345 17.1704L44.776 0.097463C44.5434 -0.0324877 44.2666 -0.0324877 44.0378 0.097463L14.4663 17.1717C14.1154 17.3757 13.9958 17.8253 14.1986 18.1775C14.335 18.414 14.5806 18.5466 14.8353 18.5466V18.5453Z" fill="#00A499" fill-opacity="0.2"/>
<path d="M73.9744 24.9868C74.3825 24.9868 74.7126 24.6555 74.7126 24.2513V17.8097C74.7126 17.4016 74.3838 17.0715 73.9744 17.0715C73.5651 17.0715 73.2415 17.4003 73.2415 17.8097V24.2513C73.2415 24.6555 73.569 24.9868 73.9744 24.9868Z" fill="#00A499" fill-opacity="0.2"/>
<path d="M44.408 41.813C44.6796 41.813 44.8953 41.5933 44.8953 41.3231V34.8814C44.8953 34.6111 44.6796 34.3915 44.408 34.3915C44.1364 34.3915 43.9168 34.6111 43.9168 34.8814V41.3231C43.9168 41.5933 44.1364 41.813 44.408 41.813Z" fill="#00A499" fill-opacity="0.2"/>
<path d="M14.8351 24.9868C15.2432 24.9868 15.5733 24.6555 15.5733 24.2513V17.8097C15.5733 17.4016 15.2445 17.0715 14.8351 17.0715C14.4258 17.0715 14.097 17.4003 14.097 17.8097V24.2513C14.097 24.6555 14.431 24.9868 14.8351 24.9868Z" fill="#00A499" fill-opacity="0.2"/>
<path d="M65.3353 36.6137C65.4184 36.6137 65.5016 36.5695 65.5484 36.4902C65.6147 36.3732 65.5744 36.2251 65.4561 36.1562L59.2523 32.5735C59.134 32.5059 58.9846 32.5423 58.9144 32.6619C58.8481 32.7801 58.8897 32.9296 59.0067 32.9971L65.2131 36.5825C65.2521 36.6046 65.295 36.6137 65.3366 36.6137H65.3353Z" fill="#00A499" fill-opacity="0.2"/>
<path d="M63.5315 37.661C63.6147 37.661 63.6979 37.6168 63.742 37.5402C63.8096 37.4219 63.7706 37.2725 63.6524 37.2023L57.4745 33.6364C57.3563 33.5663 57.2068 33.6079 57.1392 33.7248C57.0717 33.8431 57.1106 33.9925 57.2289 34.0601L63.4094 37.6272C63.4483 37.6493 63.4912 37.6597 63.5328 37.6597L63.5315 37.661Z" fill="#00A499" fill-opacity="0.2"/>
<path d="M67.1403 35.5688C67.226 35.5688 67.3066 35.5246 67.3534 35.4454C67.4197 35.3271 67.3794 35.1777 67.265 35.1101L61.0911 31.5468C60.9728 31.4793 60.8234 31.5209 60.7571 31.6365C60.6895 31.7535 60.7285 31.9042 60.8454 31.9718L67.0194 35.5324C67.0571 35.5545 67.0987 35.5675 67.1403 35.5675V35.5688Z" fill="#00A499" fill-opacity="0.2"/>
<path d="M61.7265 38.7084C61.8097 38.7084 61.8929 38.6642 61.9371 38.5876C62.0046 38.4693 61.9656 38.3199 61.8474 38.2523L55.6851 34.6695C55.5682 34.602 55.42 34.641 55.3512 34.7592C55.2836 34.8762 55.3226 35.0243 55.4408 35.0945L61.6018 38.6759C61.6408 38.7006 61.6837 38.7084 61.7265 38.7084Z" fill="#00A499" fill-opacity="0.2"/>
<path d="M59.9189 39.7558C60.0047 39.7558 60.0853 39.7117 60.1295 39.6324C60.1996 39.5154 60.1581 39.3647 60.0411 39.2971L53.8541 35.7248C53.7359 35.6572 53.5865 35.6962 53.5189 35.8144C53.4513 35.9327 53.4903 36.0821 53.6085 36.1484L59.7955 39.7221C59.8345 39.7442 59.8774 39.7546 59.9189 39.7546V39.7558Z" fill="#00A499" fill-opacity="0.2"/>
<path d="M58.1152 40.8032C58.1945 40.8032 58.2737 40.7642 58.3218 40.6889C58.392 40.5745 58.3595 40.4238 58.2451 40.351L52.2232 36.5395C52.1089 36.4668 51.9555 36.5006 51.8828 36.6136C51.81 36.728 51.8451 36.8813 51.9594 36.9541L57.9839 40.7655C58.0229 40.7902 58.0697 40.8032 58.1152 40.8032Z" fill="#00A499" fill-opacity="0.2"/>
<path d="M56.3063 41.8507C56.3947 41.8507 56.4778 41.8052 56.5194 41.7272C56.587 41.6103 56.5506 41.4621 56.431 41.3919L50.235 37.8183C50.118 37.7481 49.966 37.7871 49.8997 37.9067C49.8334 38.0249 49.8737 38.1744 49.992 38.2419L56.1841 41.8182C56.2218 41.8403 56.2647 41.8507 56.305 41.8507H56.3063Z" fill="#00A499" fill-opacity="0.2"/>
<path d="M54.5013 42.898C54.5844 42.898 54.6702 42.8538 54.717 42.7746C54.7833 42.6563 54.743 42.5069 54.6247 42.4393L48.4261 38.8605C48.3117 38.7929 48.1584 38.8319 48.0921 38.9501C48.0219 39.0684 48.0661 39.2178 48.1844 39.2841L54.3804 42.8629C54.4181 42.8876 54.461 42.898 54.5013 42.898Z" fill="#00A499" fill-opacity="0.2"/>
<path d="M52.6962 43.9428C52.7846 43.9428 52.8626 43.8986 52.912 43.822C52.9782 43.7037 52.938 43.5543 52.8197 43.4867L46.6158 39.9053C46.5015 39.8377 46.3482 39.8767 46.2819 39.9949C46.2156 40.1119 46.2559 40.26 46.3702 40.3289L52.5754 43.9116C52.6131 43.9337 52.6573 43.9428 52.6962 43.9428Z" fill="#00A499" fill-opacity="0.2"/>
<path d="M50.8913 44.9915C50.9744 44.9915 51.0576 44.9473 51.1018 44.8681C51.172 44.7498 51.133 44.6004 51.0134 44.5328L44.8057 40.9475C44.6913 40.8812 44.538 40.9215 44.4717 41.0371C44.4015 41.1554 44.4457 41.3048 44.5601 41.3724L50.7678 44.9551C50.8068 44.9798 50.8484 44.9902 50.8913 44.9902V44.9915Z" fill="#00A499" fill-opacity="0.2"/>
<path d="M49.0888 46.0377C49.172 46.0377 49.2552 45.9935 49.2993 45.9142C49.3656 45.7972 49.3253 45.6491 49.2071 45.5802L24.701 31.4169C24.5866 31.3493 24.4372 31.3909 24.367 31.5066C24.2968 31.6248 24.341 31.7743 24.4593 31.8405L48.9654 46.0052C49.0044 46.0273 49.0446 46.0364 49.0888 46.0364V46.0377Z" fill="#00A499" fill-opacity="0.2"/>
<path d="M47.2838 47.0838C47.367 47.0838 47.4501 47.037 47.4943 46.9603C47.5645 46.8434 47.5203 46.6952 47.406 46.625L22.896 32.4669C22.7816 32.3993 22.6322 32.4383 22.562 32.5566C22.4957 32.6735 22.536 32.8243 22.6543 32.8905L47.1604 47.0513C47.1993 47.0734 47.2396 47.0838 47.2838 47.0838Z" fill="#00A499" fill-opacity="0.2"/>
<path d="M45.4788 48.1311C45.5619 48.1311 45.6451 48.0869 45.6893 48.0077C45.7556 47.8907 45.7205 47.7426 45.6009 47.6737L21.0909 33.513C20.9766 33.4428 20.8271 33.4844 20.757 33.6013C20.6868 33.7196 20.7258 33.869 20.8453 33.9366L45.3553 48.0999C45.3943 48.122 45.4346 48.1311 45.4788 48.1311Z" fill="#00A499" fill-opacity="0.2"/>
<path d="M30.3473 20.0852C30.3863 20.0852 30.4305 20.0748 30.4708 20.0527L48.2545 9.78266C48.3728 9.71639 48.4131 9.56564 48.3468 9.44869C48.2805 9.33043 48.1272 9.29015 48.0128 9.35902L30.2252 19.629C30.1069 19.6953 30.0666 19.846 30.1329 19.963C30.181 20.0423 30.2603 20.0865 30.3486 20.0865L30.3473 20.0852Z" fill="#00A499" fill-opacity="0.2"/>
<path d="M27.6782 18.5388C27.7224 18.5388 27.7613 18.5284 27.8055 18.5063L45.5893 8.23631C45.7075 8.16874 45.7478 8.01929 45.6815 7.89974C45.6114 7.78278 45.4619 7.7438 45.3437 7.81137L27.5599 18.0801C27.4417 18.1477 27.3975 18.2971 27.4676 18.4167C27.5118 18.4959 27.595 18.5401 27.6782 18.5401V18.5388Z" fill="#00A499" fill-opacity="0.2"/>
<path d="M29.0127 19.312C29.0517 19.312 29.0959 19.3016 29.1362 19.2795L46.9239 9.00947C47.0382 8.94319 47.0824 8.79245 47.0122 8.6755C46.9459 8.55724 46.7965 8.51696 46.6782 8.58583L28.8906 18.8545C28.7723 18.9221 28.7321 19.0742 28.8022 19.1911C28.8464 19.2704 28.9296 19.3146 29.0127 19.3146V19.312Z" fill="#00A499" fill-opacity="0.2"/>
<path d="M31.678 20.8571C31.7222 20.8571 31.7612 20.8454 31.8015 20.8246L49.5891 10.5559C49.7074 10.4883 49.7477 10.3363 49.6814 10.2193C49.6112 10.1011 49.4579 10.0634 49.3435 10.1297L31.5559 20.3997C31.4415 20.4659 31.3973 20.6167 31.4675 20.7336C31.5117 20.8129 31.5949 20.8571 31.678 20.8571Z" fill="#00A499" fill-opacity="0.2"/>
<path d="M33.0126 21.6303C33.0568 21.6303 33.0958 21.6199 33.1361 21.5978L50.9224 11.3291C51.0407 11.2615 51.081 11.1121 51.0108 10.9938C50.9445 10.8768 50.7938 10.8379 50.6768 10.9054L32.8905 21.1741C32.7722 21.2417 32.7319 21.3912 32.8021 21.5081C32.8463 21.5874 32.9295 21.6316 33.0126 21.6316V21.6303Z" fill="#00A499" fill-opacity="0.2"/>
<path d="M34.3485 22.4048C34.3875 22.4048 34.4317 22.3944 34.472 22.3723L52.2583 12.1023C52.3727 12.0347 52.4143 11.8853 52.3467 11.7683C52.2804 11.6501 52.1297 11.6098 52.0127 11.6787L34.2264 21.9474C34.1081 22.0149 34.0678 22.167 34.1341 22.2839C34.1822 22.3632 34.2653 22.4074 34.3498 22.4074L34.3485 22.4048Z" fill="#00A499" fill-opacity="0.2"/>
<path d="M35.6779 23.178C35.7221 23.178 35.7611 23.1676 35.8014 23.1429L53.5877 12.8742C53.706 12.8066 53.7462 12.6572 53.6774 12.5402C53.6098 12.4246 53.4604 12.3817 53.3421 12.4506L35.5596 22.7193C35.4414 22.7868 35.4011 22.9363 35.4674 23.0545C35.5116 23.1338 35.5947 23.178 35.6779 23.178Z" fill="#00A499" fill-opacity="0.2"/>
<path d="M37.0138 23.9512C37.0528 23.9512 37.097 23.9408 37.1373 23.9187L54.9237 13.6487C55.0419 13.5824 55.0822 13.433 55.0133 13.3147C54.9458 13.1978 54.7937 13.1562 54.678 13.2251L36.8917 23.4938C36.7734 23.5614 36.7332 23.7108 36.8033 23.8291C36.8475 23.9083 36.9307 23.9525 37.0138 23.9525V23.9512Z" fill="#00A499" fill-opacity="0.2"/>
<path d="M38.3484 24.7231C38.3874 24.7231 38.4316 24.7127 38.4719 24.6906L56.2556 14.4219C56.3739 14.3543 56.4155 14.2049 56.3453 14.0866C56.279 13.9697 56.1283 13.9307 56.0113 13.9983L38.225 24.267C38.1067 24.3345 38.0664 24.484 38.1366 24.6009C38.1808 24.6802 38.2601 24.7244 38.3471 24.7244L38.3484 24.7231Z" fill="#00A499" fill-opacity="0.2"/>
<path d="M39.6791 25.4964C39.7233 25.4964 39.7623 25.486 39.8025 25.4639L57.5889 15.1952C57.7072 15.1276 57.7474 14.9782 57.6812 14.8612C57.611 14.743 57.4616 14.7027 57.3433 14.7716L39.5569 25.0403C39.4426 25.1078 39.3984 25.2573 39.4686 25.3768C39.5128 25.4535 39.5959 25.4977 39.6791 25.4977V25.4964Z" fill="#00A499" fill-opacity="0.2"/>
<path d="M41.0137 26.2709C41.0526 26.2709 41.0968 26.2605 41.1371 26.2384L58.9235 15.9684C59.0404 15.9008 59.082 15.7514 59.0118 15.6344C58.9456 15.5162 58.7948 15.4759 58.6779 15.5448L40.8915 25.8135C40.7733 25.881 40.733 26.0305 40.8031 26.1487C40.8473 26.2254 40.9266 26.2722 41.0137 26.2722V26.2709Z" fill="#00A499" fill-opacity="0.2"/>
<path d="M42.3483 27.044C42.3873 27.044 42.4315 27.0336 42.4666 27.0115L60.2555 16.7428C60.3725 16.6753 60.4115 16.5258 60.3452 16.4063C60.275 16.288 60.1256 16.2477 60.0099 16.3166L42.2261 26.5853C42.1079 26.6529 42.0676 26.8023 42.1339 26.9206C42.182 26.9999 42.2651 27.044 42.3496 27.044H42.3483Z" fill="#00A499" fill-opacity="0.2"/>
<path d="M43.679 27.8172C43.7232 27.8172 43.7622 27.8055 43.8025 27.7847L61.5888 17.516C61.7071 17.4485 61.7474 17.299 61.6772 17.1808C61.6109 17.0638 61.4615 17.0222 61.3432 17.0911L43.5569 27.3611C43.4425 27.4274 43.3983 27.5781 43.4685 27.6951C43.5127 27.7743 43.5958 27.8185 43.679 27.8185V27.8172Z" fill="#00A499" fill-opacity="0.2"/>
<path d="M61.7291 81.5597C61.7928 81.5597 61.8565 81.5506 61.9227 81.5337C62.3139 81.4284 62.5465 81.0243 62.4413 80.6331C61.568 77.3727 59.4771 74.6489 56.5571 72.9596C53.6332 71.2715 50.2272 70.8232 46.968 71.6977C46.5769 71.803 46.3443 72.2071 46.4495 72.5996C46.5548 72.992 46.955 73.2234 47.3501 73.1194C50.2298 72.3462 53.2368 72.7438 55.819 74.2344C58.4011 75.7249 60.2477 78.1316 61.0183 81.01C61.108 81.3388 61.4042 81.5584 61.7291 81.5584V81.5597Z" fill="#00A499" fill-opacity="0.2"/>
<path d="M73.4572 56.292C74.5527 56.292 75.6572 56.1465 76.7462 55.8554C77.1374 55.7501 77.3726 55.346 77.266 54.9548C77.1634 54.5598 76.7566 54.3311 76.3642 54.4324C73.4858 55.2056 70.4761 54.8106 67.894 53.3174C65.3119 51.8295 63.464 49.4228 62.6947 46.5418C62.5894 46.1494 62.1852 45.9181 61.7928 46.0194C61.4003 46.1247 61.1677 46.5288 61.273 46.9213C62.1463 50.1817 64.2372 52.9042 67.1611 54.5949C69.1064 55.7163 71.2662 56.292 73.4572 56.292Z" fill="#00A499" fill-opacity="0.2"/>
<path d="M72.1616 59.0249C72.2409 59.0249 72.3201 59.0223 72.4007 59.0223C72.5346 59.0223 72.6463 58.9106 72.645 58.7741C72.645 58.6429 72.5333 58.5324 72.3994 58.5324C72.3136 58.5168 72.2409 58.5324 72.1629 58.5324C64.2112 58.5324 59.1483 55.9594 55.7631 50.2078C55.6968 50.0895 55.5435 50.0518 55.4291 50.1194C55.3109 50.1896 55.2706 50.339 55.3408 50.4547C58.8222 56.3739 64.0176 59.0236 72.1629 59.0236L72.1616 59.0249Z" fill="#00A499" fill-opacity="0.2"/>
<path d="M73.9744 56.2816C74.3825 56.2816 74.7125 55.9528 74.7125 55.5461V36.6733C74.7125 36.2666 74.3838 35.9378 73.9744 35.9378C73.5651 35.9378 73.2415 36.2666 73.2415 36.6733V55.5461C73.2415 55.9515 73.569 56.2816 73.9744 56.2816Z" fill="#00A499" fill-opacity="0.2"/>
<path d="M44.408 88.6289C44.5354 88.6289 44.6588 88.5977 44.7771 88.5301L61.1756 79.0606C61.5264 78.8566 61.6473 78.407 61.4433 78.0548C61.2418 77.7039 60.7896 77.5831 60.4401 77.7845L44.039 87.254C43.6881 87.458 43.5646 87.9077 43.7661 88.2598C43.9064 88.4964 44.152 88.6289 44.4067 88.6289H44.408Z" fill="#00A499" fill-opacity="0.2"/>
<path d="M53.5773 79.01C55.5318 79.01 57.6981 78.3355 59.8786 77.0035C60.1087 76.8632 60.184 76.5617 60.0437 76.3291C59.9033 76.0991 59.6006 76.0263 59.3692 76.1667C56.0477 78.1913 52.8197 78.5876 50.5105 77.2531C48.2727 75.96 47.0291 73.2064 47.0161 69.4989C47.0031 65.6939 48.2805 61.3731 50.6158 57.3316C52.9471 53.2875 56.0516 50.0206 59.3536 48.1298C62.5725 46.2858 65.5757 45.983 67.8147 47.2773C70.1422 48.621 71.3806 51.5124 71.3052 55.4226C71.3013 55.6903 71.5131 55.9164 71.786 55.9203H71.7951C72.0628 55.9203 72.2798 55.7072 72.285 55.4395C72.3708 51.1589 70.9595 47.957 68.3073 46.4274C65.7511 44.9525 62.3997 45.2527 58.8663 47.2773C55.4174 49.2539 52.183 52.6469 49.7646 56.8404C47.3449 61.0287 46.0194 65.525 46.0363 69.5015C46.0493 73.5742 47.4632 76.6254 50.0193 78.1016C51.0719 78.7072 52.2752 79.0087 53.5773 79.0087V79.01Z" fill="#00A499" fill-opacity="0.2"/>
<path d="M52.0114 77.869C54.066 77.869 56.3609 77.0893 58.6701 75.5793C58.7845 75.5052 58.8131 75.3532 58.7429 75.2414C58.6662 75.1271 58.5142 75.0959 58.3998 75.1687C55.3746 77.1491 52.3948 77.8301 50.0141 77.0854C49.8828 77.0439 49.7464 77.1166 49.7061 77.2453C49.6671 77.3752 49.7373 77.5104 49.8685 77.5533C50.5391 77.7638 51.259 77.869 52.0101 77.869H52.0114Z" fill="#00A499" fill-opacity="0.2"/>
<path d="M50.7561 77.144C52.886 77.144 55.2745 76.3058 57.6565 74.6957C57.7683 74.619 57.7995 74.467 57.7202 74.3526C57.6461 74.2435 57.4915 74.2123 57.3823 74.2863C54.4363 76.2772 51.5034 77.0478 49.124 76.4604C48.9927 76.4279 48.8563 76.5085 48.8251 76.6411C48.79 76.7723 48.8731 76.9048 49.0057 76.9373C49.5632 77.0751 50.1506 77.144 50.7561 77.144Z" fill="#00A499" fill-opacity="0.2"/>
<path d="M49.4917 76.4201C51.6463 76.4201 54.0881 75.5533 56.4857 73.9147C56.5948 73.8406 56.6234 73.6859 56.5493 73.5742C56.4701 73.4624 56.3193 73.4364 56.2063 73.5105C53.502 75.3597 50.7574 76.194 48.4729 75.8548C48.3455 75.8418 48.2182 75.9289 48.1961 76.064C48.174 76.1979 48.2702 76.3213 48.4027 76.3434C48.7536 76.3967 49.1187 76.4201 49.4917 76.4201Z" fill="#00A499" fill-opacity="0.2"/>
<path d="M48.2585 75.695C50.3936 75.695 52.7691 74.8516 55.1472 73.2467C55.2615 73.1726 55.2875 73.018 55.2134 72.9088C55.1368 72.7945 54.9847 72.7633 54.873 72.8413C52.4806 74.4552 50.1025 75.2765 48.0051 75.2012C47.8738 75.2012 47.7543 75.3025 47.7543 75.4377C47.7452 75.5715 47.8556 75.6859 47.9869 75.6898C48.0792 75.6924 48.1675 75.6937 48.2585 75.6937V75.695Z" fill="#00A499" fill-opacity="0.2"/>
<path d="M47.5905 74.9517H47.6074C49.5086 74.8113 51.6021 74.0251 53.6657 72.6723C53.7801 72.5983 53.81 72.4462 53.7359 72.3345C53.6618 72.2201 53.5098 72.1889 53.398 72.2643C51.4046 73.569 49.3903 74.3279 47.5723 74.4592C47.4359 74.4708 47.3358 74.5865 47.3488 74.723C47.3579 74.8529 47.4632 74.9517 47.5905 74.9517Z" fill="#00A499" fill-opacity="0.2"/>
<path d="M47.2358 74.1148C47.254 74.1148 47.2669 74.1122 47.2799 74.1109C48.751 73.8562 50.287 73.248 51.8451 72.3058C51.9634 72.2357 51.9985 72.0836 51.9283 71.9693C51.8607 71.851 51.7087 71.8159 51.5943 71.8861C50.0843 72.7945 48.6054 73.3818 47.1955 73.6275C47.059 73.6521 46.972 73.7769 46.994 73.9107C47.0161 74.0316 47.1214 74.1148 47.2358 74.1148Z" fill="#00A499" fill-opacity="0.2"/>
<path d="M70.1811 55.4473C70.3085 55.4473 70.419 55.3459 70.4268 55.2173C70.6334 51.4565 69.6808 48.3962 67.7355 46.6041C67.6341 46.5158 67.4782 46.521 67.3885 46.621C67.2962 46.7198 67.3027 46.8757 67.4015 46.968C69.2364 48.6561 70.137 51.5761 69.9355 55.1874C69.9316 55.3238 70.0317 55.4395 70.1681 55.446H70.1811V55.4473Z" fill="#00A499" fill-opacity="0.2"/>
<path d="M68.9102 55.0081C69.0401 55.0081 69.1454 54.9093 69.1545 54.7794C69.4131 51.0926 68.5684 48.0349 66.7699 46.1649C66.6737 46.0688 66.5191 46.0636 66.4203 46.1584C66.3255 46.2533 66.3216 46.4092 66.4138 46.5054C68.1175 48.2727 68.9167 51.2018 68.6659 54.7456C68.6555 54.882 68.7556 54.9977 68.8894 55.0094H68.9089L68.9102 55.0081Z" fill="#00A499" fill-opacity="0.2"/>
<path d="M67.6471 54.3843C67.7745 54.3843 67.8823 54.2829 67.8914 54.1555C68.15 50.7651 67.4613 47.8477 65.9525 45.9427C65.8694 45.8374 65.716 45.8192 65.6095 45.9011C65.5042 45.9868 65.4847 46.1428 65.5679 46.248C67.0012 48.057 67.651 50.8522 67.4028 54.1192C67.3924 54.253 67.4925 54.3713 67.6289 54.383C67.6354 54.3856 67.6393 54.3856 67.6458 54.3856L67.6471 54.3843Z" fill="#00A499" fill-opacity="0.2"/>
<path d="M66.4009 53.5591C66.5282 53.5591 66.6374 53.4603 66.6465 53.3304C66.8557 50.3493 66.3528 47.7841 65.1845 45.9102C65.1104 45.7932 64.9584 45.7608 64.8466 45.8309C64.731 45.9011 64.6946 46.0544 64.7674 46.1688C65.8785 47.953 66.3619 50.4195 66.1552 53.2953C66.1461 53.4317 66.2501 53.5474 66.384 53.5591H66.4022H66.4009Z" fill="#00A499" fill-opacity="0.2"/>
<path d="M65.1624 52.5689C65.2924 52.5689 65.3989 52.4662 65.408 52.3362C65.5484 49.875 65.1793 47.6684 64.3502 45.9518C64.2905 45.8309 64.1436 45.7789 64.0215 45.8374C63.898 45.8972 63.8499 46.0466 63.9071 46.1662C64.7024 47.8062 65.0533 49.9309 64.9168 52.3064C64.9103 52.4428 65.013 52.5585 65.1494 52.565C65.1533 52.5676 65.1585 52.5676 65.1624 52.5676V52.5689Z" fill="#00A499" fill-opacity="0.2"/>
<path d="M63.9344 51.185C64.0682 51.185 64.1761 51.0771 64.18 50.9458C64.2151 49.1239 63.9708 47.4853 63.4575 46.0857C63.412 45.9583 63.269 45.8921 63.1417 45.9388C63.0143 45.9843 62.9481 46.1273 62.9974 46.2533C63.4887 47.6009 63.7226 49.1759 63.6888 50.938C63.6862 51.0719 63.794 51.1837 63.9305 51.1863H63.9344V51.185Z" fill="#00A499" fill-opacity="0.2"/>
<path d="M74.385 99.8476C74.4708 99.8476 74.554 99.8034 74.5981 99.7241C74.6644 99.6072 74.6267 99.4564 74.5085 99.3901C68.0096 95.6359 68.2137 83.0735 74.9607 71.387C78.2407 65.703 82.5641 61.0794 87.128 58.366C91.649 55.6786 95.8594 55.1913 98.986 56.9963C99.1042 57.0626 99.2537 57.0223 99.32 56.9066C99.3901 56.7897 99.3486 56.6389 99.2316 56.5714C95.9477 54.6741 91.5606 55.1614 86.8772 57.9462C82.2431 60.7012 77.856 65.3885 74.5371 71.1427C67.6549 83.0657 67.5288 95.9269 74.2642 99.8177C74.3018 99.8398 74.3434 99.8489 74.385 99.8489V99.8476Z" fill="#00A499" fill-opacity="0.2"/>
<path d="M57.1549 73.977C57.2381 73.977 57.3212 73.9328 57.368 73.8562C57.4343 73.7379 57.394 73.5885 57.2758 73.5209C55.9412 72.7477 55.2186 71.0713 55.2498 68.7959C55.2784 66.4711 56.088 63.8162 57.5266 61.3224C58.9664 58.83 60.8611 56.804 62.861 55.6137C64.8155 54.4506 66.6257 54.2375 67.9629 55.0081C68.0812 55.0783 68.2306 55.0367 68.2969 54.9198C68.3671 54.8015 68.3255 54.6521 68.2085 54.5858C66.7115 53.719 64.7219 53.936 62.6102 55.1914C60.5375 56.4233 58.5844 58.5129 57.1042 61.0768C55.6202 63.6407 54.7885 66.3788 54.7599 68.7894C54.7274 71.2481 55.5331 73.0791 57.0328 73.9445C57.0704 73.9666 57.1146 73.9757 57.1562 73.9757L57.1549 73.977Z" fill="#00A499" fill-opacity="0.2"/>
<path d="M51.5059 72.2734C51.5891 72.2734 51.6723 72.2292 51.7164 72.1499C51.7827 72.033 51.7424 71.8822 51.6268 71.8159C50.1142 70.9427 49.2981 69.0493 49.3331 66.4828C49.3643 63.8643 50.2766 60.878 51.8958 58.0724C53.5137 55.2667 55.6462 52.9861 57.8956 51.6489C60.1022 50.3364 62.1476 50.0947 63.6628 50.9679C63.7798 51.0342 63.9279 50.9939 63.9968 50.8783C64.0631 50.7613 64.0228 50.6106 63.9084 50.543C62.2334 49.5775 60.0099 49.8179 57.6448 51.2252C55.3239 52.6066 53.129 54.9509 51.4708 57.8267C49.8101 60.7052 48.8744 63.7759 48.8393 66.4763C48.8042 69.2273 49.7048 71.2753 51.3786 72.2409C51.4163 72.263 51.4591 72.2721 51.5033 72.2721L51.5059 72.2734Z" fill="#00A499" fill-opacity="0.2"/>
<path d="M68.0292 94.8679C68.0864 94.8679 68.141 94.8497 68.1891 94.8107C68.2878 94.7224 68.306 94.569 68.2176 94.4638C64.015 89.4451 65.0611 78.7072 70.7075 68.931C76.3526 59.1574 85.1229 52.8782 91.575 54.0101C91.7049 54.0348 91.8336 53.9438 91.8583 53.81C91.8804 53.6761 91.792 53.5488 91.6608 53.5267C85.0216 52.361 76.0251 58.7364 70.2813 68.6841C64.5374 78.6345 63.5121 89.6062 67.8395 94.7795C67.8876 94.8367 67.9577 94.8679 68.0279 94.8679H68.0292Z" fill="#00A499" fill-opacity="0.2"/>
<path d="M63.8317 87.8194C63.8577 87.8194 63.885 87.8168 63.9058 87.8077C64.0371 87.7661 64.1072 87.627 64.0644 87.4984C62.3607 82.225 63.8642 74.5098 67.9902 67.3638C72.1395 60.1801 78.3174 54.8717 83.7272 53.8437C83.861 53.8191 83.9494 53.6904 83.9221 53.5579C83.8974 53.424 83.7727 53.3382 83.6349 53.3629C78.0055 54.4324 71.8471 59.7032 67.5691 67.1169C63.3756 74.3799 61.8539 82.2484 63.6004 87.6491C63.6355 87.7518 63.7317 87.8181 63.833 87.8181L63.8317 87.8194Z" fill="#00A499" fill-opacity="0.2"/>
<path d="M62.1086 81.6116C62.1333 81.6116 62.1593 81.6077 62.1853 81.5986C62.3126 81.5596 62.3828 81.4179 62.3438 81.2906C61.0326 77.2426 62.1905 71.3143 65.36 65.8213C68.5516 60.2971 73.2948 56.2179 77.448 55.433C77.5792 55.407 77.6676 55.2797 77.6429 55.1458C77.6169 55.012 77.487 54.9262 77.3557 54.9509C73.0037 55.7761 68.2449 59.8487 64.9376 65.577C61.6967 71.1882 60.5245 77.266 61.8734 81.4413C61.9085 81.5466 62.0047 81.6129 62.1086 81.6129V81.6116Z" fill="#00A499" fill-opacity="0.2"/>
<path d="M82.3796 75.9197C82.4654 75.9197 82.5459 75.8756 82.5953 75.7963C82.6629 75.678 82.6213 75.5286 82.5031 75.461L50.313 56.8742C50.1947 56.8066 50.0453 56.8482 49.9764 56.9638C49.9101 57.0808 49.9504 57.2315 50.0674 57.2991L82.2614 75.886C82.2964 75.9081 82.3406 75.9185 82.3796 75.9185V75.9197Z" fill="#00A499" fill-opacity="0.2"/>
<path d="M62.8195 75.6143C62.861 75.6143 62.9026 75.6039 62.9403 75.5831C63.0586 75.513 63.1002 75.3635 63.0326 75.2466C58.9365 68.046 54.0153 64.8115 47.0863 64.7543H47.0824C46.946 64.7543 46.8368 64.8635 46.8368 64.9999C46.8368 65.1364 46.946 65.2455 47.0824 65.2455C53.8165 65.2988 58.6078 68.4579 62.6076 75.487C62.6518 75.5675 62.735 75.6117 62.8208 75.6117L62.8195 75.6143Z" fill="#00A499" fill-opacity="0.2"/>
<path d="M59.2965 76.0575C59.3186 76.0575 59.3355 76.0549 59.3576 76.051C59.4888 76.0185 59.5681 75.8847 59.5356 75.7521C58.739 72.567 59.7136 68.0434 62.0774 63.9513C64.5413 59.6837 68.0903 56.5454 71.3442 55.7644C71.4755 55.7319 71.5547 55.5994 71.5249 55.4681C71.495 55.3369 71.3624 55.2576 71.226 55.2875C67.8499 56.0997 64.1826 59.325 61.6538 63.7044C59.2276 67.9044 58.2335 72.567 59.0587 75.8691C59.0847 75.9808 59.186 76.0562 59.2952 76.0562L59.2965 76.0575Z" fill="#00A499" fill-opacity="0.2"/>
<path d="M81.9755 103.022C75.2622 99.1446 75.1609 86.7096 81.7455 75.3051C86.872 66.4295 94.7159 60.4661 101.268 60.4661C102.961 60.4661 104.506 60.865 105.863 61.6473C109.185 63.5667 111.009 67.5484 111 72.8699C110.993 78.0406 109.252 83.9001 106.096 89.3645C100.972 98.2401 93.1253 104.204 86.5732 104.204C84.8825 104.204 83.3348 103.806 81.9755 103.022ZM83.0203 76.0407C76.8372 86.746 76.7021 98.2765 82.7123 101.749C83.8429 102.401 85.1424 102.733 86.5719 102.733C92.6133 102.733 99.949 97.0641 104.821 88.629C107.849 83.3816 109.519 77.7859 109.528 72.866C109.534 68.0981 107.971 64.5647 105.128 62.9221C103.994 62.2698 102.695 61.9358 101.265 61.9358C95.2214 61.9358 87.8882 67.6043 83.019 76.0394L83.0203 76.0407Z" fill="#00A499" fill-opacity="0.2"/>
<path d="M91.6659 65.1962C91.7425 65.1962 91.8192 65.1585 91.866 65.0936C91.9453 64.9844 91.9193 64.8298 91.8062 64.7505C86.3795 60.891 79.1256 58.5687 72.4007 58.5323H72.3981C72.2616 58.5323 72.1551 58.6415 72.1525 58.7741C72.1525 58.9105 72.2616 59.0223 72.3968 59.0223C79.0243 59.0573 86.1729 61.3471 91.5242 65.1494C91.5658 65.1806 91.6165 65.1949 91.6672 65.1949L91.6659 65.1962Z" fill="#00A499" fill-opacity="0.2"/>
<path d="M99.3811 61.377C99.4422 61.377 99.5045 61.3523 99.5526 61.3095C99.6488 61.2133 99.654 61.0586 99.5565 60.9625C92.5704 53.7398 82.546 53.0212 76.1862 55.4123C76.0562 55.4591 75.9951 55.6007 76.0432 55.7268C76.09 55.8541 76.2317 55.9204 76.3577 55.8697C82.5733 53.5384 92.3741 54.2401 99.2056 61.303C99.2537 61.3536 99.3148 61.377 99.3811 61.377Z" fill="#00A499" fill-opacity="0.2"/>
<path d="M77.7534 89.1903C77.843 89.1903 77.9353 89.137 77.9756 89.0474C78.0328 88.9239 77.9782 88.7771 77.8573 88.7225C71.9082 85.987 66.3658 80.9489 63.0339 75.244C62.9637 75.1258 62.8142 75.0855 62.696 75.1557C62.5816 75.2232 62.5426 75.3727 62.6076 75.4896C65.9902 81.2789 71.6132 86.3925 77.6507 89.1669C77.6858 89.1825 77.7183 89.189 77.7534 89.189V89.1903Z" fill="#00A499" fill-opacity="0.2"/>
<path d="M78.5149 97.845C78.6241 97.845 78.7254 97.7709 78.754 97.6566C78.7865 97.5253 78.7033 97.3928 78.5721 97.3629C68.9427 95.029 63.3795 86.8577 62.2776 80.251C62.2607 80.1171 62.1372 80.0248 61.9969 80.0495C61.8656 80.0716 61.7746 80.199 61.7967 80.3302C62.9182 87.0929 68.6114 95.4526 78.4577 97.8372C78.4759 97.8411 78.4967 97.8463 78.5149 97.8463V97.845Z" fill="#00A499" fill-opacity="0.2"/>
<path d="M84.3835 103.987C84.759 103.987 85.08 103.701 85.1151 103.321C85.1528 102.914 84.8565 102.554 84.4523 102.518C80.9489 102.189 77.6117 101.12 74.5358 99.346C67.7887 95.4488 63.2665 88.4912 62.4413 80.7332C62.3971 80.329 62.028 80.0353 61.6317 80.0808C61.2301 80.1224 60.9351 80.485 60.9793 80.8891C61.8526 89.1137 66.6478 96.4897 73.8003 100.62C77.0633 102.501 80.598 103.634 84.312 103.985C84.3367 103.985 84.3601 103.988 84.3848 103.988L84.3835 103.987Z" fill="#00A499" fill-opacity="0.2"/>
<path d="M107.894 65.1546C108.031 65.1546 108.171 65.1157 108.293 65.0364C108.636 64.8142 108.73 64.3606 108.509 64.0176C106.274 60.5713 103.321 57.7721 99.7319 55.6994C92.5795 51.5696 83.7974 51.1044 76.2343 54.4584C75.8639 54.6247 75.6963 55.0601 75.8587 55.4304C76.025 55.8021 76.4604 55.971 76.8333 55.806C83.9637 52.6404 92.2494 53.077 98.9964 56.9742C102.382 58.9287 105.168 61.5667 107.276 64.8181C107.416 65.0351 107.654 65.1533 107.894 65.1533V65.1546Z" fill="#00A499" fill-opacity="0.2"/>
<path d="M91.9661 94.4911C92.0077 94.4911 92.0492 94.482 92.0895 94.4586L97.5449 91.3086C97.6631 91.2423 97.7034 91.0929 97.6332 90.9746C97.5669 90.8564 97.4175 90.8161 97.2992 90.885L91.8439 94.035C91.727 94.1025 91.688 94.252 91.7543 94.3689C91.7984 94.4482 91.8816 94.4924 91.9674 94.4924L91.9661 94.4911Z" fill="#00A499" fill-opacity="0.2"/>
<path d="M88.7458 94.5482C88.79 94.5482 88.829 94.5378 88.8693 94.5131L100.523 87.7843C100.642 87.7167 100.682 87.5673 100.612 87.4477C100.545 87.3308 100.396 87.2918 100.278 87.3593L88.6237 94.0882C88.508 94.1558 88.4652 94.3052 88.5353 94.4248C88.5795 94.504 88.6601 94.5482 88.7458 94.5482Z" fill="#00A499" fill-opacity="0.2"/>
<path d="M87.2527 93.6036C87.2969 93.6036 87.3359 93.5945 87.3762 93.5724L101.98 85.1399C102.097 85.0723 102.139 84.9229 102.068 84.8033C102.002 84.6863 101.853 84.6448 101.734 84.7149L87.1319 93.1461C87.0136 93.2137 86.972 93.3632 87.0422 93.4827C87.0864 93.5594 87.1696 93.6036 87.2527 93.6036Z" fill="#00A499" fill-opacity="0.2"/>
<path d="M86.2781 92.3638C86.3171 92.3638 86.3613 92.3521 86.4015 92.3313L102.983 82.7553C103.1 82.689 103.143 82.5395 103.073 82.4213C103.007 82.303 102.856 82.2627 102.739 82.3316L86.1546 91.9064C86.0364 91.974 85.9961 92.126 86.0663 92.243C86.1104 92.3222 86.1936 92.3664 86.2768 92.3664L86.2781 92.3638Z" fill="#00A499" fill-opacity="0.2"/>
<path d="M85.666 90.9123C85.705 90.9123 85.7492 90.9032 85.7869 90.8811L103.565 80.6176C103.68 80.55 103.721 80.4006 103.654 80.2823C103.586 80.1654 103.434 80.1264 103.319 80.1939L85.5426 90.4549C85.4282 90.5224 85.3866 90.6719 85.4542 90.7888C85.501 90.8681 85.5816 90.9123 85.6673 90.9123H85.666Z" fill="#00A499" fill-opacity="0.2"/>
<path d="M85.3736 89.2762C85.4178 89.2762 85.4568 89.2658 85.4971 89.2438L103.864 78.6398C103.983 78.5722 104.023 78.4228 103.953 78.3058C103.886 78.1876 103.736 78.1473 103.619 78.2161L85.2515 88.8175C85.1345 88.8877 85.0929 89.0371 85.1631 89.1541C85.2073 89.2334 85.2879 89.2775 85.3736 89.2775V89.2762Z" fill="#00A499" fill-opacity="0.2"/>
<path d="M85.3424 87.4894C85.384 87.4894 85.4256 87.479 85.4672 87.4569L103.892 76.8179C104.01 76.7516 104.048 76.6009 103.981 76.4839C103.915 76.3657 103.764 76.3254 103.647 76.3942L85.219 87.0307C85.1007 87.1009 85.063 87.2503 85.1306 87.366C85.1748 87.4452 85.258 87.4894 85.3411 87.4894H85.3424Z" fill="#00A499" fill-opacity="0.2"/>
<path d="M85.5751 85.5504C85.6193 85.5504 85.6608 85.5413 85.6985 85.5179L103.662 75.1492C103.78 75.0816 103.818 74.9322 103.75 74.8152C103.684 74.6969 103.53 74.6567 103.416 74.7229L85.4529 85.0943C85.3347 85.1606 85.297 85.3113 85.3645 85.4283C85.4087 85.5075 85.4919 85.5517 85.5751 85.5517V85.5504Z" fill="#00A499" fill-opacity="0.2"/>
<path d="M86.1026 83.4427C86.1416 83.4427 86.1858 83.4336 86.2235 83.4102L103.138 73.647C103.255 73.5794 103.296 73.4274 103.228 73.3117C103.161 73.1948 103.008 73.1532 102.894 73.2221L85.9792 82.9879C85.8609 83.0541 85.8206 83.2049 85.8895 83.3218C85.935 83.4011 86.0195 83.4453 86.1026 83.4453V83.4427Z" fill="#00A499" fill-opacity="0.2"/>
<path d="M86.9812 81.1335C87.0227 81.1335 87.0643 81.1205 87.1046 81.0984L102.256 72.3514C102.373 72.2839 102.412 72.1344 102.345 72.0175C102.278 71.8992 102.126 71.8589 102.01 71.9278L86.859 80.6748C86.742 80.7424 86.7031 80.8918 86.7706 81.0114C86.8148 81.088 86.898 81.1348 86.9812 81.1348V81.1335Z" fill="#00A499" fill-opacity="0.2"/>
<path d="M88.3599 78.5319C88.4015 78.5319 88.4431 78.5215 88.4834 78.4994L100.879 71.3417C100.998 71.2741 101.038 71.1247 100.969 71.0077C100.901 70.8894 100.752 70.8492 100.635 70.9154L88.2378 78.0744C88.1195 78.142 88.0792 78.2914 88.1494 78.411C88.1936 78.4903 88.2768 78.5319 88.3599 78.5319Z" fill="#00A499" fill-opacity="0.2"/>
<path d="M90.9044 75.2584C90.9459 75.2584 90.9875 75.248 91.0252 75.2259L98.5026 70.9102C98.6208 70.8426 98.6585 70.6932 98.5909 70.575C98.5247 70.4606 98.3739 70.4164 98.257 70.4866L90.7796 74.8022C90.6652 74.8685 90.6237 75.0193 90.6912 75.1362C90.7367 75.2155 90.8186 75.2597 90.9044 75.2597V75.2584Z" fill="#00A499" fill-opacity="0.2"/>
</g>
</svg>
