<svg width="122" height="189" viewBox="0 0 122 189" fill="none" xmlns="http://www.w3.org/2000/svg">
<path d="M57.7319 6.62421C57.7319 4.69334 59.2966 3.12866 61.2441 3.12866C63.175 3.12866 64.7563 4.69334 64.7563 6.62421V6.99041H57.7486V6.62421H57.7319Z" fill="#ACDDDA" fill-opacity="0.2"/>
<path d="M64.7553 19.0767H57.7476V26.0844H64.7553V19.0767Z" fill="#ACDDDA" fill-opacity="0.2"/>
<path d="M26.572 133.579H19.5642V140.587H26.572V133.579Z" fill="#ACDDDA" fill-opacity="0.2"/>
<path d="M45.6789 133.579H38.6711V140.587H45.6789V133.579Z" fill="#ACDDDA" fill-opacity="0.2"/>
<path d="M19.5642 121.514L19.5809 114.506H26.572V121.514H19.5642Z" fill="#ACDDDA" fill-opacity="0.2"/>
<path d="M7.49481 114.506H0.487061V121.514H7.49481V114.506Z" fill="#ACDDDA" fill-opacity="0.2"/>
<path d="M26.5876 95.4108H19.5798V102.419H26.5876V95.4108Z" fill="#ACDDDA" fill-opacity="0.2"/>
<path d="M7.49481 95.4108H0.487061V102.419H7.49481V95.4108Z" fill="#ACDDDA" fill-opacity="0.2"/>
<path d="M7.49481 76.3209H0.487061V83.3287H7.49481V76.3209Z" fill="#ACDDDA" fill-opacity="0.2"/>
<path d="M7.49481 133.579H0.487061V140.587H7.49481V133.579Z" fill="#ACDDDA" fill-opacity="0.2"/>
<path d="M7.49481 152.655H0.487061V159.663H7.49481V152.655Z" fill="#ACDDDA" fill-opacity="0.2"/>
<path d="M26.572 152.655H19.5642V159.663H26.572V152.655Z" fill="#ACDDDA" fill-opacity="0.2"/>
<path d="M45.6789 152.655H38.6711V159.663H45.6789V152.655Z" fill="#ACDDDA" fill-opacity="0.2"/>
<path d="M57.7476 152.655H64.7553V159.663H57.7476V152.655Z" fill="#ACDDDA" fill-opacity="0.2"/>
<path d="M64.7553 133.579H57.7476V140.587H64.7553V133.579Z" fill="#ACDDDA" fill-opacity="0.2"/>
<path d="M64.7553 114.506H57.7476V121.514H64.7553V114.506Z" fill="#ACDDDA" fill-opacity="0.2"/>
<path d="M45.6789 114.506H38.6711V121.514H45.6789V114.506Z" fill="#ACDDDA" fill-opacity="0.2"/>
<path d="M45.6789 95.4108H38.6711V102.419H45.6789V95.4108Z" fill="#ACDDDA" fill-opacity="0.2"/>
<path d="M45.6789 76.3209H38.6711V83.3287H45.6789V76.3209Z" fill="#ACDDDA" fill-opacity="0.2"/>
<path d="M26.5876 76.3209H19.5798V83.3287H26.5876V76.3209Z" fill="#ACDDDA" fill-opacity="0.2"/>
<path d="M19.5798 64.252V57.2443H26.5876L26.5709 64.252H19.5798Z" fill="#ACDDDA" fill-opacity="0.2"/>
<path d="M7.49481 57.2443H0.487061V64.252H7.49481V57.2443Z" fill="#ACDDDA" fill-opacity="0.2"/>
<path d="M7.49481 171.766H0.487061V178.774H7.49481V171.766Z" fill="#ACDDDA" fill-opacity="0.2"/>
<path d="M26.572 171.766H19.5642V178.774H26.572V171.766Z" fill="#ACDDDA" fill-opacity="0.2"/>
<path d="M45.6789 171.766H38.6711V178.774H45.6789V171.766Z" fill="#ACDDDA" fill-opacity="0.2"/>
<path d="M64.7553 171.766H57.7476V178.774H64.7553V171.766Z" fill="#ACDDDA" fill-opacity="0.2"/>
<path d="M83.8325 171.766H76.8247V178.774H83.8325V171.766Z" fill="#ACDDDA" fill-opacity="0.2"/>
<path d="M83.8325 152.655H76.8247V159.663H83.8325V152.655Z" fill="#ACDDDA" fill-opacity="0.2"/>
<path d="M83.8325 133.579H76.8247V140.587H83.8325V133.579Z" fill="#ACDDDA" fill-opacity="0.2"/>
<path d="M76.8247 121.514V114.506H83.8325V121.514H76.8247Z" fill="#ACDDDA" fill-opacity="0.2"/>
<path d="M83.8325 95.4108H76.8247V102.419H83.8325V95.4108Z" fill="#ACDDDA" fill-opacity="0.2"/>
<path d="M64.7553 95.4108H57.7476V102.419H64.7553V95.4108Z" fill="#ACDDDA" fill-opacity="0.2"/>
<path d="M64.7553 76.3209H57.7476V83.3287H64.7553V76.3209Z" fill="#ACDDDA" fill-opacity="0.2"/>
<path d="M64.7553 57.2443H57.7476V64.252H64.7553V57.2443Z" fill="#ACDDDA" fill-opacity="0.2"/>
<path d="M45.6789 57.2443H38.6711V64.252H45.6789V57.2443Z" fill="#ACDDDA" fill-opacity="0.2"/>
<path d="M45.6789 38.1676H38.6711V45.1754H45.6789V38.1676Z" fill="#ACDDDA" fill-opacity="0.2"/>
<path d="M26.5876 38.1676H19.5798V45.1754H26.5876V38.1676Z" fill="#ACDDDA" fill-opacity="0.2"/>
<path d="M7.49481 38.1676H0.487061V45.1754H7.49481V38.1676Z" fill="#ACDDDA" fill-opacity="0.2"/>
<path d="M102.907 171.766H95.8997V178.774H102.907V171.766Z" fill="#ACDDDA" fill-opacity="0.2"/>
<path d="M102.907 152.655H95.8997V159.663H102.907V152.655Z" fill="#ACDDDA" fill-opacity="0.2"/>
<path d="M102.907 133.579H95.8997V140.587H102.907V133.579Z" fill="#ACDDDA" fill-opacity="0.2"/>
<path d="M102.907 114.506H95.8997V121.514H102.907V114.506Z" fill="#ACDDDA" fill-opacity="0.2"/>
<path d="M102.907 95.4108H95.8997V102.419H102.907V95.4108Z" fill="#ACDDDA" fill-opacity="0.2"/>
<path d="M102.907 76.3209H95.8997V83.3287H102.907V76.3209Z" fill="#ACDDDA" fill-opacity="0.2"/>
<path d="M83.8325 76.3209H76.8247V83.3287H83.8325V76.3209Z" fill="#ACDDDA" fill-opacity="0.2"/>
<path d="M76.825 64.252L76.8083 57.2443H83.8161V64.252H76.825Z" fill="#ACDDDA" fill-opacity="0.2"/>
<path d="M83.8161 38.1676H76.8083V45.1754H83.8161V38.1676Z" fill="#ACDDDA" fill-opacity="0.2"/>
<path d="M64.7387 45.1754H57.7476V38.1676H64.7387V45.1754Z" fill="#ACDDDA" fill-opacity="0.2"/>
<path d="M45.6789 19.0767H38.6711V26.0844H45.6789V19.0767Z" fill="#ACDDDA" fill-opacity="0.2"/>
<path d="M26.5876 26.0844H19.5798V19.0767H26.5876V26.0844Z" fill="#ACDDDA" fill-opacity="0.2"/>
<path d="M7.49481 19.0767H0.487061V26.0844H7.49481V19.0767Z" fill="#ACDDDA" fill-opacity="0.2"/>
<path d="M122 171.766H114.992V178.774H122V171.766Z" fill="#ACDDDA" fill-opacity="0.2"/>
<path d="M122 152.655H114.992V159.663H122V152.655Z" fill="#ACDDDA" fill-opacity="0.2"/>
<path d="M122 133.579H114.992V140.587H122V133.579Z" fill="#ACDDDA" fill-opacity="0.2"/>
<path d="M122 114.506H114.992V121.514H122V114.506Z" fill="#ACDDDA" fill-opacity="0.2"/>
<path d="M122 95.4108H114.992V102.419H122V95.4108Z" fill="#ACDDDA" fill-opacity="0.2"/>
<path d="M122 76.3209H114.992V83.3287H122V76.3209Z" fill="#ACDDDA" fill-opacity="0.2"/>
<path d="M115.375 57.2443C117.306 57.2443 118.871 58.8089 118.871 60.7565C118.871 62.6873 117.306 64.252 115.375 64.252H114.992V57.2443H115.375Z" fill="#ACDDDA" fill-opacity="0.2"/>
<path d="M102.907 57.2443H95.8997V64.252H102.907V57.2443Z" fill="#ACDDDA" fill-opacity="0.2"/>
<path d="M102.907 38.1676H95.8997V45.1754H102.907V38.1676Z" fill="#ACDDDA" fill-opacity="0.2"/>
<path d="M83.8161 19.0767H76.8083V26.0844H83.8161V19.0767Z" fill="#ACDDDA" fill-opacity="0.2"/>
<path d="M45.6789 0H38.6711V7.00775H45.6789V0Z" fill="#ACDDDA" fill-opacity="0.2"/>
<path d="M26.5876 0H19.5798V7.00775H26.5876V0Z" fill="#ACDDDA" fill-opacity="0.2"/>
<path d="M7.49481 0H0.487061V7.00775H7.49481V0Z" fill="#ACDDDA" fill-opacity="0.2"/>
</svg>
