<svg width="148" height="204" viewBox="0 0 148 204" fill="none" xmlns="http://www.w3.org/2000/svg">
<path d="M89.9926 203.233C89.6969 203.233 89.3864 203.16 89.1351 203.001L0.857502 153.032C0.325264 152.728 0 152.177 0 151.569V51.646C0 51.0374 0.340048 50.4867 0.857502 50.1823L89.1351 0.22825C89.6673 -0.0760832 90.3179 -0.0760832 90.8649 0.22825L179.143 50.1823C179.675 50.4867 180 51.0374 180 51.646V151.569C180 152.177 179.675 152.728 179.143 153.032L90.8501 203.001C90.584 203.16 90.2883 203.233 89.9926 203.233ZM3.42997 150.598L89.9926 199.595L176.555 150.598V52.6315L89.9926 3.64837L3.42997 52.6315V150.598Z" fill="#ACDDDA" fill-opacity="0.2"/>
<path d="M89.9946 154.915C89.6989 154.915 89.3885 154.843 89.1371 154.683L43.5421 128.887C43.0098 128.583 42.6846 128.032 42.6846 127.424V75.8176C42.6846 75.2089 43.0098 74.6582 43.5421 74.3539L89.1371 48.5436C89.6694 48.2392 90.3199 48.2392 90.8669 48.5436L136.462 74.3539C136.994 74.6582 137.319 75.2089 137.319 75.8176V127.424C137.319 128.032 136.994 128.583 136.462 128.887L90.8521 154.683C90.586 154.843 90.2903 154.915 89.9946 154.915ZM46.1293 126.453L89.9946 151.278L133.86 126.453V76.803L89.9946 51.9782L46.1293 76.803V126.453Z" fill="#ACDDDA" fill-opacity="0.2"/>
<path d="M89.9913 202.391C89.5182 202.391 89.1338 202.014 89.1338 201.55V101.628C89.1338 101.164 89.5182 100.787 89.9913 100.787C90.4644 100.787 90.8488 101.164 90.8488 101.628V201.55C90.8488 202.014 90.4644 202.391 89.9913 202.391Z" fill="#ACDDDA" fill-opacity="0.2"/>
<path d="M89.9935 102.469C89.8457 102.469 89.6979 102.44 89.5648 102.353L1.28718 52.3991C0.873212 52.1673 0.72539 51.6456 0.976725 51.2398C1.21327 50.834 1.7455 50.7036 2.14468 50.9354L90.4223 100.89C90.8363 101.121 90.9693 101.643 90.7327 102.049C90.5849 102.31 90.2892 102.469 89.9935 102.469Z" fill="#ACDDDA" fill-opacity="0.2"/>
<path d="M44.3985 82.5133C44.2506 82.5133 44.1028 82.4698 43.9697 82.3973L1.28718 58.2391C0.873212 58.0072 0.72539 57.4855 0.976725 57.0797C1.21327 56.674 1.7455 56.5435 2.14468 56.7754L44.8272 80.9336C45.2412 81.1655 45.389 81.6872 45.1377 82.0785C44.9899 82.3683 44.6942 82.5133 44.3985 82.5133Z" fill="#ACDDDA" fill-opacity="0.2"/>
<path d="M90.213 107.422C89.9173 107.422 89.6217 107.278 89.4738 107.002C89.2373 106.596 89.3703 106.089 89.7843 105.857L134.744 80.4092C135.158 80.1774 135.69 80.3078 135.912 80.7136C136.148 81.1194 136 81.6411 135.601 81.8729L90.627 107.321C90.4939 107.379 90.3461 107.422 90.213 107.422Z" fill="#ACDDDA" fill-opacity="0.2"/>
<path d="M90.2133 113.191C89.9176 113.191 89.6219 113.046 89.4741 112.771C89.2375 112.365 89.3706 111.858 89.7845 111.626L134.744 86.1779C135.158 85.946 135.69 86.0764 135.912 86.4822C136.148 86.888 136.001 87.4097 135.601 87.6416L90.6272 113.09C90.4942 113.148 90.3463 113.191 90.2133 113.191Z" fill="#ACDDDA" fill-opacity="0.2"/>
<path d="M90.2133 118.96C89.9176 118.96 89.6219 118.815 89.4741 118.539C89.2375 118.134 89.3706 117.626 89.7845 117.395L134.744 91.9465C135.158 91.7147 135.69 91.8451 135.912 92.2509C136.148 92.6567 136.001 93.1639 135.601 93.4102L90.6272 118.858C90.4942 118.916 90.3463 118.96 90.2133 118.96Z" fill="#ACDDDA" fill-opacity="0.2"/>
<path d="M90.2133 124.726C89.9176 124.726 89.6219 124.581 89.4741 124.306C89.2375 123.9 89.3706 123.393 89.7845 123.161L134.744 97.7128C135.158 97.481 135.69 97.6114 135.912 98.0172C136.148 98.4229 136.001 98.9302 135.601 99.1765L90.6272 124.625C90.4942 124.697 90.3463 124.726 90.2133 124.726Z" fill="#ACDDDA" fill-opacity="0.2"/>
<path d="M90.2133 130.497C89.9176 130.497 89.6219 130.352 89.4741 130.076C89.2375 129.671 89.3706 129.163 89.7845 128.931L134.744 103.483C135.158 103.252 135.69 103.382 135.927 103.788C136.163 104.194 136.015 104.701 135.616 104.947L90.642 130.395C90.4942 130.468 90.3463 130.497 90.2133 130.497Z" fill="#ACDDDA" fill-opacity="0.2"/>
<path d="M90.2117 136.263C89.9161 136.263 89.6204 136.118 89.4725 135.842C89.236 135.437 89.3838 134.929 89.783 134.683L134.742 109.235C135.156 109.003 135.689 109.133 135.91 109.539C136.147 109.945 135.999 110.452 135.6 110.699L90.6405 136.147C90.5075 136.234 90.3596 136.263 90.2117 136.263Z" fill="#ACDDDA" fill-opacity="0.2"/>
<path d="M90.2133 142.032C89.9176 142.032 89.6219 141.887 89.4741 141.612C89.2375 141.206 89.3706 140.699 89.7845 140.452L134.744 115.004C135.158 114.772 135.69 114.903 135.912 115.309C136.148 115.714 136.001 116.236 135.601 116.468L90.6272 141.916C90.4942 142.003 90.3463 142.032 90.2133 142.032Z" fill="#ACDDDA" fill-opacity="0.2"/>
<path d="M90.2133 147.813C89.9176 147.813 89.6219 147.668 89.4741 147.393C89.2375 146.987 89.3706 146.48 89.7845 146.248L134.744 120.8C135.158 120.568 135.69 120.698 135.912 121.104C136.148 121.51 136.001 122.032 135.601 122.264L90.6272 147.712C90.4942 147.77 90.3463 147.813 90.2133 147.813Z" fill="#ACDDDA" fill-opacity="0.2"/>
<path d="M97.1648 98.15C97.0169 98.15 96.8691 98.1211 96.736 98.0341L51.7767 72.5861C51.3627 72.3542 51.2149 71.8325 51.4662 71.4267C51.7176 71.0209 52.235 70.8905 52.6342 71.1224L97.6083 96.5704C98.0223 96.8023 98.1553 97.324 97.9188 97.7153C97.7414 98.0051 97.4457 98.15 97.1648 98.15Z" fill="#ACDDDA" fill-opacity="0.2"/>
<path d="M107.349 92.3821C107.201 92.3821 107.053 92.3386 106.92 92.2661L61.9608 66.8181C61.5468 66.5862 61.399 66.0645 61.6503 65.6732C61.8868 65.2675 62.4191 65.137 62.8183 65.3689L107.778 90.8169C108.192 91.0488 108.339 91.5705 108.088 91.9763C107.94 92.2372 107.645 92.3821 107.349 92.3821Z" fill="#ACDDDA" fill-opacity="0.2"/>
<path d="M117.551 86.6138C117.403 86.6138 117.255 86.5703 117.122 86.4978L72.1627 61.0498C71.7487 60.8179 71.6009 60.2962 71.8522 59.8905C72.0888 59.4847 72.621 59.3543 73.0202 59.5861L117.98 85.0342C118.393 85.266 118.541 85.7877 118.29 86.1935C118.142 86.4544 117.846 86.6138 117.551 86.6138Z" fill="#ACDDDA" fill-opacity="0.2"/>
<path d="M127.74 80.8485C127.592 80.8485 127.444 80.8196 127.311 80.7326L82.3514 55.2846C81.9374 55.0527 81.7896 54.531 82.0409 54.1252C82.2775 53.7194 82.8097 53.589 83.2089 53.8209L128.168 79.2689C128.582 79.5008 128.73 80.0225 128.479 80.4283C128.331 80.6891 128.035 80.8485 127.74 80.8485Z" fill="#ACDDDA" fill-opacity="0.2"/>
<path d="M44.3985 88.3813C44.2506 88.3813 44.1028 88.3379 43.9697 88.2654L1.28718 64.1072C0.873212 63.8753 0.72539 63.3536 0.976725 62.9623C1.21327 62.5565 1.7455 62.4261 2.14468 62.658L44.8272 86.8162C45.2412 87.0481 45.389 87.5698 45.1377 87.9611C44.9899 88.2219 44.6942 88.3813 44.3985 88.3813Z" fill="#ACDDDA" fill-opacity="0.2"/>
<path d="M44.3985 94.2365C44.2506 94.2365 44.1028 94.1931 43.9697 94.1206L1.28718 69.9624C0.873212 69.7305 0.72539 69.2088 0.976725 68.8175C1.21327 68.4117 1.7455 68.2668 2.14468 68.5132L44.8272 92.6714C45.2412 92.9033 45.389 93.425 45.1377 93.8308C44.9899 94.0771 44.6942 94.2365 44.3985 94.2365Z" fill="#ACDDDA" fill-opacity="0.2"/>
<path d="M44.3985 100.092C44.2506 100.092 44.1028 100.048 43.9697 99.9757L1.28718 75.8175C0.873212 75.5856 0.72539 75.0639 0.976725 74.6581C1.21327 74.2523 1.7455 74.1219 2.14468 74.3538L44.8272 98.512C45.2412 98.7439 45.389 99.2656 45.1377 99.6714C44.9899 99.9322 44.6942 100.092 44.3985 100.092Z" fill="#ACDDDA" fill-opacity="0.2"/>
<path d="M44.3985 105.944C44.2506 105.944 44.1028 105.915 43.9697 105.828L1.28718 81.6703C0.873212 81.4384 0.72539 80.9167 0.976725 80.5109C1.21327 80.1051 1.7455 79.9747 2.14468 80.2065L44.8272 104.365C45.2412 104.597 45.389 105.118 45.1377 105.51C44.9899 105.785 44.6942 105.944 44.3985 105.944Z" fill="#ACDDDA" fill-opacity="0.2"/>
<path d="M45.0342 112.149C44.8864 112.149 44.7385 112.106 44.6054 112.033L1.28718 87.5274C0.873212 87.2955 0.72539 86.7738 0.976725 86.368C1.21327 85.9622 1.7455 85.8318 2.14468 86.0637L45.4629 110.57C45.8769 110.802 46.0248 111.323 45.7734 111.715C45.6108 112.004 45.3299 112.149 45.0342 112.149Z" fill="#ACDDDA" fill-opacity="0.2"/>
<path d="M44.3985 117.656C44.2506 117.656 44.1028 117.627 43.9697 117.54L1.28718 93.3816C0.873212 93.1497 0.72539 92.628 0.976725 92.2367C1.21327 91.8309 1.7455 91.7005 2.14468 91.9324L44.8272 116.091C45.2412 116.323 45.389 116.844 45.1377 117.25C44.9899 117.511 44.6942 117.656 44.3985 117.656Z" fill="#ACDDDA" fill-opacity="0.2"/>
<path d="M44.3985 123.51C44.2506 123.51 44.1028 123.481 43.9697 123.394L1.28718 99.2358C0.873212 99.0039 0.72539 98.4822 0.976725 98.0764C1.21327 97.6707 1.7455 97.5402 2.14468 97.7721L44.8272 121.93C45.2412 122.162 45.389 122.684 45.1377 123.075C44.9899 123.365 44.6942 123.51 44.3985 123.51Z" fill="#ACDDDA" fill-opacity="0.2"/>
<path d="M89.9935 155.176C89.8457 155.176 89.6979 155.132 89.5648 155.06L1.28718 105.106C0.873212 104.874 0.72539 104.352 0.976725 103.946C1.21327 103.54 1.7455 103.41 2.14468 103.642L90.4223 153.596C90.8363 153.828 90.9693 154.35 90.7327 154.755C90.5849 155.016 90.2892 155.176 89.9935 155.176Z" fill="#ACDDDA" fill-opacity="0.2"/>
<path d="M89.9935 161.03C89.8457 161.03 89.6979 161.001 89.5648 160.914L1.28718 110.96C0.873212 110.728 0.72539 110.206 0.976725 109.8C1.21327 109.394 1.7455 109.264 2.14468 109.496L90.4223 159.464C90.8363 159.696 90.9693 160.218 90.7327 160.609C90.5849 160.87 90.2892 161.03 89.9935 161.03Z" fill="#ACDDDA" fill-opacity="0.2"/>
<path d="M89.9935 166.884C89.8457 166.884 89.6979 166.841 89.5648 166.768L1.28718 116.814C0.873212 116.582 0.72539 116.06 0.976725 115.669C1.21327 115.263 1.7455 115.133 2.14468 115.365L90.4223 165.319C90.8363 165.551 90.9693 166.072 90.7327 166.464C90.5849 166.725 90.2892 166.884 89.9935 166.884Z" fill="#ACDDDA" fill-opacity="0.2"/>
<path d="M89.9935 172.738C89.8457 172.738 89.6979 172.695 89.5648 172.622L1.28718 122.668C0.873212 122.436 0.72539 121.915 0.976725 121.509C1.21327 121.103 1.7455 120.973 2.14468 121.205L90.4223 171.159C90.8363 171.391 90.9693 171.912 90.7327 172.318C90.5849 172.593 90.2892 172.738 89.9935 172.738Z" fill="#ACDDDA" fill-opacity="0.2"/>
<path d="M89.9935 178.596C89.8457 178.596 89.6979 178.567 89.5648 178.48L1.28718 128.526C0.873212 128.294 0.72539 127.773 0.976725 127.367C1.21327 126.961 1.7455 126.831 2.14468 127.063L90.4223 177.017C90.8363 177.249 90.9693 177.77 90.7327 178.162C90.5849 178.451 90.2892 178.596 89.9935 178.596Z" fill="#ACDDDA" fill-opacity="0.2"/>
<path d="M89.9935 184.45C89.8457 184.45 89.6979 184.421 89.5648 184.334L1.28718 134.38C0.873212 134.148 0.72539 133.626 0.976725 133.22C1.21327 132.815 1.7455 132.684 2.14468 132.916L90.4223 182.87C90.8363 183.102 90.9693 183.624 90.7327 184.015C90.5849 184.305 90.2892 184.45 89.9935 184.45Z" fill="#ACDDDA" fill-opacity="0.2"/>
<path d="M89.9935 190.321C89.8457 190.321 89.6979 190.278 89.5648 190.205L1.28718 140.237C0.873212 140.005 0.72539 139.483 0.976725 139.077C1.21327 138.672 1.7455 138.541 2.14468 138.773L90.4223 188.727C90.8363 188.959 90.9693 189.481 90.7327 189.872C90.5849 190.162 90.2892 190.321 89.9935 190.321Z" fill="#ACDDDA" fill-opacity="0.2"/>
<path d="M89.9935 196.158C89.8457 196.158 89.6979 196.129 89.5648 196.042L1.28718 146.088C0.873212 145.856 0.72539 145.335 0.976725 144.943C1.21327 144.537 1.7455 144.407 2.14468 144.639L90.4223 194.593C90.8363 194.825 90.9693 195.347 90.7327 195.738C90.5849 196.013 90.2892 196.158 89.9935 196.158Z" fill="#ACDDDA" fill-opacity="0.2"/>
<path d="M89.9929 102.471C89.6972 102.471 89.4015 102.326 89.2389 102.05C89.0023 101.645 89.1502 101.123 89.5641 100.891L177.842 50.9225C178.256 50.6906 178.788 50.821 179.01 51.2268C179.246 51.6326 179.113 52.1398 178.699 52.3717L90.4216 102.34C90.2886 102.427 90.1407 102.471 89.9929 102.471Z" fill="#ACDDDA" fill-opacity="0.2"/>
<path d="M97.429 198.187C96.9559 198.187 96.5715 197.81 96.5715 197.347V149.001C96.5715 148.537 96.9559 148.161 97.429 148.161C97.9021 148.161 98.2865 148.537 98.2865 149.001V197.347C98.3013 197.81 97.9169 198.187 97.429 198.187Z" fill="#ACDDDA" fill-opacity="0.2"/>
<path d="M105.367 193.696C104.893 193.696 104.509 193.319 104.509 192.856V144.525C104.509 144.061 104.893 143.684 105.367 143.684C105.84 143.684 106.224 144.061 106.224 144.525V192.856C106.224 193.319 105.84 193.696 105.367 193.696Z" fill="#ACDDDA" fill-opacity="0.2"/>
<path d="M113.29 189.219C112.817 189.219 112.432 188.842 112.432 188.378V140.322C112.432 139.859 112.817 139.482 113.29 139.482C113.763 139.482 114.147 139.859 114.147 140.322V188.378C114.147 188.842 113.763 189.219 113.29 189.219Z" fill="#ACDDDA" fill-opacity="0.2"/>
<path d="M121.216 184.726C120.743 184.726 120.358 184.349 120.358 183.885V135.54C120.358 135.076 120.743 134.699 121.216 134.699C121.689 134.699 122.073 135.076 122.073 135.54V183.885C122.073 184.349 121.689 184.726 121.216 184.726Z" fill="#ACDDDA" fill-opacity="0.2"/>
<path d="M129.141 180.247C128.668 180.247 128.283 179.87 128.283 179.406V131.075C128.283 130.612 128.668 130.235 129.141 130.235C129.614 130.235 129.998 130.612 129.998 131.075V179.406C129.998 179.87 129.614 180.247 129.141 180.247Z" fill="#ACDDDA" fill-opacity="0.2"/>
<path d="M137.066 175.756C136.593 175.756 136.209 175.379 136.209 174.915V74.9927C136.209 74.529 136.593 74.1522 137.066 74.1522C137.54 74.1522 137.924 74.529 137.924 74.9927V174.915C137.939 175.379 137.54 175.756 137.066 175.756Z" fill="#ACDDDA" fill-opacity="0.2"/>
</svg>
