<svg width="60" height="47" viewBox="0 0 60 47" fill="none" xmlns="http://www.w3.org/2000/svg">
<path d="M56.087 0H3.91304C2.87559 0.00113932 1.88095 0.413771 1.14736 1.14736C0.413771 1.88095 0.00113932 2.87559 0 3.91304V37.8261C0.00113932 38.8635 0.413771 39.8582 1.14736 40.5918C1.88095 41.3254 2.87559 41.738 3.91304 41.7391H41.7391V45.6522C41.7391 45.8883 41.8032 46.1199 41.9246 46.3224C42.0459 46.5249 42.2199 46.6907 42.428 46.8021C42.6362 46.9135 42.8707 46.9663 43.1065 46.9549C43.3423 46.9435 43.5706 46.8683 43.767 46.7374L46.9565 44.6114L50.146 46.7375C50.3425 46.8685 50.5708 46.9437 50.8066 46.9551C51.0424 46.9665 51.2769 46.9136 51.4851 46.8022C51.6932 46.6908 51.8672 46.525 51.9885 46.3225C52.1099 46.1199 52.1739 45.8883 52.1739 45.6522V41.7391H56.087C57.1244 41.738 58.1191 41.3254 58.8526 40.5918C59.5862 39.8582 59.9989 38.8635 60 37.8261V3.91304C59.9989 2.87559 59.5862 1.88095 58.8526 1.14736C58.1191 0.413771 57.1244 0.00113932 56.087 0ZM46.9565 35.2174C46.1826 35.2174 45.4261 34.9879 44.7826 34.5579C44.1391 34.128 43.6375 33.5168 43.3413 32.8018C43.0452 32.0868 42.9677 31.3 43.1187 30.541C43.2697 29.7819 43.6423 29.0847 44.1896 28.5374C44.7368 27.9902 45.4341 27.6175 46.1931 27.4665C46.9522 27.3155 47.739 27.393 48.454 27.6892C49.169 27.9853 49.7801 28.4869 50.2101 29.1304C50.6401 29.7739 50.8696 30.5304 50.8696 31.3043C50.8684 32.3418 50.4558 33.3364 49.7222 34.07C48.9886 34.8036 47.994 35.2163 46.9565 35.2174ZM49.5652 43.2154L47.68 41.9581C47.4659 41.8149 47.2141 41.7384 46.9565 41.7384C46.6989 41.7384 46.4471 41.8149 46.233 41.9581L44.3478 43.2154V37.2733C45.1692 37.6378 46.0579 37.8261 46.9565 37.8261C47.8552 37.8261 48.7438 37.6378 49.5652 37.2733V43.2154ZM57.3913 37.8261C57.391 38.1719 57.2534 38.5035 57.0089 38.748C56.7644 38.9926 56.4328 39.1301 56.087 39.1304H52.1739V35.1771C53.0163 34.0613 53.474 32.7024 53.4783 31.3043C53.4783 29.5747 52.7912 27.9158 51.5681 26.6928C50.345 25.4697 48.6862 24.7826 46.9565 24.7826C45.2269 24.7826 43.568 25.4697 42.345 26.6928C41.1219 27.9158 40.4348 29.5747 40.4348 31.3043C40.439 32.7024 40.8967 34.0613 41.7391 35.1771V39.1304H3.91304C3.56721 39.1301 3.23565 38.9926 2.99111 38.748C2.74657 38.5035 2.60904 38.1719 2.6087 37.8261V3.91304C2.60904 3.56721 2.74657 3.23565 2.99111 2.99111C3.23565 2.74657 3.56721 2.60904 3.91304 2.6087H56.087C56.4328 2.60904 56.7644 2.74657 57.0089 2.99111C57.2534 3.23565 57.391 3.56721 57.3913 3.91304V37.8261ZM46.9565 10.4348C46.9565 10.7807 46.8191 11.1125 46.5745 11.3571C46.3299 11.6017 45.9981 11.7391 45.6522 11.7391H14.3478C14.0019 11.7391 13.6701 11.6017 13.4255 11.3571C13.1809 11.1125 13.0435 10.7807 13.0435 10.4348C13.0435 10.0888 13.1809 9.75708 13.4255 9.51247C13.6701 9.26786 14.0019 9.13043 14.3478 9.13043H45.6522C45.9981 9.13043 46.3299 9.26786 46.5745 9.51247C46.8191 9.75708 46.9565 10.0888 46.9565 10.4348ZM46.9565 16.9565C46.9565 17.3025 46.8191 17.6342 46.5745 17.8788C46.3299 18.1234 45.9981 18.2609 45.6522 18.2609H14.3478C14.0019 18.2609 13.6701 18.1234 13.4255 17.8788C13.1809 17.6342 13.0435 17.3025 13.0435 16.9565C13.0435 16.6106 13.1809 16.2788 13.4255 16.0342C13.6701 15.7896 14.0019 15.6522 14.3478 15.6522H45.6522C45.9981 15.6522 46.3299 15.7896 46.5745 16.0342C46.8191 16.2788 46.9565 16.6106 46.9565 16.9565ZM31.3043 23.4783C31.3043 23.8242 31.1669 24.156 30.9223 24.4006C30.6777 24.6452 30.3459 24.7826 30 24.7826H14.3478C14.0019 24.7826 13.6701 24.6452 13.4255 24.4006C13.1809 24.156 13.0435 23.8242 13.0435 23.4783C13.0435 23.1323 13.1809 22.8006 13.4255 22.5559C13.6701 22.3113 14.0019 22.1739 14.3478 22.1739H30C30.3459 22.1739 30.6777 22.3113 30.9223 22.5559C31.1669 22.8006 31.3043 23.1323 31.3043 23.4783Z" fill="black"/>
</svg>
