<svg width="70" height="71" viewBox="0 0 70 71" fill="none" xmlns="http://www.w3.org/2000/svg">
<path d="M68.5862 48.8927L60.073 40.3795C62.1798 36.1123 63.1638 31.3784 62.9319 26.6251C62.7001 21.8718 61.26 17.2562 58.7479 13.2143C56.2359 9.17242 52.7346 5.83783 48.5752 3.52563C44.4157 1.21343 39.7354 0 34.9764 0C30.2175 0 25.5372 1.21343 21.3777 3.52563C17.2182 5.83783 13.717 9.17242 11.2049 13.2143C8.69284 17.2562 7.25283 21.8718 7.02098 26.6251C6.78913 31.3784 7.7731 36.1123 9.87991 40.3795L1.36668 48.8927C0.828483 49.4308 0.430106 50.0923 0.206292 50.8197C-0.0175218 51.5471 -0.0599754 52.3182 0.0826341 53.0657C0.225244 53.8133 0.548585 54.5146 1.02446 55.1085C1.50033 55.7024 2.11428 56.1708 2.81276 56.473L10.3464 59.6917L13.5651 67.2253C13.8672 67.9238 14.3357 68.5377 14.9296 69.0136C15.5235 69.4895 16.2248 69.8128 16.9723 69.9554C17.7199 70.098 18.491 70.0556 19.2183 69.8318C19.9457 69.608 20.6073 69.2096 21.1454 68.6714L33.8336 56.0531C34.6093 56.1262 35.3902 56.1262 36.166 56.0531L48.8542 68.718C49.3922 69.2562 50.0538 69.6546 50.7812 69.8784C51.5086 70.1022 52.2796 70.1447 53.0272 70.0021C53.7747 69.8595 54.4761 69.5361 55.07 69.0602C55.6638 68.5844 56.1323 67.9704 56.4344 67.2719L59.6531 59.7383L67.1868 56.5196C67.8905 56.2153 68.5083 55.7423 68.9856 55.1423C69.463 54.5423 69.785 53.834 69.9234 53.0799C70.0618 52.3258 70.0121 51.5493 69.7789 50.8189C69.5457 50.0886 69.136 49.427 68.5862 48.8927ZM34.9764 4.74053C39.5895 4.74053 44.0989 6.10845 47.9345 8.67132C51.7701 11.2342 54.7596 14.8769 56.5249 19.1388C58.2903 23.4007 58.7522 28.0903 57.8522 32.6147C56.9522 37.1391 54.7309 41.295 51.4689 44.5569C48.207 47.8189 44.0511 50.0402 39.5267 50.9402C35.0023 51.8402 30.3127 51.3783 26.0508 49.6129C21.7889 47.8476 18.1462 44.8581 15.5833 41.0225C13.0204 37.1869 11.6525 32.6775 11.6525 28.0644C11.6525 21.8786 14.1099 15.946 18.4839 11.5719C22.858 7.19786 28.7906 4.74053 34.9764 4.74053ZM27.9793 55.1668L17.8567 65.3827C13.1919 54.3272 15.5243 56.8928 4.65535 52.1814L12.3522 44.5078C16.18 49.7527 21.6992 53.5173 27.9793 55.1668ZM52.0962 65.3827L41.9736 55.1668C48.2911 53.5439 53.8481 49.776 57.6939 44.5078L65.2975 52.1814C54.242 56.9161 56.8076 54.3971 52.0962 65.3827Z" fill="black"/>
<path d="M20.9822 30.3968V37.394C20.9822 38.6312 21.4736 39.8177 22.3485 40.6925C23.2233 41.5673 24.4098 42.0588 25.6469 42.0588H44.3061C45.5433 42.0588 46.7298 41.5673 47.6046 40.6925C48.4794 39.8177 48.9709 38.6312 48.9709 37.394V30.3968C51.5132 29.0207 53.6357 28.3443 53.6357 25.732C53.6326 25.1008 53.46 24.4821 53.1358 23.9404C52.8117 23.3988 52.3479 22.9543 51.7931 22.6533L36.7025 14.5132C36.1685 14.2254 35.5714 14.0747 34.9649 14.0747C34.3583 14.0747 33.7612 14.2254 33.2272 14.5132L18.1833 22.6533C17.6225 22.9492 17.1526 23.392 16.824 23.9342C16.4953 24.4765 16.3202 25.0979 16.3174 25.732C16.3174 28.2743 18.4399 28.9507 20.9822 30.3968ZM44.3061 37.394H25.6469V32.8458C26.3233 33.219 33.3672 37.0908 34.0902 37.2774L34.9765 37.394C35.1629 37.4052 35.3499 37.4052 35.5363 37.394C35.9528 37.346 36.3565 37.2194 36.7258 37.0208L44.3061 32.8458V37.394ZM34.9765 18.8748L47.6647 25.732L34.9765 32.5893L22.2883 25.732L34.9765 18.8748Z" fill="black"/>
</svg>
