<svg width="60" height="75" viewBox="0 0 60 75" fill="none" xmlns="http://www.w3.org/2000/svg">
<path d="M28.9318 24.9742C29.1021 24.4952 29.1976 24.1249 29.2231 23.6249H30.7773C30.8028 24.1249 30.8983 24.4952 31.0686 24.9742C31.6156 26.5132 32.7333 27.7597 33.3511 28.3772C34.3583 29.3847 35.6981 29.9294 37.1228 29.9294C38.5473 29.9294 39.8868 29.3702 40.8941 28.3627C42.9733 26.2834 42.9733 22.8972 40.8941 20.8169C39.9011 19.8242 38.2421 19.2537 36.3418 19.2537C34.4416 19.2537 32.7828 19.8224 31.7903 20.8152C31.5821 21.0234 31.4068 21.3292 31.2618 21.5692C31.1906 21.5537 31.1171 21.6247 31.0411 21.6247H28.7246C28.5826 21.3747 28.4113 21.0962 28.2101 20.8949C27.2176 19.9022 25.5588 19.2927 23.6586 19.2927C21.7583 19.2927 20.0993 19.8419 19.1061 20.8347C17.0271 22.9147 17.0271 26.2882 19.1063 28.3682C20.1136 29.3752 21.4531 29.9247 22.8776 29.9247C24.3023 29.9247 25.6421 29.3874 26.6491 28.3799C27.2668 27.7622 28.3848 26.5134 28.9318 24.9742ZM33.2618 22.2864C33.8493 21.6989 35.0293 21.3342 36.3416 21.3342C37.6541 21.3342 38.8346 21.6992 39.4218 22.2864C40.6898 23.5547 40.6898 25.6182 39.4221 26.8859C38.8078 27.4999 37.9911 27.8382 37.1226 27.8382C36.2538 27.8382 35.4371 27.4999 34.8228 26.8854C33.9828 26.0457 33.3291 25.0804 33.0298 24.2379C32.5791 22.9692 33.0928 22.4554 33.2618 22.2864ZM22.8776 27.8384C22.0088 27.8384 21.1923 27.5002 20.5781 26.8864C19.3103 25.6184 19.3103 23.5549 20.5781 22.2869C21.1658 21.6994 22.3461 21.3344 23.6586 21.3344C24.9708 21.3344 26.1511 21.6992 26.7383 22.2867C26.9073 22.4557 27.4208 22.9692 26.9703 24.2384C26.6711 25.0809 26.0173 26.0459 25.1771 26.8862C24.5631 27.5002 23.7461 27.8384 22.8776 27.8384Z" fill="black"/>
<path d="M48.9315 24.3148C49.7858 21.6798 49.8805 16.7507 49.9043 14.6132C49.904 2.44425 42.288 0 30.0003 0C17.7225 0 10.109 2.44175 10.0968 14.5855C10.0627 15.8147 10.018 21.6987 10.8435 24.8647C10.735 26.0865 10.967 28.0812 11.4888 29.5605C12.0208 31.0667 12.838 32.4035 13.7908 33.324C14.5768 34.0838 15.3977 34.543 16.257 34.6758C17.1548 36.4783 18.25 38.274 19.5 39.886V45.625H13.479C6.09075 45.625 0 51.6715 0 59.0597V65.9542C0 66.7102 0.47675 67.3983 1.16125 67.72C11.766 72.7053 21.7948 74.25 30.1268 74.2497C34.5125 74.2497 38.4445 73.8215 41.743 73.242C52.1305 71.4167 58.6867 67.8085 58.9587 67.6557C59.5742 67.3102 60 66.6598 60 65.954V59.0595C60 51.671 53.9095 45.6247 46.5215 45.6247H40.75V39.6765C40.75 39.6715 40.708 39.6668 40.7077 39.6618C41.9202 38.105 42.9492 36.3892 43.8065 34.6675C44.1442 34.6077 44.4733 34.497 44.8095 34.3365C46.3438 33.6037 47.7293 31.8207 48.5245 29.5675C49.1755 27.722 49.25 25.709 48.9315 24.3148ZM30 54.005L22.8512 49.0078C23.2472 48.6505 23.5 48.1878 23.5 47.6123V43.68C25.5 45.093 27.6615 45.9735 30.0363 45.9735C32.4815 45.9735 34.75 45.0412 36.75 43.5532V47.6123C36.75 48.1333 36.9628 48.658 37.2955 49.0078L30 54.005ZM27.1715 56.794L22.1575 60.0532L21.1392 52.6225L27.1715 56.794ZM38.8607 52.6225L37.8428 60.0532L32.8285 56.794L38.8607 52.6225ZM13.9988 14.6407C13.9988 7.2345 16.3095 3.9025 30 3.9025C43.6908 3.9025 46.0008 7.207 46.0008 14.591C45.992 15.363 45.9663 16.1435 45.9272 16.9042C45.9272 16.9042 44.949 14.3588 44.5277 13.555C42.0652 8.8545 35.8195 7.286 31.0312 9.573C30.376 9.88625 29.5775 9.864 28.9198 9.5495C24.2 7.295 17.9463 8.78325 15.4543 13.3837C15.0145 14.1955 13.9837 16.772 13.9837 16.772C13.975 16.021 13.9813 15.275 13.9988 14.6407ZM45.1748 25.4188C45.4735 25.7908 45.3187 26.9085 44.8387 28.2695C44.3148 29.754 43.5568 30.5378 43.2098 30.7642C42.8063 30.6305 42.3675 30.6308 41.9605 30.771C41.448 30.947 41.032 31.3282 40.812 31.8237C38.7115 36.5505 34.6297 42.0703 30.0412 42.0703C25.4432 42.0703 21.359 36.5335 19.2585 31.7915C19.0312 31.2785 18.594 30.888 18.0583 30.72C17.6403 30.5887 17.1935 30.603 16.789 30.7553C16.4392 30.5208 15.6893 29.736 15.1688 28.2617C14.6238 26.716 14.6308 25.7003 14.8838 25.4185C15.5305 24.6993 15.7428 23.929 15.7288 22.6017C15.7075 20.6007 17.9137 16.9952 18.885 15.2455C20.45 12.4257 24.3145 11.6755 27.2393 13.072C28.9643 13.8958 30.9887 13.9182 32.7132 13.0945C35.6787 11.6777 39.524 12.4873 41.071 15.369C42.0317 17.1585 44.1335 20.6347 44.1715 22.602C44.19 23.5487 44.4405 24.5043 45.1748 25.4188ZM4 59.0597C4 53.8235 8.24275 49.625 13.479 49.625H16.781L18.7087 63.6613C18.7995 64.3232 19.2227 64.8773 19.8302 65.1555C20.0887 65.274 20.366 65.3248 20.6418 65.3248C21.0138 65.3248 21.4247 65.2148 21.7463 65.0055L28 60.8785V70.3053C20.75 70.0537 12.75 68.5802 4 64.7032V59.0597ZM56 64.7565C54 65.7825 48.3997 68.123 40.877 69.4258C38.2352 69.8835 35.25 70.2353 31.75 70.3238V60.8785L38.2593 65.0015C38.5807 65.2108 38.969 65.317 39.3408 65.317C39.6168 65.317 39.9025 65.2585 40.1613 65.1403C40.769 64.862 41.1965 64.3235 41.2873 63.6615L43.2192 49.6253H46.5215C51.7575 49.6253 56 53.8238 56 59.06V64.7565Z" fill="black"/>
</svg>
