<svg width="60" height="68" viewBox="0 0 60 68" fill="none" xmlns="http://www.w3.org/2000/svg">
<path d="M59.55 15.45L44.55 0.45C44.25 0.15 43.875 0 43.5 0H12.75C9.825 0 7.5 2.325 7.5 5.25V10.5H5.25C2.325 10.5 0 12.825 0 15.75V62.25C0 65.175 2.325 67.5 5.25 67.5H54.75C57.675 67.5 60 65.175 60 62.25V16.5C60 16.125 59.85 15.75 59.55 15.45ZM45 5.1L54.9 15H47.25C45.975 15 45 14.025 45 12.75V5.1ZM3 62.25V15.75C3 14.475 3.975 13.5 5.25 13.5H7.5V35.475V62.25C7.5 63.525 6.525 64.5 5.25 64.5C3.975 64.5 3 63.525 3 62.25ZM54.75 64.5H9.975C10.275 63.825 10.5 63.075 10.5 62.25V35.475V12V5.25C10.5 3.975 11.475 3 12.75 3H42V12.75C42 15.675 44.325 18 47.25 18H57V62.25C57 63.525 56.025 64.5 54.75 64.5ZM15 9C15 8.175 15.675 7.5 16.5 7.5H36C36.825 7.5 37.5 8.175 37.5 9C37.5 9.825 36.825 10.5 36 10.5H16.5C15.675 10.5 15 9.825 15 9ZM15 16.5C15 15.675 15.675 15 16.5 15H36C36.825 15 37.5 15.675 37.5 16.5C37.5 17.325 36.825 18 36 18H16.5C15.675 18 15 17.325 15 16.5ZM31.5 58.5C31.5 59.325 30.825 60 30 60H16.5C15.675 60 15 59.325 15 58.5C15 57.675 15.675 57 16.5 57H30C30.825 57 31.5 57.675 31.5 58.5ZM52.5 58.5C52.5 59.325 51.825 60 51 60H37.5C36.675 60 36 59.325 36 58.5C36 57.675 36.675 57 37.5 57H51C51.825 57 52.5 57.675 52.5 58.5ZM31.5 51C31.5 51.825 30.825 52.5 30 52.5H16.5C15.675 52.5 15 51.825 15 51C15 50.175 15.675 49.5 16.5 49.5H30C30.825 49.5 31.5 50.175 31.5 51ZM52.5 51C52.5 51.825 51.825 52.5 51 52.5H37.5C36.675 52.5 36 51.825 36 51C36 50.175 36.675 49.5 37.5 49.5H51C51.825 49.5 52.5 50.175 52.5 51ZM51 22.5H16.5C15.675 22.5 15 23.175 15 24V43.5C15 44.325 15.675 45 16.5 45H51C51.825 45 52.5 44.325 52.5 43.5V24C52.5 23.175 51.825 22.5 51 22.5ZM49.5 42H18V25.5H49.5V42Z" fill="black"/>
</svg>
