<svg width="70" height="62" viewBox="0 0 70 62" fill="none" xmlns="http://www.w3.org/2000/svg">
<path d="M65.6068 42.072V15.9761L68.5977 14.9791C69.4351 14.7 70 13.9163 70 13.0336C70 12.151 69.4352 11.3673 68.5977 11.0881L35.6485 0.105103C35.2276 -0.0350342 34.7724 -0.0350342 34.3515 0.105103L1.40232 11.0881C0.564785 11.3672 0 12.1508 0 13.0336C0 13.9164 0.564785 14.7 1.40232 14.9791L13.1797 18.9049V37.1964C13.1797 37.7404 13.3958 38.2619 13.7804 38.6465C19.4491 44.3145 26.9854 47.436 35.001 47.436C43.0166 47.436 50.5523 44.3145 56.2197 38.6463C56.6043 38.2617 56.8203 37.7401 56.8203 37.1964V18.9049L61.5053 17.3433V42.072C58.9548 42.9307 57.1121 45.3431 57.1121 48.1794V59.1624C57.1121 60.295 58.0303 61.2132 59.1629 61.2132H67.9492C69.0818 61.2132 70 60.295 70 59.1624V48.1794C70 45.3431 68.1573 42.9307 65.6068 42.072ZM52.7188 36.3281C42.7807 45.6531 27.2218 45.6532 17.2812 36.3279V20.2721L34.3514 25.9622C34.7724 26.1023 35.2275 26.1023 35.6485 25.9622L52.7188 20.2721V36.3281ZM35 21.8549L8.53604 13.0336L35 4.21227L61.464 13.0335L35 21.8549ZM65.8984 57.1116H61.2135V48.1794C61.2135 46.8878 62.2643 45.837 63.5559 45.837C64.8475 45.837 65.8984 46.8878 65.8984 48.1794V57.1116Z" fill="black"/>
</svg>
