<svg width="105" height="85" viewBox="0 0 105 85" fill="none" xmlns="http://www.w3.org/2000/svg">
<path d="M89.4637 3.46408H88.5786V5.98152H88.5568C88.3573 5.49545 87.8168 5.19074 87.309 5.19074C85.7166 5.19074 85.5279 6.9827 85.5279 8.16162C85.5279 9.94632 86.0321 11.1361 87.3707 11.1361C87.9837 11.1361 88.477 10.7153 88.5967 10.2946H88.6185V10.991H89.4601V3.46408H89.4637ZM86.4602 8.16524C86.4602 6.81584 86.6706 5.94888 87.494 5.94888C88.4444 5.94888 88.633 7.06613 88.633 8.16524C88.633 9.45299 88.4734 10.3816 87.494 10.3816C86.6706 10.3816 86.4602 9.51828 86.4602 8.16524ZM83.6598 9.36593C83.6598 9.94632 83.1012 10.4433 82.5208 10.4433C81.9404 10.4433 81.7191 10.0443 81.7191 9.47475C81.7191 8.98142 81.8678 8.75652 82.1508 8.57877C82.5498 8.33573 83.3333 8.26319 83.6598 7.91132V9.36593ZM81.8134 7.04799V6.99358C81.8134 6.79407 81.8134 5.88721 82.782 5.88721C83.3732 5.88721 83.6888 6.19191 83.6888 6.71789C83.6888 7.19309 83.6888 7.37083 83.0468 7.57397L81.8533 7.93309C81.1278 8.15436 80.7905 8.70211 80.7905 9.49289C80.7905 10.5049 81.2729 11.1361 82.3285 11.1361C82.8581 11.1361 83.4059 10.8314 83.6888 10.3272H83.7106C83.7505 11.0527 84.1749 11.0527 84.5122 11.0527C84.7335 11.0527 84.9657 11.0092 85.0273 10.9983V10.3671C84.9874 10.3998 84.933 10.4179 84.8169 10.4179C84.5449 10.4179 84.5449 10.1966 84.5449 9.96808V6.81221C84.5449 6.22093 84.5449 5.19074 82.8255 5.19074C81.4761 5.19074 80.9283 5.76025 80.9283 7.04799H81.8134ZM79.9054 3.46408H79.0239V5.98152H79.0022C78.8026 5.49545 78.2622 5.19074 77.7543 5.19074C76.1655 5.19074 75.9732 6.9827 75.9732 8.16162C75.9732 9.94632 76.4775 11.1361 77.8196 11.1361C78.4326 11.1361 78.926 10.7153 79.0421 10.2946H79.0638V10.991H79.9054V3.46408ZM76.8982 8.16524C76.8982 6.81584 77.1086 5.94888 77.9321 5.94888C78.8824 5.94888 79.0711 7.06613 79.0711 8.16524C79.0711 9.45299 78.9115 10.3816 77.9321 10.3816C77.1086 10.3816 76.8982 9.51828 76.8982 8.16524ZM74.0833 4.47251H74.9684V3.46045H74.0833V4.47251ZM74.0833 10.991H74.9684V5.33947H74.0833V10.991ZM73.0495 6.99358C73.0386 6.32976 72.977 5.19074 71.3301 5.19074C70.3471 5.19074 69.5273 5.69496 69.5273 6.75054C69.5273 7.92221 70.231 8.12172 70.9166 8.35387C71.6022 8.58603 72.2986 8.74201 72.2986 9.50377C72.2986 10.3054 71.6457 10.4433 71.3591 10.4433C70.4958 10.4433 70.3035 9.82299 70.3035 9.1374H69.4184C69.4184 9.71779 69.4402 11.1397 71.3591 11.1397C72.4147 11.1397 73.1837 10.5594 73.1837 9.36956C73.1837 8.2523 72.4873 8.00926 71.8017 7.78074C71.1052 7.54495 70.4087 7.42162 70.4087 6.75417C70.4087 5.96339 71.0399 5.89084 71.3265 5.89084C71.9685 5.89084 72.1608 6.27897 72.1608 6.99721H73.0459L73.0495 6.99358ZM66.6181 10.991H67.5032V7.41799C67.5032 6.47848 68.2214 6.07946 68.6639 6.07946C68.9505 6.07946 69.0557 6.11211 69.1391 6.12299V5.25966C69.0557 5.21613 68.9287 5.19437 68.751 5.19437C68.1198 5.19437 67.7788 5.6478 67.5285 6.18466H67.5068V5.34309H66.6217V10.9947L66.6181 10.991ZM65.6459 8.26681V7.9077C65.6459 6.69613 65.4863 5.19074 63.7596 5.19074C62.033 5.19074 61.7464 6.82309 61.7464 8.23779C61.7464 10.1785 62.3232 11.1361 63.7052 11.1361C65.2469 11.1361 65.606 9.73593 65.606 9.13377H64.7209C64.7209 9.55818 64.6048 10.4397 63.7633 10.4397C62.675 10.4397 62.675 9.13377 62.675 8.26681H65.6495H65.6459ZM62.704 7.57397V7.36358C62.704 7.02623 62.8092 5.88721 63.7379 5.88721C64.5178 5.88721 64.7173 6.63446 64.7173 7.26927V7.57397H62.704ZM58.7066 10.991H59.7187L61.2458 5.33947H60.2773L59.2217 9.87377H59.1999L58.148 5.33947H57.1758L58.7066 10.991ZM55.5544 4.47251H56.4394V3.46045H55.5544V4.47251ZM55.5544 10.991H56.4394V5.33947H55.5544V10.991ZM50.621 10.991H51.5061V7.08789C51.5061 6.26446 52.1482 5.94888 52.6234 5.94888C53.425 5.94888 53.4577 6.65623 53.4577 7.08789V10.991H54.3428V6.98633C54.3428 6.3225 54.3428 5.19437 52.8592 5.19437C52.3114 5.19437 51.7201 5.48819 51.488 6.00329H51.4662V5.33947H50.6247V10.991H50.621ZM49.4603 5.33947H48.5752V9.2426C48.5752 10.0624 47.9331 10.3816 47.4543 10.3816C46.6526 10.3816 46.62 9.67789 46.62 9.2426V5.33947H45.7349V9.34416C45.7349 10.008 45.7349 11.1361 47.2221 11.1361C47.7699 11.1361 48.3611 10.8423 48.5933 10.3272H48.6151V10.991H49.4566V5.33947H49.4603Z" fill="white"/>
<path d="M84.9221 18.9499C84.9221 19.5303 84.3635 20.0273 83.7831 20.0273C83.2027 20.0273 82.9814 19.6282 82.9814 19.0587C82.9814 18.5654 83.1265 18.3405 83.4131 18.1628C83.8157 17.9197 84.5956 17.8472 84.9221 17.4989V18.9535V18.9499ZM83.0757 16.632V16.5776C83.0757 16.3781 83.0757 15.4712 84.0479 15.4712C84.6392 15.4712 84.9548 15.7759 84.9548 16.3055C84.9548 16.7807 84.9548 16.9584 84.3127 17.158L83.1193 17.5171C82.3938 17.7383 82.0564 18.2897 82.0564 19.0805C82.0564 20.0926 82.5389 20.7237 83.5945 20.7237C84.1204 20.7237 84.6718 20.419 84.9548 19.9148H84.9765C85.02 20.6403 85.4408 20.6403 85.7782 20.6403C85.9995 20.6403 86.2316 20.6004 86.2969 20.5895V19.9583C86.2534 19.991 86.2026 20.0128 86.0865 20.0128C85.8108 20.0128 85.8108 19.7915 85.8108 19.5593V16.4071C85.8108 15.8158 85.8108 14.7856 84.0951 14.7856C82.7456 14.7856 82.1979 15.3515 82.1979 16.6392H83.083L83.0757 16.632ZM81.1677 13.0481H80.2826V15.5655H80.2608C80.0613 15.0831 79.5245 14.7784 79.0166 14.7784C77.4242 14.7784 77.2356 16.5703 77.2356 17.7529C77.2356 19.5376 77.7398 20.7237 79.0783 20.7237C79.6913 20.7237 80.1883 20.303 80.3007 19.8822H80.3225V20.575H81.1677V13.0481ZM78.1642 17.7492C78.1642 16.3998 78.3746 15.5329 79.198 15.5329C80.1484 15.5329 80.337 16.6501 80.337 17.7492C80.337 19.0333 80.181 19.9656 79.198 19.9656C78.3746 19.9656 78.1642 19.1023 78.1642 17.7492ZM75.3602 18.9499C75.3602 19.5303 74.8015 20.0273 74.2211 20.0273C73.6408 20.0273 73.4195 19.6282 73.4195 19.0587C73.4195 18.5654 73.5646 18.3405 73.8511 18.1628C74.2502 17.9197 75.0337 17.8472 75.3565 17.4989V18.9535L75.3602 18.9499ZM73.5138 16.632V16.5776C73.5138 16.3781 73.5138 15.4712 74.4859 15.4712C75.0772 15.4712 75.3928 15.7759 75.3928 16.3055C75.3928 16.7807 75.3928 16.9584 74.7508 17.158L73.5573 17.5171C72.8318 17.7383 72.4945 18.2897 72.4945 19.0805C72.4945 20.0926 72.9806 20.7237 74.0361 20.7237C74.5621 20.7237 75.1099 20.419 75.3964 19.9148H75.4182C75.4617 20.6403 75.8825 20.6403 76.2199 20.6403C76.4411 20.6403 76.6733 20.6004 76.7386 20.5895V19.9583C76.6951 19.991 76.6407 20.0128 76.5282 20.0128C76.2525 20.0128 76.2525 19.7915 76.2525 19.5593V16.4071C76.2525 15.8158 76.2525 14.7856 74.5331 14.7856C73.1837 14.7856 72.636 15.3515 72.636 16.6392H73.521L73.5138 16.632ZM70.2999 14.9234H69.4764V15.6163H70.2999V19.5194C70.2999 20.2558 70.5212 20.633 71.4389 20.633C71.8089 20.633 72.0411 20.5931 72.1571 20.5714V19.8459C72.0628 19.8568 71.9576 19.8785 71.7654 19.8785C71.3011 19.8785 71.185 19.7008 71.185 19.2437V15.6163H72.1644V14.9234H71.185V13.2802H70.2999V14.9234ZM67.9384 14.0565H68.8235V13.0444H67.9384V14.0565ZM67.9384 20.5714H68.8235V14.9198H67.9384V20.5714ZM66.7268 13.0444H65.8417V15.5619H65.82C65.6205 15.0794 65.0836 14.7747 64.5758 14.7747C62.9833 14.7747 62.7947 16.5667 62.7947 17.7492C62.7947 19.5339 63.2989 20.7201 64.6374 20.7201C65.2505 20.7201 65.7438 20.2993 65.8599 19.8785H65.8817V20.5714H66.7232V13.0444H66.7268ZM63.7197 17.7456C63.7197 16.3962 63.9301 15.5292 64.7535 15.5292C65.7039 15.5292 65.8962 16.6465 65.8962 17.7456C65.8962 19.0297 65.7366 19.962 64.7535 19.962C63.9301 19.962 63.7197 19.0986 63.7197 17.7456ZM62.0329 17.8508V17.4917C62.0329 16.2801 61.8733 14.7711 60.143 14.7711C58.4127 14.7711 58.1334 16.4034 58.1334 17.8182C58.1334 19.7588 58.7138 20.7165 60.0923 20.7165C61.6303 20.7165 61.9894 19.3163 61.9894 18.7141H61.1079C61.1079 19.1385 60.9919 20.02 60.1467 20.02C59.0621 20.02 59.0621 18.7141 59.0621 17.8472H62.0366L62.0329 17.8508ZM59.0911 17.1543V16.9439C59.0911 16.6066 59.1963 15.4676 60.1249 15.4676C60.9048 15.4676 61.1079 16.2148 61.1079 16.8496V17.1543H59.0911ZM55.2025 20.5714H56.0876V16.9983C56.0876 16.0588 56.8022 15.6598 57.2483 15.6598C57.5313 15.6598 57.6365 15.6925 57.7235 15.6997V14.84C57.6401 14.7965 57.5131 14.7747 57.3318 14.7747C56.7006 14.7747 56.3632 15.2282 56.1093 15.765H56.0876V14.9234H55.2025V20.575V20.5714ZM54.2847 16.6283C54.2847 15.979 54.0199 14.7747 52.4819 14.7747C50.7443 14.7747 50.4686 16.3998 50.4686 17.8145C50.4686 19.7625 51.049 20.7201 52.4311 20.7201C53.8131 20.7201 54.2847 19.5085 54.2847 18.6089H53.3996C53.3996 19.2256 53.2291 20.0273 52.471 20.0273C51.4045 20.0273 51.3973 18.5473 51.3973 17.8073C51.3973 15.7433 51.9559 15.4712 52.5036 15.4712C53.1783 15.4712 53.4032 16.0879 53.4032 16.632H54.2883L54.2847 16.6283ZM48.6223 18.9463C48.6223 19.5267 48.0636 20.0236 47.4833 20.0236C46.9029 20.0236 46.6816 19.6246 46.6816 19.0551C46.6816 18.5618 46.8267 18.3369 47.1133 18.1591C47.5159 17.9161 48.2922 17.8435 48.6223 17.4953V18.9499V18.9463ZM46.7759 16.6283V16.5739C46.7759 16.3744 46.7759 15.4676 47.7481 15.4676C48.3393 15.4676 48.6549 15.7723 48.6549 16.3019C48.6549 16.7771 48.6549 16.9548 48.0129 17.1543L46.8194 17.5134C46.0939 17.7347 45.7566 18.2861 45.7566 19.0769C45.7566 20.0889 46.2427 20.7201 47.2983 20.7201C47.8242 20.7201 48.372 20.4154 48.6585 19.9112H48.6803C48.7202 20.6367 49.1446 20.6367 49.482 20.6367C49.7033 20.6367 49.9354 20.5968 49.9971 20.5859V19.9547C49.9572 19.9874 49.9028 20.0091 49.7867 20.0091C49.511 20.0091 49.511 19.7879 49.511 19.5557V16.4034C49.511 15.8122 49.511 14.782 47.7916 14.782C46.4422 14.782 45.8944 15.3479 45.8944 16.6356H46.7795L46.7759 16.6283Z" fill="white"/>
<path d="M89.7794 34.4029C89.754 32.7633 89.598 29.952 85.5389 29.952C83.1157 29.952 81.088 31.1999 81.088 33.8044C81.088 36.6954 82.8328 37.1888 84.5232 37.7583C86.2172 38.3314 87.933 38.7232 87.933 40.5949C87.933 42.5755 86.3188 42.9129 85.6151 42.9129C83.4821 42.9129 83.0142 41.3785 83.0142 39.6881H80.8268C80.8268 41.1209 80.8812 44.6323 85.6151 44.6323C88.2196 44.6323 90.1167 43.1994 90.1167 40.2612C90.1167 37.5044 88.4009 36.9022 86.7069 36.3327C84.9911 35.7596 83.2717 35.444 83.2717 33.808C83.2717 31.8564 84.8352 31.6751 85.5352 31.6751C87.1204 31.6751 87.592 32.6363 87.592 34.4065H89.7794V34.4029ZM74.3446 42.9129C72.1064 42.9129 71.6639 40.3084 71.6639 37.2903C71.6639 34.2723 72.1318 31.6678 74.3446 31.6678C76.6843 31.6678 77.1305 34.2723 77.1305 37.2903C77.1305 40.3084 76.6625 42.9129 74.3446 42.9129ZM69.375 37.2903C69.375 41.2225 70.3617 44.6287 74.399 44.6287C78.4363 44.6287 79.423 41.2189 79.423 37.2903C79.423 33.3618 78.4327 29.952 74.399 29.952C70.3653 29.952 69.375 33.3618 69.375 37.2903ZM65.0293 25.0078C64.9241 25.4758 64.7935 26.1795 64.1188 26.1795C63.7815 26.1795 63.2845 25.9183 62.7658 25.6825C62.2434 25.4213 61.6993 25.1892 61.2024 25.1892C59.8239 25.1892 58.7828 26.5422 58.7828 28.0803H60.1903C60.2701 27.6123 60.5276 26.9086 61.206 26.9086C61.7537 26.9086 63.1068 27.8989 64.1986 27.8989C65.6822 27.8989 66.4368 26.3137 66.4368 25.0114H65.0329L65.0293 25.0078ZM58.0029 44.2659H60.1903V34.6351C60.1903 32.6037 61.7791 31.8238 62.9472 31.8238C64.9277 31.8238 65.0039 33.5686 65.0039 34.6351V44.2659H67.1913V34.3739C67.1913 32.7343 67.1913 29.9484 63.5203 29.9484C62.1636 29.9484 60.709 30.6775 60.1359 31.9507H60.0851V30.3111H58.0029V44.2587V44.2659ZM52.8484 40.2576C52.8484 41.6868 51.4699 42.9129 50.0371 42.9129C48.6042 42.9129 48.0601 41.9262 48.0601 40.5188C48.0601 39.2963 48.4229 38.7486 49.1266 38.3097C50.1169 37.7111 52.0431 37.5297 52.8484 36.67V40.2612V40.2576ZM48.2959 34.5335V34.4029C48.2959 33.9096 48.2959 31.6714 50.69 31.6714C52.1483 31.6714 52.9282 32.4259 52.9282 33.7282C52.9282 34.8999 52.9282 35.3424 51.3393 35.8357L48.3975 36.7208C46.6019 37.2649 45.7676 38.6216 45.7676 40.5732C45.7676 43.0689 46.9646 44.6323 49.5655 44.6323C50.8678 44.6323 52.2208 43.8778 52.9245 42.6299H52.9753C53.0805 44.4255 54.1216 44.4255 54.9559 44.4255C55.5 44.4255 56.0731 44.3203 56.2291 44.2949V42.7351C56.1239 42.8149 55.997 42.8657 55.7104 42.8657C55.0321 42.8657 55.0321 42.318 55.0321 41.7448V33.964C55.0321 32.5057 55.0321 29.9556 50.7916 29.9556C47.4616 29.9556 46.1086 31.3595 46.1086 34.5371H48.2959V34.5335Z" fill="white"/>
<path d="M41.2441 0H9.30811L9.18115 7.98401H31.7148C29.5094 10.1278 26.7706 13.9113 23.5059 19.3379C18.4493 28.0909 15.7867 36.5211 15.5147 44.6321H24.7465C24.7465 42.0348 25.258 38.7048 26.2773 34.6493C27.2966 30.5975 28.4429 27.1623 29.7125 24.3583C31.3194 20.7816 33.3073 17.3138 35.6833 13.9584C38.0592 10.5994 39.9092 8.26695 41.2441 6.95381V0Z" fill="white"/>
<path d="M45.3104 84.8783C45.1472 84.8783 45.0129 84.7441 45.0129 84.5808V54.5057C45.0129 54.3425 45.1472 54.2083 45.3104 54.2083C45.4736 54.2083 45.6078 54.3425 45.6078 54.5057V84.5808C45.6078 84.7441 45.4736 84.8783 45.3104 84.8783Z" fill="white"/>
<path d="M12.3153 84.4646C12.2572 84.4937 12.192 84.519 12.1158 84.5408C12.036 84.5626 11.9489 84.5843 11.851 84.6025C11.753 84.6206 11.6515 84.6279 11.5463 84.6279C11.3177 84.6279 11.111 84.5916 10.9187 84.5263C10.7265 84.4574 10.5632 84.3558 10.4218 84.2143C10.2803 84.0765 10.1751 83.906 10.0953 83.7065C10.0155 83.507 9.97559 83.2785 9.97559 83.0209C9.97559 82.7634 10.0155 82.5385 10.0953 82.3353C10.1751 82.1358 10.2839 81.9653 10.4254 81.8275C10.5669 81.6896 10.7373 81.5844 10.9369 81.5119C11.1364 81.4394 11.3504 81.4031 11.5898 81.4031C11.7784 81.4031 11.9489 81.4248 12.1085 81.4647C12.2645 81.5046 12.4023 81.5554 12.5221 81.6098C12.5003 81.6534 12.4785 81.7078 12.4676 81.7803C12.4531 81.8529 12.4422 81.9145 12.435 81.9617L12.4096 81.9726C12.3806 81.9363 12.3407 81.8964 12.2899 81.8493C12.2391 81.8021 12.1774 81.7622 12.1085 81.7187C12.0396 81.6751 11.9634 81.6389 11.8764 81.6135C11.7893 81.5844 11.695 81.5699 11.5934 81.5699C11.4229 81.5699 11.267 81.599 11.1219 81.657C10.9768 81.715 10.8498 81.8021 10.7446 81.9218C10.6358 82.0415 10.5523 82.1939 10.4907 82.3752C10.4326 82.5566 10.4 82.7743 10.4 83.0245C10.4 83.2748 10.429 83.4925 10.4907 83.6739C10.5523 83.8552 10.6358 84.0076 10.7446 84.1273C10.8498 84.247 10.9768 84.334 11.1219 84.3921C11.267 84.4465 11.4229 84.4755 11.5934 84.4755C11.695 84.4755 11.7893 84.461 11.8764 84.4356C11.9634 84.4066 12.0432 84.374 12.1194 84.3377C12.192 84.3014 12.2572 84.2579 12.3153 84.2143C12.3733 84.1708 12.4241 84.1309 12.464 84.1019L12.4821 84.12L12.4422 84.3885C12.4169 84.4139 12.3733 84.4392 12.3189 84.4683" fill="white"/>
<path d="M14.448 83.3985C14.0744 82.9777 13.7044 82.5569 13.3308 82.1434C13.3308 82.2268 13.3271 82.3429 13.3235 82.4843C13.3235 82.6258 13.3199 82.8181 13.3199 83.0647C13.3199 83.13 13.3199 83.2062 13.3199 83.3005C13.3199 83.3948 13.3199 83.4928 13.3235 83.5943C13.3235 83.6959 13.3271 83.8011 13.3308 83.9063C13.3344 84.0115 13.338 84.1094 13.3416 84.2001C13.3416 84.2908 13.3453 84.3706 13.3489 84.4359C13.3489 84.5048 13.3525 84.552 13.3561 84.5737C13.3126 84.5665 13.2618 84.5665 13.2038 84.5665C13.1458 84.5665 13.095 84.5665 13.0442 84.5737C13.0478 84.5447 13.0551 84.4867 13.066 84.4069C13.0732 84.3271 13.0805 84.2291 13.0841 84.1167C13.0877 84.0042 13.095 83.8809 13.1022 83.7467C13.1095 83.6161 13.1131 83.4819 13.1204 83.3477C13.124 83.2171 13.1276 83.0865 13.1312 82.9595C13.1312 82.8326 13.1312 82.7201 13.1312 82.6222C13.1312 82.332 13.1312 82.0853 13.1312 81.8749C13.1312 81.6645 13.1276 81.5122 13.1204 81.407H13.1893C13.3634 81.6065 13.552 81.8205 13.7515 82.0454C13.9511 82.2739 14.1506 82.4988 14.3428 82.7201C14.5387 82.9414 14.7273 83.1518 14.9014 83.3513C15.0756 83.5472 15.2315 83.7177 15.3621 83.8555V83.2425C15.3621 82.9269 15.3621 82.6185 15.3549 82.3175C15.3512 82.0164 15.3404 81.7335 15.3259 81.4686C15.3839 81.4832 15.431 81.4904 15.471 81.4904C15.5036 81.4904 15.5508 81.4832 15.6088 81.4686C15.6052 81.5339 15.5979 81.6355 15.5907 81.7661C15.5834 81.9003 15.5761 82.0382 15.5689 82.1905C15.5616 82.3429 15.5544 82.488 15.5508 82.6331C15.5471 82.7782 15.5435 82.8942 15.5435 82.9813V83.2534C15.5435 83.3549 15.5435 83.4601 15.5435 83.5726C15.5435 83.685 15.5435 83.7975 15.5471 83.9099C15.5471 84.0224 15.5471 84.1276 15.5508 84.2255C15.5508 84.3234 15.5508 84.4069 15.5508 84.4794V84.6282H15.4891C15.159 84.2291 14.8108 83.8156 14.4371 83.3948" fill="white"/>
<path d="M16.8169 83.1663C16.8895 83.1663 16.9693 83.1663 17.0491 83.1699C17.1289 83.1735 17.2051 83.1772 17.2813 83.1772C17.3611 83.1772 17.4409 83.1772 17.5207 83.1772C17.6005 83.1772 17.6803 83.1735 17.7601 83.1699L17.2813 82.02L16.8133 83.1699L16.8169 83.1663ZM18.7214 84.5737C18.6814 84.5665 18.6415 84.5665 18.6089 84.5665H18.3804C18.3441 84.5665 18.3078 84.5665 18.2679 84.5737C18.2462 84.5048 18.2208 84.4214 18.1845 84.3198C18.1518 84.2219 18.1119 84.1203 18.072 84.0151C18.0321 83.9063 17.9886 83.7975 17.9451 83.6886C17.9015 83.5762 17.8616 83.4746 17.8254 83.3731C17.7347 83.3731 17.6404 83.3694 17.5461 83.3658C17.4517 83.3658 17.3574 83.3658 17.2631 83.3658C17.1761 83.3658 17.089 83.3658 17.0019 83.3658C16.9149 83.3658 16.8278 83.3694 16.7408 83.3731C16.6501 83.6088 16.5666 83.8301 16.4905 84.0441C16.4179 84.2582 16.3599 84.4323 16.3236 84.5737C16.2765 84.5665 16.222 84.5665 16.164 84.5665C16.106 84.5665 16.0516 84.5665 16.0044 84.5737C16.2366 84.0441 16.4615 83.5218 16.6827 82.9994C16.904 82.4771 17.1253 81.9475 17.3502 81.407H17.43C17.4989 81.5811 17.5715 81.7697 17.6549 81.9765C17.7347 82.1796 17.8181 82.3864 17.8979 82.5932C17.9814 82.7999 18.0648 83.0103 18.1482 83.2134C18.2316 83.4166 18.3114 83.6088 18.384 83.7866C18.4565 83.9643 18.5218 84.1203 18.5799 84.2582C18.6379 84.3996 18.6851 84.5012 18.725 84.5737" fill="white"/>
<path d="M20.0452 83.3765H18.9751V83.6594H20.0452V83.3765Z" fill="white"/>
<path d="M22.7442 84.4646C22.6898 84.4937 22.6209 84.519 22.5411 84.5408C22.4613 84.5626 22.3742 84.5843 22.2763 84.6025C22.1783 84.6206 22.0768 84.6279 21.9716 84.6279C21.7467 84.6279 21.5363 84.5916 21.344 84.5263C21.1518 84.4574 20.9849 84.3558 20.8471 84.2143C20.7092 84.0765 20.6004 83.906 20.5206 83.7065C20.4408 83.507 20.4009 83.2785 20.4009 83.0209C20.4009 82.7634 20.4408 82.5385 20.5206 82.3353C20.6004 82.1358 20.7092 81.9653 20.8507 81.8275C20.9922 81.6896 21.1626 81.5844 21.3585 81.5119C21.5544 81.4394 21.7757 81.4031 22.0115 81.4031C22.2001 81.4031 22.3742 81.4248 22.5302 81.4647C22.6862 81.5046 22.824 81.5554 22.9437 81.6098C22.922 81.6534 22.9002 81.7078 22.8893 81.7803C22.8748 81.8529 22.8639 81.9145 22.8567 81.9617L22.8313 81.9726C22.8022 81.9363 22.7623 81.8964 22.7116 81.8493C22.6608 81.8021 22.5991 81.7622 22.5302 81.7187C22.4613 81.6751 22.3851 81.6389 22.298 81.6135C22.211 81.5844 22.1167 81.5699 22.0151 81.5699C21.8446 81.5699 21.6886 81.599 21.5435 81.657C21.3984 81.715 21.2751 81.8021 21.1663 81.9218C21.0574 82.0415 20.974 82.1939 20.916 82.3752C20.8579 82.5566 20.8253 82.7743 20.8253 83.0245C20.8253 83.2748 20.8543 83.4925 20.916 83.6739C20.9776 83.8552 21.0611 84.0076 21.1663 84.1273C21.2751 84.247 21.3984 84.334 21.5435 84.3921C21.6886 84.4465 21.8446 84.4755 22.0151 84.4755C22.1167 84.4755 22.2146 84.461 22.3017 84.4356C22.3887 84.4066 22.4685 84.374 22.5411 84.3377C22.6136 84.3014 22.6789 84.2579 22.7406 84.2143C22.7986 84.1708 22.8494 84.1309 22.8893 84.1019L22.9074 84.12L22.8675 84.3885C22.8421 84.4139 22.8022 84.4392 22.7442 84.4683" fill="white"/>
<path d="M23.4479 82.1287C23.4479 82.0089 23.4479 81.8892 23.4406 81.7695C23.4406 81.6498 23.4334 81.541 23.4298 81.4322C23.4261 81.3234 23.4225 81.2327 23.4152 81.1565C23.4951 81.171 23.5603 81.1783 23.6075 81.1783C23.6547 81.1783 23.72 81.171 23.7998 81.1565C23.7925 81.2327 23.7889 81.3234 23.7852 81.4286C23.7816 81.5337 23.7744 81.6462 23.7744 81.7623C23.7744 81.8784 23.7707 81.9944 23.7671 82.1105C23.7671 82.2302 23.7671 82.3354 23.7671 82.437V82.7816H23.7744C23.8542 82.651 23.9521 82.5531 24.0609 82.4805C24.1734 82.4116 24.3076 82.3753 24.46 82.3753C24.5398 82.3753 24.6232 82.3898 24.703 82.4116C24.7864 82.437 24.859 82.4769 24.9243 82.5349C24.9896 82.593 25.044 82.6728 25.0875 82.7743C25.1274 82.8759 25.1492 83.0029 25.1492 83.1588C25.1492 83.2894 25.1492 83.4236 25.1419 83.5615C25.1347 83.6993 25.131 83.8444 25.131 83.9968V84.2906C25.131 84.3378 25.131 84.3885 25.131 84.4321C25.131 84.4792 25.131 84.5228 25.1383 84.5663C25.0802 84.559 25.0186 84.5554 24.9569 84.5554C24.8952 84.5554 24.8372 84.5554 24.7755 84.5663C24.7828 84.4103 24.7864 84.2471 24.7973 84.0838C24.8046 83.917 24.8082 83.7465 24.8082 83.5724V83.2967C24.8082 83.0682 24.7683 82.8977 24.6849 82.7816C24.6014 82.6655 24.4853 82.6075 24.3402 82.6075C24.1371 82.6075 23.992 82.6728 23.9013 82.7997C23.807 82.9303 23.7635 83.1117 23.7635 83.3475C23.7635 83.4309 23.7635 83.5288 23.7635 83.6413C23.7635 83.7537 23.7635 83.8662 23.7707 83.9786C23.7707 84.0911 23.778 84.1999 23.7816 84.3051C23.7816 84.4103 23.7889 84.4974 23.7961 84.5627C23.7308 84.5554 23.6655 84.5518 23.6039 84.5518C23.5422 84.5518 23.4769 84.5518 23.4116 84.5627C23.4189 84.4937 23.4225 84.4067 23.4261 84.3015C23.4298 84.1963 23.4334 84.0838 23.437 83.9678C23.437 83.8481 23.4406 83.732 23.4443 83.6123C23.4443 83.4926 23.4443 83.3801 23.4443 83.2786V82.4588C23.4443 82.3572 23.4443 82.2447 23.4443 82.125" fill="white"/>
<path d="M25.9109 82.8435C25.9072 82.6947 25.8963 82.5569 25.8818 82.4263C25.9616 82.4408 26.0269 82.4481 26.0741 82.4481C26.1212 82.4481 26.1902 82.4408 26.27 82.4263C26.2555 82.5569 26.2482 82.6947 26.241 82.8435C26.2373 82.9922 26.2337 83.1336 26.2337 83.2715V83.7431C26.2337 83.8809 26.2337 84.0224 26.241 84.1711C26.2446 84.3198 26.2555 84.454 26.27 84.5737C26.2047 84.5665 26.1394 84.5665 26.0741 84.5665C26.0088 84.5665 25.9471 84.5665 25.8818 84.5737C25.8963 84.454 25.9036 84.3198 25.9109 84.1711C25.9145 84.0224 25.9181 83.8809 25.9181 83.7431V83.2715C25.9181 83.1373 25.9181 82.9922 25.9109 82.8435ZM25.9217 81.4759C25.9653 81.4287 26.0161 81.407 26.0741 81.407C26.1321 81.407 26.1865 81.4287 26.2301 81.4759C26.2736 81.5231 26.2954 81.5738 26.2954 81.6391C26.2954 81.7044 26.2736 81.7552 26.2301 81.8024C26.1865 81.8495 26.1358 81.8713 26.0741 81.8713C26.0124 81.8713 25.9653 81.8495 25.9217 81.8024C25.8782 81.7552 25.8564 81.7044 25.8564 81.6391C25.8564 81.5738 25.8782 81.5231 25.9217 81.4759Z" fill="white"/>
<path d="M27.1115 82.1287C27.1115 82.0089 27.1079 81.8892 27.1042 81.7695C27.1042 81.6498 27.097 81.541 27.0934 81.4322C27.0897 81.3234 27.0825 81.2327 27.0789 81.1565C27.1587 81.171 27.224 81.1783 27.2711 81.1783C27.3183 81.1783 27.3836 81.171 27.4634 81.1565C27.4597 81.2327 27.4525 81.3234 27.4489 81.4322C27.4452 81.5374 27.4416 81.6498 27.438 81.7695C27.438 81.8892 27.4343 82.0053 27.4307 82.1287C27.4307 82.2484 27.4271 82.3608 27.4271 82.4624V83.2822C27.4271 83.3837 27.4271 83.4962 27.4307 83.6159C27.4307 83.7356 27.4307 83.8553 27.438 83.9714C27.438 84.0875 27.4452 84.1999 27.4489 84.3051C27.4525 84.4103 27.4597 84.4974 27.4634 84.5663C27.3981 84.559 27.3328 84.5554 27.2711 84.5554C27.2094 84.5554 27.1442 84.5554 27.0789 84.5663C27.0825 84.4974 27.0897 84.4103 27.0934 84.3051C27.0934 84.1999 27.1006 84.0875 27.1042 83.9714C27.1042 83.8517 27.1115 83.7356 27.1115 83.6159C27.1115 83.4962 27.1115 83.3837 27.1115 83.2822V82.4624C27.1115 82.3608 27.1115 82.2484 27.1115 82.1287Z" fill="white"/>
<path d="M28.7438 82.6004C28.6712 82.6512 28.6095 82.7165 28.5624 82.7926C28.5152 82.8688 28.479 82.9559 28.4536 83.0466C28.4282 83.1373 28.4137 83.2243 28.4064 83.3041C28.4935 83.3077 28.5878 83.3114 28.6821 83.315C28.78 83.315 28.8744 83.3186 28.965 83.3186C29.0557 83.3186 29.1573 83.3186 29.2516 83.315C29.3495 83.315 29.4439 83.3077 29.5345 83.3041C29.5345 83.2243 29.5309 83.1373 29.5164 83.0466C29.5019 82.9559 29.4765 82.8725 29.4402 82.7926C29.4003 82.7128 29.3495 82.6512 29.2806 82.5968C29.2117 82.546 29.121 82.5206 29.0086 82.5206C28.8961 82.5206 28.8127 82.546 28.7401 82.5968M28.2686 82.6911C28.4354 82.4807 28.6821 82.3755 29.0013 82.3755C29.1537 82.3755 29.2843 82.4009 29.3931 82.4517C29.5055 82.5025 29.5962 82.5677 29.6688 82.6512C29.7449 82.7346 29.7993 82.8325 29.8356 82.945C29.8719 83.0575 29.89 83.1772 29.89 83.3005C29.89 83.3295 29.89 83.3585 29.89 83.3875C29.89 83.4166 29.8864 83.4456 29.8828 83.4746C29.7268 83.4746 29.5744 83.4674 29.4221 83.4674C29.2697 83.4674 29.1174 83.4601 28.9614 83.4601C28.8671 83.4601 28.7728 83.4601 28.6785 83.4674C28.5842 83.4674 28.4898 83.471 28.3955 83.4746C28.3955 83.4891 28.3919 83.5109 28.3919 83.5435V83.6016C28.3919 83.7176 28.41 83.8301 28.4427 83.9317C28.4753 84.0332 28.5225 84.1203 28.5842 84.1965C28.6495 84.269 28.7256 84.3307 28.8163 84.3742C28.907 84.4177 29.0122 84.4395 29.1355 84.4395C29.1936 84.4395 29.2516 84.4323 29.3096 84.4141C29.3713 84.396 29.4294 84.3742 29.4838 84.3452C29.5418 84.3162 29.5962 84.2835 29.647 84.2436C29.6978 84.2037 29.7413 84.1638 29.7776 84.1167L29.7994 84.1312L29.774 84.3524C29.6905 84.425 29.5817 84.4867 29.4547 84.5374C29.3278 84.5882 29.1936 84.6136 29.0594 84.6136C28.9034 84.6136 28.7655 84.5882 28.6349 84.5411C28.508 84.4903 28.3992 84.4177 28.3048 84.3234C28.2105 84.2291 28.1416 84.1167 28.0908 83.9861C28.04 83.8555 28.0146 83.7176 28.0146 83.5653C28.0146 83.1953 28.0981 82.9051 28.2649 82.6911" fill="white"/>
<path d="M2.75686 75.0079C2.63715 75.1204 2.23813 75.3235 1.75568 75.3235C0.739999 75.3235 0 74.5908 0 73.3212C0 72.0516 0.743626 71.3152 1.80647 71.3152C2.22 71.3152 2.58999 71.4313 2.85117 71.5727C2.80401 71.6743 2.76774 71.8919 2.7496 72.008L2.72058 72.0189C2.58637 71.8448 2.2599 71.5219 1.80647 71.5219C1.05196 71.5219 0.471568 72.0769 0.471568 73.3212C0.471568 74.5654 1.04833 75.1167 1.80647 75.1167C2.26353 75.1167 2.60088 74.8157 2.78588 74.6524L2.80401 74.6742L2.76048 75.0043L2.75686 75.0079Z" fill="white"/>
<path d="M4.34919 75.1316C4.9187 75.1316 5.09644 74.5439 5.09644 73.9164C5.09644 73.2888 4.9187 72.7012 4.34919 72.7012C3.77968 72.7012 3.60194 73.2888 3.60194 73.9164C3.60194 74.5439 3.77968 75.1316 4.34919 75.1316ZM4.34919 72.5234C4.90782 72.5234 5.51723 72.8971 5.51723 73.9164C5.51723 74.9357 4.90419 75.3093 4.34919 75.3093C3.79419 75.3093 3.18115 74.9357 3.18115 73.9164C3.18115 72.8971 3.79419 72.5234 4.34919 72.5234Z" fill="white"/>
<path d="M6.06156 73.6262C6.06156 73.2925 6.05068 72.9007 6.02166 72.5815C6.09421 72.5996 6.16676 72.6069 6.23931 72.6069C6.28646 72.6069 6.35901 72.596 6.43156 72.5815C6.42068 72.7302 6.41705 72.8789 6.41705 73.0277H6.42431C6.59842 72.6867 6.83421 72.5234 7.14254 72.5234C7.46901 72.5234 7.77372 72.7592 7.83901 73.0784H7.84989C8.00587 72.7193 8.28156 72.5234 8.61891 72.5234C9.03969 72.5234 9.35528 72.7774 9.35528 73.4085C9.35528 73.6661 9.32626 73.9853 9.32626 74.6455C9.32626 74.8486 9.32626 75.0228 9.34077 75.2549C9.27548 75.2368 9.20656 75.2259 9.13401 75.2259C9.06146 75.2259 8.98891 75.2368 8.91999 75.2549C8.93812 75.0481 8.96714 74.4859 8.96714 73.4847C8.96714 73.1111 8.84018 72.8136 8.46656 72.8136C8.2344 72.8136 8.07117 72.937 7.98411 73.0748C7.88254 73.2417 7.86803 73.2997 7.86803 74.3626C7.86803 74.6854 7.87891 74.9067 7.88979 75.2549C7.81724 75.2368 7.7447 75.2259 7.6794 75.2259C7.61411 75.2259 7.54156 75.2368 7.46901 75.2549C7.49803 74.8341 7.51254 74.3916 7.51254 73.9817C7.51254 73.2888 7.50891 73.2417 7.42548 73.0712C7.35656 72.9297 7.18244 72.8136 7.02646 72.8136C6.61293 72.8136 6.4098 73.1474 6.4098 73.7314V74.2066C6.4098 74.5403 6.41705 74.9357 6.44607 75.2549C6.37352 75.2368 6.30097 75.2259 6.23205 75.2259C6.16313 75.2259 6.08695 75.2368 6.0144 75.2549C6.04342 74.9357 6.05431 74.5439 6.05431 74.2066V73.6226L6.06156 73.6262Z" fill="white"/>
<path d="M10.1895 73.6259C10.1895 73.2922 10.1786 72.8968 10.1496 72.5812C10.2222 72.5993 10.2947 72.6102 10.3673 72.6102C10.4398 72.6102 10.5124 72.5993 10.5849 72.5812C10.5559 72.9004 10.545 73.2922 10.545 73.6259V74.2099C10.545 74.5436 10.5559 74.9354 10.5849 75.2546C10.5124 75.2365 10.4398 75.2292 10.3673 75.2292C10.2947 75.2292 10.2222 75.2401 10.1496 75.2546C10.1786 74.9354 10.1895 74.5436 10.1895 74.2099V73.6259ZM10.3673 71.3188C10.5015 71.3188 10.6139 71.4494 10.6139 71.6054C10.6139 71.7614 10.5015 71.892 10.3673 71.892C10.2331 71.892 10.1206 71.765 10.1206 71.6054C10.1206 71.4458 10.2331 71.3188 10.3673 71.3188Z" fill="white"/>
<path d="M11.3794 74.718C11.4483 74.8704 11.6551 75.1062 11.9235 75.1062C12.1629 75.1062 12.3915 74.9321 12.3915 74.602C12.3915 73.9091 11.2561 74.3154 11.2561 73.3686C11.2561 72.8826 11.5463 72.5234 12.0541 72.5234C12.2899 72.5234 12.4386 72.625 12.5873 72.6794C12.5329 72.7882 12.4821 72.995 12.4713 73.0784H12.4132C12.3661 72.8971 12.2065 72.7302 11.9888 72.7302C11.8002 72.7302 11.5789 72.8717 11.5789 73.2018C11.5789 73.9309 12.7143 73.4811 12.7143 74.4278C12.7143 74.8523 12.3806 75.3129 11.8473 75.3129C11.5535 75.3129 11.3613 75.2186 11.2271 75.1279C11.267 75.0336 11.3177 74.8305 11.3177 74.718H11.3758H11.3794Z" fill="white"/>
<path d="M13.3997 73.6259C13.3997 73.2922 13.3889 72.8968 13.3598 72.5812C13.4324 72.5993 13.5049 72.6102 13.5775 72.6102C13.65 72.6102 13.7226 72.5993 13.7915 72.5812C13.7625 72.9004 13.7552 73.2922 13.7552 73.6259V74.2099C13.7552 74.5436 13.7625 74.9354 13.7915 75.2546C13.7189 75.2365 13.6464 75.2292 13.5775 75.2292C13.5086 75.2292 13.4324 75.2401 13.3598 75.2546C13.3889 74.9354 13.3997 74.5436 13.3997 74.2099V73.6259ZM13.5775 71.3188C13.7117 71.3188 13.8241 71.4494 13.8241 71.6054C13.8241 71.7614 13.7153 71.892 13.5775 71.892C13.4396 71.892 13.3308 71.765 13.3308 71.6054C13.3308 71.4458 13.4433 71.3188 13.5775 71.3188Z" fill="white"/>
<path d="M15.9681 71.2646C16.0334 71.1848 16.1132 71.1304 16.1858 71.1304C16.2474 71.1304 16.3454 71.192 16.3454 71.3081C16.3454 71.4423 16.2474 71.5149 16.1712 71.5729L15.4639 72.0989H15.2644L15.9717 71.2646H15.9681ZM15.5872 75.1314C16.1567 75.1314 16.3345 74.5438 16.3345 73.9163C16.3345 73.2887 16.1567 72.7011 15.5872 72.7011C15.0177 72.7011 14.84 73.2887 14.84 73.9163C14.84 74.5438 15.0177 75.1314 15.5872 75.1314ZM15.5872 72.5233C16.1459 72.5233 16.7553 72.8969 16.7553 73.9163C16.7553 74.9356 16.1422 75.3092 15.5872 75.3092C15.0322 75.3092 14.4192 74.9356 14.4192 73.9163C14.4192 72.8969 15.0322 72.5233 15.5872 72.5233Z" fill="white"/>
<path d="M18.3367 72.8136C17.8905 72.8136 17.6874 73.1473 17.6874 73.7313V74.2065C17.6874 74.5439 17.6983 74.9357 17.7273 75.2549C17.6547 75.2367 17.5822 75.2259 17.5096 75.2259C17.4371 75.2259 17.3645 75.2367 17.292 75.2549C17.321 74.9357 17.3319 74.5439 17.3319 74.2065V73.6261C17.3319 73.2888 17.321 72.897 17.292 72.5778C17.3645 72.596 17.4371 72.6032 17.5096 72.6032C17.5568 72.6032 17.6293 72.5923 17.7019 72.5778C17.6946 72.7265 17.6874 72.8753 17.6874 73.024H17.6983C17.876 72.7048 18.1227 72.5198 18.4673 72.5198C18.8119 72.5198 19.2399 72.7193 19.2399 73.4919C19.2399 73.8111 19.2218 74.1485 19.2218 74.5258C19.2218 74.7724 19.2218 75.0082 19.229 75.2512C19.1565 75.2331 19.0948 75.2222 19.0295 75.2222C18.9642 75.2222 18.8989 75.2331 18.8337 75.2512C18.8445 74.8413 18.8663 74.4351 18.8663 74.0034V73.6588C18.8663 73.111 18.6595 72.81 18.3403 72.81" fill="white"/>
<path d="M24.1224 75.3272C23.3897 74.326 22.5155 73.2523 21.6921 72.233C21.6884 72.4398 21.6775 72.7735 21.6775 73.3684C21.6775 73.8508 21.6957 75.0298 21.7211 75.2547C21.6667 75.2365 21.6122 75.2256 21.5542 75.2256C21.4962 75.2256 21.4381 75.2365 21.3765 75.2547C21.4164 74.9935 21.478 73.557 21.478 72.8206C21.478 72.0843 21.478 71.5728 21.4635 71.3225H21.5397C22.3232 72.3128 23.3861 73.6622 23.9737 74.3514C23.9737 73.3503 23.9737 72.2584 23.9374 71.3951C23.9919 71.4132 24.0499 71.4241 24.1007 71.4241C24.1515 71.4241 24.2022 71.4132 24.2567 71.3951C24.2276 71.7252 24.1805 72.8352 24.1805 73.2705C24.1805 73.84 24.1914 75.0769 24.195 75.3308H24.1261L24.1224 75.3272Z" fill="white"/>
<path d="M26.2918 73.8438C25.9581 73.9708 25.287 73.9345 25.287 74.5439C25.287 74.8958 25.4938 75.0772 25.7042 75.0772C25.9509 75.0772 26.1612 74.8922 26.2737 74.6854L26.2918 73.8438ZM25.102 72.8463C25.3922 72.596 25.6208 72.5234 25.8783 72.5234C26.3426 72.5234 26.6582 72.8535 26.6582 73.3505C26.6582 73.7713 26.6401 74.1848 26.6401 74.6528C26.6401 74.8378 26.6401 75.0663 26.8287 75.0663C26.8577 75.0663 26.8976 75.0663 26.9303 75.0445V75.1678C26.8613 75.2005 26.7453 75.244 26.6219 75.244C26.4152 75.244 26.31 75.088 26.2882 74.8958C26.056 75.1642 25.8602 75.3021 25.5337 75.3021C25.2072 75.3021 24.8953 75.0409 24.8953 74.6128C24.8953 74.1848 25.1564 73.9273 25.5736 73.8475C26.2701 73.7205 26.2955 73.6733 26.2955 73.4557C26.2955 73.0821 26.1504 72.752 25.7659 72.752C25.5083 72.752 25.2689 72.8934 25.1601 73.1329H25.1057V72.8427L25.102 72.8463Z" fill="white"/>
<path d="M28.5225 72.5234C28.8744 72.5234 29.1755 72.6395 29.2988 72.7701C29.2553 72.8826 29.2154 73.0059 29.1936 73.1401H29.1573C29.0666 72.9515 28.8454 72.7048 28.5407 72.7048C27.9567 72.7048 27.7209 73.2272 27.7209 73.9127C27.7209 74.6781 28.0183 75.0772 28.5552 75.0772C28.8091 75.0772 29.1102 74.903 29.277 74.6781L29.3024 74.6963C29.2879 74.787 29.277 74.8813 29.2734 74.972C29.0812 75.1497 28.7692 75.3129 28.4717 75.3129C27.9131 75.3129 27.3037 74.9212 27.3037 73.92C27.3037 72.9188 27.9131 72.5271 28.5298 72.5271" fill="white"/>
<path d="M29.9918 73.6259C29.9918 73.2922 29.9809 72.8968 29.9519 72.5812C30.0244 72.5993 30.097 72.6102 30.1695 72.6102C30.2421 72.6102 30.3146 72.5993 30.3835 72.5812C30.3545 72.9004 30.3473 73.2922 30.3473 73.6259V74.2099C30.3473 74.5436 30.3545 74.9354 30.3835 75.2546C30.311 75.2365 30.2384 75.2292 30.1695 75.2292C30.1006 75.2292 30.0244 75.2401 29.9519 75.2546C29.9809 74.9354 29.9918 74.5436 29.9918 74.2099V73.6259ZM30.1695 71.3188C30.3037 71.3188 30.4162 71.4494 30.4162 71.6054C30.4162 71.7614 30.3037 71.892 30.1695 71.892C30.0353 71.892 29.9229 71.765 29.9229 71.6054C29.9229 71.4458 30.0353 71.3188 30.1695 71.3188Z" fill="white"/>
<path d="M32.179 75.1316C32.7485 75.1316 32.9263 74.5439 32.9263 73.9164C32.9263 73.2888 32.7485 72.7012 32.179 72.7012C31.6095 72.7012 31.4354 73.2888 31.4354 73.9164C31.4354 74.5439 31.6131 75.1316 32.179 75.1316ZM32.179 72.5234C32.7377 72.5234 33.3471 72.8971 33.3471 73.9164C33.3471 74.9357 32.734 75.3093 32.179 75.3093C31.624 75.3093 31.011 74.9357 31.011 73.9164C31.011 72.8971 31.6204 72.5234 32.179 72.5234Z" fill="white"/>
<path d="M34.9288 72.8136C34.4826 72.8136 34.2795 73.1473 34.2795 73.7313V74.2065C34.2795 74.5439 34.2903 74.9357 34.3194 75.2549C34.2468 75.2367 34.1743 75.2259 34.1017 75.2259C34.0292 75.2259 33.9566 75.2367 33.8877 75.2549C33.9167 74.9357 33.9276 74.5439 33.9276 74.2065V73.6261C33.9276 73.2888 33.9167 72.897 33.8877 72.5778C33.9602 72.596 34.0328 72.6032 34.1017 72.6032C34.1489 72.6032 34.2214 72.5923 34.294 72.5778C34.2867 72.7265 34.2795 72.8753 34.2795 73.024H34.2903C34.4681 72.7048 34.7148 72.5198 35.0594 72.5198C35.404 72.5198 35.832 72.7193 35.832 73.4919C35.832 73.8111 35.8139 74.1485 35.8139 74.5258C35.8139 74.7724 35.8139 75.0082 35.8248 75.2512C35.7522 75.2331 35.6905 75.2222 35.6252 75.2222C35.5599 75.2222 35.4947 75.2331 35.4257 75.2512C35.4366 74.8413 35.462 74.4351 35.462 74.0034V73.6588C35.462 73.111 35.2552 72.81 34.936 72.81" fill="white"/>
<path d="M37.7979 73.8438C37.4642 73.9708 36.7895 73.9345 36.7895 74.5439C36.7895 74.8958 36.9962 75.0772 37.2066 75.0772C37.4533 75.0772 37.6637 74.8922 37.7761 74.6854L37.7979 73.8438ZM36.6081 72.8463C36.8983 72.596 37.1268 72.5234 37.3844 72.5234C37.8451 72.5234 38.1643 72.8535 38.1643 73.3505C38.1643 73.7713 38.1461 74.1848 38.1461 74.6528C38.1461 74.8378 38.1461 75.0663 38.3348 75.0663C38.3638 75.0663 38.4037 75.0663 38.4363 75.0445V75.1678C38.3674 75.2005 38.2513 75.244 38.128 75.244C37.9212 75.244 37.816 75.088 37.7943 74.8958C37.5657 75.1642 37.3662 75.3021 37.0398 75.3021C36.7133 75.3021 36.3977 75.0409 36.3977 74.6128C36.3977 74.1848 36.6589 73.9273 37.076 73.8475C37.7725 73.7205 37.7979 73.6733 37.7979 73.4557C37.7979 73.0821 37.6528 72.752 37.2683 72.752C37.0144 72.752 36.775 72.8934 36.6625 73.1329H36.6081V72.8427V72.8463Z" fill="white"/>
<path d="M39.0929 72.6286C39.0929 72.1135 39.082 71.3917 39.053 71.0144C39.1255 71.0325 39.1981 71.0434 39.2706 71.0434C39.3432 71.0434 39.4157 71.0325 39.4846 71.0144C39.4556 71.3917 39.4447 72.1135 39.4447 72.6286V73.6407C39.4447 74.1558 39.4556 74.8776 39.4846 75.2513C39.4121 75.2331 39.3395 75.2222 39.2706 75.2222C39.2017 75.2222 39.1255 75.2331 39.053 75.2513C39.082 74.8776 39.0929 74.1558 39.0929 73.6407V72.6286Z" fill="white"/>
<path d="M4.79181 79.9812C5.2924 79.9812 5.51005 79.3501 5.51005 78.7406C5.51005 78.0333 5.26701 77.6379 4.80632 77.6379C4.34564 77.6379 4.12799 78.1711 4.12799 78.8458C4.12799 79.7418 4.47985 79.9812 4.79181 79.9812ZM5.50279 79.5822H5.49191C5.3976 79.818 5.15093 80.188 4.67936 80.188C4.20779 80.188 3.69995 79.7745 3.69995 78.8132C3.69995 77.8519 4.23319 77.4021 4.7374 77.4021C5.09289 77.4021 5.34318 77.598 5.4774 77.9607H5.48828C5.48828 77.257 5.48828 76.3756 5.47014 75.8967C5.54632 75.9076 5.61887 75.9257 5.68416 75.9257C5.74946 75.9257 5.81838 75.9076 5.90181 75.8967C5.85828 76.3683 5.84377 77.8338 5.84377 78.7914C5.84377 79.2993 5.85465 79.6874 5.85828 80.1336C5.78573 80.1227 5.72769 80.1082 5.66965 80.1082C5.61161 80.1082 5.55358 80.1263 5.48828 80.1336L5.50279 79.5858V79.5822Z" fill="white"/>
<path d="M6.78344 78.5486C6.98295 78.5559 7.20785 78.5668 7.40736 78.5668C7.62138 78.5668 7.84628 78.5559 8.04942 78.5486C8.04942 78.1496 7.95873 77.5801 7.45814 77.5801C6.98657 77.5801 6.80883 78.1423 6.78344 78.5486ZM7.44726 77.4023C8.12197 77.4023 8.44481 77.9211 8.44481 78.545C8.44481 78.6175 8.44118 78.6901 8.43392 78.7626C8.08569 78.7554 7.74471 78.7445 7.40373 78.7445C7.19334 78.7445 6.98295 78.7554 6.77256 78.7626C6.76893 78.817 6.76893 78.8715 6.76893 78.9186C6.76893 79.499 7.06638 79.9524 7.60324 79.9524C7.85716 79.9524 8.15824 79.7783 8.3251 79.5534L8.35049 79.5716L8.32147 79.8472C8.12922 80.025 7.81726 80.1882 7.51618 80.1882C6.82334 80.1882 6.34814 79.6187 6.34814 78.8751C6.34814 77.9682 6.74354 77.4023 7.45089 77.4023" fill="white"/>
<path d="M11.2668 76.9559L10.7408 78.3779C10.9076 78.3779 11.0926 78.3887 11.2595 78.3887C11.4372 78.3887 11.6186 78.3815 11.8 78.3779L11.2668 76.9559ZM11.4264 76.1978C11.8979 77.4964 12.6198 79.535 12.8737 80.1335C12.7867 80.1154 12.7069 80.1081 12.6198 80.1081C12.5327 80.1081 12.4529 80.119 12.3659 80.1335C12.2752 79.749 12.043 79.1324 11.8689 78.6318C11.6621 78.6281 11.4518 78.6209 11.2377 78.6209C11.0419 78.6209 10.8496 78.6281 10.6501 78.6318C10.447 79.2085 10.2656 79.7817 10.1821 80.1335C10.1205 80.1154 10.0624 80.1081 10.0044 80.1081C9.94637 80.1081 9.88833 80.119 9.82666 80.1335C10.3418 78.824 10.8423 77.5218 11.332 76.1978H11.4227H11.4264Z" fill="white"/>
<path d="M14.3865 77.4023C14.7384 77.4023 15.0431 77.5184 15.1628 77.649C15.1193 77.7615 15.0794 77.8848 15.0576 78.019H15.0213C14.9307 77.8268 14.7094 77.5837 14.4047 77.5837C13.8243 77.5837 13.5885 78.1024 13.5885 78.7917C13.5885 79.557 13.886 79.9561 14.4228 79.9561C14.6767 79.9561 14.9778 79.7819 15.1447 79.557L15.1701 79.5752C15.1556 79.6659 15.1447 79.7602 15.1411 79.8509C14.9488 80.0286 14.6368 80.1918 14.3358 80.1918C13.7771 80.1918 13.1677 79.8001 13.1677 78.7989C13.1677 77.7977 13.7808 77.406 14.3938 77.406" fill="white"/>
<path d="M16.8349 77.9174C16.8023 77.8739 16.6971 77.8268 16.5991 77.8268C16.2908 77.8268 16.1094 78.1677 16.1094 78.6067C16.1094 79.5788 16.1094 79.8763 16.1276 80.1338C16.0659 80.1157 15.997 80.1048 15.9353 80.1048C15.8664 80.1048 15.8047 80.1157 15.7322 80.1338C15.7503 79.8618 15.7503 79.4228 15.7503 78.7953V78.6139C15.7503 78.3237 15.7503 77.9356 15.7322 77.4568C15.8047 77.4749 15.8664 77.4858 15.9353 77.4858C15.997 77.4858 16.0659 77.4749 16.1276 77.4568C16.1022 77.7252 16.1022 77.8594 16.1022 78.0009H16.1131C16.2944 77.6019 16.5266 77.4023 16.7479 77.4023C16.8059 77.4023 16.8385 77.406 16.9002 77.435C16.8676 77.5257 16.8676 77.7361 16.8676 77.8884L16.8349 77.9174Z" fill="white"/>
<path d="M17.5749 78.5486C17.7708 78.5559 17.9994 78.5668 18.1989 78.5668C18.4093 78.5668 18.6378 78.5559 18.8409 78.5486C18.8409 78.1496 18.7502 77.5801 18.2496 77.5801C17.7781 77.5801 17.6003 78.1423 17.5749 78.5486ZM18.2388 77.4023C18.9135 77.4023 19.2363 77.9211 19.2363 78.545C19.2363 78.6175 19.2327 78.6901 19.2254 78.7626C18.8772 78.7554 18.5362 78.7445 18.1952 78.7445C17.9848 78.7445 17.7781 78.7554 17.5641 78.7626C17.5604 78.817 17.5604 78.8715 17.5604 78.9186C17.5604 79.499 17.8579 79.9524 18.3947 79.9524C18.6523 79.9524 18.9497 79.7783 19.1166 79.5534L19.142 79.5716L19.113 79.8472C18.9207 80.025 18.6051 80.1882 18.3077 80.1882C17.6148 80.1882 17.1396 79.6187 17.1396 78.8751C17.1396 77.9682 17.535 77.4023 18.2424 77.4023" fill="white"/>
<path d="M20.6656 79.9812C21.1662 79.9812 21.3839 79.3501 21.3839 78.7406C21.3839 78.0333 21.1408 77.6379 20.6838 77.6379C20.2267 77.6379 20.0054 78.1711 20.0054 78.8458C20.0054 79.7418 20.3573 79.9812 20.6693 79.9812M21.3802 79.5822H21.3693C21.2714 79.818 21.0284 80.188 20.5568 80.188C20.0852 80.188 19.5774 79.7745 19.5774 78.8132C19.5774 77.8519 20.1106 77.4021 20.6112 77.4021C20.9667 77.4021 21.217 77.598 21.3512 77.9607H21.3621C21.3621 77.257 21.3621 76.3756 21.344 75.8967C21.4201 75.9076 21.4927 75.9257 21.5616 75.9257C21.6305 75.9257 21.6958 75.9076 21.7793 75.8967C21.7357 76.3683 21.7212 77.8338 21.7212 78.7914C21.7212 79.2993 21.7285 79.6874 21.7357 80.1336C21.6632 80.1227 21.6051 80.1082 21.5471 80.1082C21.4891 80.1082 21.431 80.1263 21.3657 80.1336L21.3802 79.5858V79.5822Z" fill="white"/>
<path d="M22.5445 78.5048C22.5445 78.1711 22.5336 77.7757 22.5046 77.4601C22.5772 77.4782 22.6497 77.4891 22.7223 77.4891C22.7948 77.4891 22.8674 77.4782 22.9399 77.4601C22.9109 77.7793 22.9036 78.1711 22.9036 78.5048V79.0888C22.9036 79.4226 22.9109 79.8179 22.9399 80.1335C22.8674 80.1154 22.7948 80.1081 22.7223 80.1081C22.6497 80.1081 22.5772 80.119 22.5046 80.1335C22.5336 79.8143 22.5445 79.4226 22.5445 79.0888V78.5048ZM22.7223 76.1978C22.8565 76.1978 22.9689 76.3283 22.9689 76.4843C22.9689 76.6403 22.8601 76.7709 22.7223 76.7709C22.5844 76.7709 22.4756 76.6403 22.4756 76.4843C22.4756 76.3283 22.588 76.1978 22.7223 76.1978Z" fill="white"/>
<path d="M24.1733 76.7094H24.1987C24.1769 76.9887 24.1696 77.2644 24.1588 77.5365C24.2277 77.5365 24.449 77.5292 24.6702 77.5183C24.6666 77.5546 24.6666 77.5945 24.6666 77.6344C24.6666 77.6743 24.6666 77.7142 24.6702 77.7541C24.5034 77.7432 24.2748 77.7432 24.1588 77.7432C24.1479 77.8013 24.1261 78.6791 24.1261 79.1652C24.1261 79.586 24.1334 80.0104 24.5143 80.0104C24.5687 80.0104 24.6702 79.9922 24.7319 79.9705V80.1047C24.6231 80.1482 24.4816 80.1881 24.3619 80.1881C23.9629 80.1881 23.7706 79.9269 23.7706 79.488C23.7706 79.0781 23.7996 78.5775 23.8033 77.7396C23.709 77.7396 23.6001 77.7396 23.4768 77.7505C23.4804 77.707 23.4877 77.667 23.4877 77.6199C23.4877 77.58 23.4841 77.5473 23.4768 77.5074C23.6219 77.5183 23.7271 77.5256 23.796 77.5256C23.7924 77.3805 23.7851 77.1374 23.7743 76.898L24.1733 76.7021V76.7094Z" fill="white"/>
<path d="M26.3353 78.7227C26.0052 78.8497 25.3305 78.8134 25.3305 79.4228C25.3305 79.7783 25.5373 79.9561 25.7476 79.9561C25.9943 79.9561 26.2047 79.7711 26.3172 79.5643L26.3353 78.7264V78.7227ZM25.1455 77.7252C25.4357 77.4749 25.6642 77.4023 25.9218 77.4023C26.3824 77.4023 26.7017 77.7324 26.7017 78.2294C26.7017 78.6502 26.6835 79.0637 26.6835 79.5317C26.6835 79.7167 26.6835 79.9452 26.8721 79.9452C26.9012 79.9452 26.9411 79.9452 26.9737 79.9234V80.0467C26.9048 80.083 26.7887 80.1266 26.6654 80.1266C26.4586 80.1266 26.3534 79.9706 26.3317 79.7819C26.0995 80.0504 25.9036 80.1882 25.5772 80.1882C25.2507 80.1882 24.9387 79.927 24.9387 79.499C24.9387 79.0528 25.1963 78.8098 25.6171 78.7336C26.3135 78.603 26.3389 78.5595 26.3389 78.3419C26.3389 77.9682 26.1938 77.6381 25.8093 77.6381C25.5554 77.6381 25.316 77.7796 25.2035 78.019H25.1491V77.7288L25.1455 77.7252Z" fill="white"/>
<path d="M28.5662 77.4023C28.9181 77.4023 29.2191 77.5184 29.3425 77.649C29.2989 77.7615 29.259 77.8848 29.2373 78.019H29.201C29.1103 77.8268 28.889 77.5837 28.5843 77.5837C28.0003 77.5837 27.7645 78.1024 27.7645 78.7917C27.7645 79.557 28.062 79.9561 28.5988 79.9561C28.8528 79.9561 29.1538 79.7819 29.3207 79.557L29.3461 79.5752C29.3316 79.6659 29.3207 79.7602 29.3171 79.8509C29.1248 80.0286 28.8129 80.1918 28.5118 80.1918C27.9532 80.1918 27.3438 79.8001 27.3438 78.7989C27.3438 77.7977 27.9532 77.406 28.5698 77.406" fill="white"/>
<path d="M30.0352 78.5048C30.0352 78.1711 30.0243 77.7757 29.9953 77.4601C30.0679 77.4782 30.1404 77.4891 30.213 77.4891C30.2855 77.4891 30.3581 77.4782 30.427 77.4601C30.398 77.7793 30.3907 78.1711 30.3907 78.5048V79.0888C30.3907 79.4226 30.398 79.8179 30.427 80.1335C30.3544 80.1154 30.2819 80.1081 30.213 80.1081C30.1441 80.1081 30.0679 80.119 29.9953 80.1335C30.0243 79.8143 30.0352 79.4226 30.0352 79.0888V78.5048ZM30.213 76.1978C30.3472 76.1978 30.4596 76.3283 30.4596 76.4843C30.4596 76.6403 30.3508 76.7709 30.213 76.7709C30.0751 76.7709 29.9663 76.6403 29.9663 76.4843C29.9663 76.3283 30.0788 76.1978 30.213 76.1978Z" fill="white"/>
<path d="M32.6034 76.1433C32.6723 76.0634 32.7485 76.009 32.821 76.009C32.8827 76.009 32.9806 76.0707 32.9806 76.1868C32.9806 76.321 32.8827 76.3935 32.8065 76.4516L32.0991 76.9776H31.896L32.6034 76.1433ZM32.2225 80.0101C32.792 80.0101 32.9697 79.4225 32.9697 78.7985C32.9697 78.1746 32.792 77.5833 32.2225 77.5833C31.653 77.5833 31.4752 78.171 31.4752 78.7985C31.4752 79.4261 31.653 80.0101 32.2225 80.0101ZM32.2225 77.402C32.7811 77.402 33.3905 77.7756 33.3905 78.7949C33.3905 79.8142 32.7811 80.1879 32.2225 80.1879C31.6639 80.1879 31.0544 79.8106 31.0544 78.7949C31.0544 77.7792 31.6675 77.402 32.2225 77.402Z" fill="white"/>
<path d="M34.9722 77.6925C34.5261 77.6925 34.3229 78.0263 34.3229 78.6103V79.0855C34.3229 79.4228 34.3338 79.8146 34.3628 80.1338C34.2903 80.1157 34.2177 80.1048 34.1452 80.1048C34.0726 80.1048 34.0001 80.1157 33.9312 80.1338C33.9602 79.8146 33.9711 79.4228 33.9711 79.0855V78.5051C33.9711 78.1714 33.9602 77.7796 33.9312 77.4604C34.0037 77.4785 34.0762 77.4858 34.1452 77.4858C34.196 77.4858 34.2649 77.4749 34.3374 77.4604C34.3265 77.6091 34.3229 77.7578 34.3229 77.9066H34.3338C34.5115 77.5873 34.7582 77.4023 35.1028 77.4023C35.4474 77.4023 35.8718 77.6019 35.8718 78.3781C35.8718 78.6973 35.8537 79.0311 35.8537 79.4119C35.8537 79.6586 35.8537 79.8944 35.861 80.1338C35.7884 80.1157 35.7267 80.1048 35.6578 80.1048C35.5889 80.1048 35.5272 80.1157 35.4619 80.1338C35.4692 79.7239 35.4946 79.3176 35.4946 78.886V78.5414C35.4946 77.9936 35.2878 77.6925 34.9686 77.6925" fill="white"/>
<path d="M23.5238 66.4836L19.7585 69.4872H24.7499L23.5238 66.4836Z" fill="white"/>
<path d="M14.6512 69.4873H11.1072L17.5241 54.5567C17.5495 54.4987 17.6039 54.4624 17.6692 54.4624H21.9714C22.0367 54.4624 22.0911 54.4987 22.1165 54.5531L26.4222 64.1694L23.5239 66.4838L19.8457 58.2313L15.1191 69.1971C15.0393 69.3712 14.858 69.4945 14.6548 69.4945" fill="white"/>
<path d="M28.7222 69.3565L26.4224 64.1656L34.0219 58.0933L29.1284 69.3492C29.0958 69.429 29.016 69.4834 28.9253 69.4834C28.8346 69.4834 28.7584 69.429 28.7222 69.3529" fill="white"/>
<path d="M48.644 63.85V60.1646H49.1628L50.3453 62.0291C50.6174 62.4607 50.8314 62.8489 51.0055 63.2261H51.0164C50.9729 62.7292 50.962 62.2794 50.962 61.7062V60.1646H51.4118V63.85H50.9293L49.7577 61.9783C49.5001 61.5684 49.2535 61.1476 49.0685 60.7486H49.0539C49.083 61.2201 49.0938 61.6627 49.0938 62.2757V63.85H48.644Z" fill="white"/>
<path d="M52.7213 60.1646V63.85H52.2461V60.1646H52.7213Z" fill="white"/>
<path d="M54.3608 63.85L53.1565 60.1646H53.6716L54.2447 61.9783C54.4043 62.4752 54.5386 62.925 54.6365 63.3567H54.6474C54.7526 62.9287 54.9049 62.4644 55.0682 61.9855L55.6921 60.1646H56.1999L54.8832 63.85H54.3572H54.3608Z" fill="white"/>
<path d="M58.5106 62.1234H57.0777V63.451H58.6738V63.85H56.6025V60.1646H58.594V60.5636H57.0777V61.728H58.5106V62.1234Z" fill="white"/>
<path d="M59.2942 60.1646H59.7694V63.451H61.3437V63.85H59.2942V60.1646Z" fill="white"/>
<path d="M63.0342 60.2156C63.3244 60.1721 63.669 60.1394 64.0462 60.1394C64.7282 60.1394 65.2179 60.299 65.5407 60.6001C65.8672 60.9012 66.0595 61.3256 66.0595 61.9241C66.0595 62.5226 65.8745 63.016 65.5299 63.357C65.1853 63.7016 64.6157 63.8866 63.9011 63.8866C63.5638 63.8866 63.2772 63.8684 63.0378 63.843V60.2156H63.0342ZM63.5094 63.4767C63.6291 63.4984 63.8032 63.5057 63.9918 63.5057C65.0075 63.5057 65.5625 62.9362 65.5625 61.9422C65.5698 61.0717 65.0764 60.5203 64.068 60.5203C63.8213 60.5203 63.6363 60.5421 63.5094 60.5711V63.4803V63.4767Z" fill="white"/>
<path d="M68.5841 62.1234H67.1512V63.451H68.7473V63.85H66.676V60.1646H68.6675V60.5636H67.1512V61.728H68.5841V62.1234Z" fill="white"/>
<path d="M72.4329 62.1234H71.0001V63.451H72.5962V63.85H70.5249V60.1646H72.5164V60.5636H71.0001V61.728H72.4329V62.1234Z" fill="white"/>
<path d="M75.2331 63.85L74.7616 63.0339C74.5693 62.7219 74.4496 62.5188 74.3335 62.3084H74.3227C74.2175 62.5224 74.1159 62.7183 73.9236 63.0411L73.4811 63.85H72.9333L74.0615 61.9855L72.9769 60.1646H73.5283L74.0143 61.0279C74.1522 61.2673 74.2537 61.4559 74.3517 61.6518H74.3662C74.4714 61.4342 74.5621 61.2637 74.6999 61.0279L75.2041 60.1646H75.7519L74.631 61.9601L75.7809 63.8537H75.2295L75.2331 63.85Z" fill="white"/>
<path d="M78.7555 63.7305C78.5814 63.8175 78.2296 63.9046 77.7834 63.9046C76.7459 63.9046 75.9624 63.248 75.9624 62.0401C75.9624 60.8321 76.7459 60.103 77.8886 60.103C78.3493 60.103 78.6395 60.201 78.7628 60.2663L78.6467 60.6544C78.4653 60.5673 78.2078 60.502 77.9031 60.502C77.0397 60.502 76.4666 61.0534 76.4666 62.0219C76.4666 62.9252 76.9853 63.5019 77.8813 63.5019C78.1715 63.5019 78.4653 63.4403 78.6576 63.3496L78.7555 63.7268V63.7305Z" fill="white"/>
<path d="M81.262 62.1234H79.8292V63.451H81.4253V63.85H79.354V60.1646H81.3455V60.5636H79.8292V61.728H81.262V62.1234Z" fill="white"/>
<path d="M82.042 60.1646H82.5172V63.451H84.0915V63.85H82.042V60.1646Z" fill="white"/>
<path d="M86.5328 62.1234H85.1V63.451H86.696V63.85H84.6248V60.1646H86.6162V60.5636H85.1V61.728H86.5328V62.1234Z" fill="white"/>
<path d="M87.3125 63.85V60.1646H87.8312L89.0138 62.0291C89.2858 62.4607 89.4999 62.8489 89.674 63.2261H89.6849C89.6413 62.7292 89.6304 62.2794 89.6304 61.7062V60.1646H90.0802V63.85H89.5978L88.4261 61.9783C88.1686 61.5684 87.9219 61.1476 87.7369 60.7486H87.7224C87.7514 61.2201 87.7623 61.6627 87.7623 62.2757V63.85H87.3125Z" fill="white"/>
<path d="M93.4865 63.7305C93.3124 63.8175 92.9605 63.9046 92.5143 63.9046C91.4769 63.9046 90.6934 63.248 90.6934 62.0401C90.6934 60.8321 91.4769 60.103 92.6195 60.103C93.0802 60.103 93.3704 60.201 93.4937 60.2663L93.3777 60.6544C93.1963 60.5673 92.9387 60.502 92.634 60.502C91.7707 60.502 91.1976 61.0534 91.1976 62.0219C91.1976 62.9252 91.7163 63.5019 92.6123 63.5019C92.9025 63.5019 93.1963 63.4403 93.3886 63.3496L93.4865 63.7268V63.7305Z" fill="white"/>
<path d="M94.5602 60.1646V63.85H94.085V60.1646H94.5602Z" fill="white"/>
<path d="M95.9857 62.6929L95.6012 63.8537H95.1079L96.3594 60.1682H96.9325L98.1912 63.8537H97.6834L97.2916 62.6929H95.9857ZM97.1937 62.3229L96.8309 61.2637C96.7475 61.0243 96.6931 60.803 96.6387 60.5926H96.6278C96.5734 60.8103 96.5117 61.0352 96.4428 61.2601L96.0801 62.3265H97.1901L97.1937 62.3229Z" fill="white"/>
<path d="M50.5557 69.4945H49.1229V70.8221H50.719V71.2211H48.6477V67.5356H50.6392V67.9347H49.1229V69.0991H50.5557V69.4945Z" fill="white"/>
<path d="M51.3357 71.2248V67.5393H51.8544L53.037 69.4038C53.309 69.8355 53.523 70.2236 53.6972 70.6009H53.708C53.6645 70.1039 53.6536 69.6541 53.6536 69.081V67.5393H54.1034V71.2248H53.621L52.4493 69.353C52.1918 68.9431 51.9451 68.5223 51.7601 68.1233H51.7456C51.7746 68.5949 51.7855 69.0374 51.7855 69.6505V71.2248H51.3357Z" fill="white"/>
<path d="M56.5701 67.9419H55.4492V67.5356H58.1771V67.9419H57.0489V71.2248H56.5665V67.9419H56.5701Z" fill="white"/>
<path d="M61.5904 69.3423C61.5904 70.6119 60.8213 71.2829 59.8782 71.2829C58.9351 71.2829 58.2205 70.5284 58.2205 69.4112C58.2205 68.2395 58.9459 67.4741 59.9326 67.4741C60.9193 67.4741 61.5904 68.2468 61.5904 69.3386V69.3423ZM58.7319 69.4039C58.7319 70.1911 59.16 70.8984 59.9072 70.8984C60.6545 70.8984 61.0898 70.202 61.0898 69.3676C61.0898 68.6349 60.7053 67.8695 59.9145 67.8695C59.1237 67.8695 58.7319 68.5986 58.7319 69.4075V69.4039Z" fill="white"/>
<path d="M62.207 67.5864C62.4972 67.5429 62.8418 67.5103 63.2191 67.5103C63.901 67.5103 64.3907 67.6699 64.7136 67.9709C65.0401 68.272 65.2323 68.6964 65.2323 69.295C65.2323 69.8935 65.0473 70.3868 64.7027 70.7278C64.3581 71.0724 63.7886 71.2574 63.074 71.2574C62.7366 71.2574 62.4501 71.2393 62.2107 71.2139V67.5864H62.207ZM62.6822 70.8475C62.8019 70.8693 62.976 70.8765 63.1647 70.8765C64.1804 70.8765 64.7354 70.307 64.7354 69.3131C64.7426 68.4425 64.2493 67.8911 63.2408 67.8911C62.9942 67.8911 62.8092 67.9129 62.6822 67.9419V70.8511V70.8475Z" fill="white"/>
<path d="M66.3678 70.064L65.9833 71.2248H65.49L66.7415 67.5393H67.3146L68.5733 71.2248H68.0655L67.6701 70.064H66.3642H66.3678ZM67.5758 69.6904L67.213 68.6312C67.1296 68.3918 67.0752 68.1705 67.0208 67.9601H67.0099C66.9555 68.1777 66.8938 68.4026 66.8249 68.6275L66.4621 69.694H67.5721L67.5758 69.6904Z" fill="white"/>
<path d="M69.0557 70.6443C69.2698 70.7749 69.5817 70.8837 69.9082 70.8837C70.3943 70.8837 70.6808 70.6262 70.6808 70.2562C70.6808 69.9115 70.485 69.7157 69.9844 69.5234C69.3822 69.3094 69.0122 68.9974 69.0122 68.4787C69.0122 67.9056 69.4874 67.4775 70.2056 67.4775C70.5829 67.4775 70.855 67.5646 71.0218 67.6589L70.8912 68.047C70.7715 67.9818 70.5249 67.8729 70.1911 67.8729C69.6869 67.8729 69.4947 68.174 69.4947 68.4243C69.4947 68.7689 69.7196 68.9394 70.2274 69.1353C70.8513 69.3747 71.1669 69.6758 71.1669 70.2163C71.1669 70.7858 70.7461 71.2755 69.8755 71.2755C69.5201 71.2755 69.1319 71.1703 68.936 71.0397L69.0557 70.6407V70.6443Z" fill="white"/>
<path d="M72.9768 67.5393H73.452V70.8258H75.0263V71.2248H72.9768V67.5393Z" fill="white"/>
<path d="M76.1547 70.064L75.7702 71.2248H75.2769L76.5283 67.5393H77.1015L78.3602 71.2248H77.8523L77.4569 70.064H76.1511H76.1547ZM77.3626 69.6904L76.9999 68.6312C76.9165 68.3918 76.862 68.1705 76.8076 67.9601H76.7968C76.7423 68.1777 76.6807 68.4026 76.6118 68.6275L76.249 69.694H77.359L77.3626 69.6904Z" fill="white"/>
<path d="M78.8389 70.6443C79.053 70.7749 79.3649 70.8837 79.6914 70.8837C80.1775 70.8837 80.464 70.6262 80.464 70.2562C80.464 69.9115 80.2682 69.7157 79.7676 69.5234C79.1654 69.3094 78.7954 68.9974 78.7954 68.4787C78.7954 67.9056 79.2706 67.4775 79.9888 67.4775C80.3661 67.4775 80.6382 67.5646 80.805 67.6589L80.6744 68.047C80.5547 67.9818 80.3081 67.8729 79.9743 67.8729C79.4701 67.8729 79.2779 68.174 79.2779 68.4243C79.2779 68.7689 79.5028 68.9394 80.0106 69.1353C80.6345 69.3747 80.9501 69.6758 80.9501 70.2163C80.9501 70.7858 80.5293 71.2755 79.6588 71.2755C79.3033 71.2755 78.9151 71.1703 78.7192 71.0397L78.8389 70.6407V70.6443Z" fill="white"/>
<path d="M83.3551 70.064L82.9706 71.2248H82.4773L83.7288 67.5393H84.3019L85.5606 71.2248H85.0528L84.6574 70.064H83.3515H83.3551ZM84.5631 69.6904L84.2003 68.6312C84.1169 68.3918 84.0625 68.1705 84.0081 67.9601H83.9972C83.9428 68.1778 83.8811 68.4027 83.8122 68.6276L83.4495 69.694H84.5594L84.5631 69.6904ZM84.8243 66.6978L84.1278 67.3362H83.736L84.2439 66.6978H84.8243Z" fill="white"/>
<path d="M86.1047 67.5864C86.3441 67.5356 86.6887 67.5103 87.0188 67.5103C87.5266 67.5103 87.8567 67.6046 88.0853 67.8113C88.2702 67.9746 88.3754 68.2285 88.3754 68.5114C88.3754 68.9975 88.0707 69.3204 87.679 69.4509V69.4691C87.9619 69.567 88.1324 69.8282 88.2195 70.2127C88.3392 70.7278 88.4262 71.0833 88.5024 71.2248H88.0091C87.9474 71.1196 87.8676 70.804 87.7624 70.3433C87.6536 69.8354 87.4577 69.6432 87.0224 69.6251H86.5726V71.2211H86.0974V67.5828L86.1047 67.5864ZM86.5799 69.2659H87.0659C87.5738 69.2659 87.8966 68.9866 87.8966 68.5658C87.8966 68.0906 87.552 67.8839 87.0478 67.8766C86.8193 67.8766 86.6524 67.8984 86.5762 67.9202V69.2659H86.5799Z" fill="white"/>
<path d="M90.9581 69.4945H89.5252V70.8221H91.1213V71.2211H89.05V67.5356H91.0415V67.9347H89.5252V69.0991H90.9581V69.4945Z" fill="white"/>
<path d="M92.3329 70.064L91.9484 71.2248H91.4551L92.7066 67.5393H93.2797L94.5384 71.2248H94.0306L93.6352 70.064H92.3293H92.3329ZM93.5409 69.6904L93.1781 68.6312C93.0947 68.3918 93.0403 68.1705 92.9859 67.9601H92.975C92.9206 68.1777 92.8589 68.4026 92.79 68.6275L92.4272 69.694H93.5372L93.5409 69.6904Z" fill="white"/>
<path d="M95.0208 70.6443C95.2349 70.7749 95.5468 70.8837 95.8733 70.8837C96.3594 70.8837 96.6459 70.6262 96.6459 70.2562C96.6459 69.9115 96.45 69.7157 95.9495 69.5234C95.3473 69.3094 94.9773 68.9974 94.9773 68.4787C94.9773 67.9056 95.4525 67.4775 96.1707 67.4775C96.548 67.4775 96.82 67.5646 96.9869 67.6589L96.8563 68.047C96.7366 67.9818 96.4899 67.8729 96.1562 67.8729C95.652 67.8729 95.4598 68.174 95.4598 68.4243C95.4598 68.7689 95.6847 68.9394 96.1925 69.1353C96.8164 69.3747 97.132 69.6758 97.132 70.2163C97.132 70.7858 96.7112 71.2755 95.8406 71.2755C95.4851 71.2755 95.097 71.1703 94.9011 71.0397L95.0208 70.6407V70.6443Z" fill="white"/>
<path d="M49.1229 74.9102V76.4518H50.9076V74.9102H51.3901V78.5956H50.9076V76.869H49.1229V78.5956H48.6477V74.9102H49.1229Z" fill="white"/>
<path d="M52.8083 77.4385L52.4238 78.5993H51.9304L53.1819 74.9138H53.755L55.0137 78.5993H54.5059L54.1141 77.4385H52.8083ZM54.0162 77.0649L53.6535 76.0057C53.57 75.7663 53.5156 75.545 53.4612 75.3346H53.4503C53.3959 75.5522 53.3342 75.7772 53.2653 76.0021L52.9026 77.0685H54.0126L54.0162 77.0649Z" fill="white"/>
<path d="M55.4928 78.0191C55.7068 78.1496 56.0187 78.2585 56.3452 78.2585C56.8313 78.2585 57.1179 78.0009 57.1179 77.6309C57.1179 77.2863 56.922 77.0904 56.4214 76.8982C55.8192 76.6842 55.4492 76.3722 55.4492 75.8535C55.4492 75.2803 55.9244 74.8523 56.6427 74.8523C57.0199 74.8523 57.292 74.9394 57.4588 75.0337L57.3282 75.4218C57.2085 75.3565 56.9619 75.2477 56.6281 75.2477C56.1239 75.2477 55.9317 75.5488 55.9317 75.7991C55.9317 76.1437 56.1566 76.3142 56.6644 76.51C57.2883 76.7494 57.6039 77.0505 57.6039 77.591C57.6039 78.1605 57.1831 78.6502 56.3126 78.6502C55.9571 78.6502 55.5689 78.545 55.373 78.4144L55.4928 78.0154V78.0191Z" fill="white"/>
<path d="M58.9532 75.3164H57.8323V74.9102H60.5601V75.3164H59.432V78.5993H58.9495V75.3164H58.9532Z" fill="white"/>
<path d="M61.1586 77.4385L60.7741 78.5993H60.2808L61.5322 74.9138H62.1054L63.3641 78.5993H62.8562L62.4609 77.4385H61.155H61.1586ZM62.3665 77.0649L62.0038 76.0057C61.9204 75.7663 61.866 75.545 61.8115 75.3346H61.8007C61.7463 75.5522 61.6846 75.7772 61.6157 76.0021L61.2529 77.0685H62.3629L62.3665 77.0649Z" fill="white"/>
<path d="M65.0691 74.9102H67.0533V75.3092H65.5443V76.5353H66.9372V76.9306H65.5443V78.5993H65.0691V74.9138V74.9102Z" fill="white"/>
<path d="M69.6397 76.869H68.2069V78.1966H69.803V78.5956H67.7317V74.9102H69.7232V75.3092H68.2069V76.4736H69.6397V76.869Z" fill="white"/>
<path d="M70.4231 74.9612C70.6299 74.9177 70.96 74.885 71.2937 74.885C71.7689 74.885 72.0772 74.9684 72.3057 75.1534C72.498 75.2949 72.6104 75.5162 72.6104 75.8028C72.6104 76.1582 72.3747 76.4702 71.9865 76.6117V76.6226C72.3348 76.7096 72.7483 76.9998 72.7483 77.5476C72.7483 77.8631 72.6213 78.1062 72.4363 78.2876C72.1788 78.5233 71.7652 78.6322 71.1631 78.6322C70.8366 78.6322 70.5827 78.6104 70.4231 78.5886V74.9612ZM70.8983 76.4702H71.33C71.8342 76.4702 72.128 76.209 72.128 75.8535C72.128 75.4219 71.7979 75.2514 71.3191 75.2514C71.1014 75.2514 70.9745 75.2695 70.8983 75.284V76.4702ZM70.8983 78.2368C70.9926 78.2513 71.1268 78.2585 71.2973 78.2585C71.7906 78.2585 72.2441 78.0772 72.2441 77.5439C72.2441 77.0397 71.8124 76.8329 71.2937 76.8329H70.8983V78.2368Z" fill="white"/>
<path d="M73.3869 74.9612C73.6263 74.9104 73.9709 74.885 74.301 74.885C74.8089 74.885 75.139 74.9793 75.3675 75.1861C75.5525 75.3493 75.6577 75.6032 75.6577 75.8862C75.6577 76.3723 75.353 76.6951 74.9612 76.8257V76.8438C75.2441 76.9418 75.4146 77.2029 75.5017 77.5875C75.6214 78.1026 75.7085 78.458 75.7846 78.5995H75.2913C75.2296 78.4943 75.1498 78.1787 75.0446 77.718C74.9358 77.2102 74.7399 77.0179 74.3046 76.9998H73.8548V78.5959H73.3796V74.9576L73.3869 74.9612ZM73.8621 76.6407H74.3482C74.856 76.6407 75.1789 76.3614 75.1789 75.9406C75.1789 75.4654 74.8342 75.2586 74.33 75.2514C74.1015 75.2514 73.9346 75.2731 73.8585 75.2949V76.6407H73.8621Z" fill="white"/>
<path d="M78.2366 76.869H76.8038V78.1966H78.3999V78.5956H76.3286V74.9102H78.3201V75.3092H76.8038V76.4736H78.2366V76.869Z" fill="white"/>
<path d="M79.0165 74.9612C79.2559 74.9104 79.6006 74.885 79.9307 74.885C80.4385 74.885 80.7686 74.9793 80.9971 75.1861C81.1821 75.3493 81.2873 75.6032 81.2873 75.8862C81.2873 76.3723 80.9826 76.6951 80.5908 76.8257V76.8438C80.8738 76.9418 81.0443 77.2029 81.1313 77.5875C81.251 78.1026 81.3381 78.458 81.4143 78.5995H80.9209C80.8593 78.4943 80.7795 78.1787 80.6743 77.718C80.5654 77.2102 80.3696 77.0179 79.9343 76.9998H79.4845V78.5959H79.0093V74.9576L79.0165 74.9612ZM79.4917 76.6407H79.9778C80.4856 76.6407 80.8085 76.3614 80.8085 75.9406C80.8085 75.4654 80.4639 75.2586 79.9597 75.2514C79.7311 75.2514 79.5643 75.2731 79.4881 75.2949V76.6407H79.4917Z" fill="white"/>
<path d="M85.1253 76.7168C85.1253 77.9864 84.3562 78.6574 83.4131 78.6574C82.47 78.6574 81.7554 77.9029 81.7554 76.7857C81.7554 75.614 82.4809 74.8486 83.4675 74.8486C84.4542 74.8486 85.1253 75.6213 85.1253 76.7131V76.7168ZM82.2668 76.7784C82.2668 77.5656 82.6949 78.2729 83.4421 78.2729C84.1894 78.2729 84.6247 77.5765 84.6247 76.7422C84.6247 76.0094 84.2402 75.244 83.4494 75.244C82.6586 75.244 82.2668 75.9731 82.2668 76.7821V76.7784Z" fill="white"/>
<path d="M86.9028 74.9612C87.193 74.9177 87.5376 74.885 87.9149 74.885C88.5968 74.885 89.0865 75.0446 89.4094 75.3457C89.7359 75.6468 89.9281 76.0712 89.9281 76.6697C89.9281 77.2682 89.7431 77.7616 89.3985 78.1026C89.0539 78.4472 88.4844 78.6322 87.7698 78.6322C87.4324 78.6322 87.1459 78.614 86.9065 78.5886V74.9612H86.9028ZM87.378 78.2223C87.4977 78.244 87.6718 78.2513 87.8605 78.2513C88.8762 78.2513 89.4312 77.6818 89.4312 76.6878C89.4384 75.8173 88.9451 75.2659 87.9367 75.2659C87.69 75.2659 87.505 75.2877 87.378 75.3167V78.2259V78.2223Z" fill="white"/>
<path d="M92.4527 76.869H91.0199V78.1966H92.616V78.5956H90.5447V74.9102H92.5361V75.3092H91.0199V76.4736H92.4527V76.869Z" fill="white"/>
<path d="M94.2265 78.5958V78.302L94.6038 77.9356C95.5106 77.0723 95.9205 76.6116 95.9278 76.0748C95.9278 75.712 95.7537 75.3819 95.2204 75.3819C94.8976 75.3819 94.6292 75.5452 94.4659 75.683L94.3136 75.3457C94.5603 75.1389 94.9085 74.9829 95.3184 74.9829C96.0838 74.9829 96.4066 75.5089 96.4066 76.0167C96.4066 76.6733 95.9314 77.2029 95.1806 77.9248L94.8976 78.1859V78.1968H96.4937V78.5958H94.2229H94.2265Z" fill="white"/>
<path d="M99.392 76.7821C99.392 77.99 98.9422 78.6575 98.155 78.6575C97.4586 78.6575 96.9906 78.0082 96.9797 76.8292C96.9797 75.6358 97.4948 74.9792 98.2167 74.9792C98.9386 74.9792 99.392 75.6467 99.392 76.7785V76.7821ZM97.4622 76.8365C97.4622 77.7615 97.7451 78.2875 98.1841 78.2875C98.6774 78.2875 98.9095 77.7143 98.9095 76.8075C98.9095 75.9006 98.6846 75.3565 98.1877 75.3565C97.7669 75.3565 97.4622 75.8716 97.4622 76.8365Z" fill="white"/>
<path d="M99.8381 78.5958V78.302L100.215 77.9356C101.122 77.0723 101.532 76.6116 101.539 76.0748C101.539 75.712 101.365 75.3819 100.832 75.3819C100.509 75.3819 100.241 75.5452 100.078 75.683L99.9252 75.3457C100.172 75.1389 100.52 74.9829 100.93 74.9829C101.695 74.9829 102.018 75.5089 102.018 76.0167C102.018 76.6733 101.543 77.2029 100.792 77.9248L100.509 78.1859V78.1968H102.105V78.5958H99.8345H99.8381Z" fill="white"/>
<path d="M102.599 77.6962C102.599 77.2464 102.867 76.9308 103.306 76.7458L103.299 76.7277C102.907 76.5427 102.736 76.2344 102.736 75.9297C102.736 75.3674 103.212 74.9829 103.836 74.9829C104.525 74.9829 104.869 75.4146 104.869 75.8571C104.869 76.1582 104.721 76.481 104.285 76.6878V76.7059C104.728 76.8801 105 77.192 105 77.6237C105 78.2404 104.47 78.6575 103.792 78.6575C103.048 78.6575 102.599 78.215 102.599 77.6962ZM104.514 77.6745C104.514 77.2428 104.213 77.036 103.73 76.8982C103.313 77.0179 103.092 77.29 103.092 77.6309C103.074 77.9901 103.35 78.3093 103.803 78.3093C104.256 78.3093 104.514 78.0408 104.514 77.6745ZM103.19 75.897C103.19 76.2525 103.458 76.4448 103.868 76.5536C104.173 76.4484 104.409 76.2307 104.409 75.9079C104.409 75.625 104.238 75.3275 103.807 75.3275C103.408 75.3275 103.19 75.5887 103.19 75.897Z" fill="white"/>
</svg>
